<svg width="684" height="498" viewBox="0 0 684 498" fill="none" xmlns="http://www.w3.org/2000/svg">
<path d="M2.27114 38.9769C3.28471 46.5427 6.73085 53.2978 11.8663 58.4316L13.6907 93.1529H62.68L64.4368 58.3641C69.5047 53.2302 72.9508 46.5427 73.9644 39.0445L74.978 31.6139H70.9913V28.3714H5.37942V31.5463H1.32513L2.27114 38.9769ZM62.68 41.1386H17.272V43.7055H62.5448L61.8691 57.1482C57.6121 61.1337 52.274 63.9708 46.2601 65.1192C40.7868 66.1324 35.3136 66.1324 29.8403 65.1192C23.894 63.9708 18.5559 61.2012 14.2989 57.2157L13.2177 37.2206H62.8827L62.68 41.1386ZM60.2474 90.5859H16.1233L15.853 85.3845H56.8689V82.8176H15.7178L14.5691 60.8635C18.7586 64.241 23.8264 66.6729 29.4349 67.6861C32.3404 68.2265 35.246 68.4967 38.084 68.4967C40.922 68.4967 43.8951 68.2265 46.7331 67.6861C52.3416 66.6053 57.477 64.1735 61.6664 60.7959L60.2474 90.5859ZM72.0048 34.1133L71.3967 38.6392C70.5859 44.5161 68.2209 49.8527 64.6396 54.2435L65.4504 37.2206H70.9237V34.0457H72.0048V34.1133ZM7.87957 30.9384H68.356V34.6537H65.5856H10.5824H7.87957V30.9384ZM5.31185 34.1133V37.2882H10.7176L11.596 54.3786C8.01471 49.9878 5.58214 44.5837 4.77128 38.7067L4.16314 34.1808H5.31185V34.1133Z" fill="white"/>
<path d="M199.715 440.298L228.5 463.468L196.269 488.394H215.797L237.622 470.831L259.448 488.394H278.976L246.812 463.4L275.598 440.23C276.408 440.162 277.287 440.027 278.098 439.96L284.855 439.082V432.124C284.855 430.3 284.112 428.611 282.693 427.395C281.341 426.179 279.517 425.639 277.76 425.842C251.137 429.152 224.108 429.152 197.485 425.842C195.661 425.639 193.904 426.179 192.552 427.395C191.201 428.611 190.39 430.3 190.39 432.124V439.082L197.147 439.96C198.026 440.095 198.836 440.162 199.715 440.298ZM214.513 441.649L235.528 457.928L230.527 461.779L204.377 440.77C207.823 441.108 211.202 441.446 214.513 441.649ZM219.108 441.986C225.257 442.324 231.473 442.527 237.69 442.527C243.907 442.527 250.056 442.324 256.272 441.986L237.69 456.375L219.108 441.986ZM214.918 485.759H203.837L233.23 462.995C233.23 463.13 233.23 463.265 233.23 463.4C233.23 465.697 234.92 467.588 237.149 467.926L235.663 469.142L214.918 485.759ZM237.758 465.427C236.676 465.427 235.798 464.548 235.798 463.468C235.798 462.387 236.676 461.509 237.758 461.509C238.839 461.509 239.717 462.387 239.717 463.468C239.717 464.548 238.839 465.427 237.758 465.427ZM271.543 485.759H260.462L239.785 469.142L244.853 465.089L271.543 485.759ZM244.717 461.779L242.217 463.805C242.217 463.67 242.217 463.535 242.217 463.468C242.217 461.238 240.596 459.347 238.433 459.009L260.799 441.716C264.178 441.446 267.489 441.176 270.868 440.838L244.717 461.779ZM193.025 432.191C193.025 431.111 193.498 430.097 194.309 429.422C195.12 428.746 196.201 428.409 197.215 428.544C224.041 431.921 251.272 431.921 278.165 428.544C279.246 428.409 280.26 428.746 281.071 429.422C281.882 430.097 282.355 431.178 282.355 432.191V436.852L279.246 437.258L259.989 439.082L259.921 439.149C245.123 440.162 230.325 440.162 215.527 439.149L215.459 439.082L196.201 437.258L193.093 436.852V432.191H193.025Z" fill="white"/>
<path d="M437.296 109.095V120.241H439.864V109.095C444.526 107.947 448.986 100.516 452.973 86.8706C456.351 75.3869 458.513 62.6198 458.513 57.3508C458.513 47.6235 451.486 39.4498 442.161 37.761L443.648 5.33653C443.715 3.91796 443.242 2.56694 442.229 1.55368C441.283 0.54041 439.931 0 438.512 0C437.093 0 435.809 0.54041 434.863 1.55368C433.917 2.56694 433.377 3.91796 433.444 5.26898L434.796 37.761C425.606 39.5173 418.646 47.6235 418.646 57.2833C418.646 62.5522 420.741 75.3194 424.187 86.8031C428.241 100.448 432.634 107.879 437.296 109.095ZM438.58 106.663C435.742 106.663 432.498 102.137 429.39 94.1661H447.77C444.729 102.137 441.418 106.663 438.58 106.663ZM450.54 86.1275C449.932 88.0865 449.391 89.9104 448.783 91.5992H428.444C427.836 89.9104 427.228 88.0865 426.687 86.1275C424.39 78.4267 422.701 70.118 421.89 64.0384H455.405C454.527 70.1855 452.837 78.4267 450.54 86.1275ZM436.08 5.20143C436.08 4.52592 436.282 3.85041 436.755 3.37755C437.228 2.90469 437.904 2.63449 438.58 2.63449C439.256 2.63449 439.931 2.90469 440.404 3.4451C440.877 3.91796 441.148 4.59347 441.08 5.26898L439.593 37.4908C439.256 37.4908 438.918 37.4908 438.58 37.4908C438.174 37.4908 437.769 37.4908 437.364 37.5584L436.08 5.20143ZM435.269 40.328H441.891C449.864 41.8816 455.878 48.9069 455.878 57.3508C455.878 58.4316 455.811 59.8502 455.608 61.4714H421.484C421.282 59.7826 421.214 58.3641 421.214 57.3508C421.282 48.9069 427.295 41.8816 435.269 40.328Z" fill="white"/>
<path d="M605.954 95.8549C606.968 96.4629 608.117 96.8006 609.333 96.9357L609.671 100.786L615.887 99.9755L615.549 97.4086L611.968 97.8814L611.901 96.7331C615.685 95.9225 618.523 92.5449 618.523 88.4918C618.523 84.2361 615.347 80.7235 611.292 80.1831C616.968 63.2278 623.523 49.042 630.821 38.0312C640.416 23.5078 651.16 14.8612 662.714 12.2267C663.255 12.0916 663.728 11.7539 663.998 11.281C664.404 10.4704 664.268 9.3896 664.066 8.51143C666.498 8.78164 670.958 9.7949 672.445 13.24C673.864 16.4825 672.985 23.0349 660.957 35.8696C656.295 40.8684 653.187 46.948 651.835 53.4329C650.754 59.0396 651.43 62.9576 653.862 65.0516C655.214 66.2 657.038 66.7404 659.336 66.7404C661.701 66.7404 664.539 66.1324 667.85 64.9841L667.377 63.7006C661.295 65.8622 657.038 65.9298 654.808 63.9708C652.781 62.2145 652.241 58.7694 653.254 53.6355C654.471 47.3533 657.511 41.5439 661.971 36.7478C672.039 26.0071 675.958 17.901 673.728 12.632C671.769 8.17367 666.093 7.22796 663.593 7.0253L663.322 6.34979H662.376C635.078 7.36306 614.333 45.7996 601.765 77.8863L590.21 112.27L599.197 115.58L605.954 95.8549ZM608.792 88.5594C608.792 87.8163 609.4 87.2084 610.144 87.2084C610.887 87.2084 611.495 87.8163 611.495 88.5594C611.495 89.3025 610.887 89.9104 610.144 89.9104C609.4 89.9104 608.792 89.3025 608.792 88.5594ZM616.022 88.5594C616.022 91.2614 614.198 93.4906 611.765 94.1661L611.563 92.2071C613.049 91.6667 614.13 90.1806 614.13 88.4918C614.13 86.3302 612.374 84.5739 610.211 84.5739C608.049 84.5739 606.292 86.3302 606.292 88.4918C606.292 90.2482 607.441 91.7343 609.063 92.2747L609.265 94.3012C607.846 94.031 606.63 93.3555 605.819 92.2747C605.819 92.2747 605.819 92.2747 605.819 92.2071C605.752 92.1396 605.752 92.072 605.684 92.072L605.616 92.0045C605.616 91.9369 605.549 91.9369 605.549 91.8694C605.549 91.8018 605.481 91.8018 605.481 91.7343L605.414 91.6667C605.346 91.5992 605.346 91.5316 605.279 91.4641V91.3965C605.211 91.329 605.211 91.2614 605.143 91.1939C604.738 90.3833 604.535 89.5051 604.535 88.5594C604.535 88.4918 604.535 88.3567 604.535 88.2892C604.535 88.2216 604.535 88.1541 604.535 88.0865V88.019C604.806 85.2494 607.035 83.0202 609.873 82.75H609.941C610.076 82.75 610.211 82.75 610.414 82.75C613.387 82.6825 616.022 85.3169 616.022 88.5594ZM661.566 8.98429C661.633 9.32204 661.701 9.59225 661.701 9.7949C635.348 16.1447 618.658 50.3255 609.198 78.4267L604.806 77.3459C612.103 59.0396 619.874 44.1108 628.118 32.7622C638.929 17.8335 650.214 9.7949 661.566 8.98429ZM603.86 79.8453L607.171 80.6559C604.468 81.6692 602.373 84.101 601.9 87.0057C601.9 87.1408 601.832 87.2084 601.832 87.3435V87.411C601.832 87.4786 601.832 87.6137 601.832 87.6812C601.832 87.7488 601.832 87.8163 601.832 87.8839C601.832 87.9514 601.832 88.019 601.832 88.0865C601.832 88.2216 601.832 88.3567 601.832 88.4918C601.832 88.6269 601.832 88.762 601.832 88.8972C601.832 88.9647 601.832 89.0322 601.832 89.0998C601.832 89.1673 601.832 89.2349 601.832 89.3025C601.832 89.37 601.832 89.5051 601.832 89.5727C601.832 89.6402 601.832 89.6402 601.832 89.7078C601.832 89.8429 601.832 89.9104 601.9 90.0455V90.1131C601.9 90.2482 601.968 90.3157 601.968 90.4508C602.17 91.3965 602.576 92.2072 603.049 93.0178C603.116 93.0853 603.184 93.1529 603.184 93.288C603.387 93.5582 603.589 93.8959 603.86 94.1661L600.211 104.772L596.021 103.353L603.86 79.8453ZM593.521 110.716L595.075 105.988L599.265 107.406L597.575 112.27L593.521 110.716Z" fill="white"/>
<path d="M253.029 226.566H219.648C217.351 226.566 215.459 228.458 215.459 230.754V239.603H203.229C199.174 239.603 195.863 242.913 195.863 246.967V259.936C194.309 260.274 193.093 261.693 193.093 263.381V291.415H279.652V263.381C279.652 261.693 278.503 260.274 276.881 259.936V246.967C276.881 242.913 273.57 239.603 269.516 239.603H257.286V230.754C257.218 228.39 255.326 226.566 253.029 226.566ZM218.229 230.687C218.229 229.944 218.838 229.268 219.648 229.268H253.029C253.772 229.268 254.448 229.876 254.448 230.687V239.536H251.61V231.97H221V239.536H218.162V230.687H218.229ZM248.839 239.536H223.838V234.74H248.839V239.536ZM195.863 288.578V284.998H258.097V282.228H195.863V263.381C195.863 262.976 196.201 262.638 196.607 262.638H215.932V269.258H224.649V262.638H248.028V269.258H256.745V262.638H276.071C276.476 262.638 276.814 262.976 276.814 263.381V282.228H262.759V284.998H276.814V288.578H195.863ZM218.702 259.801V258.72H221.878V259.801V262.571V266.421H218.702V262.571V259.801ZM250.799 259.801V258.72H253.975V259.801V262.571V266.421H250.799V262.571V259.801ZM269.449 242.306C272.016 242.306 274.043 244.4 274.043 246.899V259.801H256.745V255.951H248.028V259.801H224.581V255.951H215.864V259.801H198.566V246.899C198.566 244.332 200.661 242.306 203.161 242.306H215.391H223.77H248.772H257.151H269.449Z" fill="white"/>
<path d="M436.62 303.372C447.634 303.372 456.554 294.387 456.554 283.444V230.687C458.986 229.133 460.608 226.431 460.608 223.324C460.608 218.46 456.689 214.542 451.824 214.542C446.959 214.542 443.04 218.46 443.04 223.324C443.04 226.499 444.729 229.268 447.297 230.822V282.836C447.297 288.983 442.296 293.914 436.215 293.914C430.133 293.914 425.133 288.916 425.133 282.836V269.529L434.796 270.542L416.687 254.33V283.444C416.619 294.455 425.606 303.372 436.62 303.372ZM453.783 245.008L449.999 248.25V243.184L453.783 239.739V245.008ZM449.999 251.898L453.783 248.655V252.708L449.999 255.816V251.898ZM451.824 217.312C455.135 217.312 457.838 220.014 457.838 223.324C457.838 226.634 455.135 229.336 451.824 229.336C448.513 229.336 445.81 226.634 445.81 223.324C445.81 219.946 448.513 217.312 451.824 217.312ZM451.824 232.105C452.5 232.105 453.175 232.038 453.783 231.903V236.023L449.999 239.468V231.97C450.608 232.038 451.216 232.105 451.824 232.105ZM419.39 260.477L426.485 266.827L422.295 266.354V282.769C422.295 290.402 428.512 296.617 436.147 296.617C443.783 296.617 449.999 290.402 449.999 282.769V259.396L453.783 256.289V283.377C453.783 292.834 446.08 300.535 436.62 300.535C427.16 300.535 419.457 292.834 419.457 283.377V260.477H419.39Z" fill="white"/>
<path d="M451.824 227.647C454.256 227.647 456.216 225.688 456.216 223.256C456.216 220.824 454.256 218.865 451.824 218.865C449.391 218.865 447.432 220.824 447.432 223.256C447.432 225.688 449.391 227.647 451.824 227.647ZM451.824 221.702C452.702 221.702 453.446 222.446 453.446 223.324C453.446 224.202 452.702 224.945 451.824 224.945C450.945 224.945 450.202 224.202 450.202 223.324C450.202 222.446 450.945 221.702 451.824 221.702Z" fill="white"/>
<path d="M677.831 273.814L679.79 275.773L680.669 274.895V279.218C680.669 281.312 678.979 282.933 676.952 282.933C674.858 282.933 673.236 281.245 673.236 279.218V255.238C673.236 255.17 673.236 255.17 673.236 255.102C673.236 252.198 671.682 250.171 668.506 248.888C665.871 247.807 662.154 247.199 657.424 246.456C647.221 244.835 631.747 242.335 614.449 232.203L614.111 232H613.705C603.84 232 594.515 234.027 587.488 237.809C580.19 241.66 576.203 246.929 576.203 252.603V276.584C576.203 278.678 574.514 280.299 572.487 280.299C570.392 280.299 568.77 278.61 568.77 276.584V272.26L569.649 273.139L571.608 271.18L566 265.573V276.584C566 280.164 568.906 283.069 572.487 283.069C576.068 283.069 578.974 280.164 578.974 276.584V260.507C580.866 263.073 583.771 265.438 587.488 267.397C594.515 271.112 603.84 273.206 613.705 273.206C624.787 273.206 639.247 271.45 650.599 268.815C660.397 266.519 667.019 263.749 670.465 260.574V279.218C670.465 281.312 668.776 282.933 666.749 282.933C664.654 282.933 663.033 281.245 663.033 279.218V274.895L663.911 275.773L665.871 273.814L660.262 268.207V279.218C660.262 282.798 663.168 285.703 666.749 285.703C668.844 285.703 670.668 284.69 671.884 283.204C673.101 284.757 674.925 285.703 677.02 285.703C680.601 285.703 683.507 282.798 683.507 279.218V268.207L677.831 273.814ZM613.638 270.437C604.178 270.437 595.394 268.478 588.772 264.965C586.474 263.749 584.582 262.398 583.028 260.979C588.299 259.156 598.096 256.589 602.218 259.156C607.489 262.398 637.423 265.032 650.464 266.046C650.262 266.113 650.059 266.113 649.924 266.181C638.91 268.68 624.382 270.437 613.638 270.437ZM656.208 264.424L656.275 263.614C643.302 262.736 608.57 259.763 603.637 256.724C600.732 254.9 595.799 254.765 589.109 256.318C585.596 257.129 582.555 258.142 581.068 258.683C579.649 256.724 578.906 254.697 578.906 252.603C578.906 248.01 582.42 243.619 588.772 240.241C595.326 236.796 603.975 234.837 613.3 234.77C630.936 244.97 646.545 247.469 656.884 249.158C666.276 250.644 670.398 251.455 670.398 255.102C670.398 258.277 665.195 261.655 656.208 264.424Z" fill="white"/>
<path d="M603.744 240C600.568 240 598 242.567 598 245.742C598 248.917 600.568 251.484 603.744 251.484C606.919 251.484 609.487 248.917 609.487 245.742C609.487 242.567 606.919 240 603.744 240ZM603.744 248.714C602.122 248.714 600.77 247.363 600.77 245.742C600.77 244.121 602.122 242.77 603.744 242.77C605.365 242.77 606.717 244.121 606.717 245.742C606.649 247.363 605.365 248.714 603.744 248.714Z" fill="white"/>
<path d="M47.9494 246.696C53.22 246.561 58.0851 244.4 61.734 240.617C65.3828 236.834 67.41 231.903 67.41 226.701C67.41 221.5 65.4504 216.569 61.8016 212.786C58.1527 209.07 53.3551 206.841 48.0846 206.706L17.745 205.625V202.383H10.8527V268.38H8.758V309.992C8.758 313.031 11.2581 315.531 14.2989 315.531C17.3396 315.531 19.8397 313.031 19.8397 309.992V268.38H17.745V247.507L47.9494 246.696ZM33.0837 208.935L43.1518 209.273L44.7736 211.029L38.557 217.514L32.2053 209.881L33.0837 208.935ZM36.5974 238.388L45.179 229.876L50.2468 235.956L41.8004 244.062L39.7733 244.129L40.7868 243.319L36.5974 238.388ZM37.8137 244.197L30.5836 244.4L34.6379 240.347L37.8137 244.197ZM34.8406 236.226L29.9754 230.349L38.4218 221.635L43.4221 227.647L34.8406 236.226ZM47.1386 227.917L53.8957 221.162L59.3014 227.174L52.1389 234.064L47.1386 227.917ZM45.3817 225.756L40.3814 219.676L46.7331 213.123L52.1389 219.068L45.3817 225.756ZM48.6251 211.097L50.0441 209.611C53.0849 210.084 55.7877 211.3 58.0851 213.056L54.0309 217.041L48.6251 211.097ZM36.5974 219.541L28.151 228.255L22.002 220.824L30.3133 211.908L36.5974 219.541ZM26.259 230.214L17.8126 238.928V225.35L20.1776 222.783L26.259 230.214ZM17.8126 221.365V220.081L18.3531 220.757L17.8126 221.365ZM17.8126 242.981L28.0834 232.376L32.881 238.185L26.5969 244.467L17.8126 244.737V242.981V242.981ZM47.8818 243.927L45.8547 243.994L51.9361 238.117L55.1796 242.103C53.0173 243.184 50.5171 243.859 47.8818 243.927ZM57.6121 240.549L53.9633 236.158L61.1934 229.201L63.7611 232.038C62.68 235.483 60.5177 238.455 57.6121 240.549ZM64.6396 226.701C64.6396 227.377 64.572 228.052 64.5044 228.728L63.2206 227.309L64.6396 225.958C64.6396 226.161 64.6396 226.431 64.6396 226.701ZM64.1666 222.513L61.3961 225.215L55.9229 219.203L60.1123 215.015C62.0043 217.109 63.4233 219.676 64.1666 222.513ZM27.678 208.733L28.5564 209.746L20.2451 218.663L17.745 215.69V208.327L27.678 208.733ZM17.0693 309.992C17.0693 311.545 15.853 312.761 14.2989 312.761C12.7447 312.761 11.5284 311.545 11.5284 309.992V271.15H17.0693V309.992ZM15.0421 268.38H13.6231V205.152H15.0421V205.49V247.575V268.38Z" fill="white"/>
<path d="M36.3534 420.686H39.4617L39.6644 459.798C39.6644 460.406 39.4617 460.947 39.0563 461.352C38.6509 461.757 38.1103 462.028 37.5021 462.028H23.9203C10.7439 462.028 0 472.768 0 485.941V488.508V497.289H41.3537V491.277H46.6243L49.7326 497.289H73.315V489.926L73.8556 477.767V477.699V477.632C73.788 476.754 73.788 475.876 73.7204 474.997C73.5853 471.552 73.4501 467.972 72.6393 464.459L71.423 459.19V420.619H74.5313L75.4097 409H35.6101L36.3534 420.686ZM38.5157 494.52H2.77043V491.277H38.5157V494.52ZM41.2861 488.508H2.77043V485.941C2.77043 474.254 12.298 464.797 23.9203 464.797H37.5021C38.8536 464.797 40.0699 464.257 41.0159 463.311C41.9619 462.365 42.5024 461.082 42.4349 459.798L42.2321 420.889H68.5174V459.596L69.8013 465.135C70.5446 468.377 70.6797 471.687 70.8149 475.132C70.8149 476.011 70.8824 476.889 70.8824 477.699L70.4094 488.508H45.0026H41.2861V488.508ZM70.4094 494.52H51.2867L49.5974 491.277H70.3418V494.52H70.4094ZM72.3014 411.837L71.8284 417.917H38.9211L38.4481 411.837H72.3014Z" fill="white"/>
<path d="M476.217 444.621C472.163 429.76 458.513 418.816 442.364 418.816H434.863C425.471 418.816 416.687 422.464 409.997 429.084C405.605 433.475 402.497 438.811 400.943 444.621C392.631 446.782 388.442 449.62 388.442 452.93C388.442 456.24 392.496 458.942 400.47 461.103C401.078 462.995 402.835 468.129 405.74 473.87C410.673 483.53 416.416 489.812 422.701 492.514C425.066 493.528 427.498 494.068 429.931 494.068C432.634 494.068 435.336 493.46 438.107 492.244L439.256 494.473L441.756 493.19L437.904 485.692L435.404 486.975L436.891 489.948C432.363 491.907 427.971 491.974 423.849 490.15C412.7 485.287 405.875 468.264 403.713 461.981C403.781 461.981 403.781 461.981 403.848 461.981C413.173 464.076 425.539 465.156 438.647 465.156C451.756 465.156 464.122 464.008 473.447 461.981C473.785 461.914 474.055 461.846 474.325 461.779C474.595 469.007 473.109 474.208 469.73 478.059C466.419 481.909 461.284 484.408 455.743 486.773L454.594 484.003L452.027 485.084L455.202 492.717L457.77 491.636L456.824 489.34C469.595 483.868 477.906 478.464 477.096 461.036C484.866 458.874 488.785 456.172 488.785 452.93C488.785 449.62 484.528 446.85 476.217 444.621ZM471.622 440.162C452.905 443.27 433.985 443.675 415.268 441.513V437.055C423.106 438.136 430.944 438.676 438.783 438.676C448.986 438.676 459.122 437.731 469.257 435.907C470.136 437.258 470.947 438.676 471.622 440.162ZM413.105 441.311C410.605 440.973 408.105 440.635 405.605 440.23C406.348 438.744 407.159 437.258 408.038 435.907C409.727 436.244 411.416 436.515 413.105 436.785V441.311ZM413.105 444.08V449.417C413.105 450.295 412.362 450.971 411.551 450.971C410.673 450.971 409.997 450.228 409.997 449.417V447.998L411.349 448.269L411.754 446.107L407.767 445.296V449.349C407.767 451.443 409.457 453.132 411.551 453.132C413.646 453.132 415.335 451.443 415.335 449.349V444.283C423.106 445.161 430.877 445.634 438.647 445.634C450.067 445.634 461.487 444.688 472.771 442.797C473.176 443.945 473.582 445.161 473.852 446.31C473.852 446.377 473.92 446.445 473.92 446.512C473.987 446.715 473.987 446.85 474.055 447.053C474.055 447.188 474.122 447.255 474.122 447.39C474.122 447.525 474.19 447.661 474.19 447.863C474.19 447.998 474.258 448.133 474.258 448.269C474.258 448.404 474.325 448.539 474.325 448.606C474.325 448.809 474.393 448.944 474.393 449.147C474.393 449.214 474.393 449.349 474.46 449.417C474.46 449.62 474.528 449.822 474.528 450.025C474.528 450.092 474.528 450.16 474.528 450.228C474.528 450.498 474.595 450.7 474.595 450.971V451.038C474.663 451.579 474.663 452.119 474.731 452.727C450.81 455.834 426.485 455.834 402.564 452.727C402.564 452.187 402.632 451.646 402.699 451.038V450.971C402.699 450.7 402.767 450.498 402.767 450.228C402.767 450.16 402.767 450.092 402.767 450.025C402.767 449.822 402.835 449.62 402.835 449.417C402.835 449.349 402.835 449.214 402.902 449.147C402.902 448.944 402.97 448.809 402.97 448.606C402.97 448.471 403.037 448.336 403.037 448.269C403.037 448.133 403.105 447.998 403.105 447.863C403.105 447.728 403.172 447.593 403.172 447.39C403.172 447.255 403.24 447.188 403.24 447.053C403.308 446.85 403.308 446.715 403.375 446.512C403.375 446.445 403.375 446.377 403.443 446.31C403.713 445.094 404.118 443.945 404.524 442.797C407.362 443.27 410.2 443.743 413.105 444.08ZM434.863 421.586H442.364C452.432 421.586 461.419 426.179 467.365 433.407C448.31 436.717 428.985 436.717 409.93 433.34C415.808 426.179 424.795 421.586 434.863 421.586ZM472.771 459.279C463.649 461.306 451.486 462.454 438.58 462.454C425.674 462.454 413.511 461.306 404.389 459.279C394.658 457.118 391.212 454.551 391.212 452.997C391.212 451.714 393.645 449.687 400.267 447.728C400.064 448.741 399.929 449.755 399.861 450.768C399.861 450.835 399.861 450.835 399.861 450.903C399.861 451.106 399.794 451.308 399.794 451.511C399.794 451.579 399.794 451.714 399.794 451.781C399.794 451.916 399.794 452.119 399.794 452.254C399.794 452.389 399.794 452.592 399.794 452.727C399.794 452.862 399.794 452.93 399.794 453.065C399.794 453.335 399.794 453.605 399.794 453.875V455.091L401.01 455.226C401.483 455.294 402.024 455.361 402.497 455.429C414.524 456.983 426.62 457.726 438.715 457.726C451.283 457.726 463.919 456.915 476.42 455.226L477.636 455.091V453.943C477.636 453.673 477.636 453.402 477.636 453.065C477.636 452.93 477.636 452.862 477.636 452.727C477.636 452.524 477.636 452.389 477.636 452.187C477.636 452.051 477.636 451.916 477.636 451.781C477.636 451.646 477.636 451.511 477.636 451.308C477.636 451.173 477.636 451.038 477.636 450.903C477.636 450.768 477.636 450.633 477.569 450.498C477.569 450.363 477.569 450.228 477.501 450.092C477.501 449.957 477.501 449.822 477.433 449.687C477.433 449.552 477.433 449.417 477.366 449.282C477.366 449.147 477.298 449.012 477.298 448.877C477.298 448.741 477.231 448.606 477.231 448.471C477.163 448.201 477.163 447.998 477.096 447.728V447.661C483.718 449.552 486.15 451.646 486.15 452.93C486.015 454.551 482.501 457.118 472.771 459.279Z" fill="white"/>
<path d="M651.633 417.06H613.995C602.305 417.06 592.778 426.585 592.778 438.271V475.897C592.778 487.583 602.305 497.108 613.995 497.108H651.633C663.322 497.108 672.85 487.583 672.85 475.897V438.271C672.85 426.585 663.322 417.06 651.633 417.06ZM651.835 452.592C651.835 452.659 651.835 452.727 651.903 452.794C651.903 452.93 651.97 452.997 651.97 453.132C651.97 453.267 652.038 453.402 652.038 453.538C652.038 453.673 652.106 453.74 652.106 453.875C652.106 454.01 652.173 454.146 652.173 454.213C652.173 454.281 652.173 454.348 652.173 454.483C652.173 454.618 652.241 454.753 652.241 454.956C652.241 455.024 652.241 455.024 652.241 455.091C652.241 455.294 652.308 455.497 652.308 455.699C652.308 455.767 652.308 455.834 652.308 455.834C652.308 455.969 652.308 456.172 652.308 456.307C652.308 456.375 652.308 456.442 652.308 456.51C652.308 456.712 652.308 456.915 652.308 457.118C652.308 457.32 652.308 457.523 652.308 457.726C652.308 457.793 652.308 457.861 652.308 457.861C652.308 457.996 652.308 458.131 652.308 458.334C652.308 458.401 652.308 458.401 652.308 458.469C652.308 458.671 652.308 458.807 652.241 459.009C652.173 459.414 652.173 459.82 652.106 460.225C652.038 460.833 651.903 461.441 651.7 462.049V462.117C651.633 462.252 651.633 462.454 651.565 462.589C651.565 462.657 651.565 462.724 651.497 462.724C651.43 462.86 651.43 462.995 651.362 463.13C651.362 463.197 651.295 463.265 651.295 463.332C651.295 463.4 651.295 463.4 651.227 463.468C651.16 463.738 651.024 463.94 650.957 464.211C648.186 471.168 641.564 476.167 633.726 476.572C633.591 476.572 633.456 476.572 633.253 476.572H633.186C633.05 476.572 632.848 476.572 632.713 476.572C632.577 476.572 632.375 476.572 632.24 476.572H632.172C632.037 476.572 631.902 476.572 631.699 476.572C623.861 476.167 617.239 471.168 614.468 464.211C614.401 463.94 614.266 463.738 614.198 463.468C614.198 463.4 614.198 463.4 614.13 463.332C614.13 463.265 614.063 463.197 614.063 463.13C613.995 462.995 613.995 462.86 613.928 462.724C613.928 462.657 613.928 462.589 613.86 462.589C613.793 462.454 613.793 462.252 613.725 462.117V462.049C613.59 461.441 613.455 460.833 613.32 460.225C613.252 459.82 613.184 459.414 613.184 459.009C613.184 458.807 613.184 458.671 613.117 458.469C613.117 458.401 613.117 458.401 613.117 458.334C613.117 458.199 613.117 458.063 613.117 457.861C613.117 457.793 613.117 457.726 613.117 457.726C613.117 457.523 613.117 457.32 613.117 457.118C613.117 456.915 613.117 456.712 613.117 456.51C613.117 456.442 613.117 456.375 613.117 456.307C613.117 456.172 613.117 455.969 613.117 455.834C613.117 455.767 613.117 455.699 613.117 455.699C613.117 455.497 613.117 455.294 613.184 455.091C613.184 455.024 613.184 455.024 613.184 454.956C613.184 454.821 613.252 454.686 613.252 454.483C613.252 454.416 613.252 454.348 613.252 454.213C613.252 454.078 613.32 453.943 613.32 453.875C613.32 453.74 613.387 453.673 613.387 453.538C613.387 453.402 613.455 453.267 613.455 453.132C613.455 452.997 613.522 452.93 613.522 452.794C613.522 452.727 613.522 452.659 613.59 452.592C615.549 444.283 622.847 438.001 631.631 437.528C631.767 437.528 631.902 437.528 632.104 437.528H632.172C632.307 437.528 632.51 437.528 632.645 437.528C632.78 437.528 632.983 437.528 633.118 437.528H633.186C633.321 437.528 633.456 437.528 633.659 437.528C642.578 438.001 649.876 444.283 651.835 452.592ZM639.47 478.464V493.798H639.402C639.335 493.798 639.199 493.798 639.132 493.866C638.929 493.866 638.726 493.933 638.524 493.933C638.389 493.933 638.186 494.001 638.051 494.001C637.916 494.001 637.78 494.068 637.645 494.068C637.443 494.068 637.24 494.136 637.105 494.136C637.037 494.136 636.902 494.136 636.834 494.136C636.632 494.136 636.429 494.203 636.226 494.203C636.159 494.203 636.091 494.203 636.024 494.203C635.821 494.203 635.551 494.271 635.348 494.271C635.28 494.271 635.28 494.271 635.213 494.271C633.591 494.406 631.969 494.406 630.348 494.271C630.28 494.271 630.28 494.271 630.212 494.271C630.01 494.271 629.739 494.203 629.537 494.203C629.469 494.203 629.402 494.203 629.334 494.203C629.131 494.203 628.929 494.136 628.726 494.136C628.658 494.136 628.523 494.136 628.456 494.136C628.253 494.136 628.05 494.068 627.915 494.068C627.78 494.068 627.645 494.001 627.51 494.001C627.374 494.001 627.172 493.933 627.037 493.933C626.834 493.933 626.631 493.866 626.428 493.866C626.361 493.866 626.226 493.866 626.158 493.798H626.091V478.464C626.293 478.531 626.428 478.599 626.631 478.599C626.766 478.667 626.969 478.667 627.104 478.734C627.172 478.734 627.172 478.734 627.239 478.734C627.51 478.802 627.78 478.869 628.05 478.937C628.118 478.937 628.185 478.937 628.253 479.004C628.388 479.004 628.523 479.072 628.658 479.072C628.793 479.072 628.861 479.139 628.996 479.139C629.199 479.139 629.402 479.207 629.604 479.207C629.739 479.207 629.875 479.274 630.01 479.274C630.145 479.274 630.212 479.274 630.348 479.342C630.55 479.342 630.753 479.41 630.956 479.41C631.023 479.41 631.091 479.41 631.158 479.41C631.361 479.41 631.564 479.41 631.767 479.477C631.834 479.477 631.902 479.477 631.969 479.477C632.24 479.477 632.442 479.477 632.713 479.477C632.983 479.477 633.186 479.477 633.456 479.477C633.523 479.477 633.591 479.477 633.659 479.477C633.861 479.477 634.064 479.477 634.267 479.41C634.334 479.41 634.402 479.41 634.469 479.41C634.672 479.41 634.875 479.342 635.078 479.342C635.213 479.342 635.28 479.342 635.415 479.274C635.551 479.274 635.686 479.207 635.821 479.207C636.024 479.207 636.226 479.139 636.429 479.139C636.564 479.139 636.632 479.072 636.767 479.072C636.902 479.072 637.037 479.004 637.172 479.004C637.24 479.004 637.307 479.004 637.375 478.937C637.645 478.869 637.916 478.802 638.186 478.734C638.253 478.734 638.253 478.734 638.321 478.734C638.456 478.667 638.659 478.667 638.794 478.599C639.132 478.531 639.267 478.531 639.47 478.464ZM638.929 435.637C638.726 435.569 638.591 435.569 638.389 435.501C638.321 435.501 638.321 435.501 638.253 435.501C637.983 435.434 637.713 435.366 637.443 435.299C637.375 435.299 637.307 435.299 637.24 435.231C637.105 435.231 636.97 435.164 636.834 435.164C636.699 435.164 636.632 435.096 636.497 435.096C636.294 435.096 636.091 435.029 635.888 435.029C635.753 435.029 635.618 434.961 635.483 434.961C635.348 434.961 635.28 434.961 635.145 434.893C634.942 434.893 634.74 434.826 634.537 434.826C634.469 434.826 634.402 434.826 634.334 434.826C634.132 434.826 633.929 434.826 633.726 434.758C633.659 434.758 633.591 434.758 633.523 434.758C633.253 434.758 633.05 434.758 632.78 434.758C632.51 434.758 632.307 434.758 632.037 434.758C631.969 434.758 631.902 434.758 631.834 434.758C631.631 434.758 631.429 434.758 631.226 434.826C631.158 434.826 631.091 434.826 631.023 434.826C630.821 434.826 630.618 434.893 630.415 434.893C630.28 434.893 630.212 434.893 630.077 434.961C629.942 434.961 629.807 435.029 629.672 435.029C629.469 435.029 629.266 435.096 629.064 435.096C628.929 435.096 628.861 435.164 628.726 435.164C628.591 435.164 628.456 435.231 628.32 435.231C628.253 435.231 628.185 435.231 628.118 435.299C627.847 435.366 627.577 435.434 627.307 435.501C627.239 435.501 627.239 435.501 627.172 435.501C627.037 435.569 626.834 435.569 626.699 435.637C626.496 435.704 626.361 435.772 626.158 435.772V420.438H626.226C626.293 420.438 626.428 420.438 626.496 420.37C626.699 420.37 626.901 420.302 627.104 420.302C627.239 420.302 627.442 420.235 627.577 420.235C627.712 420.235 627.847 420.167 627.983 420.167C628.185 420.167 628.388 420.1 628.523 420.1C628.591 420.1 628.726 420.1 628.793 420.1C628.996 420.1 629.199 420.032 629.402 420.032C629.469 420.032 629.537 420.032 629.604 420.032C629.807 420.032 630.077 419.965 630.28 419.965C630.348 419.965 630.348 419.965 630.415 419.965C632.037 419.83 633.659 419.83 635.28 419.965C635.348 419.965 635.348 419.965 635.415 419.965C635.618 419.965 635.888 420.032 636.091 420.032C636.159 420.032 636.226 420.032 636.294 420.032C636.497 420.032 636.699 420.1 636.902 420.1C636.97 420.1 637.105 420.1 637.172 420.1C637.375 420.1 637.578 420.167 637.713 420.167C637.848 420.167 637.983 420.235 638.118 420.235C638.253 420.235 638.456 420.302 638.591 420.302C638.794 420.302 638.997 420.37 639.199 420.37C639.267 420.37 639.402 420.37 639.47 420.438H639.537V435.772C639.267 435.704 639.132 435.637 638.929 435.637ZM623.32 436.852C617.847 439.419 613.59 444.148 611.63 449.957H596.224C598.994 435.907 609.603 424.693 623.32 421.113V436.852ZM595.548 456.037C595.548 455.969 595.548 455.834 595.548 455.767C595.548 455.497 595.548 455.226 595.548 455.024C595.548 454.889 595.548 454.821 595.548 454.686C595.548 454.483 595.548 454.213 595.616 454.01C595.616 453.875 595.616 453.74 595.616 453.605C595.616 453.402 595.683 453.2 595.683 452.93C595.683 452.862 595.683 452.794 595.683 452.659H610.752C610.752 452.794 610.684 452.93 610.684 453.065V453.132C610.684 453.267 610.617 453.402 610.617 453.538C610.617 453.605 610.617 453.605 610.617 453.673C610.617 453.808 610.549 453.943 610.549 454.01C610.549 454.078 610.549 454.146 610.549 454.213C610.549 454.348 610.549 454.416 610.482 454.551C610.482 454.618 610.482 454.686 610.482 454.753C610.482 454.889 610.482 454.956 610.482 455.091C610.482 455.159 610.482 455.226 610.482 455.361C610.482 455.497 610.482 455.564 610.482 455.699C610.482 455.767 610.482 455.834 610.482 455.969C610.482 456.104 610.482 456.24 610.482 456.307C610.482 456.375 610.482 456.442 610.482 456.51C610.482 456.712 610.482 456.915 610.482 457.05C610.482 459.009 610.752 460.968 611.225 462.792C611.292 462.995 611.292 463.13 611.36 463.332C611.36 463.4 611.36 463.4 611.428 463.468C611.495 463.603 611.495 463.738 611.563 463.873C611.563 463.94 611.63 464.076 611.63 464.143C611.63 464.211 611.698 464.278 611.698 464.346C611.765 464.481 611.765 464.616 611.833 464.751V464.819C611.968 465.224 612.171 465.697 612.306 466.102H596.629C596.562 465.967 596.562 465.832 596.562 465.697C596.562 465.562 596.494 465.494 596.494 465.359C596.427 465.156 596.427 464.954 596.359 464.751C596.359 464.616 596.292 464.481 596.292 464.278C596.224 464.076 596.224 463.94 596.224 463.738C596.156 463.468 596.156 463.13 596.089 462.86C596.089 462.725 596.089 462.657 596.021 462.522C595.954 462.252 595.954 461.981 595.886 461.711C595.886 461.576 595.886 461.441 595.819 461.373C595.819 461.171 595.751 460.901 595.751 460.698C595.751 460.563 595.751 460.428 595.683 460.293C595.683 460.09 595.616 459.82 595.616 459.617C595.616 459.482 595.616 459.347 595.616 459.212C595.616 458.942 595.616 458.739 595.616 458.469C595.616 458.334 595.616 458.266 595.616 458.131C595.616 457.793 595.616 457.456 595.616 457.05C595.481 456.78 595.548 456.442 595.548 456.037ZM613.793 468.872C616.09 472.519 619.401 475.492 623.32 477.383V493.122C611.157 489.948 601.359 480.693 597.44 468.804H613.793V468.872ZM642.24 477.383C646.159 475.559 649.538 472.587 651.768 468.872H668.12C664.201 480.761 654.403 489.948 642.24 493.19V477.383ZM670.012 458.199C670.012 458.334 670.012 458.401 670.012 458.536C670.012 458.807 670.012 459.009 670.012 459.279C670.012 459.415 670.012 459.55 670.012 459.685C670.012 459.887 670.012 460.158 669.944 460.36C669.944 460.495 669.944 460.63 669.877 460.766C669.877 460.968 669.809 461.238 669.809 461.441C669.809 461.576 669.809 461.711 669.742 461.779C669.674 462.049 669.674 462.319 669.607 462.589C669.607 462.724 669.607 462.792 669.539 462.927C669.471 463.197 669.471 463.535 669.404 463.805C669.404 464.008 669.336 464.143 669.336 464.346C669.336 464.481 669.269 464.616 669.269 464.819C669.201 465.021 669.201 465.224 669.134 465.427C669.134 465.562 669.066 465.629 669.066 465.764C669.066 465.899 668.998 466.034 668.998 466.17H653.322C653.525 465.764 653.66 465.359 653.795 464.886V464.819C653.862 464.683 653.862 464.548 653.93 464.413C653.93 464.346 653.998 464.278 653.998 464.211C653.998 464.143 654.065 464.008 654.065 463.94C654.133 463.805 654.133 463.67 654.2 463.603C654.2 463.535 654.2 463.535 654.268 463.468C654.335 463.265 654.335 463.13 654.403 462.927C654.876 461.103 655.146 459.212 655.146 457.185C655.146 456.983 655.146 456.78 655.146 456.645C655.146 456.577 655.146 456.51 655.146 456.442C655.146 456.307 655.146 456.172 655.146 456.105C655.146 456.037 655.146 455.969 655.146 455.834C655.146 455.699 655.146 455.632 655.146 455.497C655.146 455.429 655.146 455.361 655.146 455.226C655.146 455.091 655.146 455.024 655.146 454.889C655.146 454.821 655.146 454.753 655.146 454.686C655.146 454.551 655.146 454.483 655.079 454.348C655.079 454.281 655.079 454.213 655.079 454.146C655.079 454.01 655.079 453.875 655.011 453.808C655.011 453.74 655.011 453.74 655.011 453.673C655.011 453.538 654.944 453.402 654.944 453.267V453.2C654.944 453.065 654.876 452.93 654.876 452.794H669.944C669.944 452.862 669.944 452.93 669.944 453.065C669.944 453.267 670.012 453.47 670.012 453.673C670.012 453.808 670.012 453.943 670.012 454.078C670.012 454.281 670.08 454.551 670.08 454.753C670.08 454.889 670.08 454.956 670.08 455.091C670.08 455.361 670.08 455.564 670.08 455.834C670.08 455.902 670.08 456.037 670.08 456.105C670.08 456.442 670.08 456.78 670.08 457.118C670.08 457.456 670.012 457.793 670.012 458.199ZM653.93 449.957C651.97 444.148 647.713 439.419 642.24 436.852V421.046C655.957 424.626 666.633 435.907 669.336 449.89H653.93V449.957ZM613.928 419.83H618.117C607.779 423.883 599.603 432.124 595.481 442.459V438.271C595.481 428.138 603.792 419.83 613.928 419.83ZM595.481 475.964V471.776C599.535 482.112 607.779 490.285 618.117 494.406H613.928C603.792 494.338 595.481 486.097 595.481 475.964ZM651.633 494.338H647.443C657.782 490.285 665.958 482.044 670.08 471.709V475.897C670.08 486.097 661.768 494.338 651.633 494.338ZM670.08 442.459C666.025 432.124 657.782 423.95 647.443 419.83H651.633C661.768 419.83 670.08 428.071 670.08 438.271V442.459Z" fill="white"/>
<path d="M288.369 41.9492L288.031 41.8141L222.216 55.3243H191.606H188.363H184.309V78.089V80.9937V90.5184H178.295V98.2867H184.309H187.214H192.079V80.9937H200.593L203.296 86.668H273.03C282.287 86.668 290.463 80.791 293.436 72.0094L298.234 57.9588C298.437 57.3508 298.369 56.7429 298.031 56.2025C297.626 54.1084 295.599 44.1108 288.369 41.9492ZM184.309 95.3145H181.2V93.288H184.309V95.3145ZM189.241 95.3145H187.214V90.4508V80.9261H189.241V95.3145ZM192.079 78.089H187.214V58.229H189.714L198.228 78.089H192.079ZM287.896 44.7863C292.288 46.34 294.247 52.352 294.923 55.3243H236.541L287.896 44.7863ZM210.864 64.1735C213.499 64.1735 215.662 66.3351 215.662 68.9696C215.662 71.6041 213.499 73.7657 210.864 73.7657C208.229 73.7657 206.067 71.6041 206.067 68.9696C206.067 66.3351 208.229 64.1735 210.864 64.1735ZM293.977 61.6741V61.2688H220.527V64.1735H293.099L290.734 71.0637C288.166 78.6294 281.071 83.7633 273.03 83.7633H205.188L192.958 58.1614H209.445V61.4039C205.931 62.0794 203.229 65.1867 203.229 68.9696C203.229 73.2253 206.675 76.6704 210.932 76.6704C215.189 76.6704 218.635 73.2253 218.635 68.9696C218.635 65.2543 215.932 62.0794 212.418 61.4039V58.1614H295.261L293.977 61.6741Z" fill="white"/>
</svg>
