<svg width="1316" height="972" viewBox="0 0 1316 972" fill="none" xmlns="http://www.w3.org/2000/svg">
<path opacity="0.83" d="M1312.48 193.69C1300.58 197.39 1288.58 200.99 1276.58 204.49C1276.78 204.29 1276.88 204.09 1277.08 203.99C1283.68 196.99 1289.58 189.09 1294.78 180.99C1296.18 178.79 1312.38 152.59 1301.98 153.69C1288.48 155.19 1274.98 157.39 1261.58 159.89C1262.08 158.69 1262.48 157.49 1262.88 156.19C1263.38 154.49 1264.28 149.29 1260.48 150.59C1256.58 151.89 1252.68 153.09 1248.78 154.29C1250.78 151.59 1252.78 148.79 1254.58 145.89C1255.38 144.59 1268.58 121.99 1260.38 123.79C1254.78 124.99 1249.18 126.29 1243.58 127.69C1243.68 127.49 1243.88 127.29 1243.98 127.09C1244.68 125.99 1257.48 103.79 1249.68 105.69C1238.48 108.49 1227.28 111.39 1216.18 114.49C1210.18 116.09 1204.28 117.59 1198.28 119.19C1200.18 116.69 1201.98 114.09 1203.68 111.39C1204.28 110.39 1216.48 88.8905 1209.08 90.9905C1200.08 93.5905 1191.08 96.0905 1182.08 98.6905C1184.58 94.1905 1193.98 76.6905 1187.08 78.4905C1165.08 84.4905 1143.08 90.4905 1121.18 96.4905C1124.38 90.7905 1132.58 75.1905 1125.78 76.6905C1123.38 77.1905 1120.98 77.7905 1118.48 78.3905C1119.68 76.7905 1120.78 75.0905 1121.88 73.3905C1122.48 72.3905 1134.98 50.3905 1127.38 52.4905C1079.68 65.9905 1032.18 80.3905 984.881 95.5905C987.981 92.1905 990.981 88.5905 993.681 84.8905C996.681 83.7905 999.581 82.5905 1002.58 81.4905C1039.88 67.0905 1076.38 51.6905 1111.18 31.8905C1117.38 28.2905 1122.48 20.5905 1126.18 14.6905C1126.68 13.9905 1135.28 -1.30952 1130.08 0.0904766C1103.68 7.39048 1077.18 14.4905 1050.38 20.1905C1036.68 23.0905 1022.78 24.4905 1009.08 27.3905C994.581 30.3905 979.981 32.8905 965.581 35.9905C935.781 42.3905 905.781 48.0905 876.081 54.9905C862.581 58.0905 849.081 61.2905 835.581 64.5905C840.481 59.7905 844.481 53.4905 847.681 48.5905C848.181 47.7905 858.581 29.0905 852.281 31.0905C788.781 51.4905 725.681 73.0905 662.781 95.0905C683.181 85.9905 703.881 77.1905 724.881 68.7905C730.481 66.4905 734.981 61.9905 739.081 57.6905C745.681 50.6905 751.581 42.8905 756.781 34.6905C760.781 28.3905 764.881 21.4905 766.881 14.2905C767.381 12.5905 768.681 5.69048 763.981 7.49048C745.881 14.4905 727.981 21.8905 710.181 29.5905C662.981 48.8905 615.681 68.0905 568.381 87.1905C568.781 86.4905 569.581 85.0905 570.381 83.4905C570.781 83.2905 571.281 82.9905 571.681 82.7905C575.581 79.9905 579.181 76.8905 582.381 73.2905C589.281 65.9905 595.381 57.9905 600.681 49.5905C604.781 43.0905 609.081 35.9905 611.181 28.4905C611.581 27.1905 612.981 19.0905 608.181 21.4905C582.881 33.6905 557.481 45.8905 532.181 58.1905C535.881 52.8905 539.181 47.3905 542.081 41.9905C544.481 37.7905 546.481 33.3905 547.881 28.6905C548.281 27.3905 549.781 19.0905 544.781 21.5905C515.981 35.6905 487.181 49.7905 458.381 63.8905C460.881 59.9905 463.181 55.9905 465.281 52.0905C467.981 47.2905 470.181 42.2905 471.781 37.0905C472.181 35.4905 473.881 26.4905 468.281 28.9905C425.181 48.6905 382.081 68.4905 338.981 88.2905C349.881 76.0905 359.581 61.9905 366.081 47.0905C367.981 43.2905 369.081 39.1905 369.381 34.9905C369.081 28.9905 362.881 32.8905 360.381 34.1905C340.081 44.9905 319.781 55.7905 299.481 66.5905C294.181 68.0905 288.881 69.4905 283.581 71.0905C284.981 67.5905 286.081 63.9905 285.881 60.6905C285.581 54.5905 279.281 58.5905 276.781 59.8905C252.481 72.4905 228.281 85.0905 203.981 97.6905C201.381 98.6905 198.681 99.6905 196.081 100.69C183.581 105.49 171.081 110.49 158.681 115.79C167.081 106.09 174.481 95.4905 180.781 84.2905C185.781 77.4905 190.181 70.2905 193.981 63.3905C196.781 58.2905 200.981 51.0905 200.681 44.8905C200.481 39.5905 194.781 42.6905 192.581 44.1905C175.981 55.0905 159.181 65.5905 142.381 76.0905C143.081 74.4905 143.681 72.7905 144.181 70.9905C145.781 65.1905 143.081 63.3905 138.081 66.5905C129.081 72.3905 119.681 77.6905 110.281 82.9905C111.481 81.1905 112.581 79.4905 113.781 77.6905C114.481 76.5905 126.281 57.2905 121.581 56.1905C112.281 53.8905 103.281 54.0905 94.6813 56.8905C94.7813 55.1905 94.0813 54.1905 91.7813 53.9905C89.4813 53.7905 87.4813 55.0905 85.6813 56.4905C78.1813 61.8905 71.9813 69.3905 66.6813 76.7905C61.6813 83.5905 55.2813 92.5905 53.2813 101.09C52.4813 104.69 52.3813 106.29 53.8813 109.39C55.7813 109.89 57.5813 109.49 59.0813 107.99C64.7813 104.49 72.2813 102.79 79.4813 102.99C79.8813 103.09 80.2813 103.09 80.5813 103.19C76.9813 108.49 73.3813 113.89 69.7813 119.19C66.3813 124.19 62.9813 130.19 61.3813 136.09C60.1813 140.49 61.3813 141.89 64.0813 141.29C61.7813 142.99 59.4813 144.79 57.2813 146.49C39.9813 159.99 26.0813 178.29 15.5813 197.49C12.3813 203.39 7.3813 211.89 7.6813 219.09C7.9813 225.19 14.5813 221.69 17.0813 219.99C26.1813 213.59 35.3813 207.19 44.4813 200.79C38.2813 206.39 33.1813 213.69 28.7813 220.49C25.8813 225.09 22.7813 230.09 21.3813 235.49C20.9813 236.79 20.0813 241.79 23.4813 240.49C80.7813 218.99 138.481 198.69 196.681 179.59C155.681 202.29 115.781 226.89 77.1813 253.49C61.1813 264.49 45.3813 275.89 29.7813 287.49C19.1813 295.39 10.7813 306.79 4.4813 318.39C2.5813 321.79 -5.1187 337.99 5.4813 331.99C59.6813 301.19 115.281 272.69 171.881 246.69C170.181 248.19 168.581 249.59 166.881 251.09C134.181 269.39 101.881 288.39 69.9813 308.09C59.2813 314.69 50.7813 327.99 44.8813 338.79C42.8813 342.39 35.3813 357.99 45.7813 352.29C61.9813 343.59 78.2813 335.09 94.5813 326.69C93.7813 327.69 92.8813 328.69 92.0813 329.69C91.6813 330.19 88.7813 334.29 85.8813 338.89C77.8813 343.99 69.9813 349.19 62.0813 354.39C51.3813 361.49 42.8813 374.19 36.8813 385.19C35.0813 388.49 27.3813 404.99 37.7813 398.79C54.0813 389.19 70.3813 379.79 86.8813 370.69C83.3813 375.19 80.2813 379.99 77.6813 384.09C74.5813 388.99 71.3813 394.29 69.8813 399.89C69.5813 400.99 68.4813 406.79 72.1813 405.19C109.081 388.59 146.181 372.49 183.481 356.79C158.481 371.89 133.781 387.49 109.481 403.59C100.481 409.49 93.3813 419.59 87.7813 428.49C84.6813 433.39 81.4813 438.69 79.8813 444.29C79.5813 445.19 78.4813 451.39 82.1813 449.59C82.5813 449.39 82.9813 449.19 83.3813 448.99C80.0813 452.99 77.0813 457.19 74.2813 461.59C71.0813 466.59 67.7813 472.09 66.1813 477.89C65.8813 479.09 64.7813 484.99 68.4813 483.29C109.381 465.39 150.481 448.09 191.881 431.39C191.481 432.49 191.081 433.49 190.781 434.59C190.381 435.99 189.381 441.59 193.181 440.19C226.781 427.39 260.381 414.99 294.181 402.79C259.181 417.89 224.381 433.49 189.781 449.39C177.681 454.99 165.681 460.59 153.581 466.19C142.181 471.59 133.681 484.19 127.081 494.39C123.781 499.59 120.281 505.29 118.681 511.29C118.381 512.39 117.181 518.79 121.081 516.99C226.281 467.89 333.281 422.59 441.781 381.09C387.381 406.89 333.381 433.59 279.881 461.29C276.281 463.19 272.581 465.09 268.981 466.99C270.481 464.79 271.681 462.49 272.681 460.29C274.581 455.99 272.881 455.09 269.481 457.89C260.381 465.29 251.281 472.89 242.081 480.09C203.181 497.19 164.281 514.19 125.581 531.89C115.181 536.69 107.381 548.39 101.381 557.69C98.3813 562.49 95.1813 567.69 93.6813 573.19C93.3813 574.29 92.3813 579.89 95.8813 578.39C143.281 557.49 190.381 535.89 237.481 514.29C223.881 521.29 210.381 528.29 196.781 535.29C191.681 537.99 186.981 544.09 183.381 548.39C178.381 554.49 173.781 561.09 169.981 568.09C167.781 572.09 159.781 588.29 170.981 582.49C262.081 535.29 354.981 491.59 449.381 451.29C392.081 477.19 335.481 504.49 279.481 533.19C244.181 551.29 209.181 569.89 174.381 589.09C169.281 591.89 164.881 597.59 161.281 601.89C155.881 604.99 150.481 607.99 145.081 611.09C124.881 622.69 104.881 634.59 85.1813 646.99C75.7813 653.09 67.6813 664.99 61.3813 674.89C57.8813 680.39 54.2813 686.39 52.4813 692.79C52.1813 693.99 50.8813 700.69 55.0813 698.79C104.181 676.39 153.381 654.19 202.881 632.89C201.881 634.09 200.981 635.19 200.081 636.29C199.481 637.09 198.781 637.79 198.181 638.59C184.581 646.49 171.081 654.49 157.681 662.69C147.481 668.79 139.481 680.99 133.181 690.69C131.481 693.39 129.781 696.19 128.181 699.09C120.081 703.79 111.981 708.59 103.881 713.29C93.6813 719.29 85.4813 731.69 79.2813 741.49C75.7813 746.99 72.1813 752.99 70.3813 759.39C69.9813 760.79 68.7813 767.09 72.9813 765.39C117.581 746.69 162.281 727.99 206.881 709.29C204.281 713.49 201.881 717.99 200.581 722.69C200.181 724.09 199.181 729.29 202.881 727.99C204.181 727.49 205.381 727.09 206.681 726.59C197.781 732.29 188.881 737.99 179.981 743.59C174.381 747.19 169.581 752.79 165.381 757.89C159.881 764.59 154.881 771.79 150.681 779.39C148.581 783.19 139.581 802.29 151.781 795.09C167.381 785.99 182.981 777.19 198.881 768.59C197.781 769.99 196.781 771.39 195.781 772.79C174.881 787.09 153.981 801.39 133.081 815.69C120.081 824.59 109.881 839.59 102.481 853.09C100.081 857.49 96.4813 863.69 96.6813 868.99C96.8813 873.69 101.681 870.59 103.581 869.59C125.481 858.69 147.481 847.69 169.881 837.09C169.581 839.09 169.281 843.09 172.381 841.59C189.381 833.79 206.581 826.19 223.681 818.79C222.581 820.79 221.481 823.09 220.781 825.39C210.481 830.49 200.181 835.69 189.881 840.89C186.981 842.99 184.381 845.29 181.981 847.89C176.881 853.29 172.381 859.29 168.381 865.49C165.281 870.29 162.181 875.59 160.581 881.19C160.181 882.49 159.181 887.79 162.781 886.39C186.481 877.39 210.081 868.29 233.781 859.29C233.081 860.09 232.481 860.89 231.781 861.69C229.181 864.89 226.681 868.19 224.281 871.69C219.481 875.19 214.781 878.79 209.981 882.29C197.081 891.89 186.781 905.99 179.081 919.99C176.681 924.39 172.981 930.59 173.281 935.99C173.481 940.69 178.381 937.69 180.281 936.59C223.481 913.29 268.681 893.09 315.181 876.09C315.481 877.69 316.881 878.19 320.081 876.39C323.681 874.39 327.281 872.49 330.881 870.49C353.581 862.59 376.581 855.49 399.781 849.19C382.381 860.19 364.981 871.29 347.681 882.49C338.981 888.09 332.281 897.89 326.781 906.39C323.781 911.09 320.681 916.19 319.181 921.59C318.881 922.59 317.881 928.29 321.381 926.69C321.581 926.59 321.781 926.49 321.881 926.49C320.281 929.59 318.881 932.89 317.981 936.19C317.581 937.59 316.281 944.69 320.781 942.69C367.381 922.29 415.881 906.39 465.481 895.39C463.481 898.89 461.581 902.49 460.581 906.29C460.181 907.59 459.281 912.59 462.781 911.29C477.481 905.89 492.181 900.59 506.981 895.19C506.281 895.79 505.481 896.39 504.781 896.99C504.281 897.39 502.381 898.89 501.381 899.69C499.981 900.79 498.481 901.89 497.081 902.99C492.881 906.19 488.481 909.19 484.081 912.09C472.581 919.79 463.481 932.59 456.181 944.09C452.181 950.29 448.081 957.19 446.081 964.39C445.481 966.49 444.381 972.59 448.981 971.19C504.081 954.49 559.281 938.09 614.481 921.59C614.381 921.79 614.381 921.79 614.481 921.59C614.581 921.59 614.581 921.59 614.681 921.59C609.981 930.09 601.481 947.29 609.781 945.49C696.481 926.89 783.181 908.59 869.881 890.09C868.481 894.39 868.081 898.19 871.881 897.09C876.381 895.79 880.781 894.39 885.281 892.79C885.281 894.09 885.881 894.89 887.481 894.49C895.581 892.89 903.681 891.19 911.781 889.59C910.481 891.69 909.281 893.79 908.081 895.89C907.681 896.59 897.881 916.39 905.681 913.49C935.981 902.39 966.381 891.19 996.681 880.09C996.981 880.09 997.381 880.19 997.681 880.19C995.581 881.99 993.481 883.69 991.381 885.49C980.681 894.39 971.781 907.29 965.181 919.49C964.881 920.09 954.681 940.89 962.781 937.79C996.981 924.69 1031.28 911.49 1065.48 898.39C1057.48 906.79 1050.58 916.79 1045.08 926.89C1044.78 927.49 1034.28 949.09 1042.58 945.79C1068.48 935.39 1094.38 924.99 1120.38 914.49C1117.08 919.49 1114.08 924.79 1111.68 930.29C1110.78 932.49 1105.28 944.59 1112.58 943.29C1146.28 937.19 1178.38 925.89 1208.78 910.39C1208.98 911.39 1209.38 912.39 1209.88 913.39C1211.78 916.99 1215.38 917.69 1219.28 917.09C1222.98 916.49 1228.28 912.09 1230.78 909.89C1238.28 903.09 1244.38 895.59 1250.48 887.59C1256.58 879.59 1261.48 871.09 1265.88 862.09C1268.08 857.59 1269.58 852.89 1269.58 847.89C1269.68 842.69 1263.48 845.99 1261.68 847.19C1260.48 847.99 1259.38 848.79 1258.28 849.69C1258.18 849.59 1258.08 849.39 1257.98 849.29C1258.28 847.89 1258.48 846.49 1258.58 845.09C1258.38 839.79 1252.78 843.19 1250.68 844.39C1242.28 848.99 1238.48 850.89 1230.08 854.79C1226.98 856.19 1223.78 857.59 1220.58 858.89C1224.08 854.69 1227.28 850.29 1230.18 845.69C1230.78 844.79 1239.28 829.79 1238.28 825.39C1241.08 821.89 1243.78 818.19 1246.18 814.29C1246.88 813.19 1259.48 791.19 1251.78 793.19C1239.98 796.29 1228.18 799.39 1216.38 802.39C1216.48 801.59 1216.58 800.69 1216.58 799.79C1221.18 797.49 1225.68 795.19 1230.28 792.89C1232.98 790.99 1235.48 788.79 1237.68 786.29C1242.38 781.29 1246.68 775.69 1250.38 769.89C1253.28 765.39 1256.18 760.49 1257.68 755.29C1258.08 753.89 1258.88 749.29 1255.58 750.39C1236.68 756.69 1217.88 762.89 1198.98 769.19C1200.08 768.59 1201.28 768.09 1202.38 767.59C1211.78 762.99 1218.68 752.89 1224.18 744.29C1224.68 743.59 1233.08 728.49 1230.88 725.89C1236.28 718.19 1241.78 709.69 1244.28 700.69C1246.08 693.99 1243.08 692.89 1237.68 695.89C1236.68 696.49 1235.78 696.99 1234.78 697.49C1234.58 697.59 1234.28 697.69 1233.88 697.89C1231.78 698.89 1229.68 699.69 1227.58 700.49C1223.28 702.09 1218.88 703.29 1214.48 704.29C1213.78 704.49 1213.08 704.59 1212.38 704.69C1223.18 693.89 1234.08 683.09 1244.88 672.29C1253.98 663.29 1261.68 651.99 1267.78 640.79C1268.48 639.59 1279.48 618.29 1270.48 620.79C1255.68 624.79 1240.88 628.99 1226.18 633.09C1234.28 626.79 1242.58 620.79 1250.98 614.89C1262.48 606.79 1271.58 594.49 1278.98 582.79C1282.98 576.49 1287.08 569.59 1289.08 562.39C1289.68 560.29 1290.78 554.09 1286.18 555.59C1270.48 560.49 1254.78 565.29 1239.08 570.19C1243.68 566.79 1248.28 563.39 1252.88 560.09C1263.78 552.09 1272.28 540.89 1279.48 529.59C1283.28 523.59 1287.18 517.09 1289.08 510.19C1289.58 508.49 1290.78 502.09 1286.28 503.69C1258.68 513.99 1230.88 523.99 1203.18 534.19C1218.98 523.59 1235.08 513.49 1251.48 503.89C1260.78 498.39 1268.28 487.09 1273.88 478.19C1277.08 473.19 1280.38 467.69 1281.98 461.89C1282.38 460.29 1283.38 455.19 1279.68 456.39C1251.48 465.79 1223.28 474.99 1195.18 484.39C1196.98 481.89 1198.58 479.29 1200.08 476.99C1200.78 475.89 1212.58 455.49 1205.28 457.19C1183.28 462.39 1161.38 467.79 1139.58 473.49C1147.88 464.49 1156.08 455.59 1164.38 446.59C1172.88 441.99 1181.38 437.39 1189.78 432.79C1193.98 430.49 1197.68 425.69 1200.68 422.09C1204.78 417.09 1208.48 411.79 1211.58 406.09C1213.28 402.89 1219.88 389.49 1210.78 394.39C1207.08 396.29 1203.48 398.19 1199.78 399.99C1200.58 397.89 1201.08 395.69 1200.78 394.49C1202.18 393.89 1203.58 393.19 1204.98 392.59C1213.98 388.59 1220.68 378.29 1225.78 370.39C1228.38 366.29 1231.08 361.79 1232.38 357.09C1232.68 355.89 1233.48 351.49 1230.48 352.69C1194.68 365.69 1158.88 378.79 1123.08 391.99C1129.48 386.19 1135.78 380.49 1142.18 374.69C1156.58 368.39 1170.98 362.09 1185.28 355.79C1192.78 352.59 1198.48 343.79 1202.68 337.19C1204.88 333.79 1207.08 329.99 1208.18 326.09C1208.38 325.29 1208.98 321.89 1207.18 322.19C1208.38 320.39 1209.58 318.59 1210.68 316.79C1210.98 316.29 1213.58 311.89 1215.68 307.29C1215.78 307.19 1215.88 307.09 1215.98 306.99C1220.48 302.89 1224.58 297.79 1227.58 292.29C1232.38 287.09 1236.48 280.99 1239.98 275.39C1240.68 274.39 1244.38 268.49 1246.58 263.09C1258.68 256.39 1270.78 249.59 1282.88 242.89C1286.08 240.69 1288.88 238.09 1291.48 235.19C1296.98 229.29 1301.98 222.79 1306.28 215.99C1309.58 210.79 1313.08 204.99 1314.78 198.89C1315.38 197.69 1316.28 192.49 1312.48 193.69ZM1147.28 750.99C1116.18 760.59 1085.18 770.09 1054.08 779.69C1089.88 759.59 1126.68 741.29 1164.38 725.09C1158.38 732.39 1153.08 740.49 1148.58 748.59C1148.18 749.29 1147.68 750.19 1147.28 750.99ZM1013.18 830.69C1012.98 830.79 1012.78 830.89 1012.58 830.99C1008.88 832.39 1005.28 833.79 1001.58 835.09C999.181 835.59 996.681 836.09 994.281 836.59C995.181 834.79 996.281 832.59 997.281 830.29C1012.08 825.69 1026.98 821.19 1041.78 816.69C1032.28 821.49 1022.68 826.09 1013.18 830.69ZM1140.28 699.29C1131.78 702.39 1123.28 705.59 1114.78 708.69C1123.58 704.49 1132.48 700.39 1141.38 696.29C1140.98 697.39 1140.68 698.29 1140.28 699.29ZM804.081 689.09C801.281 691.09 798.781 693.29 796.481 695.89C791.581 701.09 787.181 706.89 783.381 712.89C783.081 713.39 782.781 713.79 782.481 714.29C777.681 716.19 772.881 718.09 768.081 719.99C774.481 714.29 779.681 706.19 783.781 699.79C785.581 696.89 787.481 693.89 788.981 690.69C799.281 687.59 809.481 684.19 819.581 680.39C814.481 683.29 809.281 686.19 804.081 689.09ZM720.481 657.29C718.581 659.99 716.781 662.69 715.181 665.59C707.181 668.09 699.181 670.69 691.181 673.29C700.881 667.99 710.681 662.69 720.481 657.29ZM657.981 734.79C657.781 735.29 657.581 735.69 657.381 736.19C622.981 751.49 588.681 767.09 554.481 782.99C565.381 776.79 576.281 770.59 587.181 764.49C610.881 754.69 634.481 744.79 657.981 734.79ZM745.881 666.39C746.181 665.89 746.381 665.29 746.681 664.79C747.381 664.39 748.181 663.99 748.881 663.59C747.881 664.59 746.881 665.49 745.881 666.39ZM903.181 542.99C903.381 542.89 903.481 542.69 903.681 542.59C903.981 542.49 904.281 542.29 904.581 542.19C904.081 542.49 903.681 542.79 903.181 542.99ZM579.581 650.89C578.181 651.79 576.881 652.89 575.681 654.19C561.181 658.39 546.781 662.79 532.381 667.19C547.281 660.49 562.181 653.89 577.181 647.29C582.381 644.99 586.881 640.99 590.981 636.39C611.481 625.99 632.081 615.59 652.581 605.19C627.881 619.79 603.581 634.99 579.581 650.89ZM772.281 755.29C778.781 753.29 785.281 751.29 791.881 749.39C789.181 752.29 786.681 755.39 784.281 758.69C735.981 776.39 687.681 794.09 639.381 811.79C682.481 790.99 726.281 771.69 770.181 752.79C769.981 754.79 770.481 755.89 772.281 755.29ZM725.881 836.59C769.081 818.29 812.281 799.99 855.481 781.59C855.181 782.49 854.881 783.39 854.581 784.29C854.281 785.39 853.381 790.19 856.481 788.99C847.381 792.69 838.281 796.59 829.281 800.59C794.781 813.19 760.081 825.39 725.181 836.99C725.481 836.79 725.681 836.69 725.881 836.59ZM973.881 804.69C972.481 805.69 971.081 806.79 969.781 807.99C962.981 809.99 956.181 811.99 949.281 813.89C949.881 813.29 950.381 812.79 950.881 812.19C954.281 808.59 957.381 804.69 960.181 800.59C975.481 794.59 990.781 788.59 1006.08 782.69C995.281 789.89 984.481 797.19 973.881 804.69ZM919.681 777.39C922.381 771.69 925.281 764.29 921.181 765.59C902.081 771.59 883.281 778.39 864.681 785.69C896.881 772.79 929.381 760.39 962.081 748.59C947.981 758.29 933.881 767.89 919.681 777.39ZM609.581 657.19C611.981 652.09 614.381 646.09 613.081 644.39C626.481 636.59 639.881 628.89 653.481 621.39C637.981 632.19 623.181 643.89 609.581 657.19ZM670.781 225.39C669.981 226.59 669.181 227.79 668.381 228.99C667.881 229.69 667.481 230.49 666.981 231.29C635.481 240.09 604.181 249.29 572.881 258.79C568.881 259.99 564.981 261.19 560.981 262.49C597.381 249.39 633.981 237.09 670.781 225.39ZM1028.18 289.59C1037.98 285.69 1047.78 281.89 1057.58 277.99C1062.88 276.89 1068.08 275.69 1073.28 274.49C1072.78 275.29 1072.08 276.49 1071.38 277.89C1056.98 281.69 1042.58 285.59 1028.18 289.59ZM716.681 455.99C688.981 467.59 661.381 479.19 633.681 490.79C634.781 489.89 635.881 488.99 636.981 488.19C636.981 488.19 639.081 486.49 639.381 486.29C640.381 485.49 641.381 484.69 642.481 483.89C643.681 482.89 644.981 481.99 646.281 480.99C701.381 458.29 756.881 436.59 812.781 415.79C780.681 429.19 748.681 442.59 716.681 455.99ZM438.481 497.69C429.781 502.09 421.081 506.59 412.481 511.19C404.481 513.89 396.481 516.69 388.581 519.49C405.181 511.99 421.781 504.79 438.481 497.69ZM1011.88 731.69C1011.88 731.69 1011.98 731.69 1011.88 731.69C1012.28 731.39 1012.68 730.99 1013.08 730.69C1013.58 730.49 1014.18 730.29 1014.68 730.19C1013.78 730.69 1012.88 731.19 1011.88 731.69ZM903.681 685.49C901.581 686.09 899.481 686.69 897.381 687.19C899.881 684.79 902.081 681.99 903.981 679.69C904.681 678.89 905.381 677.99 905.981 677.19C924.381 669.59 942.881 662.19 961.381 654.99C942.081 665.09 922.881 675.19 903.681 685.49ZM888.781 517.39C878.581 522.79 868.481 528.19 858.281 533.69C845.081 539.99 831.881 546.39 818.681 552.89C844.681 537.69 870.781 522.49 896.681 507.19C912.981 500.59 929.281 493.99 945.681 487.59C926.681 497.39 907.681 507.29 888.781 517.39ZM117.381 315.19C128.381 309.69 139.481 304.29 150.581 298.89C138.181 306.29 125.881 313.79 113.681 321.39C113.081 321.29 112.481 321.19 111.881 321.19C113.781 319.19 115.581 317.19 117.381 315.19ZM487.681 240.09C488.281 239.89 488.881 239.69 489.381 239.49C499.081 236.19 508.681 232.89 518.381 229.59C516.181 230.79 513.981 231.99 511.881 233.19C487.481 241.69 463.181 250.59 438.981 259.59C444.581 257.29 450.181 254.99 455.781 252.69C466.381 248.39 476.981 244.19 487.681 240.09ZM987.181 217.69C990.981 216.29 994.881 214.79 998.681 213.39C997.881 214.49 997.181 215.69 996.381 216.79C996.181 217.09 995.181 218.79 993.881 221.29C971.881 227.39 949.981 233.69 928.081 240.19C947.881 232.59 967.481 225.09 987.181 217.69ZM1181.28 643.09C1141.68 654.49 1102.38 666.69 1063.28 679.69C1064.48 678.29 1065.58 676.79 1066.58 675.29C1084.08 666.99 1101.68 658.79 1119.38 650.69C1119.18 653.09 1119.58 655.69 1122.78 654.69C1145.18 647.89 1167.58 641.09 1189.98 634.29C1186.98 637.29 1184.08 640.09 1181.28 643.09ZM1152.18 600.69C1124.38 610.39 1096.78 620.39 1069.28 630.69C1079.08 625.89 1088.98 621.09 1098.78 616.29C1119.18 609.29 1139.58 602.09 1159.88 594.69C1159.08 595.29 1158.28 595.89 1157.38 596.49C1155.58 597.79 1153.88 599.19 1152.18 600.69ZM1122.78 561.49C1126.08 560.09 1129.28 558.69 1132.58 557.29C1131.88 557.79 1131.28 558.39 1130.58 558.89C1127.98 559.79 1125.38 560.69 1122.78 561.49ZM902.681 591.99C916.881 583.59 931.081 575.29 945.481 567.09C957.081 563.29 968.781 559.49 980.481 555.79C954.381 567.69 928.481 579.79 902.681 591.99ZM988.881 443.79C1005.08 436.39 1021.28 428.99 1037.58 421.59C1034.48 423.79 1031.48 425.99 1028.48 428.19C1015.18 433.39 1001.98 438.59 988.881 443.79ZM1169.08 309.69C1168.48 309.79 1167.78 310.09 1166.78 310.69C1163.18 312.99 1159.68 315.19 1156.08 317.49C1146.88 320.99 1137.68 324.49 1128.38 327.99C1098.78 339.29 1069.18 350.89 1039.68 362.69C980.681 386.29 922.181 410.69 863.981 436.09C857.981 438.69 851.981 441.29 845.981 443.99C895.081 421.69 944.381 399.89 993.881 378.69C1034.38 361.69 1074.78 344.69 1115.28 327.69C1124.28 323.89 1131.68 314.79 1137.58 306.09C1147.78 302.99 1157.98 299.89 1168.18 296.79C1166.08 301.89 1165.18 306.49 1169.18 306.19C1170.08 306.09 1170.98 306.09 1171.78 305.99C1170.98 307.09 1169.98 308.39 1169.08 309.69ZM107.181 156.99C107.581 156.89 107.881 156.69 108.281 156.59C107.581 158.09 106.981 159.69 106.281 161.29C90.9813 170.29 75.9813 179.59 61.1813 189.19C76.4813 178.39 91.8813 167.69 107.181 156.99ZM1257.98 849.19C1257.78 847.89 1258.08 847.89 1257.98 849.19V849.19ZM1116.08 479.99C1107.08 482.39 1098.18 484.89 1089.18 487.39C1102.58 480.19 1115.98 472.89 1129.38 465.69C1124.98 470.49 1120.58 475.19 1116.08 479.99ZM1082.18 407.59C1082.68 407.19 1083.18 406.89 1083.68 406.49C1089.68 402.09 1095.78 397.69 1101.78 393.29C1097.18 397.29 1092.58 401.29 1087.98 405.39C1086.08 406.19 1084.18 406.89 1082.18 407.59Z" fill="#1C5633"/>
<path opacity="0.83" d="M1235.28 680.19C1229.78 682.69 1224.28 685.39 1218.88 688.09C1218.48 687.39 1217.68 687.09 1216.28 687.59C1191.78 696.89 1167.28 706.19 1142.88 715.49C1150.48 710.49 1158.08 705.59 1165.68 700.79C1176.48 693.89 1185.08 681.39 1191.88 670.79C1195.58 664.89 1199.48 658.49 1201.38 651.79C1201.78 650.29 1203.08 643.59 1198.68 645.39C1186.48 650.49 1174.28 655.59 1162.08 660.79C1164.48 658.89 1166.68 656.79 1168.78 654.49C1174.98 647.99 1180.48 640.69 1185.28 633.09C1188.98 627.29 1192.88 620.79 1194.68 614.09C1195.08 612.49 1196.28 605.99 1191.98 607.79C1186.78 609.79 1181.68 611.89 1176.48 613.89C1182.28 607.59 1187.18 600.09 1191.38 593.49C1195.08 587.59 1198.98 581.19 1200.88 574.39C1201.38 572.49 1202.48 566.59 1198.18 567.99C1178.58 574.29 1159.28 581.19 1140.08 588.49C1143.18 583.39 1146.18 577.99 1147.78 572.29C1148.28 570.59 1149.38 564.39 1145.08 565.99C1110.98 578.49 1076.88 590.99 1042.78 603.49C1057.28 592.39 1071.68 581.19 1086.18 570.09C1096.38 562.19 1104.58 551.99 1111.48 541.09C1111.98 540.39 1112.38 539.69 1112.88 538.99C1113.18 539.09 1113.58 539.09 1113.88 539.19C1114.48 539.29 1115.18 539.39 1115.78 539.59C1124.18 541.19 1142.58 509.09 1138.98 507.69C1129.38 503.89 1119.48 501.09 1109.58 499.09C1114.68 496.39 1119.88 490.29 1122.88 487.19C1130.78 478.79 1137.78 469.59 1143.98 459.89C1145.48 457.49 1164.78 425.89 1152.58 427.49C1127.08 430.89 1101.48 433.89 1075.88 436.29C1075.68 434.99 1074.98 433.99 1073.08 434.69C1070.88 435.49 1068.58 436.39 1066.28 437.19C1055.18 438.19 1044.18 439.19 1033.08 440.09C1035.58 436.69 1037.78 433.29 1039.88 429.99C1043.28 424.69 1046.78 418.89 1048.48 412.69C1048.78 411.59 1049.48 408.09 1048.18 406.99C1050.68 403.69 1052.98 400.39 1055.18 396.89C1055.48 396.39 1055.78 395.89 1056.08 395.39C1092.28 380.09 1126.68 360.59 1158.38 337.29C1167.78 330.39 1175.18 320.69 1181.48 310.89C1181.68 310.49 1183.28 307.69 1185.08 304.29C1188.68 302.29 1191.68 299.19 1194.48 296.29C1199.98 290.49 1204.88 283.99 1209.18 277.19C1212.48 271.99 1215.98 266.19 1217.58 260.19C1218.08 258.39 1218.98 253.39 1215.18 254.49C1188.18 262.19 1161.38 270.49 1134.78 279.29C1135.88 277.69 1136.98 276.09 1137.98 274.49C1138.68 273.39 1152.38 249.29 1144.08 251.59C1140.68 252.49 1137.28 253.49 1133.88 254.39C1138.08 249.49 1141.98 244.19 1145.48 238.79C1148.88 233.49 1152.28 227.69 1153.98 221.69C1154.08 221.39 1154.18 220.89 1154.28 220.29C1154.78 219.79 1155.28 219.19 1155.78 218.69C1161.08 212.99 1165.88 206.79 1170.08 200.19C1170.98 198.79 1184.08 176.79 1175.88 178.29C1168.28 179.59 1160.58 181.09 1152.98 182.69C1159.78 176.39 1165.48 167.69 1169.98 160.49C1173.38 155.09 1176.98 149.19 1178.68 142.99C1179.18 141.09 1180.18 136.09 1176.18 137.19C1151.38 144.09 1126.48 150.99 1101.68 157.89C1110.38 152.79 1119.18 147.69 1127.88 142.59C1131.28 140.19 1134.38 137.39 1137.18 134.29C1143.18 127.99 1148.48 120.99 1153.08 113.59C1156.68 107.99 1160.38 101.69 1162.18 95.1904C1162.58 93.5904 1163.78 87.4904 1159.58 89.0904C1158.98 89.2904 1158.38 89.5904 1157.78 89.7904C1159.88 86.0904 1161.78 82.1904 1162.88 78.0904C1163.38 76.2904 1164.48 70.5904 1160.28 71.9904C1159.88 72.0904 1159.48 72.2904 1158.98 72.3904C1160.48 69.3904 1161.88 66.3904 1162.68 63.1904C1163.18 61.4904 1164.18 55.7904 1160.08 57.1904C1154.18 59.2904 1148.28 61.2904 1142.38 63.3904C1145.38 58.5904 1148.18 53.4904 1149.68 48.0904C1150.08 46.4904 1151.18 40.7904 1147.18 42.1904C1141.68 44.1904 1136.08 46.0904 1130.58 48.0904C1131.98 45.2904 1133.28 42.3904 1134.08 39.3904C1134.58 37.4904 1135.58 32.3904 1131.58 33.5904C1125.48 35.2904 1119.38 37.0904 1113.38 38.9904C1116.08 34.5904 1118.48 29.8904 1119.88 25.0904C1120.28 23.5904 1121.38 17.7904 1117.38 19.2904C1097.38 26.7904 1077.38 34.2904 1057.38 41.7904C1058.78 39.4904 1060.18 37.1904 1061.48 34.8904C1061.88 34.2904 1071.08 15.5904 1063.68 18.2904C981.381 47.7904 899.481 77.0904 817.781 106.69C812.981 108.49 808.881 112.69 805.481 116.29C804.781 117.09 804.081 117.79 803.381 118.59C788.681 124.29 774.081 129.89 759.381 135.59C763.781 130.69 767.681 125.29 771.281 119.79C774.481 114.79 777.781 109.39 779.281 103.59C779.681 102.09 780.681 96.8904 776.981 98.1904C762.381 103.39 747.281 107.39 732.481 112.19C717.781 116.99 703.081 121.89 688.381 126.89C680.881 129.49 673.481 132.09 665.981 134.69C672.881 126.89 679.081 118.39 684.681 109.59C689.881 101.49 695.181 92.5904 697.781 83.1904C698.381 80.9904 700.081 71.9904 693.981 74.3904C652.281 90.8904 611.281 109.09 570.781 128.59C577.881 120.99 584.181 112.59 589.781 103.89C594.181 96.9904 598.681 89.4904 600.881 81.4904C601.381 79.4904 602.781 72.0904 597.681 73.9904C588.181 77.4904 578.681 81.0904 569.181 84.7904C570.981 81.5904 572.581 78.1904 573.581 74.7904C573.881 73.6904 574.881 67.9904 571.381 69.5904C558.681 75.2904 546.081 80.9904 533.381 86.7904C533.581 86.4904 533.681 86.2904 533.881 85.9904C534.781 84.2904 540.481 70.5904 533.181 76.0904C519.581 86.2904 505.881 96.2904 491.981 105.99C488.681 107.59 485.381 109.09 482.181 110.69C482.181 110.69 482.181 110.59 482.281 110.59C484.481 106.49 487.881 100.69 487.681 95.7904C487.481 91.3904 482.981 94.2904 481.181 95.1904C476.981 97.3904 472.881 99.4904 468.681 101.69C469.981 99.0904 471.081 96.4904 471.781 93.6904C472.181 92.0904 473.381 86.0904 469.181 87.6904C458.981 91.5904 448.881 95.4904 438.781 99.5904C438.881 97.5904 438.281 95.5904 435.781 96.6904C417.081 104.59 398.581 112.59 380.281 121.19C381.581 119.09 382.881 116.89 384.081 114.69C386.481 110.29 390.181 103.89 389.981 98.5904C389.781 93.8904 384.881 96.8904 382.881 97.9904C374.481 102.59 365.981 107.19 357.581 111.89C359.981 108.39 362.181 104.79 364.181 101.19C366.581 96.7904 370.281 90.4904 370.081 85.1904C369.881 80.4904 364.981 83.4904 363.081 84.5904C351.181 90.8904 339.181 97.1904 327.281 103.59C331.881 98.0904 335.981 92.1904 339.681 86.3904C343.481 80.4904 347.381 73.9904 349.281 67.0904C349.681 65.7904 350.981 58.5904 346.481 60.6904C316.081 74.7904 286.181 89.7904 256.681 105.79C257.181 104.29 257.681 102.79 257.981 101.49C266.081 95.5904 274.081 89.6904 282.181 83.8904C294.581 74.7904 304.381 61.1904 311.681 47.7904C313.981 43.5904 317.481 37.5904 317.281 32.4904C317.081 27.9904 312.381 30.8904 310.581 31.8904C286.581 44.4904 262.981 57.7904 239.681 71.4904C240.181 70.5904 240.681 69.7904 241.081 68.8904C243.281 64.9904 245.081 60.9904 246.381 56.6904C246.781 55.2904 248.081 48.1904 243.581 50.0904C224.881 58.3904 206.581 67.4904 188.881 77.4904C189.781 75.9904 190.681 74.4904 191.481 72.9904C191.881 72.2904 202.781 50.2904 194.081 53.4904C167.281 63.1904 141.481 75.4904 116.881 89.7904C118.081 86.5904 119.181 82.3904 117.081 80.8904C113.881 78.5904 107.081 85.1904 105.581 86.4904C98.7813 92.5904 92.8813 99.7904 87.4813 107.19C82.1813 114.39 76.7813 122.39 73.3813 130.79C71.4813 135.49 69.5813 140.29 67.7813 144.99C66.1813 148.19 65.1813 151.59 64.9813 155.19C65.1813 160.09 70.4813 157.19 72.4813 155.89C79.4813 151.39 86.2813 147.29 93.1813 143.39C92.6813 143.89 92.0813 144.49 91.5813 144.99C81.3813 155.49 72.1813 168.39 66.3813 181.89C65.5813 183.69 61.5813 191.79 64.6813 193.99C67.2813 195.89 71.9813 191.89 74.4813 189.69C71.5813 193.99 68.8813 198.39 66.4813 202.69C64.0813 207.09 60.4813 213.29 60.6813 218.59C60.8813 222.99 65.7813 220.59 67.6813 219.19C74.9813 213.79 82.2813 208.49 89.6813 203.29C89.2813 204.89 88.9813 206.39 89.0813 207.89C89.0813 208.29 89.1813 208.59 89.2813 208.89C89.2813 208.89 89.2813 208.89 89.2813 208.99C87.6813 211.89 79.6813 229.69 90.2813 222.79C92.4813 221.29 94.6813 219.89 96.9813 218.39C96.1813 219.79 95.4813 221.09 94.6813 222.39C92.2813 226.69 88.6813 232.89 88.8813 238.19C89.0813 242.79 93.8813 239.89 95.7813 238.79C99.7813 236.49 103.781 234.19 107.781 231.89C104.781 236.39 102.081 240.89 99.5813 245.39C97.1813 249.79 93.4813 256.09 93.7813 261.39C93.9813 266.09 98.8813 263.09 100.781 261.99C108.781 257.79 116.781 253.49 124.781 249.29C120.781 254.79 117.181 260.49 114.081 266.19C111.681 270.59 107.981 276.89 108.181 282.29C108.381 286.99 113.281 283.99 115.181 282.89C126.181 276.89 137.281 270.79 148.281 264.79C140.881 270.59 133.481 276.39 126.181 282.39C125.281 283.19 124.281 283.89 123.381 284.69C113.081 293.09 104.681 305.59 98.3813 317.19C96.0813 321.39 92.5813 327.29 92.8813 332.39C93.0813 336.89 97.6813 333.99 99.4813 332.99C114.781 324.89 130.081 316.79 145.381 308.69C145.381 308.79 145.281 308.79 145.281 308.89C145.081 309.29 136.181 327.99 143.181 324.99C147.081 323.29 150.881 321.69 154.781 319.99C155.281 323.49 159.381 320.99 160.981 320.09C170.281 315.09 179.581 310.19 188.881 305.19C188.881 306.49 189.781 307.09 192.181 305.59C198.281 301.99 204.381 298.49 210.481 294.99C225.781 287.89 241.081 280.49 256.181 272.99C257.281 273.89 259.481 272.49 260.581 271.99C283.981 260.29 308.081 249.69 331.781 238.59C333.981 237.59 336.081 236.59 338.281 235.59C319.381 248.69 300.681 261.99 282.181 275.49C247.381 300.79 213.181 326.99 179.381 353.59C174.181 358.29 169.381 363.39 164.981 368.89C157.281 378.29 150.281 388.29 144.381 398.99C141.181 404.79 136.281 413.19 136.681 420.19C136.981 426.29 143.481 422.59 145.981 421.09C199.681 387.59 253.481 354.19 307.881 321.79C306.581 324.69 305.681 327.69 305.781 330.39C305.981 334.89 310.681 331.99 312.581 330.99C321.881 325.89 331.281 320.89 340.681 315.89C278.881 365.69 220.381 419.19 167.181 477.89C158.581 487.39 150.681 497.39 143.681 508.29C138.381 516.59 132.881 525.69 130.281 535.29C129.481 538.29 127.981 545.99 134.181 544.29C141.281 542.39 148.281 534.69 152.981 529.59C162.781 518.69 172.881 507.99 183.081 497.49C185.881 494.59 188.681 491.79 191.481 488.89C191.881 489.59 192.781 489.69 194.681 488.59C197.081 487.19 199.481 485.89 201.781 484.59C200.581 487.09 199.481 489.59 198.781 492.19C198.481 493.29 197.281 499.69 201.181 497.89C210.581 493.39 219.881 488.89 229.281 484.49C229.681 484.89 230.381 484.89 231.381 484.49C233.281 483.59 235.181 482.69 237.081 481.79C231.481 492.69 227.381 505.29 231.481 517.09C231.581 518.99 232.581 519.79 234.481 519.29C256.081 509.99 277.781 500.69 299.381 491.39C288.581 500.79 277.781 510.09 266.981 519.49C256.181 528.89 247.281 541.39 240.381 553.89C239.581 555.39 229.381 574.19 237.881 572.49C246.581 570.69 255.181 568.59 263.781 566.29C249.381 573.59 235.181 581.39 221.181 589.59C215.281 593.09 210.181 599.39 205.881 604.59C200.081 611.59 194.881 619.09 190.481 627.09C188.081 631.49 184.481 637.69 184.681 642.99C184.881 647.69 189.781 644.59 191.581 643.59C221.881 627.79 255.581 613.69 289.081 602.59C295.881 600.39 302.581 598.19 309.481 596.19C309.781 597.69 310.681 598.69 312.781 597.69C318.381 595.29 323.981 592.89 329.581 590.59C331.181 590.19 332.681 589.79 334.281 589.39C290.381 621.59 246.381 653.79 202.581 686.09C188.781 696.29 177.881 711.39 169.681 726.29C167.081 730.99 163.181 737.69 163.481 743.29C163.681 748.29 168.881 745.09 170.881 743.99C217.881 718.29 265.381 694.09 313.581 671.19C293.181 685.09 272.881 698.89 252.481 712.79C240.481 720.99 231.081 734.09 223.381 746.19C219.181 752.69 214.981 759.89 212.881 767.39C212.481 768.69 211.081 776.89 215.881 774.49C227.981 768.59 239.981 762.69 251.981 756.79C246.081 763.99 240.781 771.69 236.281 779.89C233.781 784.49 229.881 791.09 230.181 796.69C230.381 801.69 235.581 798.39 237.581 797.39C260.781 785.79 283.881 774.19 307.081 762.59C299.881 769.49 293.881 777.89 288.681 786.09C284.981 791.99 281.081 798.39 279.181 805.19C278.881 806.39 277.481 813.69 281.881 811.59C307.181 799.29 332.481 786.99 357.881 774.79C354.981 776.89 351.981 778.99 349.081 781.19C336.881 789.99 327.281 803.49 320.181 816.49C318.081 820.29 309.281 839.09 321.281 832.09C336.481 823.19 351.681 814.29 366.881 805.39C362.981 809.09 359.081 812.69 355.181 816.39C347.881 823.39 341.581 831.49 336.681 840.29C335.181 842.99 328.481 857.39 337.481 851.89C377.181 827.99 417.281 804.39 457.981 781.99C456.481 783.69 454.981 785.49 453.481 787.19C447.381 794.59 441.881 802.49 437.281 810.89C434.781 815.49 430.981 821.99 431.181 827.59C431.381 832.39 436.481 829.49 438.481 828.29C471.481 807.89 504.781 788.49 538.381 769.89C537.481 771.79 536.781 773.69 536.181 775.69C535.881 776.89 534.781 782.79 538.581 781.19C540.781 780.29 542.981 779.29 545.181 778.39C540.181 781.89 535.281 785.39 530.281 788.79C521.481 794.79 514.681 804.29 508.981 813.19C505.981 817.99 502.781 823.19 501.281 828.69C500.981 829.79 499.981 835.49 503.481 833.89C538.581 818.09 573.881 803.29 609.381 789.09C626.681 785.09 643.181 777.69 659.281 769.79C661.481 768.99 663.581 768.19 665.781 767.39C640.481 782.39 615.481 797.79 590.781 813.69C580.181 820.49 571.781 832.59 565.081 843.09C561.381 848.79 557.681 855.09 555.781 861.79C555.481 862.89 554.181 870.09 558.481 867.99C604.781 845.49 651.581 823.89 698.681 803.09C679.481 814.29 660.381 825.59 641.381 836.99C637.481 839.29 633.581 841.59 629.781 843.99C623.581 847.69 618.381 854.19 613.881 859.59C607.881 866.89 602.381 874.69 597.881 882.99C595.381 887.49 591.581 893.99 591.881 899.49C592.081 904.29 597.181 901.29 599.081 900.19C638.281 878.29 677.881 857.39 717.981 837.49C715.381 841.09 712.981 844.69 710.781 848.19C706.881 854.29 702.981 860.89 700.981 867.89C700.481 869.59 699.281 876.19 703.781 874.49C726.681 865.59 749.681 856.69 772.581 847.79C772.181 848.19 771.681 848.69 771.281 849.09C764.981 855.79 759.381 863.19 754.481 870.89C750.681 876.89 746.781 883.39 744.881 890.29C744.481 891.79 743.181 898.59 747.681 896.79C790.781 878.99 834.181 861.89 877.881 845.49C875.181 849.19 872.681 852.99 870.481 856.49C866.681 862.39 862.781 868.89 860.881 875.69C860.381 877.59 859.281 883.49 863.681 882.09C915.981 865.39 968.181 848.79 1020.78 833.09C1012.18 838.89 1003.58 844.69 995.081 850.79C984.481 858.29 976.081 869.59 969.181 880.39C968.081 882.09 953.081 907.09 962.581 905.49C1001.18 898.99 1038.98 888.89 1075.48 875.59C1075.48 875.69 1075.48 875.69 1075.48 875.79C1075.68 880.09 1080.48 877.79 1082.28 876.39C1085.58 873.89 1088.88 871.49 1092.18 869.19C1111.18 861.69 1129.78 853.29 1148.18 843.99C1151.68 841.59 1154.78 838.79 1157.58 835.59C1163.68 829.19 1168.98 822.09 1173.78 814.59C1174.58 813.29 1189.48 787.39 1180.38 789.69C1160.08 794.99 1140.48 803.69 1122.98 815.29C1113.18 818.99 1103.28 822.49 1093.28 825.79C1113.58 815.09 1134.18 805.09 1154.98 795.69C1167.78 789.89 1177.48 775.29 1184.78 763.89C1185.68 762.59 1200.88 736.09 1191.48 738.49C1189.68 738.99 1187.88 739.39 1186.08 739.89C1189.08 737.69 1191.88 735.19 1194.38 732.39C1195.58 731.09 1196.78 729.79 1197.88 728.49C1202.38 725.89 1206.88 723.39 1211.48 720.79C1219.48 716.29 1225.98 706.19 1230.68 698.79C1233.38 694.49 1236.28 689.79 1237.58 684.79C1237.58 683.89 1238.58 678.69 1235.28 680.19Z" fill="#286B43"/>
<path opacity="0.83" d="M1174.58 682.19C1174.38 677.49 1169.38 680.491 1167.48 681.491C1153.28 689.491 1139.08 697.491 1124.98 705.491C1130.88 698.391 1135.98 690.39 1140.08 682.79C1142.08 679.09 1151.48 658.89 1138.98 666.59C1118.68 678.99 1098.48 691.49 1078.18 703.89C1083.08 699.59 1087.88 695.291 1092.78 690.991C1101.88 682.891 1109.58 672.29 1115.38 661.69C1117.28 658.39 1118.78 654.99 1119.88 651.39C1120.18 650.39 1121.28 643.99 1117.48 645.89C1106.18 651.49 1094.98 657.29 1083.98 663.39C1088.08 660.29 1092.08 657.19 1096.18 654.09C1103.58 648.49 1109.58 640.49 1113.98 632.39C1114.88 630.69 1120.48 617.59 1113.28 622.79C1088.38 641.09 1063.68 659.79 1039.28 678.69C1042.58 674.19 1045.68 669.49 1048.48 664.59C1048.78 663.99 1058.08 645.19 1050.68 647.89C1040.88 651.49 1031.18 655.29 1021.58 659.19C1023.48 657.69 1025.48 656.19 1027.38 654.69C1036.68 647.39 1044.18 638.19 1050.48 628.19C1053.78 622.99 1057.18 617.29 1058.88 611.39C1059.28 610.09 1060.38 604.19 1056.48 605.79C1023.88 619.19 992.181 634.79 960.681 650.69C959.781 651.19 958.781 651.69 957.881 652.09C980.281 633.49 1002.68 614.99 1025.08 596.39C1033.48 589.39 1040.38 579.29 1045.58 569.79C1045.78 569.39 1053.68 552.79 1047.48 555.39C1025.68 564.79 1004.08 574.89 982.781 585.79C986.581 582.49 990.281 579.19 993.981 575.89C999.281 571.19 1003.98 564.79 1006.78 558.19C1007.08 557.39 1008.78 554.09 1007.48 553.09C1006.18 552.19 1003.48 554.79 1002.88 555.29C979.581 575.39 955.681 594.99 931.081 613.79C923.281 618.39 915.481 622.99 907.781 627.79C908.981 625.79 910.181 623.79 911.381 621.69C913.481 617.79 922.381 599.19 910.281 606.09C906.081 608.49 901.981 610.89 897.781 613.29C899.981 610.19 901.981 606.89 903.781 603.59C905.581 600.29 913.281 583.89 902.881 590.09C875.281 606.19 847.781 622.391 820.181 638.491C827.181 633.291 834.081 627.99 841.081 622.79C851.281 615.09 859.481 604.09 865.581 592.89C867.181 589.89 874.781 573.39 864.681 579.69C846.281 591.09 827.881 602.591 809.481 613.991C812.281 610.191 814.881 606.19 817.181 602.09C817.781 601.69 818.281 601.29 818.881 600.89C833.681 590.39 848.481 579.79 863.181 569.29C873.481 564.99 883.781 560.69 894.081 556.39C889.781 561.59 886.181 567.49 883.281 572.79C881.781 575.49 875.181 589.69 884.081 584.29C922.181 560.99 960.181 537.691 997.981 513.991C998.681 513.491 999.481 512.991 1000.18 512.491C1014.48 503.791 1028.88 495.09 1043.18 486.39C1049.98 482.29 1055.38 473.69 1059.08 466.89C1060.18 464.79 1065.08 454.39 1058.48 458.29C1046.88 465.09 1035.28 471.89 1023.68 478.59C1023.68 478.49 1023.68 478.49 1023.78 478.39C1024.08 477.29 1024.98 472.49 1021.78 473.79C1018.98 474.89 1016.18 476.09 1013.38 477.19C1021.28 471.19 1027.68 461.29 1032.68 453.49C1035.88 448.39 1039.28 442.89 1040.88 436.99C1041.28 435.69 1042.28 429.99 1038.48 431.49C1026.48 436.29 1014.48 440.99 1002.48 445.79C1010.48 439.29 1017.08 429.29 1022.38 421.09C1025.88 415.69 1029.38 409.69 1031.18 403.49C1031.48 402.19 1032.68 395.79 1028.68 397.59C1018.08 402.19 1007.48 406.89 996.881 411.49C1005.78 404.49 1012.98 393.99 1018.88 384.79C1022.48 379.09 1026.28 372.79 1028.08 366.19C1028.48 364.59 1029.68 358.39 1025.38 359.99C1019.68 362.19 1013.98 364.39 1008.28 366.59C1009.88 364.29 1011.48 361.99 1012.88 359.69C1016.28 354.29 1019.88 348.39 1021.58 342.19C1021.98 340.79 1023.08 334.79 1019.08 336.39C996.181 345.39 972.981 353.69 949.781 361.89C967.381 351.19 985.081 340.39 1002.68 329.69C1012.28 323.79 1019.88 312.39 1025.88 303.19C1029.18 297.99 1032.58 292.29 1034.28 286.29C1034.58 285.19 1035.78 278.89 1031.88 280.69C1029.48 281.79 1026.98 282.89 1024.58 283.99C1025.48 282.59 1026.48 281.29 1027.28 279.89C1030.68 274.49 1034.28 268.59 1035.98 262.29C1036.38 260.69 1037.48 254.99 1033.48 256.39C1007.78 265.59 982.081 274.69 956.381 283.89C973.881 271.79 991.381 259.69 1008.88 247.59C1018.68 240.89 1026.28 230.29 1032.58 220.39C1035.98 215.09 1039.48 209.29 1041.18 203.09C1041.68 201.29 1042.68 196.09 1038.68 197.29C1027.28 200.79 1015.78 204.29 1004.38 207.79C1008.68 205.19 1012.88 202.59 1017.18 199.99C1026.78 194.19 1034.48 182.69 1040.38 173.39C1043.68 168.19 1047.08 162.49 1048.78 156.49C1049.18 154.99 1050.28 149.39 1046.38 150.89C1026.68 158.19 1006.88 165.49 987.181 172.79C988.281 171.29 989.281 169.69 990.281 168.19C993.481 163.19 996.781 157.69 998.381 151.89C998.681 150.89 999.781 144.69 996.081 146.49C988.081 150.29 980.181 154.09 972.181 157.89C979.381 150.89 985.381 141.59 989.881 133.39C991.481 130.49 999.181 113.49 988.981 120.09C965.481 135.19 941.881 150.29 918.281 165.39C924.881 159.19 931.481 152.99 938.181 146.79C942.581 142.69 946.281 137.79 949.181 132.49C949.981 130.99 953.981 122.09 948.681 125.59C930.981 137.09 913.281 148.49 895.581 159.99C889.281 164.09 884.381 171.59 880.781 177.99C879.881 179.59 875.281 190.09 881.381 185.89C885.081 183.39 888.681 180.89 892.381 178.29C888.681 181.79 884.981 185.29 881.381 188.89C857.981 203.89 834.581 218.79 811.181 233.79C740.981 263.89 670.781 294.59 602.681 329.39C620.281 316.99 637.981 304.69 655.881 292.59C692.181 267.99 729.081 244.29 766.481 221.29C770.381 218.49 773.981 215.29 777.281 211.79C784.181 204.49 790.281 196.39 795.681 187.89C799.881 181.39 804.181 174.19 806.181 166.59C806.481 165.29 808.081 157.09 803.181 159.49C769.081 176.19 735.381 193.89 702.181 212.39C707.581 208.59 712.981 204.79 718.481 200.99C731.981 191.59 742.481 177.19 751.281 163.49C755.981 156.19 760.781 148.09 763.081 139.59C763.481 137.99 765.181 129.09 759.681 131.59C712.681 152.99 666.981 177.39 622.981 204.39C622.281 204.79 621.581 205.29 620.881 205.69C631.681 197.39 640.281 185.29 646.681 173.49C648.081 170.99 652.981 160.49 650.881 157.89C656.281 152.89 660.581 146.09 663.981 139.99C665.181 137.89 670.581 125.99 663.281 130.49C635.181 148.09 607.681 166.69 580.981 186.29C548.981 206.89 516.881 227.39 484.881 247.89C486.281 245.49 487.581 243.09 488.681 240.69C518.481 217.79 548.281 194.79 578.081 171.89C585.381 166.29 591.181 158.59 595.481 150.59C596.581 148.49 601.981 136.59 594.781 141.19C581.581 149.59 568.281 157.99 554.981 166.39C555.581 165.89 556.081 165.39 556.681 164.89C564.881 157.69 571.681 148.19 576.881 138.69C576.981 138.49 584.781 121.69 578.781 124.59C560.581 133.19 542.481 141.79 524.281 150.49C524.381 150.39 524.381 150.19 524.481 150.09C526.881 145.69 530.581 139.39 530.381 134.09C530.181 129.59 525.181 132.19 523.381 133.49C513.881 140.09 504.281 146.79 494.781 153.39C494.881 152.19 494.681 151.09 493.881 150.49C490.281 147.89 482.181 157.49 480.581 159.09C475.881 163.79 471.181 168.39 466.481 173.09C460.781 176.99 455.181 180.99 449.481 184.89C453.281 179.49 456.781 173.89 459.781 168.39C462.281 163.79 466.181 157.29 465.881 151.69C465.681 146.89 460.581 149.79 458.581 150.99C435.981 165.29 413.381 179.59 390.681 193.89C397.181 186.29 402.681 177.69 407.381 169.19C409.881 164.59 413.781 157.99 413.581 152.29C413.381 147.29 408.181 150.59 406.181 151.59C382.381 163.99 358.581 176.39 334.781 188.89C336.981 184.79 339.081 180.69 340.981 176.49C341.581 175.29 347.181 161.59 340.181 163.89C315.081 172.09 289.481 176.69 263.381 179.99C263.981 178.09 264.281 176.29 264.281 174.59C264.081 170.19 259.181 172.59 257.381 173.99C252.981 177.39 248.481 180.49 243.981 183.79C232.881 191.89 224.081 203.49 216.781 214.99C216.681 215.19 216.581 215.29 216.481 215.49C201.181 219.99 186.481 226.99 173.281 236.19C160.981 244.69 151.381 258.69 144.281 271.59C141.981 275.69 138.581 281.59 138.781 286.59C138.981 290.79 143.581 288.39 145.381 287.19C163.381 274.69 184.681 267.19 206.981 264.99C201.281 271.79 196.081 279.09 191.781 286.89C189.781 290.49 188.081 294.19 186.881 298.09C186.581 299.19 185.281 306.19 189.481 304.09C194.781 301.49 200.081 298.79 205.481 296.19C203.581 297.79 201.681 299.39 199.781 301.09C189.881 309.59 181.781 321.19 175.581 332.49C173.381 336.49 169.981 342.29 170.181 347.19C170.381 351.49 174.881 348.69 176.581 347.79C206.581 331.69 236.581 315.69 266.681 299.59C266.181 301.39 265.881 303.19 265.781 304.99C265.881 306.59 266.481 307.29 267.381 307.59C254.981 324.09 243.581 341.29 233.081 359.09C230.881 362.79 222.381 381.49 234.181 374.49C257.081 360.89 279.981 347.19 302.981 333.59C302.781 334.59 302.681 335.69 302.781 336.69C302.981 340.39 306.481 339.29 308.681 337.99C304.881 341.39 301.081 344.69 297.381 348.09C288.081 356.39 280.381 366.99 274.481 377.79C272.581 381.09 271.081 384.59 269.881 388.19C269.581 389.19 268.381 395.69 272.281 393.79C283.681 388.29 294.981 382.59 306.181 376.69C302.781 379.49 299.481 382.19 296.081 384.89C287.481 391.99 280.381 402.39 275.181 412.09C273.581 414.89 265.981 431.79 276.081 425.29C309.881 403.49 343.581 381.69 377.481 359.99C349.381 384.09 321.281 408.19 293.081 432.19C285.281 438.89 278.881 448.09 273.981 456.99C272.281 460.19 269.581 464.69 269.781 468.59C269.881 471.79 273.481 470.09 274.881 469.09C275.981 468.19 277.081 467.29 278.181 466.49C278.381 466.39 278.481 466.19 278.681 466.09C308.481 442.59 337.481 417.99 365.481 392.29C385.481 375.19 405.581 358.19 425.481 340.99C419.681 346.69 413.881 352.39 408.181 358.09C402.181 363.99 397.081 371.19 392.581 378.29C389.081 383.79 385.481 389.89 383.681 396.19C383.081 398.19 382.181 403.29 386.281 402.19C388.081 401.69 389.881 400.69 391.481 399.39C389.281 402.39 387.281 405.59 385.781 408.89C385.481 409.59 383.881 412.89 385.081 413.79C386.281 414.69 388.981 412.09 389.581 411.59C416.181 388.29 439.781 369.79 468.781 349.69C468.881 349.69 469.081 349.69 469.181 349.69C470.781 349.29 482.881 340.09 475.881 345.59C478.181 343.79 480.481 341.99 482.781 340.29C487.681 336.49 492.781 332.79 497.781 329.19C502.681 325.59 507.581 322.09 512.581 318.59C492.381 335.19 472.381 351.99 452.581 368.99C428.481 389.59 404.681 410.69 381.281 431.99C367.281 444.69 354.881 461.39 347.281 478.79C346.381 480.79 341.981 489.79 345.381 492.19C348.781 494.69 355.881 487.69 357.581 486.19C369.281 476.29 381.081 466.59 392.981 456.99C398.681 452.39 404.381 447.79 410.181 443.19C411.581 442.09 413.081 440.89 414.481 439.79C414.981 439.39 415.481 438.99 415.881 438.69C412.181 441.59 413.081 440.89 418.581 436.59C418.981 436.19 419.481 435.89 419.681 435.69C421.581 434.19 423.481 432.79 425.481 431.29C427.681 429.59 429.981 427.89 432.181 426.29C417.781 438.39 403.481 450.59 389.381 462.99C377.481 473.39 367.681 487.19 360.181 500.89C357.481 505.79 353.481 512.69 353.681 518.59C353.881 523.49 359.381 520.89 361.481 519.29C404.681 485.69 450.581 455.69 497.981 428.49C473.881 447.09 450.281 466.29 427.181 485.99C415.681 495.89 406.081 509.49 398.881 522.69C396.281 527.39 392.381 534.19 392.581 539.89C392.781 544.69 398.081 541.99 400.081 540.59C433.081 517.49 466.981 495.69 501.681 475.19C487.081 486.49 472.681 498.09 458.481 509.89C419.481 542.09 381.981 576.19 345.781 611.39C345.581 611.59 345.381 611.791 345.081 611.991C345.081 611.991 345.081 611.99 345.081 612.09C343.181 613.89 341.381 615.691 339.481 617.491C328.781 627.991 319.381 641.99 313.381 655.69C312.581 657.59 308.481 665.89 311.581 668.19C314.681 670.49 321.481 663.99 322.981 662.59C338.681 648.09 354.681 633.79 370.881 619.79C361.681 628.39 352.681 637.091 343.781 645.991C334.081 655.691 325.381 668.291 319.881 680.991C319.081 682.691 315.381 690.391 318.281 692.491C321.181 694.591 327.281 688.69 328.681 687.39C348.581 669.59 368.781 652.09 389.181 634.89C385.481 638.99 382.081 643.49 379.081 648.09C376.281 649.89 373.681 652.89 371.881 654.79C366.881 660.09 362.481 665.891 358.681 671.991C357.881 673.191 345.781 693.99 353.281 692.39C362.381 690.39 371.281 687.79 379.881 684.59C378.281 687.79 376.781 691.39 376.881 694.59C376.881 694.79 376.881 694.99 376.981 695.19C367.881 704.09 358.881 712.99 349.781 721.89C341.581 729.89 334.281 740.69 329.681 751.19C328.781 753.19 327.781 756.39 327.881 758.59C321.981 765.99 316.881 774.49 313.181 782.79C311.781 785.59 310.981 788.49 310.781 791.59C310.881 794.69 313.481 794.19 315.481 793.19C313.981 796.19 312.781 799.491 312.881 802.491C313.081 806.291 317.381 804.29 318.981 803.09C338.781 787.89 358.481 772.691 378.281 757.491C378.481 758.791 379.181 759.49 380.981 758.69C392.581 753.29 404.081 747.79 415.481 742.19C397.781 760.59 380.181 779.091 362.481 797.491C355.681 804.591 349.481 813.29 345.481 822.39C343.781 826.19 341.981 833.39 348.581 829.39C367.181 818.19 385.381 806.09 403.681 794.39C420.481 783.69 437.081 772.69 453.581 761.59C454.281 761.09 455.081 760.59 455.781 760.09C454.481 761.59 453.281 763.09 451.981 764.69C445.881 772.19 440.181 780.29 436.281 789.19C434.381 793.59 432.081 802.59 439.981 797.59C466.981 780.69 493.881 763.791 520.881 746.991C521.781 747.191 523.081 746.79 525.181 745.59C525.581 745.39 525.981 745.09 526.281 744.89C515.181 755.89 504.481 767.09 493.981 778.59C486.881 786.39 480.281 795.09 476.081 804.79C474.381 808.69 472.381 816.39 479.281 812.19C507.781 794.69 535.781 776.49 563.381 757.69C564.181 757.79 565.481 757.39 567.281 756.39C593.381 741.79 619.481 727.19 645.581 712.59C636.281 719.39 626.981 726.191 617.681 732.991C607.881 740.191 600.081 750.99 594.281 761.59C592.681 764.49 585.481 780.19 595.181 774.19C616.081 761.29 636.981 748.391 657.881 735.491C650.781 742.491 644.881 750.99 640.281 759.59C638.481 762.79 630.881 779.091 641.181 772.991C655.181 764.791 669.281 756.59 683.281 748.39C681.081 751.59 679.181 754.99 677.281 758.29C675.281 761.99 667.081 779.19 678.281 772.79C691.781 765.19 705.281 757.49 718.881 749.89C718.381 750.39 717.781 750.89 717.281 751.39C707.381 760.69 698.981 771.69 692.481 783.59C690.481 787.29 681.481 806.59 693.581 799.29C719.681 783.59 745.681 767.89 771.781 752.19C769.381 757.89 766.481 766.19 771.781 764.39C793.981 757.09 816.081 749.09 837.881 740.19C835.681 745.89 834.381 752.39 841.881 748.09C867.581 733.59 893.481 719.29 919.681 705.69C908.281 713.29 896.781 720.79 885.181 728.19C880.681 730.99 876.281 733.69 871.881 736.59C860.381 743.99 851.281 757.89 844.781 769.69C843.081 772.79 834.681 791.39 845.781 784.29C884.281 760.19 924.481 738.99 965.981 720.79C963.181 723.49 960.581 726.49 958.281 729.39C952.981 735.79 948.181 742.691 944.181 749.991C943.581 751.091 942.181 754.09 940.981 757.19C936.981 760.49 932.881 763.79 928.881 767.09C920.781 773.79 914.081 783.59 909.081 792.79C907.781 795.29 900.481 811.79 909.981 805.29C943.281 782.49 976.181 758.89 1010.38 737.39C998.781 747.49 987.081 757.59 975.481 767.69C965.481 776.39 957.081 788.09 950.781 799.69C948.781 803.29 939.881 822.49 951.881 815.29C965.281 807.19 978.581 799.19 991.981 791.09C988.681 795.79 985.781 800.691 983.181 805.491C980.781 809.891 977.081 816.09 977.381 821.39C977.581 825.99 982.481 823.091 984.381 821.991C1004.68 810.691 1024.98 799.291 1045.38 787.991C1044.58 789.891 1043.88 791.79 1043.28 793.79C1042.68 795.99 1041.58 801.69 1046.08 800.39C1074.88 792.29 1102.98 779.49 1126.68 761.09C1139.18 751.39 1149.08 738.29 1156.68 724.39C1158.88 720.29 1162.28 714.59 1162.38 709.59C1164.98 705.69 1167.28 701.69 1169.48 697.79C1171.08 693.99 1174.88 687.69 1174.58 682.19Z" fill="#19492D"/>
</svg>
