<?xml version="1.0" encoding="UTF-8"?>
<svg id="Warstwa_2" data-name="Warstwa 2" xmlns="http://www.w3.org/2000/svg" viewBox="0 0 394.02 79.19">
  <defs>
    <style>
      .cls-1 {
        stroke-width: .5px;
      }

      .cls-1, .cls-2 {
        stroke: #1d1d1b;
      }

      .cls-1, .cls-2, .cls-3, .cls-4, .cls-5 {
        stroke-miterlimit: 10;
      }

      .cls-1, .cls-2, .cls-4 {
        fill: none;
      }

      .cls-2, .cls-3, .cls-5 {
        stroke-width: .25px;
      }

      .cls-6 {
        fill: #e8edba;
      }

      .cls-7, .cls-8 {
        opacity: .17;
      }

      .cls-7, .cls-9 {
        fill: #1d1d1b;
      }

      .cls-8, .cls-10, .cls-3, .cls-5 {
        fill: #fff;
      }

      .cls-11 {
        fill: #2a4a20;
      }

      .cls-12 {
        fill: #e30613;
      }

      .cls-13 {
        letter-spacing: .01em;
      }

      .cls-14 {
        letter-spacing: .02em;
      }

      .cls-15 {
        fill: #5e4711;
        font-family: 'IM_FELL_DW_Pica_SC', 'IM FELL DW Pica SC';
        font-size: 24px;
      }

      .cls-10 {
        opacity: .29;
      }

      .cls-16 {
        fill: #002b0e;
        opacity: .18;
      }

      .cls-17 {
        fill: #e94e2b;
      }

      .cls-3, .cls-5 {
        stroke: #fff;
        stroke-linecap: round;
      }

      .cls-18 {
        letter-spacing: 0em;
      }

      .cls-4 {
        stroke: #fffbde;
        stroke-width: 2px;
      }

      .cls-19 {
        fill: #063;
      }

      .cls-5 {
        opacity: .2;
      }
    </style>
  </defs>
  <g id="Warstwa_1-2" data-name="Warstwa 1">
    <g>
      <path class="cls-11" d="M91.98,37.19c.98-.41,1.76-.44,2.33-.1,.57,.34,.85,1.03,.85,2.05,0,.26-.02,.53-.05,.81-.03,.28-.09,.54-.18,.77-.4,.1-.85,.22-1.34,.38-.49,.15-1.08,.37-1.75,.66-1.38,.58-2.76,1.3-4.13,2.16-1.37,.86-2.68,1.66-3.93,2.38-1.37,4.02-2.49,7.73-3.36,11.12-.88,3.39-1.56,6.66-2.04,9.81-1.02,.24-1.93,.22-2.71-.06-.78-.28-1.51-.86-2.2-1.72,.21-.62,.46-1.36,.76-2.24,.3-.87,.66-1.96,1.08-3.28,.42-1.31,.92-2.91,1.51-4.78,.59-1.87,1.29-4.11,2.1-6.71-1.27,.16-2.09-.21-2.48-1.14,.15-.23,.57-.63,1.26-1.17,.69-.55,1.54-1.19,2.53-1.92,.45-1.46,.85-2.76,1.18-3.89,.33-1.13,.64-2.2,.91-3.21,.27-1.01,.52-1.99,.75-2.94,.23-.95,.43-1.95,.61-2.99-.09,.04-.14,.06-.23,.1-1.15,.53-2.09,.68-2.79,.44-.71-.24-1.06-.83-1.06-1.76,0-.26,.04-.58,.11-.97,.08-.39,.17-.74,.29-1.06,.57-.23,1.14-.47,1.7-.73,.56-.26,1.29-.6,2.21-1.02,1.91-.87,3.71-1.67,5.4-2.4,1.68-.73,3.21-1.44,4.58-2.16,1.37-.71,2.55-1.33,3.54-1.85,.99-.52,1.75-.88,2.27-1.09,.71-.27,1.35-.13,1.91,.43,.56,.56,.99,1.49,1.31,2.78-1,.24-1.79,.48-2.4,.71-.6,.23-1.14,.43-1.6,.61-1.58,.61-3.02,1.26-4.33,1.93-1.31,.68-2.55,1.36-3.71,2.04-.18,.37-.39,.82-.62,1.36-.23,.54-.53,1.3-.9,2.27-.37,.97-.83,2.23-1.4,3.79-.57,1.55-1.27,3.52-2.13,5.91,1.19-.72,2.32-1.38,3.41-1.98,1.09-.6,2-1.05,2.73-1.35Z"/>
      <path class="cls-11" d="M98.22,51.47c0-.29,.02-.66,.07-1.11,.05-.45,.13-1.06,.26-1.83,.12-.77,.29-1.7,.49-2.81,.2-1.1,.46-2.43,.77-3.99,.06-.34,.2-.91,.42-1.7,.22-.79,.5-1.64,.86-2.56,.36-.92,.79-1.84,1.3-2.77,.51-.93,1.13-1.7,1.84-2.31,.53-.06,1.23,.01,2.1,.23,.87,.22,1.62,.69,2.25,1.4-.72,1.08-1.32,2.12-1.8,3.12-.48,1-.92,2.02-1.31,3.06-.39,1.04-.75,2.09-1.08,3.17-.33,1.08-.69,2.22-1.1,3.42-.34,1.02-.65,2.06-.93,3.1-.28,1.05-.45,1.95-.47,2.65-.01,.56,0,.99-.02,1.23-.02,.25-.1,.4-.26,.46-.12,.05-.37,.06-.74,.04-.37-.02-.75-.12-1.14-.31-.39-.19-.74-.48-1.05-.87-.31-.39-.46-.94-.46-1.64Zm8.91-24.13c0-.19,.05-.5,.14-.91-.16-.1-.29-.3-.4-.58-.11-.28-.16-.55-.16-.81,0-.29,.04-.69,.12-1.22,.08-.52,.18-1.1,.3-1.71,.12-.62,.28-1.27,.47-1.96s.37-1.32,.56-1.9c.38-.13,.84-.18,1.38-.16,.55,.02,1.1,.11,1.67,.26,.56,.15,1.08,.35,1.55,.59,.47,.25,.83,.51,1.08,.78-.35,.46-.8,1.1-1.37,1.91-.57,.81-1.12,1.65-1.65,2.51-.53,.87-1.02,1.68-1.46,2.44-.44,.76-.72,1.29-.84,1.59-.38,.07-.7,.01-.98-.16-.28-.17-.42-.39-.42-.64Z"/>
      <path class="cls-11" d="M126.23,26.3c.05,.52-.14,1.28-.31,1.98-.18,.7-.39,1.35-.64,1.95-.25,.6-.52,1.11-.81,1.54-.29,.43-.56,.7-.81,.75-.33,.08-.55-.12-.62-.55,0-.1,.04-.26,.12-.49,.08-.23,.17-.49,.26-.77,.1-.28,.18-.56,.26-.84,.08-.28,.12-.51,.12-.71,0-.45-.1-.8-.31-1.04-.21-.25-.48-.32-.83-.22-1.27,.36-2.23,1.44-2.9,3.23-.66,1.79-1,4.23-1,7.32,0,.32,.03,.55,.05,.56,.25,.1,1.26-.37,1.78-.53,.52-.15,1.37-.52,1.54-.45,.02,0,.05,.18,.05,.37,0,.29-.06,.51-.19,.68-.73,.37-1.31,.67-1.73,.91-.43,.24-.75,.44-.97,.6-.22,.16-.36,.31-.4,.43-.05,.13-.07,.28-.07,.47,0,.25,0,.51,.02,.76,.02,.25,.02,.57,.02,.95,0,2.68-.72,5.04-2.15,7.11-1.43,2.07-3.43,3.64-5.97,4.75-.44,.11-.89,.14-1.36,.08-.47-.06-.92-.2-1.34-.4-.42-.21-.79-.47-1.1-.79-.31-.32-.6-.73-.66-1.09-.16-1.03,.25-2.48,.75-3.77,.5-1.29,1.18-2.51,2.04-3.66,.86-1.15,1.88-2.19,3.06-3.1,1.18-.92,2.46-1.6,3.84-2.03,0-.8-.08-1.57-.24-2.29-.16-.72-.32-1.42-.5-2.09-.17-.67-.34-1.32-.5-1.96-.16-.64-.24-1.3-.24-1.97,0-.87,.17-1.78,.52-2.74,.35-.96,.8-1.89,1.37-2.79,.57-.9,1.23-1.72,1.99-2.46,.76-.74,1.55-1.33,2.37-1.77,.35,0,.82,.14,1.4,.43,.59,.3,1.16,.65,1.74,1.07,.57,.42,1.08,.86,1.52,1.33,.44,.47,.78,.93,.81,1.24Zm-15.63,26.61c.75-.57,1.47-1.27,2.14-2.1,.67-.83,1.26-1.71,1.77-2.63,.5-.93,.9-1.87,1.2-2.83,.3-.96,.45-1.85,.45-2.68-.63,.29-1.32,.81-2.08,1.54-.75,.74-1.46,1.56-2.12,2.47-.66,.91-1.21,1.8-1.65,2.68-.44,.88-.66,1.6-.66,2.14,0,.7,.31,1.17,.94,1.41Z"/>
      <path class="cls-11" d="M126.94,44.47c0-1.12,.11-2.47,.33-4.05,.22-1.58,.55-3.29,.98-5.13,.43-1.84,.94-3.78,1.53-5.82,.59-2.04,1.26-4.1,1.99-6.16,.64-1.84,1.38-3.75,2.23-5.68,.85-1.93,1.77-3.84,2.76-5.73,.99-1.89,2.03-3.7,3.1-5.44,1.07-1.74,2.16-3.34,3.25-4.81,.51-.1,1.07-.15,1.66-.14,.59,.01,1.18,.07,1.74,.17,.56,.1,1.08,.25,1.55,.46,.47,.2,.85,.42,1.14,.66-2.42,2.9-4.59,5.81-6.52,8.71-1.93,2.91-3.45,5.6-4.57,8.06-.61,1.35-1.16,2.61-1.66,3.78-.5,1.17-.95,2.32-1.37,3.46-.42,1.14-.79,2.27-1.13,3.39-.34,1.12-.65,2.29-.93,3.51,6.13-9.33,10.72-14.15,13.72-14.71,.84-.16,1.74-.05,2.71,.32,.97,.37,1.82,.96,2.57,1.76-1,1.26-2.03,2.75-3.1,4.48-1.06,1.73-2.04,3.45-2.92,5.18-.89,1.72-1.61,3.31-2.17,4.75-.56,1.44-.84,2.48-.84,3.12,0,.32,.05,.53,.14,.62,.1,.09,.31,.11,.63,.04,.48-.1,.87-.24,1.16-.42,.29-.18,.47-.28,.53-.3,.16,.23,.26,.38,.29,.47,.03,.09,.05,.17,.05,.23,0,.13-.19,.35-.58,.66-.39,.31-.85,.65-1.38,.99-.53,.35-1.05,.67-1.57,.97-.51,.3-.9,.47-1.16,.53-.32,.07-.64,.05-.96-.06-.32-.11-.6-.28-.84-.51-.24-.24-.43-.51-.58-.83-.14-.32-.22-.67-.22-1.06,0-.48,.14-1.22,.41-2.23,.27-1,.65-2.19,1.13-3.56,.48-1.37,1.06-2.87,1.73-4.52,.67-1.64,1.4-3.33,2.17-5.05,0-.13-.06-.18-.19-.15-.1,.02-.35,.2-.75,.53-.4,.34-.78,.67-1.13,1-1.16,1.1-2.32,2.42-3.49,3.94-1.17,1.52-2.31,3.17-3.41,4.93-1.1,1.76-2.14,3.61-3.12,5.53-.97,1.92-1.81,3.82-2.51,5.7-.1,.25-.24,.49-.43,.73-.19,.24-.35,.38-.48,.41-.1,.02-.23-.05-.41-.23-.18-.18-.33-.42-.48-.71-.14-.3-.28-.61-.41-.92-.13-.32-.19-.6-.19-.86Z"/>
      <path class="cls-11" d="M152.63,36.52c0-.29,.02-.65,.07-1.09,.05-.44,.14-1.03,.27-1.77,.13-.74,.3-1.64,.51-2.7,.21-1.06,.48-2.33,.8-3.82,.06-.33,.21-.87,.44-1.61,.23-.74,.53-1.53,.9-2.37,.37-.84,.83-1.67,1.36-2.49,.53-.82,1.17-1.45,1.92-1.91,.55,.05,1.28,.28,2.19,.68,.91,.41,1.69,1.04,2.34,1.88-.75,.93-1.37,1.84-1.87,2.74-.5,.9-.96,1.82-1.36,2.78-.41,.95-.78,1.93-1.12,2.94-.34,1.01-.72,2.07-1.14,3.19-.36,.95-.68,1.92-.97,2.9-.29,.99-.47,1.85-.49,2.54-.01,.56,0,.99-.02,1.23-.02,.24-.11,.38-.27,.4-.13,.02-.39-.02-.78-.12-.39-.1-.78-.29-1.19-.56-.41-.27-.77-.64-1.09-1.1-.32-.46-.48-1.04-.48-1.74Zm9.28-22.21c0-.19,.05-.49,.15-.88-.16-.14-.3-.36-.41-.67-.11-.3-.17-.58-.17-.84,0-.29,.04-.68,.12-1.19,.08-.51,.19-1.06,.32-1.65,.13-.59,.29-1.21,.49-1.86s.39-1.24,.58-1.78c.39-.05,.87,0,1.44,.13,.57,.14,1.14,.34,1.73,.61,.58,.27,1.12,.58,1.61,.92,.49,.35,.86,.68,1.12,1.01-.36,.39-.83,.93-1.41,1.62-.59,.69-1.15,1.41-1.71,2.16-.55,.75-1.06,1.46-1.51,2.12-.45,.66-.75,1.13-.88,1.4-.39-.02-.73-.14-1.02-.37-.29-.23-.44-.48-.44-.74Z"/>
      <path class="cls-11" d="M172.68,13.89c.85,.18,1.64,.68,2.39,1.5,.75,.82,1.3,1.74,1.66,2.77-.36,.89-.91,1.97-1.66,3.25-.75,1.28-1.5,2.58-2.25,3.91-.75,1.33-1.42,2.6-2.03,3.79-.6,1.19-.95,2.17-1.05,2.91,.52-.6,1.1-1.29,1.73-2.07,.63-.78,1.25-1.56,1.86-2.33,.6-.77,1.16-1.48,1.68-2.11,.52-.63,.93-1.11,1.22-1.42,.62-.69,1.35-1.49,2.2-2.39,.85-.91,1.74-1.76,2.66-2.57,.93-.81,1.87-1.5,2.81-2.07,.95-.57,1.81-.88,2.59-.91,.85-.03,1.56,.22,2.13,.76,.57,.54,1.02,1.11,1.35,1.71,0,.06-.12,.16-.37,.27-.24,.12-.62,.44-1.05,.97-.46,.56-.97,1.4-1.54,2.43-.57,1.03-1.13,2.14-1.66,3.33-.54,1.19-.99,2.41-1.35,3.64-.36,1.23-.54,2.35-.54,3.34,0,.8,.11,1.31,.32,1.52,.21,.21,.51,.31,.91,.29,.36-.02,.73-.11,1.13-.29,.39-.18,.76-.31,.93-.28,.11,.02,.24,.19,.32,.4,.08,.21,.12,.39,.12,.55-.26,.23-.57,.47-.93,.71-.36,.24-.73,.46-1.13,.67-.39,.21-.78,.39-1.15,.53-.37,.15-.71,.23-1,.24-.95,.05-1.72-.04-2.32-.28-.6-.23-1.08-.56-1.42-.99-.34-.43-.58-.94-.71-1.56-.13-.62-.2-1.27-.2-1.98,0-.38,.03-.82,.1-1.3,.06-.48,.2-1.06,.39-1.73,.2-.67,.47-1.47,.83-2.41,.36-.94,.81-2.06,1.37-3.37-.07,0-.51,.25-1.32,.75-.82,.5-1.7,1.25-2.64,2.25-1.53,1.55-2.91,3.09-4.13,4.61-1.22,1.52-2.46,3.21-3.73,5.06-.72,1.07-1.34,1.97-1.88,2.72-.54,.75-1,1.26-1.39,1.52-.68-.3-1.19-.78-1.51-1.43-.32-.65-.66-1.4-.73-2.05-.06-.54,.09-1.39,.27-2.34,.18-.95,.42-2.01,.73-3.19,.31-1.17,.69-2.41,1.14-3.71,.45-1.3,.96-2.61,1.51-3.92,1.23-2.95,2.36-5.28,3.39-6.98,1.02-1.7,1.67-2.62,1.93-2.77Z"/>
      <path class="cls-11" d="M182.01,50.79c0-.19,.07-.37,.2-.54,.13-.17,.28-.34,.44-.5,.39,.33,.73,.59,1,.76,.28,.18,.54,.33,.78,.44,.24,.12,.5,.19,.76,.21,.26,.02,.57,.02,.93,0,1.7-.07,3.31-.56,4.85-1.48,1.53-.92,2.98-2.21,4.33-3.88,1.35-1.67,2.59-3.71,3.7-6.1,1.11-2.39,2.09-5.1,2.94-8.13-.39,.38-.87,.79-1.44,1.25-.57,.46-1.17,.89-1.79,1.31-.62,.41-1.23,.8-1.84,1.15-.6,.35-1.12,.61-1.54,.77-.56-.09-1.07-.32-1.54-.68-.47-.36-.89-.81-1.25-1.35-.36-.54-.64-1.15-.83-1.83-.2-.68-.29-1.41-.29-2.18,0-1.25,.24-2.53,.71-3.85,.47-1.32,1.1-2.62,1.89-3.89,.78-1.27,1.71-2.47,2.77-3.6,1.06-1.12,2.19-2.09,3.38-2.91,1.19-.82,2.4-1.46,3.62-1.93,1.22-.47,2.42-.68,3.6-.64,1.14,.04,2,.31,2.57,.8,.57,.49,.99,1.3,1.25,2.44-.36-.21-.82-.33-1.37-.35-.78-.04-1.69,.23-2.72,.8-1.03,.57-2.07,1.33-3.13,2.28-1.06,.95-2.11,2.05-3.16,3.3-1.05,1.25-1.97,2.53-2.77,3.84-.8,1.31-1.45,2.59-1.96,3.84s-.76,2.37-.76,3.36c0,.22,.02,.36,.05,.41,.03,.05,.08,.07,.15,.07,.29,0,.69-.16,1.2-.49,.51-.32,1.08-.73,1.71-1.22,.64-.49,1.3-1.06,1.98-1.71,.69-.65,1.34-1.3,1.96-1.96,1.4-1.51,2.68-3.2,3.84-5.06,1.16-1.87,2.08-3.68,2.77-5.44,.88,.1,1.66,.28,2.35,.54,.68,.26,1.16,.53,1.42,.8-1.11,2.43-2,4.49-2.67,6.15-.67,1.66-1.25,3.14-1.74,4.44-.88,2.27-1.71,4.34-2.47,6.22-.77,1.88-1.55,3.62-2.35,5.22-.8,1.6-1.67,3.09-2.6,4.46-.93,1.38-1.98,2.71-3.16,3.98-.56,.61-1.18,1.14-1.89,1.61-.7,.47-1.42,.87-2.15,1.2-.73,.33-1.45,.58-2.15,.76-.7,.17-1.35,.27-1.93,.29-.78,.02-1.58-.04-2.4-.19-.82-.15-1.57-.35-2.28-.63-.7-.27-1.31-.59-1.83-.97-.52-.37-.9-.78-1.13-1.21Z"/>
      <path class="cls-11" d="M236.85,9.85c-1.3-.19-2.29-.69-2.99-1.5-.7-.82-1.05-1.73-1.05-2.76,0-.26,.04-.56,.12-.9,.08-.34,.19-.63,.32-.87,.42,.17,1.05,.33,1.87,.49s1.79,.32,2.89,.49c1.65,.25,3.52,.55,5.6,.9,2.08,.36,4.07,.63,5.97,.81,1.9,.18,3.57,.34,5.01,.48,1.44,.14,2.37,.26,2.79,.35,1.18,.27,2.04,.91,2.57,1.91,.53,1,.92,2.27,1.17,3.81-.83-.3-1.65-.54-2.47-.73-.82-.19-1.51-.35-2.09-.47-1.03-.23-2.06-.45-3.1-.67-1.04-.22-2.1-.37-3.16-.45-.45,.84-.95,1.84-1.5,3-.55,1.16-1.09,2.38-1.62,3.67-.53,1.28-1.04,2.56-1.52,3.84-.48,1.28-.9,2.43-1.26,3.46-.71,1.99-1.33,3.84-1.86,5.55-.53,1.71-1,3.31-1.41,4.8-.4,1.49-.75,2.92-1.04,4.28-.29,1.37-.55,2.7-.78,4.02-2.17-.66-3.98-2.26-5.44-4.82,.26-.96,.58-1.99,.95-3.11,.37-1.12,.81-2.38,1.31-3.8,.5-1.42,1.09-3.02,1.77-4.8,.68-1.79,1.46-3.81,2.33-6.07,.32-.84,.66-1.72,1.02-2.64,.36-.92,.7-1.83,1.04-2.73,.34-.9,.65-1.78,.92-2.63,.27-.85,.51-1.62,.7-2.33-1.36-.07-2.64-.15-3.85-.23-1.21-.08-2.29-.19-3.23-.32Z"/>
      <path class="cls-11" d="M295.57,39.65c-.5-.19-1.1-.11-1.81,.24-.71,.36-1.48,.87-2.31,1.54-.82,.67-1.68,1.45-2.57,2.31s-1.75,1.75-2.58,2.63c-.83,.88-1.6,1.72-2.32,2.5-.72,.78-1.33,1.4-1.84,1.84-.69-.51-1.29-1.13-1.79-1.85s-.87-1.53-1.09-2.43c.16-.94,.38-1.9,.66-2.88,.28-.98,.65-1.97,1.11-2.98,.46-1,1.02-2.03,1.7-3.06,.68-1.04,1.5-2.1,2.47-3.17-.47-.16-1.11-.05-1.93,.34-.82,.39-1.7,.95-2.64,1.69-.94,.74-1.92,1.6-2.93,2.59-1.01,.99-1.96,1.97-2.84,2.96-1.17,1.31-2.14,2.5-2.92,3.53-.78,1.03-1.34,1.61-1.69,1.74-.83-.84-1.4-1.65-1.72-2.44-.32-.79-.66-1.72-.71-2.54-.05-.68,.15-1.69,.36-2.78,.21-1.1,.5-2.2,.88-3.31,.73-2.14,1.68-4.2,2.83-6.17,1.16-1.97,2.27-3.76,3.35-5.36,.88,.46,1.68,1,2.39,1.64,.71,.64,1.46,1.48,2.24,2.53-.32,.89-.8,1.79-1.46,2.68s-1.36,1.84-2.08,2.84c-.73,1-1.39,2.05-1.99,3.15-.6,1.1-1,2.28-1.19,3.54,.89-1.02,1.94-2.19,3.15-3.48,1.21-1.3,2.46-2.48,3.73-3.54,1.27-1.07,2.54-1.9,3.79-2.51,1.25-.6,2.38-.73,3.38-.38,.38,.13,.78,.34,1.22,.62,.44,.28,.84,.59,1.22,.91,.37,.33,.69,.62,.93,.89,.25,.27,.39,.45,.42,.56-.16,.58-.52,1.32-1.1,2.22-.58,.9-1.19,1.84-1.85,2.82-.66,.99-1.26,1.95-1.83,2.89-.56,.94-.89,1.73-.99,2.37,1.53-1.62,2.97-3.06,4.31-4.32,1.34-1.26,2.6-2.29,3.78-3.1,1.18-.8,2.27-1.34,3.28-1.62,1-.28,1.95-.24,2.85,.12,.62,.25,1.19,.65,1.73,1.21,.54,.56,.91,1.2,1.13,1.93-.28,.84-.73,1.81-1.36,2.89-.63,1.08-1.27,2.24-1.92,3.47-.65,1.23-1.23,2.46-1.74,3.7-.51,1.24-.77,2.44-.77,3.59,0,.67,.09,1.15,.28,1.43,.18,.28,.45,.49,.79,.62,.37,.15,.72,.21,1.04,.2s.56,0,.72,.07c.19,.2,.29,.41,.32,.61,.03,.2,.05,.39,.05,.55-.62,.26-1.25,.43-1.9,.51s-1.37-.04-2.18-.35c-.74-.29-1.36-.65-1.84-1.09-.48-.44-.88-.94-1.19-1.5-.31-.56-.53-1.16-.65-1.78-.12-.62-.19-1.27-.19-1.94,0-1.09,.14-2.11,.42-3.08,.28-.97,.61-1.86,1-2.69,.39-.83,.8-1.58,1.23-2.26,.43-.68,.81-1.3,1.12-1.85Z"/>
      <path class="cls-11" d="M321.15,45.91c-.12,1.92-.45,3.46-.99,4.61-.54,1.15-1.31,2.01-2.32,2.59-1.01,.58-2.23,.95-3.68,1.12-1.45,.18-3.15,.22-5.1,.14,0,.19,0,.39-.02,.59-.02,.2-.02,.41-.02,.64,0,.42,.03,.86,.09,1.34,.06,.48,.17,.94,.32,1.39,.15,.45,.36,.86,.64,1.22,.27,.36,.62,.64,1.05,.84,.82,.38,1.62,.56,2.41,.54,.79-.01,1.53-.13,2.24-.35,.71-.22,1.37-.5,1.99-.86,.62-.35,1.16-.68,1.64-.98,.3,.44,.55,.84,.76,1.2-1.35,1.24-2.83,2.1-4.44,2.59-1.61,.49-3.15,.57-4.61,.26-2.09-1.22-3.73-2.75-4.91-4.62-1.18-1.87-1.77-3.76-1.77-5.68,0-1.31,.18-2.57,.53-3.78,.35-1.21,.84-2.31,1.47-3.3,.63-.99,1.36-1.86,2.2-2.61,.84-.75,1.73-1.31,2.69-1.71,.96-.39,1.94-.59,2.95-.59,1.01,0,2.09,.22,3.01,.73,1.35,.75,2.67,2.43,3.87,4.67Zm-3.1,.03c-.81-.27-1.65-.33-2.53-.18-.88,.16-1.7,.53-2.47,1.13-.77,.6-1.48,1.39-2.11,2.38-.64,.99-1.14,2.14-1.5,3.44,2.43-.18,4.44-.81,6.04-1.91,1.6-1.1,2.45-2.72,2.57-4.87Z"/>
    </g>
    <g>
      <path class="cls-19" d="M91.37,35.68c.98-.41,1.76-.44,2.33-.1,.57,.34,.85,1.03,.85,2.05,0,.26-.02,.53-.05,.81-.03,.28-.09,.54-.18,.77-.4,.1-.85,.22-1.34,.38-.49,.15-1.08,.37-1.75,.66-1.38,.58-2.76,1.3-4.13,2.16-1.37,.86-2.68,1.66-3.93,2.38-1.37,4.02-2.49,7.73-3.36,11.12-.88,3.39-1.56,6.66-2.04,9.81-1.02,.24-1.93,.22-2.71-.06-.78-.28-1.51-.86-2.2-1.72,.21-.62,.46-1.36,.76-2.24,.3-.87,.66-1.96,1.08-3.28,.42-1.31,.92-2.91,1.51-4.78,.59-1.87,1.29-4.11,2.1-6.71-1.27,.16-2.09-.21-2.48-1.14,.15-.23,.57-.63,1.26-1.17,.69-.55,1.54-1.19,2.53-1.92,.45-1.46,.85-2.76,1.18-3.89,.33-1.13,.64-2.2,.91-3.21,.27-1.01,.52-1.99,.75-2.94,.23-.95,.43-1.95,.61-2.99-.09,.04-.14,.06-.23,.1-1.15,.53-2.09,.68-2.79,.44-.71-.24-1.06-.83-1.06-1.76,0-.26,.04-.58,.11-.97,.08-.39,.17-.74,.29-1.06,.57-.23,1.14-.47,1.7-.73,.56-.26,1.29-.6,2.21-1.02,1.91-.87,3.71-1.67,5.4-2.4,1.68-.73,3.21-1.44,4.58-2.16,1.37-.71,2.55-1.33,3.54-1.85,.99-.52,1.75-.88,2.27-1.09,.71-.27,1.35-.13,1.91,.43,.56,.56,.99,1.49,1.31,2.78-1,.24-1.79,.48-2.4,.71-.6,.23-1.14,.43-1.6,.61-1.58,.61-3.02,1.26-4.33,1.93-1.31,.68-2.55,1.36-3.71,2.04-.18,.37-.39,.82-.62,1.36-.23,.54-.53,1.3-.9,2.27-.37,.97-.83,2.23-1.4,3.79-.57,1.55-1.27,3.52-2.13,5.91,1.19-.72,2.32-1.38,3.41-1.98,1.09-.6,2-1.05,2.73-1.35Z"/>
      <path class="cls-19" d="M97.61,49.96c0-.29,.02-.66,.07-1.11,.05-.45,.13-1.06,.26-1.83,.12-.77,.29-1.7,.49-2.81,.2-1.1,.46-2.43,.77-3.99,.06-.34,.2-.91,.42-1.7,.22-.79,.5-1.64,.86-2.56,.36-.92,.79-1.84,1.3-2.77,.51-.93,1.13-1.7,1.84-2.31,.53-.06,1.23,.01,2.1,.23,.87,.22,1.62,.69,2.25,1.4-.72,1.08-1.32,2.12-1.8,3.12-.48,1-.92,2.02-1.31,3.06-.39,1.04-.75,2.09-1.08,3.17-.33,1.08-.69,2.22-1.1,3.42-.34,1.02-.65,2.06-.93,3.1-.28,1.05-.45,1.95-.47,2.65-.01,.56,0,.99-.02,1.23-.02,.25-.1,.4-.26,.46-.12,.05-.37,.06-.74,.04-.37-.02-.75-.12-1.14-.31-.39-.19-.74-.48-1.05-.87-.31-.39-.46-.94-.46-1.64Zm8.91-24.13c0-.19,.05-.5,.14-.91-.16-.1-.29-.3-.4-.58-.11-.28-.16-.55-.16-.81,0-.29,.04-.69,.12-1.22,.08-.52,.18-1.1,.3-1.71,.12-.62,.28-1.27,.47-1.96s.37-1.32,.56-1.9c.38-.13,.84-.18,1.38-.16,.55,.02,1.1,.11,1.67,.26,.56,.15,1.08,.35,1.55,.59,.47,.25,.83,.51,1.08,.78-.35,.46-.8,1.1-1.37,1.91-.57,.81-1.12,1.65-1.65,2.51-.53,.87-1.02,1.68-1.46,2.44-.44,.76-.72,1.29-.84,1.59-.38,.07-.7,.01-.98-.16-.28-.17-.42-.39-.42-.64Z"/>
      <path class="cls-19" d="M125.62,24.79c.05,.52-.14,1.28-.31,1.98-.18,.7-.39,1.35-.64,1.95-.25,.6-.52,1.11-.81,1.54-.29,.43-.56,.7-.81,.75-.33,.08-.55-.12-.62-.55,0-.1,.04-.26,.12-.49,.08-.23,.17-.49,.26-.77,.1-.28,.18-.56,.26-.84,.08-.28,.12-.51,.12-.71,0-.45-.1-.8-.31-1.04-.21-.25-.48-.32-.83-.22-1.27,.36-2.23,1.44-2.9,3.23-.66,1.79-1,4.23-1,7.32,0,.32,.03,.55,.05,.56,.25,.1,1.26-.37,1.78-.53,.52-.15,1.37-.52,1.54-.45,.02,0,.05,.18,.05,.37,0,.29-.06,.51-.19,.68-.73,.37-1.31,.67-1.73,.91-.43,.24-.75,.44-.97,.6-.22,.16-.36,.31-.4,.43-.05,.13-.07,.28-.07,.47,0,.25,0,.51,.02,.76,.02,.25,.02,.57,.02,.95,0,2.68-.72,5.04-2.15,7.11-1.43,2.07-3.43,3.64-5.97,4.75-.44,.11-.89,.14-1.36,.08-.47-.06-.92-.2-1.34-.4-.42-.21-.79-.47-1.1-.79-.31-.32-.6-.73-.66-1.09-.16-1.03,.25-2.48,.75-3.77,.5-1.29,1.18-2.51,2.04-3.66,.86-1.15,1.88-2.19,3.06-3.1,1.18-.92,2.46-1.6,3.84-2.03,0-.8-.08-1.57-.24-2.29-.16-.72-.32-1.42-.5-2.09-.17-.67-.34-1.32-.5-1.96-.16-.64-.24-1.3-.24-1.97,0-.87,.17-1.78,.52-2.74,.35-.96,.8-1.89,1.37-2.79,.57-.9,1.23-1.72,1.99-2.46,.76-.74,1.55-1.33,2.37-1.77,.35,0,.82,.14,1.4,.43,.59,.3,1.16,.65,1.74,1.07,.57,.42,1.08,.86,1.52,1.33,.44,.47,.78,.93,.81,1.24Zm-15.63,26.61c.75-.57,1.47-1.27,2.14-2.1,.67-.83,1.26-1.71,1.77-2.63,.5-.93,.9-1.87,1.2-2.83,.3-.96,.45-1.85,.45-2.68-.63,.29-1.32,.81-2.08,1.54-.75,.74-1.46,1.56-2.12,2.47-.66,.91-1.21,1.8-1.65,2.68-.44,.88-.66,1.6-.66,2.14,0,.7,.31,1.17,.94,1.41Z"/>
      <path class="cls-19" d="M126.33,42.96c0-1.12,.11-2.47,.33-4.05,.22-1.58,.55-3.29,.98-5.13,.43-1.84,.94-3.78,1.53-5.82,.59-2.04,1.26-4.1,1.99-6.16,.64-1.84,1.38-3.75,2.23-5.68,.85-1.93,1.77-3.84,2.76-5.73,.99-1.89,2.03-3.7,3.1-5.44,1.07-1.74,2.16-3.34,3.25-4.81,.51-.1,1.07-.15,1.66-.14,.59,.01,1.18,.07,1.74,.17,.56,.1,1.08,.25,1.55,.46,.47,.2,.85,.42,1.14,.66-2.42,2.9-4.59,5.81-6.52,8.71-1.93,2.91-3.45,5.6-4.57,8.06-.61,1.35-1.16,2.61-1.66,3.78-.5,1.17-.95,2.32-1.37,3.46-.42,1.14-.79,2.27-1.13,3.39-.34,1.12-.65,2.29-.93,3.51,6.13-9.33,10.72-14.15,13.72-14.71,.84-.16,1.74-.05,2.71,.32,.97,.37,1.82,.96,2.57,1.76-1,1.26-2.03,2.75-3.1,4.48-1.06,1.73-2.04,3.45-2.92,5.18-.89,1.72-1.61,3.31-2.17,4.75-.56,1.44-.84,2.48-.84,3.12,0,.32,.05,.53,.14,.62,.1,.09,.31,.11,.63,.04,.48-.1,.87-.24,1.16-.42,.29-.18,.47-.28,.53-.3,.16,.23,.26,.38,.29,.47,.03,.09,.05,.17,.05,.23,0,.13-.19,.35-.58,.66-.39,.31-.85,.65-1.38,.99-.53,.35-1.05,.67-1.57,.97-.51,.3-.9,.47-1.16,.53-.32,.07-.64,.05-.96-.06-.32-.11-.6-.28-.84-.51-.24-.24-.43-.51-.58-.83-.14-.32-.22-.67-.22-1.06,0-.48,.14-1.22,.41-2.23,.27-1,.65-2.19,1.13-3.56,.48-1.37,1.06-2.87,1.73-4.52,.67-1.64,1.4-3.33,2.17-5.05,0-.13-.06-.18-.19-.15-.1,.02-.35,.2-.75,.53-.4,.34-.78,.67-1.13,1-1.16,1.1-2.32,2.42-3.49,3.94-1.17,1.52-2.31,3.17-3.41,4.93-1.1,1.76-2.14,3.61-3.12,5.53-.97,1.92-1.81,3.82-2.51,5.7-.1,.25-.24,.49-.43,.73-.19,.24-.35,.38-.48,.41-.1,.02-.23-.05-.41-.23-.18-.18-.33-.42-.48-.71s-.28-.61-.41-.92c-.13-.32-.19-.6-.19-.86Z"/>
      <path class="cls-19" d="M152.03,35.01c0-.29,.02-.65,.07-1.09,.05-.44,.14-1.03,.27-1.77,.13-.74,.3-1.64,.51-2.7,.21-1.06,.48-2.33,.8-3.82,.06-.33,.21-.87,.44-1.61,.23-.74,.53-1.53,.9-2.37,.37-.84,.83-1.67,1.36-2.49,.53-.82,1.17-1.45,1.92-1.91,.55,.05,1.28,.28,2.19,.68,.91,.41,1.69,1.04,2.34,1.88-.75,.93-1.37,1.84-1.87,2.74-.5,.9-.96,1.82-1.36,2.78-.41,.95-.78,1.93-1.12,2.94-.34,1.01-.72,2.07-1.14,3.19-.36,.95-.68,1.92-.97,2.9-.29,.99-.47,1.85-.49,2.54-.01,.56,0,.99-.02,1.23-.02,.24-.11,.38-.27,.4-.13,.02-.39-.02-.78-.12-.39-.1-.78-.29-1.19-.56-.41-.27-.77-.64-1.09-1.1-.32-.46-.48-1.04-.48-1.74Zm9.28-22.21c0-.19,.05-.49,.15-.88-.16-.14-.3-.36-.41-.67-.11-.3-.17-.58-.17-.84,0-.29,.04-.68,.12-1.19,.08-.51,.19-1.06,.32-1.65,.13-.59,.29-1.21,.49-1.86s.39-1.24,.58-1.78c.39-.05,.87,0,1.44,.13,.57,.14,1.14,.34,1.73,.61,.58,.27,1.12,.58,1.61,.92,.49,.35,.86,.68,1.12,1.01-.36,.39-.83,.93-1.41,1.62-.59,.69-1.15,1.41-1.71,2.16-.55,.75-1.06,1.46-1.51,2.12-.45,.66-.75,1.13-.88,1.4-.39-.02-.73-.14-1.02-.37-.29-.23-.44-.48-.44-.74Z"/>
      <path class="cls-19" d="M172.07,12.38c.85,.18,1.64,.68,2.39,1.5,.75,.82,1.3,1.74,1.66,2.77-.36,.89-.91,1.97-1.66,3.25-.75,1.28-1.5,2.58-2.25,3.91-.75,1.33-1.42,2.6-2.03,3.79-.6,1.19-.95,2.17-1.05,2.91,.52-.6,1.1-1.29,1.73-2.07,.63-.78,1.25-1.56,1.86-2.33,.6-.77,1.16-1.48,1.68-2.11,.52-.63,.93-1.11,1.22-1.42,.62-.69,1.35-1.49,2.2-2.39,.85-.91,1.74-1.76,2.66-2.57,.93-.81,1.87-1.5,2.81-2.07,.95-.57,1.81-.88,2.59-.91,.85-.03,1.56,.22,2.13,.76,.57,.54,1.02,1.11,1.35,1.71,0,.06-.12,.16-.37,.27-.24,.12-.62,.44-1.05,.97-.46,.56-.97,1.4-1.54,2.43-.57,1.03-1.13,2.14-1.66,3.33-.54,1.19-.99,2.41-1.35,3.64-.36,1.23-.54,2.35-.54,3.34,0,.8,.11,1.31,.32,1.52,.21,.21,.51,.31,.91,.29,.36-.02,.73-.11,1.13-.29,.39-.18,.76-.31,.93-.28,.11,.02,.24,.19,.32,.4,.08,.21,.12,.39,.12,.55-.26,.23-.57,.47-.93,.71-.36,.24-.73,.46-1.13,.67-.39,.21-.78,.39-1.15,.53-.38,.15-.71,.23-1,.24-.95,.05-1.72-.04-2.32-.28-.6-.23-1.08-.56-1.42-.99-.34-.43-.58-.94-.71-1.56-.13-.62-.2-1.27-.2-1.98,0-.38,.03-.82,.1-1.3,.06-.48,.2-1.06,.39-1.73,.2-.67,.47-1.47,.83-2.41,.36-.94,.81-2.06,1.37-3.37-.07,0-.51,.25-1.32,.75-.82,.5-1.7,1.25-2.64,2.25-1.53,1.55-2.91,3.09-4.13,4.61-1.22,1.52-2.46,3.21-3.73,5.06-.72,1.07-1.34,1.97-1.88,2.72-.54,.75-1,1.26-1.39,1.52-.68-.3-1.19-.78-1.51-1.43-.32-.65-.66-1.4-.73-2.05-.06-.54,.09-1.39,.27-2.34,.18-.95,.42-2.01,.73-3.19,.31-1.17,.69-2.41,1.14-3.71,.45-1.3,.96-2.61,1.51-3.92,1.23-2.95,2.36-5.28,3.39-6.98,1.02-1.7,1.67-2.62,1.93-2.77Z"/>
      <path class="cls-19" d="M181.41,49.28c0-.19,.07-.37,.2-.54,.13-.17,.28-.34,.44-.5,.39,.33,.73,.59,1,.76,.28,.18,.54,.33,.78,.44,.24,.12,.5,.19,.76,.21,.26,.02,.57,.02,.93,0,1.7-.07,3.31-.56,4.85-1.48,1.53-.92,2.98-2.21,4.33-3.88,1.35-1.67,2.59-3.71,3.7-6.1,1.11-2.39,2.09-5.1,2.94-8.13-.39,.38-.87,.79-1.44,1.25-.57,.46-1.17,.89-1.79,1.31-.62,.41-1.23,.8-1.84,1.15-.6,.35-1.12,.61-1.54,.77-.56-.09-1.07-.32-1.54-.68-.47-.36-.89-.81-1.25-1.35-.36-.54-.64-1.15-.83-1.83-.2-.68-.29-1.41-.29-2.18,0-1.25,.24-2.53,.71-3.85,.47-1.32,1.1-2.62,1.89-3.89,.78-1.27,1.71-2.47,2.77-3.6,1.06-1.12,2.19-2.09,3.38-2.91,1.19-.82,2.4-1.46,3.62-1.93,1.22-.47,2.42-.68,3.6-.64,1.14,.04,2,.31,2.57,.8,.57,.49,.99,1.3,1.25,2.44-.36-.21-.82-.33-1.37-.35-.78-.04-1.69,.23-2.72,.8-1.03,.57-2.07,1.33-3.13,2.28-1.06,.95-2.11,2.05-3.16,3.3-1.05,1.25-1.97,2.53-2.77,3.84-.8,1.31-1.45,2.59-1.96,3.84s-.76,2.37-.76,3.36c0,.22,.02,.36,.05,.41,.03,.05,.08,.07,.15,.07,.29,0,.69-.16,1.2-.49,.51-.32,1.08-.73,1.71-1.22,.64-.49,1.3-1.06,1.98-1.71,.69-.65,1.34-1.3,1.96-1.96,1.4-1.51,2.68-3.2,3.84-5.06,1.16-1.87,2.08-3.68,2.77-5.44,.88,.1,1.66,.28,2.35,.54,.68,.26,1.16,.53,1.42,.8-1.11,2.43-2,4.49-2.67,6.15-.67,1.66-1.25,3.14-1.74,4.44-.88,2.27-1.71,4.34-2.47,6.22-.77,1.88-1.55,3.62-2.35,5.22-.8,1.6-1.67,3.09-2.6,4.46-.93,1.38-1.98,2.71-3.16,3.98-.56,.61-1.18,1.14-1.89,1.61-.7,.47-1.42,.87-2.15,1.2-.73,.33-1.45,.58-2.15,.76-.7,.17-1.35,.27-1.93,.29-.78,.02-1.58-.04-2.4-.19-.82-.15-1.57-.35-2.28-.63-.7-.27-1.31-.59-1.83-.97-.52-.37-.9-.78-1.13-1.21Z"/>
      <path class="cls-19" d="M236.24,8.34c-1.3-.19-2.29-.69-2.99-1.5-.7-.82-1.05-1.73-1.05-2.76,0-.26,.04-.56,.12-.9,.08-.34,.19-.63,.32-.87,.42,.17,1.05,.33,1.87,.49,.83,.16,1.79,.32,2.89,.49,1.65,.25,3.52,.55,5.6,.9,2.08,.36,4.07,.63,5.97,.81,1.9,.18,3.57,.34,5.01,.48,1.44,.14,2.37,.26,2.79,.35,1.18,.27,2.04,.91,2.57,1.91,.53,1,.92,2.27,1.17,3.81-.83-.3-1.65-.54-2.47-.73-.82-.19-1.51-.35-2.09-.47-1.03-.23-2.06-.45-3.1-.67-1.04-.22-2.1-.37-3.16-.45-.45,.84-.95,1.84-1.5,3-.55,1.16-1.09,2.38-1.62,3.67-.53,1.28-1.04,2.56-1.52,3.84-.48,1.28-.9,2.43-1.26,3.46-.71,1.99-1.33,3.84-1.86,5.55-.53,1.71-1,3.31-1.41,4.8-.4,1.49-.75,2.92-1.04,4.28-.29,1.37-.55,2.7-.78,4.02-2.17-.66-3.98-2.26-5.44-4.82,.26-.96,.58-1.99,.95-3.11,.37-1.12,.81-2.38,1.31-3.8,.5-1.42,1.09-3.02,1.77-4.8,.68-1.79,1.46-3.81,2.33-6.07,.32-.84,.66-1.72,1.02-2.64,.36-.92,.7-1.83,1.04-2.73,.34-.9,.65-1.78,.92-2.63,.27-.85,.51-1.62,.7-2.33-1.36-.07-2.64-.15-3.85-.23-1.21-.08-2.29-.19-3.23-.32Z"/>
      <path class="cls-19" d="M294.96,38.14c-.5-.19-1.1-.11-1.81,.24-.71,.36-1.48,.87-2.31,1.54-.82,.67-1.68,1.45-2.57,2.31-.89,.87-1.75,1.75-2.58,2.63-.83,.88-1.6,1.72-2.32,2.5-.72,.78-1.33,1.4-1.84,1.84-.69-.51-1.29-1.13-1.79-1.85-.5-.72-.87-1.53-1.09-2.43,.16-.94,.38-1.9,.66-2.88,.28-.98,.65-1.97,1.11-2.98,.46-1,1.02-2.03,1.7-3.06,.68-1.04,1.5-2.1,2.47-3.17-.47-.16-1.11-.05-1.93,.34-.82,.39-1.7,.95-2.64,1.69-.94,.74-1.92,1.6-2.93,2.59-1.01,.99-1.96,1.97-2.84,2.96-1.17,1.31-2.14,2.5-2.92,3.53-.78,1.03-1.34,1.61-1.69,1.74-.83-.84-1.4-1.65-1.72-2.44-.32-.79-.66-1.72-.71-2.54-.05-.68,.15-1.69,.36-2.78,.21-1.1,.5-2.2,.88-3.31,.73-2.14,1.68-4.2,2.83-6.17,1.16-1.97,2.27-3.76,3.35-5.36,.88,.46,1.68,1,2.39,1.64,.71,.64,1.46,1.48,2.24,2.53-.32,.89-.8,1.79-1.46,2.68s-1.36,1.84-2.08,2.84c-.73,1-1.39,2.05-1.99,3.15-.6,1.1-1,2.28-1.19,3.54,.89-1.02,1.94-2.19,3.15-3.48,1.21-1.3,2.46-2.48,3.73-3.54,1.27-1.07,2.54-1.9,3.79-2.51,1.25-.6,2.38-.73,3.38-.38,.38,.13,.78,.34,1.22,.62,.44,.28,.84,.59,1.22,.91,.37,.33,.69,.62,.93,.89,.25,.27,.39,.45,.42,.56-.16,.58-.52,1.32-1.1,2.22-.58,.9-1.19,1.84-1.85,2.82-.66,.99-1.26,1.95-1.83,2.89-.56,.94-.89,1.73-.99,2.37,1.53-1.62,2.97-3.06,4.31-4.32,1.34-1.26,2.6-2.29,3.78-3.1,1.18-.8,2.27-1.34,3.28-1.62,1-.28,1.95-.24,2.85,.12,.62,.25,1.19,.65,1.73,1.21,.54,.56,.91,1.2,1.13,1.93-.28,.84-.73,1.81-1.36,2.89-.63,1.08-1.27,2.24-1.92,3.47-.65,1.23-1.23,2.46-1.74,3.7-.51,1.24-.77,2.44-.77,3.59,0,.67,.09,1.15,.28,1.43,.19,.28,.45,.49,.79,.62,.37,.15,.72,.21,1.04,.2s.56,0,.72,.07c.19,.2,.29,.41,.32,.61,.03,.2,.05,.39,.05,.55-.62,.26-1.25,.43-1.9,.51-.65,.08-1.38-.04-2.18-.35-.74-.29-1.36-.65-1.84-1.09-.48-.44-.88-.94-1.19-1.5-.31-.56-.53-1.16-.65-1.78-.12-.62-.19-1.27-.19-1.94,0-1.09,.14-2.11,.42-3.08,.28-.97,.61-1.86,1-2.69,.39-.83,.8-1.58,1.23-2.26,.43-.68,.81-1.3,1.12-1.85Z"/>
      <path class="cls-19" d="M320.54,44.4c-.12,1.92-.45,3.46-.99,4.61s-1.31,2.01-2.32,2.59c-1.01,.58-2.23,.95-3.68,1.12-1.45,.18-3.15,.22-5.1,.14,0,.19,0,.39-.02,.59-.02,.2-.02,.41-.02,.64,0,.42,.03,.86,.09,1.34,.06,.48,.17,.94,.32,1.39,.15,.45,.36,.86,.64,1.22,.27,.36,.62,.64,1.05,.84,.82,.38,1.62,.56,2.41,.54,.79-.01,1.53-.13,2.24-.35,.71-.22,1.37-.5,1.99-.86,.62-.35,1.16-.68,1.64-.98,.3,.44,.55,.84,.76,1.2-1.35,1.24-2.83,2.1-4.44,2.59-1.61,.49-3.15,.57-4.61,.26-2.09-1.22-3.73-2.75-4.91-4.62-1.18-1.87-1.77-3.76-1.77-5.68,0-1.31,.18-2.57,.53-3.78,.35-1.21,.84-2.31,1.47-3.3,.63-.99,1.36-1.86,2.2-2.61,.84-.75,1.73-1.31,2.69-1.71,.96-.39,1.94-.59,2.95-.59s2.09,.22,3.01,.73c1.35,.75,2.67,2.43,3.87,4.67Zm-3.1,.03c-.81-.27-1.65-.33-2.53-.18-.88,.16-1.7,.53-2.47,1.13-.77,.6-1.48,1.39-2.11,2.38-.64,.99-1.14,2.14-1.5,3.44,2.43-.18,4.44-.81,6.04-1.91,1.6-1.1,2.45-2.72,2.57-4.87Z"/>
    </g>
    <text class="cls-15" transform="translate(112.37 72.41)"><tspan class="cls-13" x="0" y="0">sklep wę</tspan><tspan class="cls-18" x="89.12" y="0">d</tspan><tspan class="cls-14" x="101.78" y="0">karski</tspan></text>
    <g>
      <line class="cls-4" x1="260.75" y1="20.4" x2="256.8" y2="30.79"/>
      <path class="cls-10" d="M255.12,29.18s-2.32,1.72-3.02,3.24c0,0,1.46-.99,3.02-3.24Z"/>
      <path class="cls-19" d="M253.59,42.17l-.76,1.53-2.8,5.64c-.17,.07-.25,.11-.3,.08-.05-.03-.07-.11-.12-.27,0-.02,1.22-3.65,1.97-5.87,.33-.98,.57-1.69,.57-1.69l1.22,.49,.23,.09Z"/>
      <path class="cls-12" d="M261.55,21.83c-.84,.69-1.55,1.14-1.55,1.14-2.21-9.16,2.66-6.99,2.66-6.99,.28,.13,.52,.26,.72,.41,2.23,1.56-.09,4.01-1.83,5.45Z"/>
      <polygon class="cls-6" points="258.5 30.68 255.9 29.72 259.53 20.49 262.13 21.45 258.5 30.68"/>
      <path class="cls-3" d="M260.22,21.58s-2.63,6.2-2.47,6.5,2.47-6.5,2.47-6.5Z"/>
      <path class="cls-9" d="M260.13,36.43l-9.24-3.52c.06-.13,.13-.25,.2-.38l9.13,3.48c-.03,.14-.06,.28-.1,.42Z"/>
      <path class="cls-19" d="M257.8,40.82c-1.28,1.51-3.1,3.09-4.97,2.88-.15-.01-.31-.04-.46-.09-.08-.02-.16-.04-.23-.07-.2-.07-.39-.16-.56-.27,0,0-.01,0-.01-.01-.66-.41-1.1-1.07-1.38-1.83-.46-1.22-.53-2.73-.47-4.01,.08-1.58,.46-3.13,1.18-4.51l9.24,3.52c-.42,1.61-1.23,3.11-2.32,4.39Z"/>
      <path class="cls-17" d="M260.23,36.01l-9.13-3.48c.23-.4,.49-.79,.77-1.16,1.46-1.86,3.28-2.95,4.93-2.85,.24,.01,.46,.05,.69,.11,.09,.03,.19,.06,.28,.09,1.76,.67,2.71,2.79,2.68,5.4,0,.64-.08,1.26-.22,1.88Z"/>
      <path class="cls-16" d="M257.8,40.82c-1.28,1.51-3.1,3.09-4.97,2.88l-2.8,5.64c-.17,.07-.25,.11-.3,.08,.63-1.4,2.05-4.25,2.65-5.8,.03-.09,.06-.18,.09-.26,.05-.23,.39-.69,.9-1.27,1.49-1.75,4.36-4.67,4.88-6.37,.04-.14,.08-.27,.12-.41,.58-2.35-.09-4.33-.83-5.67-.06-.11-.12-.2-.18-.29-.19-.31-.38-.59-.55-.81,.24,.01,.46,.05,.69,.11,.04,0,.07,.02,.11,.04,.06,.01,.11,.03,.17,.06,.03,.01,.06,.02,.08,.04,1.71,.7,2.63,2.8,2.59,5.36,0,.64-.08,1.26-.22,1.88-.03,.14-.06,.28-.1,.42-.42,1.61-1.23,3.11-2.32,4.39Z"/>
      <line class="cls-1" x1="259.46" y1="20.68" x2="262.04" y2="21.66"/>
      <path class="cls-7" d="M262.68,20.04l-.22-.08c1.16-.77,1.16-1.64,.98-2.19,.93,.65-.04,1.67-.76,2.27Z"/>
      <path class="cls-8" d="M261.23,16.85s-.54,.3-.59,.74c0,0,.6-.52,.59-.74Z"/>
      <circle class="cls-2" cx="249.67" cy="49.52" r=".22"/>
      <path class="cls-5" d="M255.3,30.17s-2.08,1.4-1.97,2.14,3.33-2.88,1.97-2.14Z"/>
    </g>
  </g>
</svg>