<?xml version="1.0" encoding="UTF-8"?>
<svg id="Warstwa_2" data-name="Warstwa 2" xmlns="http://www.w3.org/2000/svg" viewBox="0 0 441.17 131.62">
  <defs>
    <style>
      .cls-1, .cls-2, .cls-3 {
        stroke: #000;
        stroke-miterlimit: 10;
        stroke-width: .5px;
      }

      .cls-4 {
        opacity: .24;
      }

      .cls-5 {
        opacity: .2;
      }

      .cls-2 {
        fill: #006837;
      }

      .cls-6 {
        opacity: .11;
      }

      .cls-7 {
        fill: #d3efe1;
      }

      .cls-3 {
        fill: #22b573;
      }
    </style>
  </defs>
  <g id="Warstwa_2-2" data-name="Warstwa 2">
    <g>
      <path class="cls-1" d="M20.69,105.36c-3.5-.83-6.66-2.36-9.39-4.56-2.46-1.98-4.71-4.65-6.68-7.91l-2.68-4.43,2.07-4.75c.43-.98,.95-2.15,1.56-3.53,.55-1.25,1.24-2.87,2.03-4.83,.83-2.04,1.82-4.53,2.98-7.46,.45-1.15,.94-2.39,1.46-3.72-.96-1.27-1.73-2.68-2.3-4.21l-2.23-6.01,4.54-4.54c2.01-2.01,4.49-2.91,6.87-3.59,.08-.02,.16-.04,.24-.07,.16-.44,.31-.86,.46-1.27,.63-1.75,1.2-3.41,1.7-4.93,.06-.17,.11-.34,.16-.5-.02-.01-.03-.02-.05-.04-3.87-2.98-6.01-7.3-6.01-12.17,0-1.24,.15-2.53,.47-3.93,.32-1.43,.79-2.77,1.39-3.97l3-6.02,6.71,.51c.89,.07,1.76,.1,2.61,.1h14.98c2.93,0,5.58-.13,7.88-.37,2.58-.28,4.81-.54,6.65-.78,2.41-.32,4.23-.46,5.72-.46,4.56,0,8.71,2.19,11.69,6.16,1.95,2.6,3.35,5.84,4.27,9.9l3.16,13.9-14.15-1.76c-1.98-.25-2.98-.28-3.4-.28h-3.1c-2.7,0-5.17,.12-7.37,.35-.64,.07-1.28,.14-1.91,.21-.1,.21-.36,.75-.38,.8,3.6,.77,6.09,2.52,7.67,4.06,2.15,2.09,4.69,5.8,4.69,11.67,0,.86-.05,1.74-.16,2.64-.2,1.69-.65,3.24-1.35,4.63l-3.26,6.51-7.2-1.1c-.59-.09-1.27-.17-2.03-.24-.44-.04-1.24-.09-2.49-.09-2.1,0-4.24,.19-6.35,.57-.81,.14-1.61,.28-2.41,.41-1.63,4.14-3.04,8.09-4.2,11.8-1.61,5.15-2.87,10.3-3.75,15.31l-1.83,10.43-10.31-2.43Z"/>
      <path class="cls-1" d="M67.17,99.96c-2.08,0-3.84-.62-5.29-1.22-1.66-.69-3.27-1.69-4.79-2.97-1.55-1.3-2.92-2.9-4.08-4.75-1.6-2.55-2.41-5.49-2.41-8.71,0-.91,.06-1.94,.2-3.13,.12-1.04,.31-2.32,.59-3.89,.25-1.43,.58-3.12,.99-5.15,.4-1.97,.91-4.33,1.5-7.02,.2-.98,.53-2.17,1.06-3.83,.55-1.72,1.27-3.54,2.14-5.4,.94-2.01,2.1-3.98,3.44-5.85,1.98-2.76,4.46-4.86,7.37-6.25l3.18-1.52,3.43,.81c2.05,.48,4.22,1.42,6.83,2.96,2.94,1.73,5.45,4.1,7.48,7.03l4.45,6.44-5.19,5.86c-.96,1.09-1.76,2.15-2.36,3.17-.73,1.22-1.39,2.5-1.98,3.82-.63,1.41-1.22,2.91-1.76,4.45-.66,1.89-1.42,3.92-2.25,6.03-.56,1.42-1.08,2.91-1.54,4.43-.34,1.12-.44,1.77-.46,2.04,0,1.16-.02,2-.07,2.63-.39,5.72-4.89,10.01-10.47,10.01Z"/>
      <path class="cls-1" d="M78.86,55.54c-2.68-.44-5.14-1.67-7.12-3.54-2.5-2.36-3.9-5.42-3.94-8.61-.54-1.58-.81-3.18-.81-4.73,0-1.1,.11-2.31,.35-3.8,.18-1.11,.41-2.32,.7-3.59,.29-1.32,.66-2.72,1.1-4.15,.42-1.35,.85-2.62,1.27-3.76l2.43-6.49h6.93c1.93,0,3.94,.4,6.13,1.21,1.6,.59,3.19,1.36,4.75,2.27,1.55,.9,3.01,1.92,4.33,3.02,1.55,1.29,2.78,2.57,3.75,3.91l5.04,6.91-6.05,6.05c-.56,.56-1.35,1.39-2.33,2.46-.9,.98-1.8,2.02-2.65,3.11-.94,1.19-1.81,2.33-2.58,3.38-.49,.67-.73,1.02-.83,1.17l-3.19,6.4-7.28-1.21Z"/>
      <path class="cls-1" d="M82.66,107.54c-2.05-.15-4.11-.7-6.11-1.63-1.65-.77-3.22-1.76-4.66-2.93-1.46-1.19-2.75-2.54-3.84-4.01-1.31-1.77-2.27-3.68-2.84-5.68l-.38-1.34v-1.4c0-3.74,.79-7.36,2.36-10.76,1.47-3.2,3.5-6.07,6.03-8.52,2.48-2.41,5.41-4.37,8.71-5.85-.22-.92-.44-1.84-.64-2.74-.47-2.02-.71-4.07-.71-6.09,0-2.94,.59-5.85,1.75-8.66,1.01-2.45,2.37-4.75,4.03-6.84,1.71-2.15,3.74-4.02,6.03-5.55,2.44-1.63,5.06-2.79,7.8-3.42l2.46-.57,2.44,.66c2,.54,3.97,1.61,6.19,3.35,1.43,1.13,2.84,2.38,4.19,3.73,1.39,1.39,2.66,2.84,3.78,4.32,1.71,2.26,2.74,4.28,3.26,6.36l.36,1.45-.08,1.5c-.1,1.83-.4,3.72-.91,5.62-.49,1.83-1.12,3.55-1.87,5.1-.84,1.73-1.75,3.18-2.79,4.45-.75,.92-1.53,1.66-2.32,2.26,.18,.83,.26,1.71,.26,2.65,0,3.21-1.18,6.14-3.32,8.26l-2.07,2.05-1.07,.23c-.58,6.05-2.75,11.21-6.48,15.38-4.44,4.97-10.45,7.86-17.86,8.59l-.85,.08-.85-.06Z"/>
      <path class="cls-1" d="M115.59,102.66c-2.34,0-5.74-.77-8.63-4.45-.86-1.1-1.61-2.38-2.23-3.81-.35-.81-.68-1.64-.97-2.46-.64-1.77-.96-3.45-.96-5.12,0-2.62,.24-5.52,.74-8.88,.46-3.15,1.15-6.55,2.04-10.1,.85-3.42,1.88-7.03,3.04-10.74,1.17-3.72,2.49-7.49,3.94-11.21,1.3-3.45,2.83-6.96,4.55-10.46,1.69-3.46,3.57-6.91,5.56-10.25,1.99-3.34,4.09-6.57,6.25-9.59,2.19-3.07,4.44-5.93,6.68-8.51l2.99-3.43h4.55c1.66,0,3.41,.2,5.21,.58,1.58,.34,3.13,.79,4.61,1.35,1.68,.63,3.25,1.39,4.67,2.27,1.54,.96,2.82,1.95,3.91,3.05l6.98,6.98-6.89,7.07c-4.04,4.14-7.72,8.37-10.96,12.56,3.04,.14,6.13,1.08,9.18,2.81,2.92,1.65,5.5,3.88,7.67,6.62l5.29,6.67-5.73,6.29c-1.54,1.69-3.2,3.82-4.91,6.31-1.81,2.63-3.49,5.31-4.99,7.95-.65,1.15-1.25,2.27-1.8,3.34l.55,.89c.55,.89,1.12,1.88,1.53,3.09,.41,1.26,.61,2.46,.61,3.64,0,2.69-1,6.53-5.78,9.52-1.1,.69-2.32,1.33-3.72,1.97-1.18,.54-2.38,1.03-3.55,1.47-2.14,.8-3.94,1.18-5.67,1.18-2.3,0-4.52-.58-6.61-1.73-1.7-.93-3.19-2.17-4.44-3.67-.3-.36-.59-.74-.86-1.12-.31,.69-.61,1.38-.9,2.06l-.05,.12c-.68,1.59-1.67,3.03-2.93,4.29-2.86,2.87-5.92,3.47-7.97,3.47Z"/>
      <path class="cls-1" d="M177.77,55.54c-2.68-.44-5.14-1.67-7.12-3.54-2.5-2.36-3.9-5.42-3.94-8.61-.54-1.58-.81-3.18-.81-4.73,0-1.1,.11-2.31,.35-3.8,.18-1.11,.41-2.32,.7-3.59,.29-1.32,.66-2.72,1.1-4.15,.42-1.35,.85-2.62,1.27-3.76l2.43-6.49h6.93c1.93,0,3.94,.4,6.13,1.21,1.6,.59,3.19,1.36,4.75,2.27,1.55,.9,3.01,1.92,4.33,3.02,1.55,1.29,2.78,2.57,3.75,3.91l5.04,6.91-6.05,6.05c-.56,.56-1.35,1.39-2.33,2.46-.9,.98-1.8,2.02-2.65,3.11-.94,1.19-1.81,2.33-2.58,3.38-.49,.67-.73,1.02-.83,1.17l-3.19,6.4-7.28-1.21Z"/>
      <path class="cls-1" d="M166.08,99.96c-2.08,0-3.84-.62-5.29-1.22-1.66-.69-3.27-1.69-4.79-2.97-1.55-1.3-2.92-2.9-4.08-4.75-1.6-2.55-2.41-5.49-2.41-8.71,0-.91,.06-1.94,.2-3.13,.12-1.04,.31-2.32,.59-3.89,.25-1.43,.58-3.12,.99-5.15,.4-1.97,.91-4.33,1.5-7.02,.2-.98,.53-2.17,1.06-3.83,.55-1.72,1.27-3.54,2.14-5.4,.94-2.01,2.1-3.98,3.44-5.85,1.98-2.76,4.46-4.86,7.37-6.25l3.18-1.52,3.43,.81c2.05,.48,4.22,1.42,6.83,2.96,2.94,1.73,5.45,4.1,7.48,7.03l4.45,6.44-5.19,5.86c-.96,1.09-1.76,2.15-2.36,3.17-.73,1.22-1.39,2.5-1.98,3.82-.63,1.41-1.22,2.91-1.76,4.45-.66,1.89-1.42,3.92-2.25,6.03-.56,1.42-1.08,2.91-1.54,4.43-.34,1.12-.44,1.77-.46,2.04,0,1.16-.02,2-.07,2.63-.39,5.72-4.89,10.01-10.47,10.01Z"/>
      <path class="cls-1" d="M177.86,101.52c-3.05-1.74-5.43-4.33-6.9-7.48-.91-1.95-1.6-4.01-2.05-6.1l-.23-1.05v-1.07c0-1.79,.22-3.81,.67-6.19,.37-1.97,.88-4.17,1.52-6.53,.64-2.39,1.43-4.91,2.36-7.5,.91-2.54,1.93-5.11,3.04-7.64,2.49-5.77,4.77-10.28,6.96-13.75,3.05-4.84,4.78-7.09,7.55-8.48l3.59-1.79,3.83,1.18c3.42,1.06,6.5,3.19,9.13,6.33,.77,.93,1.48,1.89,2.12,2.89,.52-.33,1.04-.64,1.56-.93,3.26-1.85,6.53-2.79,9.71-2.79,4.24,0,8.04,1.56,10.98,4.5,1.76,1.76,3.19,3.67,4.25,5.7l1.15,2.19v2.47c0,1.4-.39,5.88-5,8.77-.35,.5-.92,1.37-1.7,2.78-.91,1.64-1.82,3.45-2.69,5.39-.44,.97-.84,1.96-1.2,2.95,1.59,.99,3.44,2.7,4.56,5.62,.6,1.57,.9,3.12,.9,4.64v4.54l-3.41,2.99c-.86,.76-1.85,1.49-2.93,2.18-.94,.6-1.94,1.16-2.96,1.67-1.09,.55-2.2,1.02-3.29,1.4-1.76,.61-3.49,.92-5.14,.92-3.18,0-6.02-.56-8.44-1.67-2.64-1.21-4.81-2.93-6.45-5.12-.56-.75-1.05-1.54-1.48-2.37-.3,.41-.6,.82-.9,1.24-1.33,1.87-2.57,3.56-3.64,4.95-1.83,2.39-3.57,4.01-5.46,5.12l-4.99,2.91-5.02-2.87Z"/>
      <path class="cls-1" d="M225.12,131.37c-2.15,0-4.36-.24-6.55-.73-2.14-.47-4.19-1.13-6.08-1.97-2.05-.91-3.89-2-5.49-3.25-2.14-1.68-3.77-3.62-4.86-5.79l-1.06-2.11v-2.37c0-2.65,.88-5.15,2.55-7.23,.47-.59,.99-1.17,1.56-1.73l6.77-6.76,7.05,6.46c.13,.12,.25,.22,.35,.31,1.07-.1,2.09-.45,3.15-1.07,1.74-1.02,3.49-2.62,5.2-4.76,.8-1,1.58-2.12,2.34-3.34-1.25-.56-2.43-1.28-3.54-2.16-1.71-1.36-3.22-3.03-4.47-4.97-1.2-1.85-2.13-3.94-2.76-6.21-.6-2.15-.91-4.44-.91-6.78,0-3.47,.63-7.01,1.88-10.53,1.09-3.09,2.55-6.15,4.35-9.1,1.78-2.94,3.9-5.73,6.3-8.32,2.4-2.59,5-4.88,7.74-6.83,2.79-1.99,5.7-3.61,8.64-4.83,3.46-1.43,6.97-2.16,10.44-2.16,4.48,0,8.21,1.21,11.1,3.6,2.78,2.31,4.69,5.65,5.67,9.93l.13,.58s4.89,4.88,4.89,4.88l-2.48,5.68,2.4,10.49-5.58-3.04c-.69,1.66-1.3,3.18-1.82,4.53-1.2,3.1-2.25,5.89-3.13,8.29-1.65,4.4-3.2,8.43-4.64,12.07-1.5,3.79-3.05,7.35-4.62,10.59-1.66,3.41-3.47,6.63-5.4,9.58-1.98,3.02-4.25,5.96-6.74,8.72-1.55,1.73-3.34,3.29-5.3,4.61-1.78,1.2-3.62,2.22-5.49,3.05-1.93,.85-3.86,1.51-5.75,1.95-2.04,.47-4,.71-5.83,.71Z"/>
      <path class="cls-1" d="M279.71,105.79c-4.86-.73-11.79-3.44-17.15-12.25l-2.19-3.61,1.05-4.09c.52-2.02,1.16-4.24,1.9-6.58,.71-2.26,1.55-4.83,2.48-7.63,.94-2.81,2.07-6.07,3.35-9.68,1.26-3.55,2.71-7.58,4.33-12.09,.59-1.66,1.23-3.43,1.89-5.27,.1-.27,.19-.53,.29-.8-5.97-.25-9.72-2.88-11.85-5.11-3.07-3.22-4.7-7.31-4.7-11.82,0-1.24,.15-2.53,.47-3.93,.32-1.43,.79-2.77,1.39-3.97l3.64-7.28,7.78,2.06c.12,.02,.58,.09,1.55,.14,1.33,.07,2.94,.11,4.79,.11h10.4c3.51,0,6.91-.17,10.1-.49,3.4-.35,6.49-.69,9.18-1.02,4.1-.49,5.51-.56,6.42-.56,5.71,0,10.59,2.67,13.39,7.33,1.64,2.74,2.78,6.02,3.48,10.04l2.3,13.18-13.29-1.53c-1.18-.14-2.35-.2-3.49-.2h-9.01c-.07,.16-.14,.32-.21,.49-.96,2.22-1.92,4.6-2.87,7.08-.95,2.49-1.88,5-2.74,7.46-.87,2.48-1.63,4.72-2.25,6.65-1.3,3.91-2.43,7.5-3.39,10.76-.96,3.26-1.8,6.32-2.52,9.1-.7,2.73-1.31,5.37-1.82,7.86-.52,2.54-.98,5.02-1.37,7.4l-1.61,9.71-9.73-1.45Z"/>
      <path class="cls-1" d="M314.31,99.96c-2.08,0-3.84-.62-5.29-1.22-1.66-.69-3.27-1.69-4.79-2.97-1.55-1.3-2.92-2.9-4.08-4.75-1.6-2.55-2.41-5.49-2.41-8.71,0-.91,.06-1.94,.2-3.13,.12-1.04,.31-2.32,.59-3.89,.25-1.43,.58-3.12,.99-5.15,.4-1.97,.91-4.33,1.5-7.02,.2-.98,.53-2.17,1.06-3.83,.55-1.72,1.27-3.54,2.14-5.4,.94-2.01,2.1-3.98,3.44-5.85,1.98-2.76,4.46-4.86,7.37-6.25l3.18-1.52,3.43,.81c2.05,.48,4.22,1.42,6.83,2.96,2.94,1.73,5.45,4.1,7.48,7.03l4.45,6.44-5.19,5.86c-.96,1.09-1.76,2.15-2.36,3.17-.73,1.22-1.39,2.5-1.98,3.82-.63,1.41-1.22,2.91-1.76,4.45-.66,1.89-1.42,3.92-2.25,6.03-.56,1.42-1.08,2.91-1.54,4.43-.34,1.12-.44,1.77-.46,2.04,0,1.16-.02,2-.07,2.63-.39,5.72-4.89,10.01-10.47,10.01Z"/>
      <path class="cls-1" d="M326.59,98.66c-2.96-2.16-5.13-4.73-6.45-7.63-.93-2.05-1.63-4.31-2.08-6.73l-.2-1.1,.05-1.12c.08-1.92,.35-4.13,.83-6.77,.46-2.56,1.12-5.21,1.97-7.89,1.54-4.88,3.55-9.78,5.97-14.56,2.25-4.43,4.46-8.57,6.56-12.29l3.62-6.39,7.18,1.54c2.69,.58,5.2,1.53,7.45,2.83,1.74,1.01,3.44,2.28,5.18,3.88,2.71-1.38,5.43-2.07,8.14-2.07,1.64,0,3.34,.25,5.07,.74,1.46,.42,2.82,.94,4.08,1.58,.94,.47,1.77,.94,2.52,1.42,.35-.24,.69-.47,1.04-.7,3.58-2.32,7.27-3.49,10.96-3.49,3.03,0,5.9,.8,8.52,2.37,3.06,1.84,5.3,4.6,6.5,8.01l1.08,3.07-.93,3.11c-.7,2.34-1.76,4.95-3.25,7.99-1.18,2.41-2.39,5-3.61,7.7-.87,1.92-1.67,3.84-2.4,5.72,2.37,1.77,3.93,4.31,4.41,7.2,.15,.94,.23,1.79,.23,2.64v4.81l-3.76,3c-1.75,1.4-3.58,2.58-5.46,3.51-2.66,1.33-5.58,2-8.7,2s-5.77-.61-8.13-1.83c-2.36-1.21-4.33-2.91-5.86-5.05-.36-.51-.7-1.03-1.01-1.58-1.28,1.75-2.38,3.18-3.36,4.35l-4.69,5.59-6.75-2.76c-2.69-1.1-5.05-2.75-7.02-4.9-.42-.46-.82-.94-1.19-1.45-1.93,2.87-3.42,4.46-5.21,5.6l-5.76,3.69-5.52-4.04Z"/>
      <path class="cls-1" d="M408.83,101.78c-6.6-.77-11.96-3.38-15.93-7.77-3.96-4.37-6.05-9.88-6.05-15.94,0-3.33,.47-6.74,1.38-10.13,.87-3.22,2.1-6.38,3.66-9.37,1.51-2.91,3.3-5.7,5.33-8.28,2.08-2.65,4.37-5.01,6.8-7.02,2.58-2.13,5.31-3.85,8.13-5.11,3.29-1.47,6.68-2.22,10.07-2.22h.65l.64,.08c5.44,.71,10.25,3.7,14.31,8.87l2.36,3-.25,3.81c-.31,4.77-1.21,9.04-2.69,12.69-.84,2.09-1.89,4.05-3.14,5.88,.51,.49,.97,.98,1.39,1.46l5.34,6.1-4.87,6.49c-3.27,4.36-6.95,8.06-10.92,11-4.31,3.18-8.63,5.28-12.84,6.25l-1.68,.38-1.71-.2Z"/>
      <path class="cls-1" d="M19.03,101.97c-3.5-.83-6.66-2.36-9.39-4.56-2.46-1.98-4.71-4.65-6.68-7.91l-2.68-4.43,2.07-4.75c.43-.98,.95-2.15,1.56-3.53,.55-1.25,1.24-2.87,2.03-4.83,.83-2.04,1.82-4.53,2.98-7.46,.45-1.15,.94-2.39,1.46-3.72-.96-1.27-1.73-2.68-2.3-4.21l-2.23-6.01,4.54-4.54c2.01-2.01,4.49-2.91,6.87-3.59,.08-.02,.16-.04,.24-.07,.16-.44,.31-.86,.46-1.27,.63-1.75,1.2-3.41,1.7-4.93,.06-.17,.11-.34,.16-.5-.02-.01-.03-.02-.05-.04-3.87-2.98-6.01-7.3-6.01-12.17,0-1.24,.15-2.53,.47-3.93,.32-1.43,.79-2.77,1.39-3.97l3-6.02,6.71,.51c.89,.07,1.76,.1,2.61,.1h14.98c2.93,0,5.58-.13,7.88-.37,2.58-.28,4.81-.54,6.65-.78,2.41-.32,4.23-.46,5.72-.46,4.56,0,8.71,2.19,11.69,6.16,1.95,2.6,3.35,5.84,4.27,9.9l3.16,13.9-14.15-1.76c-1.98-.25-2.98-.28-3.4-.28h-3.1c-2.7,0-5.17,.12-7.37,.35-.64,.07-1.28,.14-1.91,.21-.1,.21-.36,.75-.38,.8,3.6,.77,6.09,2.52,7.67,4.06,2.15,2.09,4.69,5.8,4.69,11.67,0,.86-.05,1.74-.16,2.64-.2,1.69-.65,3.24-1.35,4.63l-3.26,6.51-7.2-1.1c-.59-.09-1.27-.17-2.03-.24-.44-.04-1.24-.09-2.49-.09-2.1,0-4.24,.19-6.35,.57-.81,.14-1.61,.28-2.41,.41-1.63,4.14-3.04,8.09-4.2,11.8-1.61,5.15-2.87,10.3-3.75,15.31l-1.83,10.43-10.31-2.43Z"/>
      <path class="cls-1" d="M65.52,96.57c-2.08,0-3.84-.62-5.29-1.22-1.66-.69-3.27-1.69-4.79-2.97-1.55-1.3-2.92-2.9-4.08-4.75-1.6-2.55-2.41-5.49-2.41-8.71,0-.91,.06-1.94,.2-3.13,.12-1.04,.31-2.32,.59-3.89,.25-1.43,.58-3.12,.99-5.15,.4-1.97,.91-4.33,1.5-7.02,.2-.98,.53-2.17,1.06-3.83,.55-1.72,1.27-3.54,2.14-5.4,.94-2.01,2.1-3.98,3.44-5.85,1.98-2.76,4.46-4.86,7.37-6.25l3.18-1.52,3.43,.81c2.05,.48,4.22,1.42,6.83,2.96,2.94,1.73,5.45,4.1,7.48,7.03l4.45,6.44-5.19,5.86c-.96,1.09-1.76,2.15-2.36,3.17-.73,1.22-1.39,2.5-1.98,3.82-.63,1.41-1.22,2.91-1.76,4.45-.66,1.89-1.42,3.92-2.25,6.03-.56,1.42-1.08,2.91-1.54,4.43-.34,1.12-.44,1.77-.46,2.04,0,1.16-.02,2-.07,2.63-.39,5.72-4.89,10.01-10.47,10.01Z"/>
      <path class="cls-1" d="M77.21,52.16c-2.68-.44-5.14-1.67-7.12-3.54-2.5-2.36-3.9-5.42-3.94-8.61-.54-1.58-.81-3.18-.81-4.73,0-1.1,.11-2.31,.35-3.8,.18-1.11,.41-2.32,.7-3.59,.29-1.32,.66-2.72,1.1-4.15,.42-1.35,.85-2.62,1.27-3.76l2.43-6.49h6.93c1.93,0,3.94,.4,6.13,1.21,1.6,.59,3.19,1.36,4.75,2.27,1.55,.9,3.01,1.92,4.33,3.02,1.55,1.29,2.78,2.57,3.75,3.91l5.04,6.91-6.05,6.05c-.56,.56-1.35,1.39-2.33,2.46-.9,.98-1.8,2.02-2.65,3.11-.94,1.19-1.81,2.33-2.58,3.38-.49,.67-.73,1.02-.83,1.17l-3.19,6.4-7.28-1.21Z"/>
      <path class="cls-1" d="M81,104.15c-2.05-.15-4.11-.7-6.11-1.63-1.65-.77-3.22-1.76-4.66-2.93-1.46-1.19-2.75-2.54-3.84-4.01-1.31-1.77-2.27-3.68-2.84-5.68l-.38-1.34v-1.4c0-3.74,.79-7.36,2.36-10.76,1.47-3.2,3.5-6.07,6.03-8.52,2.48-2.41,5.41-4.37,8.71-5.85-.22-.92-.44-1.84-.64-2.74-.47-2.02-.71-4.07-.71-6.09,0-2.94,.59-5.85,1.75-8.66,1.01-2.45,2.37-4.75,4.03-6.84,1.71-2.15,3.74-4.02,6.03-5.55,2.44-1.63,5.06-2.79,7.8-3.42l2.46-.57,2.44,.66c2,.54,3.97,1.61,6.19,3.35,1.43,1.13,2.84,2.38,4.19,3.73,1.39,1.39,2.66,2.84,3.78,4.32,1.71,2.26,2.74,4.28,3.26,6.36l.36,1.45-.08,1.5c-.1,1.83-.4,3.72-.91,5.62-.49,1.83-1.12,3.55-1.87,5.1-.84,1.73-1.75,3.18-2.79,4.45-.75,.92-1.53,1.66-2.32,2.26,.18,.83,.26,1.71,.26,2.65,0,3.21-1.18,6.14-3.32,8.26l-2.07,2.05-1.07,.23c-.58,6.05-2.75,11.21-6.48,15.38-4.44,4.97-10.45,7.86-17.86,8.59l-.85,.08-.85-.06Z"/>
      <path class="cls-1" d="M113.94,99.27c-2.34,0-5.74-.77-8.63-4.45-.86-1.1-1.61-2.38-2.23-3.81-.35-.81-.68-1.64-.97-2.46-.64-1.77-.96-3.45-.96-5.12,0-2.62,.24-5.52,.74-8.88,.46-3.15,1.15-6.55,2.04-10.1,.85-3.42,1.88-7.03,3.04-10.74,1.17-3.72,2.49-7.49,3.94-11.21,1.3-3.45,2.83-6.96,4.55-10.46,1.69-3.46,3.57-6.91,5.56-10.25,1.99-3.34,4.09-6.57,6.25-9.59,2.19-3.07,4.44-5.93,6.68-8.51l2.99-3.43h4.55c1.66,0,3.41,.2,5.21,.58,1.58,.34,3.13,.79,4.61,1.35,1.68,.63,3.25,1.39,4.67,2.27,1.54,.96,2.82,1.95,3.91,3.05l6.98,6.98-6.89,7.07c-4.04,4.14-7.72,8.37-10.96,12.56,3.04,.14,6.13,1.08,9.18,2.81,2.92,1.65,5.5,3.88,7.67,6.62l5.29,6.67-5.73,6.29c-1.54,1.69-3.2,3.82-4.91,6.31-1.81,2.63-3.49,5.31-4.99,7.95-.65,1.15-1.25,2.27-1.8,3.34l.55,.89c.55,.89,1.12,1.88,1.53,3.09,.41,1.26,.61,2.46,.61,3.64,0,2.69-1,6.53-5.78,9.52-1.1,.69-2.32,1.33-3.72,1.97-1.18,.54-2.38,1.03-3.55,1.47-2.14,.8-3.94,1.18-5.67,1.18-2.3,0-4.52-.58-6.61-1.73-1.7-.93-3.19-2.17-4.44-3.67-.3-.36-.59-.74-.86-1.12-.31,.69-.61,1.38-.9,2.06l-.05,.12c-.68,1.59-1.67,3.03-2.93,4.29-2.86,2.87-5.92,3.47-7.97,3.47Z"/>
      <path class="cls-1" d="M176.11,52.16c-2.68-.44-5.14-1.67-7.12-3.54-2.5-2.36-3.9-5.42-3.94-8.61-.54-1.58-.81-3.18-.81-4.73,0-1.1,.11-2.31,.35-3.8,.18-1.11,.41-2.32,.7-3.59,.29-1.32,.66-2.72,1.1-4.15,.42-1.35,.85-2.62,1.27-3.76l2.43-6.49h6.93c1.93,0,3.94,.4,6.13,1.21,1.6,.59,3.19,1.36,4.75,2.27,1.55,.9,3.01,1.92,4.33,3.02,1.55,1.29,2.78,2.57,3.75,3.91l5.04,6.91-6.05,6.05c-.56,.56-1.35,1.39-2.33,2.46-.9,.98-1.8,2.02-2.65,3.11-.94,1.19-1.81,2.33-2.58,3.38-.49,.67-.73,1.02-.83,1.17l-3.19,6.4-7.28-1.21Z"/>
      <path class="cls-1" d="M164.43,96.57c-2.08,0-3.84-.62-5.29-1.22-1.66-.69-3.27-1.69-4.79-2.97-1.55-1.3-2.92-2.9-4.08-4.75-1.6-2.55-2.41-5.49-2.41-8.71,0-.91,.06-1.94,.2-3.13,.12-1.04,.31-2.32,.59-3.89,.25-1.43,.58-3.12,.99-5.15,.4-1.97,.91-4.33,1.5-7.02,.2-.98,.53-2.17,1.06-3.83,.55-1.72,1.27-3.54,2.14-5.4,.94-2.01,2.1-3.98,3.44-5.85,1.98-2.76,4.46-4.86,7.37-6.25l3.18-1.52,3.43,.81c2.05,.48,4.22,1.42,6.83,2.96,2.94,1.73,5.45,4.1,7.48,7.03l4.45,6.44-5.19,5.86c-.96,1.09-1.76,2.15-2.36,3.17-.73,1.22-1.39,2.5-1.98,3.82-.63,1.41-1.22,2.91-1.76,4.45-.66,1.89-1.42,3.92-2.25,6.03-.56,1.42-1.08,2.91-1.54,4.43-.34,1.12-.44,1.77-.46,2.04,0,1.16-.02,2-.07,2.63-.39,5.72-4.89,10.01-10.47,10.01Z"/>
      <path class="cls-1" d="M176.2,98.13c-3.05-1.74-5.43-4.33-6.9-7.48-.91-1.95-1.6-4.01-2.05-6.1l-.23-1.05v-1.07c0-1.79,.22-3.81,.67-6.19,.37-1.97,.88-4.17,1.52-6.53,.64-2.39,1.43-4.91,2.36-7.5,.91-2.54,1.93-5.11,3.04-7.64,2.49-5.77,4.77-10.28,6.96-13.75,3.05-4.84,4.78-7.09,7.55-8.48l3.59-1.79,3.83,1.18c3.42,1.06,6.5,3.19,9.13,6.33,.77,.93,1.48,1.89,2.12,2.89,.52-.33,1.04-.64,1.56-.93,3.26-1.85,6.53-2.79,9.71-2.79,4.24,0,8.04,1.56,10.98,4.5,1.76,1.76,3.19,3.67,4.25,5.7l1.15,2.19v2.47c0,1.4-.39,5.88-5,8.77-.35,.5-.92,1.37-1.7,2.78-.91,1.64-1.82,3.45-2.69,5.39-.44,.97-.84,1.96-1.2,2.95,1.59,.99,3.44,2.7,4.56,5.62,.6,1.57,.9,3.12,.9,4.64v4.54l-3.41,2.99c-.86,.76-1.85,1.49-2.93,2.18-.94,.6-1.94,1.16-2.96,1.67-1.09,.55-2.2,1.02-3.29,1.4-1.76,.61-3.49,.92-5.14,.92-3.18,0-6.02-.56-8.44-1.67-2.64-1.21-4.81-2.93-6.45-5.12-.56-.75-1.05-1.54-1.48-2.37-.3,.41-.6,.82-.9,1.24-1.33,1.87-2.57,3.56-3.64,4.95-1.83,2.39-3.57,4.01-5.46,5.12l-4.99,2.91-5.02-2.87Z"/>
      <path class="cls-1" d="M223.47,127.98c-2.15,0-4.36-.24-6.55-.73-2.14-.47-4.19-1.13-6.08-1.97-2.05-.91-3.89-2-5.49-3.25-2.14-1.68-3.77-3.62-4.86-5.79l-1.06-2.11v-2.37c0-2.65,.88-5.15,2.55-7.23,.47-.59,.99-1.17,1.56-1.73l6.77-6.76,7.05,6.46c.13,.12,.25,.22,.35,.31,1.07-.1,2.09-.45,3.15-1.07,1.74-1.02,3.49-2.62,5.2-4.76,.8-1,1.58-2.12,2.34-3.34-1.25-.56-2.43-1.28-3.54-2.16-1.71-1.36-3.22-3.03-4.47-4.97-1.2-1.85-2.13-3.94-2.76-6.21-.6-2.15-.91-4.44-.91-6.78,0-3.47,.63-7.01,1.88-10.53,1.09-3.09,2.55-6.15,4.35-9.1,1.78-2.94,3.9-5.73,6.3-8.32,2.4-2.59,5-4.88,7.74-6.83,2.79-1.99,5.7-3.61,8.64-4.83,3.46-1.43,6.97-2.16,10.44-2.16,4.48,0,8.21,1.21,11.1,3.6,2.78,2.31,4.69,5.65,5.67,9.93l.13,.58s4.89,4.88,4.89,4.88l-2.48,5.68,2.4,10.49-5.58-3.04c-.69,1.66-1.3,3.18-1.82,4.53-1.2,3.1-2.25,5.89-3.13,8.29-1.65,4.4-3.2,8.43-4.64,12.07-1.5,3.79-3.05,7.35-4.62,10.59-1.66,3.41-3.47,6.63-5.4,9.58-1.98,3.02-4.25,5.96-6.74,8.72-1.55,1.73-3.34,3.29-5.3,4.61-1.78,1.2-3.62,2.22-5.49,3.05-1.93,.85-3.86,1.51-5.75,1.95-2.04,.47-4,.71-5.83,.71Z"/>
      <path class="cls-1" d="M278.06,102.4c-4.86-.73-11.79-3.44-17.15-12.25l-2.19-3.61,1.05-4.09c.52-2.02,1.16-4.24,1.9-6.58,.71-2.26,1.55-4.83,2.48-7.63,.94-2.81,2.07-6.07,3.35-9.68,1.26-3.55,2.71-7.58,4.33-12.09,.59-1.66,1.23-3.43,1.89-5.27,.1-.27,.19-.53,.29-.8-5.97-.25-9.72-2.88-11.85-5.11-3.07-3.22-4.7-7.31-4.7-11.82,0-1.24,.15-2.53,.47-3.93,.32-1.43,.79-2.77,1.39-3.97l3.64-7.28,7.78,2.06c.12,.02,.58,.09,1.55,.14,1.33,.07,2.94,.11,4.79,.11h10.4c3.51,0,6.91-.17,10.1-.49,3.4-.35,6.49-.69,9.18-1.02,4.1-.49,5.51-.56,6.42-.56,5.71,0,10.59,2.67,13.39,7.33,1.64,2.74,2.78,6.02,3.48,10.04l2.3,13.18-13.29-1.53c-1.18-.14-2.35-.2-3.49-.2h-9.01c-.07,.16-.14,.32-.21,.49-.96,2.22-1.92,4.6-2.87,7.08-.95,2.49-1.88,5-2.74,7.46-.87,2.48-1.63,4.72-2.25,6.65-1.3,3.91-2.43,7.5-3.39,10.76-.96,3.26-1.8,6.32-2.52,9.1-.7,2.73-1.31,5.37-1.82,7.86-.52,2.54-.98,5.02-1.37,7.4l-1.61,9.71-9.73-1.45Z"/>
      <path class="cls-1" d="M324.34,52.16c-2.68-.44-5.14-1.67-7.12-3.54-2.5-2.36-3.9-5.42-3.94-8.61-.54-1.58-.81-3.18-.81-4.73,0-1.1,.11-2.31,.35-3.8,.18-1.11,.41-2.32,.7-3.59,.29-1.32,.66-2.72,1.1-4.15,.42-1.35,.85-2.62,1.27-3.76l2.43-6.49h6.93c1.93,0,3.94,.4,6.13,1.21,1.6,.59,3.19,1.36,4.75,2.27,1.55,.9,3.01,1.92,4.33,3.02,1.55,1.29,2.78,2.57,3.75,3.91l5.04,6.91-6.05,6.05c-.56,.56-1.35,1.39-2.33,2.46-.9,.98-1.8,2.02-2.65,3.11-.94,1.19-1.81,2.33-2.58,3.38-.49,.67-.73,1.02-.83,1.17l-3.19,6.4-7.28-1.21Z"/>
      <path class="cls-1" d="M312.66,96.57c-2.08,0-3.84-.62-5.29-1.22-1.66-.69-3.27-1.69-4.79-2.97-1.55-1.3-2.92-2.9-4.08-4.75-1.6-2.55-2.41-5.49-2.41-8.71,0-.91,.06-1.94,.2-3.13,.12-1.04,.31-2.32,.59-3.89,.25-1.43,.58-3.12,.99-5.15,.4-1.97,.91-4.33,1.5-7.02,.2-.98,.53-2.17,1.06-3.83,.55-1.72,1.27-3.54,2.14-5.4,.94-2.01,2.1-3.98,3.44-5.85,1.98-2.76,4.46-4.86,7.37-6.25l3.18-1.52,3.43,.81c2.05,.48,4.22,1.42,6.83,2.96,2.94,1.73,5.45,4.1,7.48,7.03l4.45,6.44-5.19,5.86c-.96,1.09-1.76,2.15-2.36,3.17-.73,1.22-1.39,2.5-1.98,3.82-.63,1.41-1.22,2.91-1.76,4.45-.66,1.89-1.42,3.92-2.25,6.03-.56,1.42-1.08,2.91-1.54,4.43-.34,1.12-.44,1.77-.46,2.04,0,1.16-.02,2-.07,2.63-.39,5.72-4.89,10.01-10.47,10.01Z"/>
      <path class="cls-1" d="M324.94,95.27c-2.96-2.16-5.13-4.73-6.45-7.63-.93-2.05-1.63-4.31-2.08-6.73l-.2-1.1,.05-1.12c.08-1.92,.35-4.13,.83-6.77,.46-2.56,1.12-5.21,1.97-7.89,1.54-4.88,3.55-9.78,5.97-14.56,2.25-4.43,4.46-8.57,6.56-12.29l3.62-6.39,7.18,1.54c2.69,.58,5.2,1.53,7.45,2.83,1.74,1.01,3.44,2.28,5.18,3.88,2.71-1.38,5.43-2.07,8.14-2.07,1.64,0,3.34,.25,5.07,.74,1.46,.42,2.82,.94,4.08,1.58,.94,.47,1.77,.94,2.52,1.42,.35-.24,.69-.47,1.04-.7,3.58-2.32,7.27-3.49,10.96-3.49,3.03,0,5.9,.8,8.52,2.37,3.06,1.84,5.3,4.6,6.5,8.01l1.08,3.07-.93,3.11c-.7,2.34-1.76,4.95-3.25,7.99-1.18,2.41-2.39,5-3.61,7.7-.87,1.92-1.67,3.84-2.4,5.72,2.37,1.77,3.93,4.31,4.41,7.2,.15,.94,.23,1.79,.23,2.64v4.81l-3.76,3c-1.75,1.4-3.58,2.58-5.46,3.51-2.66,1.33-5.58,2-8.7,2s-5.77-.61-8.13-1.83c-2.36-1.21-4.33-2.91-5.86-5.05-.36-.51-.7-1.03-1.01-1.58-1.28,1.75-2.38,3.18-3.36,4.35l-4.69,5.59-6.75-2.76c-2.69-1.1-5.05-2.75-7.02-4.9-.42-.46-.82-.94-1.19-1.45-1.93,2.87-3.42,4.46-5.21,5.6l-5.76,3.69-5.52-4.04Z"/>
      <path class="cls-1" d="M407.17,98.39c-6.6-.77-11.96-3.38-15.93-7.77-3.96-4.37-6.05-9.88-6.05-15.94,0-3.33,.47-6.74,1.38-10.13,.87-3.22,2.1-6.38,3.66-9.37,1.51-2.91,3.3-5.7,5.33-8.28,2.08-2.65,4.37-5.01,6.8-7.02,2.58-2.13,5.31-3.85,8.13-5.11,3.29-1.47,6.68-2.22,10.07-2.22h.65l.64,.08c5.44,.71,10.25,3.7,14.31,8.87l2.36,3-.25,3.81c-.31,4.77-1.21,9.04-2.69,12.69-.84,2.09-1.89,4.05-3.14,5.88,.51,.49,.97,.98,1.39,1.46l5.34,6.1-4.87,6.49c-3.27,4.36-6.95,8.06-10.92,11-4.31,3.18-8.63,5.28-12.84,6.25l-1.68,.38-1.71-.2Z"/>
      <path class="cls-2" d="M48.15,47.42c-1.44,0-3.23,.12-5.35,.36-2.13,.24-4.36,.54-6.7,.9,1.68-3.76,3.07-6.87,4.18-9.32,1.11-2.45,2.03-4.44,2.75-5.96,.72-1.52,1.31-2.7,1.75-3.54,.45-.84,.85-1.52,1.22-2.06,2.28-.36,4.69-.67,7.24-.94,2.55-.27,5.36-.4,8.42-.4h3.1c1.17,0,2.71,.12,4.64,.36-.6-2.64-1.44-4.68-2.52-6.12-1.08-1.44-2.31-2.16-3.69-2.16-1.02,0-2.49,.13-4.41,.38-1.92,.25-4.22,.52-6.88,.81-2.67,.29-5.66,.43-8.96,.43h-14.98c-1.11,0-2.24-.04-3.38-.13-.24,.48-.44,1.05-.59,1.72-.15,.66-.22,1.24-.22,1.72,0,1.75,.7,3.16,2.11,4.25,1.41,1.09,3.25,1.63,5.54,1.63h.45c-.36,1.8-.76,3.5-1.21,5.08-.45,1.59-.94,3.21-1.48,4.86-.54,1.65-1.14,3.39-1.8,5.22-.66,1.83-1.44,3.92-2.34,6.25-1.98,.48-3.66,.92-5.04,1.31-1.38,.39-2.22,.74-2.52,1.04,.78,2.1,2.43,3.57,4.95,4.41-1.62,4.14-3.02,7.7-4.19,10.67-1.17,2.97-2.18,5.49-3.02,7.56-.84,2.07-1.56,3.78-2.16,5.13-.6,1.35-1.11,2.51-1.53,3.47,1.38,2.28,2.85,4.05,4.41,5.31,1.56,1.26,3.36,2.13,5.4,2.61,.96-5.46,2.31-10.98,4.05-16.56,1.74-5.58,3.96-11.55,6.66-17.91,2.46-.3,5.04-.69,7.74-1.17,2.7-.48,5.4-.72,8.1-.72,1.32,0,2.46,.04,3.42,.13,.96,.09,1.83,.2,2.61,.31,.18-.36,.3-.79,.36-1.3,.06-.51,.09-1,.09-1.49,0-1.92-.56-3.42-1.66-4.5-1.11-1.08-2.63-1.62-4.55-1.62Z"/>
      <path class="cls-2" d="M78.93,53.36c-1.2-1.74-2.64-3.1-4.32-4.1-1.68-.99-3.03-1.6-4.05-1.84-1.38,.66-2.56,1.68-3.56,3.06-.99,1.38-1.83,2.81-2.52,4.28-.69,1.47-1.25,2.87-1.67,4.19-.42,1.32-.69,2.28-.81,2.88-.6,2.7-1.1,5.01-1.48,6.93-.39,1.92-.71,3.56-.94,4.91-.24,1.35-.41,2.43-.5,3.24s-.14,1.49-.14,2.03c0,1.32,.3,2.46,.9,3.42,.6,.96,1.27,1.75,2.02,2.38,.75,.63,1.48,1.09,2.21,1.4,.72,.3,1.2,.45,1.44,.45,.3,0,.46-.23,.49-.68,.03-.45,.05-1.21,.05-2.29,.06-1.32,.36-2.86,.9-4.63,.54-1.77,1.14-3.49,1.8-5.18,.78-1.98,1.49-3.87,2.12-5.67,.63-1.8,1.32-3.54,2.07-5.22,.75-1.68,1.59-3.3,2.52-4.86,.93-1.56,2.08-3.12,3.46-4.68Z"/>
      <path class="cls-2" d="M76.41,38.24c-.18,.72-.27,1.26-.27,1.62,0,.48,.27,.98,.81,1.48,.54,.51,1.17,.83,1.89,.94,.24-.48,.78-1.29,1.62-2.43,.84-1.14,1.77-2.35,2.79-3.65,1.02-1.29,2.07-2.52,3.15-3.69,1.08-1.17,1.95-2.08,2.61-2.75-.48-.66-1.17-1.36-2.07-2.12-.9-.75-1.89-1.44-2.97-2.07s-2.15-1.14-3.19-1.53c-1.05-.39-1.94-.59-2.65-.59-.36,.96-.72,2.03-1.08,3.2-.36,1.17-.66,2.29-.9,3.38-.24,1.08-.44,2.09-.58,3.02-.15,.93-.22,1.66-.22,2.2,0,.48,.1,1.02,.31,1.62,.21,.6,.46,1.05,.76,1.35Z"/>
      <path class="cls-2" d="M109.62,46.25c-.84-1.11-1.8-2.2-2.88-3.28s-2.18-2.05-3.29-2.93c-1.11-.87-2-1.4-2.65-1.57-1.56,.36-3.06,1.02-4.5,1.99s-2.7,2.12-3.78,3.48-1.95,2.83-2.61,4.43c-.66,1.6-.99,3.21-.99,4.83,0,1.27,.15,2.55,.45,3.84,.3,1.3,.61,2.62,.94,3.98,.33,1.36,.64,2.76,.95,4.2,.3,1.45,.45,2.92,.45,4.43-2.64,0-5.08,.5-7.33,1.5-2.25,1-4.2,2.3-5.85,3.9-1.65,1.6-2.96,3.45-3.91,5.53-.96,2.09-1.44,4.28-1.44,6.58,.24,.84,.66,1.67,1.26,2.48,.6,.81,1.31,1.54,2.11,2.2,.81,.66,1.67,1.2,2.57,1.62,.9,.42,1.77,.66,2.61,.72,4.86-.48,8.65-2.25,11.38-5.3,2.73-3.06,4.1-7.09,4.1-12.11,0-.72-.02-1.31-.04-1.79-.03-.48-.04-.95-.04-1.43,0-.36,.04-.64,.13-.85,.09-.21,.34-.4,.77-.58,.42-.18,1.03-.37,1.84-.58,.81-.21,1.9-.46,3.29-.76,.24-.24,.36-.63,.36-1.16,0-.36-.03-.6-.09-.72h-6.3c-.06-.12-.09-.48-.09-1.07,0-5.79,.63-10.18,1.89-13.17,1.26-2.99,3.09-4.48,5.49-4.48,.66,0,1.18,.29,1.58,.85,.39,.57,.58,1.28,.58,2.12,0,.36-.08,.78-.23,1.26-.15,.48-.31,.96-.49,1.44-.18,.48-.35,.92-.5,1.31-.15,.39-.23,.68-.23,.85,.12,.84,.51,1.29,1.17,1.35,.48,0,.99-.33,1.53-.99,.54-.66,1.05-1.48,1.53-2.47,.48-.99,.88-2.1,1.21-3.33,.33-1.23,.52-2.41,.58-3.56-.18-.72-.69-1.63-1.53-2.75Zm-18.4,32.72c-.57,1.62-1.34,3.15-2.3,4.59-.96,1.44-2.09,2.73-3.38,3.87-1.29,1.14-2.65,2.01-4.09,2.61-1.2-.84-1.8-1.92-1.8-3.24,0-1.02,.42-2.22,1.26-3.6,.84-1.38,1.89-2.71,3.15-4,1.26-1.29,2.61-2.4,4.05-3.33,1.44-.93,2.76-1.49,3.96-1.67,0,1.56-.29,3.15-.85,4.77Z"/>
      <path class="cls-2" d="M153.27,45.62c-1.8-1.02-3.48-1.53-5.04-1.53-5.58,0-14.13,7.35-25.65,22.05,.54-2.16,1.12-4.21,1.76-6.17,.63-1.95,1.33-3.9,2.11-5.85,.78-1.95,1.63-3.92,2.56-5.9,.93-1.98,1.96-4.11,3.1-6.39,2.1-4.14,4.95-8.56,8.55-13.27,3.6-4.71,7.65-9.37,12.15-14-.54-.54-1.25-1.08-2.12-1.62-.87-.54-1.83-1-2.88-1.4-1.05-.39-2.13-.7-3.24-.94-1.11-.24-2.15-.36-3.1-.36-2.04,2.34-4.07,4.92-6.08,7.74-2.01,2.82-3.95,5.79-5.81,8.91-1.86,3.12-3.59,6.3-5.17,9.54-1.59,3.24-2.99,6.45-4.19,9.63-1.38,3.54-2.63,7.08-3.73,10.62-1.11,3.54-2.07,6.93-2.88,10.17-.81,3.24-1.43,6.29-1.85,9.13-.42,2.85-.63,5.33-.63,7.43,0,.48,.12,1.05,.36,1.71,.24,.66,.5,1.3,.77,1.94,.27,.63,.57,1.15,.9,1.57,.33,.42,.58,.63,.77,.63,.24,0,.54-.18,.9-.54,.36-.36,.63-.75,.81-1.17,1.32-3.18,2.89-6.34,4.73-9.49,1.83-3.15,3.78-6.13,5.85-8.96,2.07-2.82,4.2-5.41,6.39-7.79,2.19-2.37,4.37-4.37,6.52-5.98,.66-.48,1.36-.96,2.12-1.44,.75-.48,1.21-.72,1.4-.72,.24,0,.36,.12,.36,.36-1.44,2.94-2.79,5.82-4.05,8.64-1.26,2.82-2.34,5.42-3.24,7.79-.9,2.37-1.61,4.44-2.11,6.21-.51,1.77-.77,3.1-.77,4,0,.72,.13,1.41,.4,2.07,.27,.66,.63,1.26,1.08,1.8,.45,.54,.97,.97,1.58,1.3,.6,.33,1.2,.5,1.8,.5,.48,0,1.2-.18,2.16-.54,.96-.36,1.94-.76,2.92-1.21,.99-.45,1.85-.9,2.56-1.35,.72-.45,1.08-.79,1.08-1.04,0-.12-.03-.27-.09-.45-.06-.18-.24-.51-.54-.99-.12,0-.45,.12-.99,.36-.54,.24-1.26,.36-2.16,.36-.6,0-.99-.1-1.17-.31-.18-.21-.27-.61-.27-1.22,0-1.2,.52-3.04,1.57-5.53,1.05-2.49,2.4-5.19,4.05-8.1,1.65-2.91,3.46-5.81,5.44-8.69s3.9-5.34,5.76-7.38c-1.38-1.74-2.97-3.12-4.77-4.14Z"/>
      <path class="cls-2" d="M175.32,38.24c-.18,.72-.27,1.26-.27,1.62,0,.48,.27,.98,.81,1.48,.54,.51,1.17,.83,1.89,.94,.24-.48,.78-1.29,1.62-2.43,.84-1.14,1.77-2.35,2.79-3.65,1.02-1.29,2.07-2.52,3.15-3.69,1.08-1.17,1.95-2.08,2.61-2.75-.48-.66-1.17-1.36-2.07-2.12-.9-.75-1.89-1.44-2.97-2.07s-2.15-1.14-3.19-1.53c-1.05-.39-1.94-.59-2.65-.59-.36,.96-.72,2.03-1.08,3.2-.36,1.17-.66,2.29-.9,3.38-.24,1.08-.44,2.09-.58,3.02-.15,.93-.22,1.66-.22,2.2,0,.48,.1,1.02,.31,1.62,.21,.6,.46,1.05,.76,1.35Z"/>
      <path class="cls-2" d="M173.52,49.27c-1.68-.99-3.03-1.6-4.05-1.84-1.38,.66-2.56,1.68-3.56,3.06-.99,1.38-1.83,2.81-2.52,4.28-.69,1.47-1.25,2.87-1.67,4.19-.42,1.32-.69,2.28-.81,2.88-.6,2.7-1.1,5.01-1.48,6.93-.39,1.92-.71,3.56-.94,4.91-.24,1.35-.41,2.43-.5,3.24s-.14,1.49-.14,2.03c0,1.32,.3,2.46,.9,3.42,.6,.96,1.27,1.75,2.02,2.38,.75,.63,1.48,1.09,2.21,1.4,.72,.3,1.2,.45,1.44,.45,.3,0,.46-.23,.49-.68,.03-.45,.05-1.21,.05-2.29,.06-1.32,.36-2.86,.9-4.63,.54-1.77,1.14-3.49,1.8-5.18,.78-1.98,1.49-3.87,2.12-5.67,.63-1.8,1.32-3.54,2.07-5.22,.75-1.68,1.59-3.3,2.52-4.86,.93-1.56,2.08-3.12,3.46-4.68-1.2-1.74-2.64-3.1-4.32-4.1Z"/>
      <path class="cls-2" d="M214.42,85.58c.69-.24,1.4-.54,2.11-.9,.72-.36,1.41-.75,2.07-1.17,.66-.42,1.23-.84,1.71-1.26,0-.3-.08-.64-.23-1.03-.15-.39-.35-.64-.58-.77-.42,0-.99,.15-1.71,.45-.72,.3-1.41,.45-2.07,.45-.72,0-1.28-.21-1.67-.63-.39-.42-.58-1.38-.58-2.88,0-1.86,.33-3.93,.99-6.21,.66-2.28,1.48-4.51,2.48-6.71,.99-2.19,2.01-4.23,3.06-6.12,1.05-1.89,1.99-3.38,2.83-4.46,.84-.96,1.48-1.54,1.94-1.75,.45-.21,.67-.37,.67-.5-.6-1.14-1.43-2.23-2.48-3.28-1.05-1.05-2.36-1.58-3.92-1.58-1.44,0-3.03,.5-4.77,1.48-1.74,.99-3.46,2.19-5.17,3.6-1.71,1.41-3.35,2.91-4.9,4.5-1.56,1.59-2.91,2.99-4.05,4.19-.54,.54-1.29,1.37-2.25,2.48-.96,1.11-2,2.34-3.1,3.69-1.11,1.35-2.25,2.7-3.42,4.05s-2.24,2.54-3.19,3.56c.18-1.38,.82-3.13,1.94-5.27,1.11-2.13,2.35-4.38,3.73-6.75,1.38-2.37,2.76-4.69,4.14-6.98,1.38-2.28,2.4-4.23,3.06-5.85-.66-1.98-1.68-3.79-3.06-5.45-1.38-1.65-2.85-2.71-4.41-3.19-.48,.24-1.67,1.86-3.56,4.86-1.89,3-3.98,7.14-6.25,12.42-1.02,2.34-1.95,4.68-2.79,7.02-.84,2.34-1.55,4.58-2.11,6.71-.57,2.13-1.02,4.07-1.35,5.81-.33,1.74-.5,3.18-.5,4.32,.3,1.38,.75,2.71,1.35,4,.6,1.29,1.53,2.29,2.79,3.02,.72-.42,1.57-1.28,2.56-2.56,.99-1.29,2.14-2.86,3.46-4.73,2.34-3.24,4.64-6.18,6.89-8.82,2.25-2.64,4.78-5.31,7.6-8.01,1.74-1.74,3.36-3.03,4.86-3.87,1.5-.84,2.31-1.26,2.43-1.26-1.02,2.4-1.86,4.46-2.52,6.17-.66,1.71-1.17,3.18-1.53,4.41-.36,1.23-.6,2.29-.72,3.19-.12,.9-.18,1.71-.18,2.43,0,1.32,.12,2.56,.36,3.73,.24,1.17,.68,2.18,1.31,3.02,.63,.84,1.5,1.52,2.61,2.02,1.11,.51,2.53,.77,4.27,.77,.54,0,1.15-.12,1.85-.36Z"/>
      <path class="cls-2" d="M259.02,50.84c-1.26,3.36-2.96,6.83-5.08,10.4-2.13,3.57-4.49,6.79-7.06,9.67-1.14,1.26-2.34,2.51-3.6,3.73-1.26,1.23-2.48,2.31-3.65,3.24-1.17,.93-2.22,1.7-3.15,2.29-.93,.6-1.67,.9-2.21,.9-.12,0-.21-.04-.27-.13-.06-.09-.09-.34-.09-.77,0-1.86,.46-3.96,1.4-6.3,.93-2.34,2.13-4.74,3.6-7.2,1.47-2.46,3.16-4.87,5.08-7.25,1.92-2.37,3.85-4.47,5.81-6.3,1.95-1.83,3.87-3.31,5.76-4.46,1.89-1.14,3.56-1.71,5-1.71,1.02,0,1.86,.18,2.52,.54-.48-2.1-1.25-3.58-2.29-4.46-1.05-.87-2.63-1.31-4.73-1.31s-4.36,.47-6.61,1.4c-2.25,.93-4.47,2.18-6.66,3.74-2.19,1.56-4.26,3.39-6.21,5.49-1.95,2.1-3.65,4.34-5.08,6.71-1.44,2.37-2.6,4.79-3.47,7.25-.87,2.46-1.3,4.86-1.3,7.2,0,1.44,.18,2.81,.54,4.1,.36,1.29,.87,2.45,1.53,3.46,.66,1.02,1.42,1.88,2.29,2.56,.87,.69,1.81,1.12,2.83,1.31,.78-.3,1.72-.78,2.84-1.44,1.11-.66,2.23-1.38,3.38-2.16,1.14-.78,2.23-1.6,3.28-2.48,1.05-.87,1.94-1.67,2.66-2.38-1.56,5.7-3.36,10.8-5.4,15.3-2.04,4.5-4.31,8.31-6.79,11.43-2.49,3.12-5.15,5.5-7.96,7.15-2.82,1.65-5.79,2.48-8.91,2.48-.66,0-1.23-.03-1.71-.09-.48-.06-.94-.21-1.4-.45-.45-.24-.93-.54-1.44-.9-.51-.36-1.12-.87-1.84-1.53-.3,.3-.57,.6-.81,.9-.24,.3-.36,.63-.36,.99,.42,.84,1.11,1.63,2.07,2.39,.96,.75,2.09,1.41,3.38,1.98,1.29,.57,2.69,1.02,4.19,1.35,1.5,.33,2.97,.49,4.41,.49,1.08,0,2.26-.15,3.56-.45,1.29-.3,2.61-.75,3.96-1.35,1.35-.6,2.67-1.34,3.96-2.21,1.29-.87,2.44-1.88,3.46-3.02,2.16-2.4,4.1-4.9,5.81-7.51,1.71-2.61,3.3-5.43,4.77-8.46,1.47-3.03,2.91-6.33,4.32-9.9,1.41-3.57,2.93-7.51,4.55-11.83,.9-2.46,1.96-5.28,3.19-8.46,1.23-3.18,2.86-7.11,4.9-11.79-.48-.48-1.35-.93-2.61-1.35-1.26-.42-2.7-.69-4.32-.81Z"/>
      <path class="cls-2" d="M315.58,27.35c1.53,0,3.07,.09,4.64,.27-.48-2.76-1.22-4.96-2.21-6.61-.99-1.65-2.6-2.48-4.81-2.48-.78,0-2.52,.16-5.22,.49-2.7,.33-5.82,.67-9.36,1.04-3.54,.36-7.25,.54-11.12,.54h-10.4c-2.04,0-3.82-.04-5.35-.13-1.53-.09-2.69-.23-3.46-.44-.24,.48-.44,1.05-.58,1.71-.15,.66-.23,1.23-.23,1.71,0,1.93,.64,3.57,1.94,4.92,1.29,1.35,3.13,2.03,5.54,2.03,1.74,0,3.73-.1,5.98-.31,2.25-.21,4.63-.46,7.15-.77-.36,1.38-.8,2.91-1.3,4.59-.51,1.68-1.08,3.42-1.71,5.22-.63,1.8-1.28,3.62-1.94,5.44-.66,1.83-1.29,3.59-1.89,5.27-1.62,4.5-3.06,8.52-4.32,12.06-1.26,3.54-2.36,6.71-3.29,9.5-.93,2.79-1.74,5.28-2.43,7.47-.69,2.19-1.28,4.22-1.75,6.08,2.7,4.44,6.06,6.96,10.08,7.56,.42-2.53,.9-5.11,1.44-7.76s1.18-5.43,1.94-8.35c.75-2.92,1.62-6.06,2.61-9.43,.99-3.37,2.14-7.04,3.47-11.01,.66-2.04,1.44-4.35,2.34-6.9s1.84-5.13,2.83-7.72c.99-2.59,1.99-5.07,3.02-7.45,1.02-2.38,1.95-4.44,2.79-6.18,1.98-.24,3.94-.36,5.9-.36h9.72Z"/>
      <path class="cls-2" d="M323.55,38.24c-.18,.72-.27,1.26-.27,1.62,0,.48,.27,.98,.81,1.48,.54,.51,1.17,.83,1.89,.94,.24-.48,.78-1.29,1.62-2.43,.84-1.14,1.77-2.35,2.79-3.65,1.02-1.29,2.07-2.52,3.15-3.69,1.08-1.17,1.95-2.08,2.61-2.75-.48-.66-1.17-1.36-2.07-2.12-.9-.75-1.89-1.44-2.97-2.07s-2.15-1.14-3.19-1.53c-1.05-.39-1.94-.59-2.65-.59-.36,.96-.72,2.03-1.08,3.2-.36,1.17-.66,2.29-.9,3.38-.24,1.08-.44,2.09-.58,3.02-.15,.93-.22,1.66-.22,2.2,0,.48,.1,1.02,.31,1.62,.21,.6,.46,1.05,.76,1.35Z"/>
      <path class="cls-2" d="M321.75,49.27c-1.68-.99-3.03-1.6-4.05-1.84-1.38,.66-2.56,1.68-3.56,3.06-.99,1.38-1.83,2.81-2.52,4.28-.69,1.47-1.25,2.87-1.67,4.19-.42,1.32-.69,2.28-.81,2.88-.6,2.7-1.1,5.01-1.48,6.93-.39,1.92-.71,3.56-.94,4.91-.24,1.35-.41,2.43-.5,3.24s-.14,1.49-.14,2.03c0,1.32,.3,2.46,.9,3.42,.6,.96,1.27,1.75,2.02,2.38,.75,.63,1.48,1.09,2.21,1.4,.72,.3,1.2,.45,1.44,.45,.3,0,.46-.23,.49-.68,.03-.45,.05-1.21,.05-2.29,.06-1.32,.36-2.86,.9-4.63,.54-1.77,1.14-3.49,1.8-5.18,.78-1.98,1.49-3.87,2.12-5.67,.63-1.8,1.32-3.54,2.07-5.22,.75-1.68,1.59-3.3,2.52-4.86,.93-1.56,2.08-3.12,3.46-4.68-1.2-1.74-2.64-3.1-4.32-4.1Z"/>
      <path class="cls-2" d="M390.19,47.47c-1.05-.63-2.18-.95-3.38-.95-1.74,0-3.59,.63-5.54,1.89-1.95,1.26-4.07,3.06-6.34,5.4-2.28,2.34-4.71,5.15-7.29,8.42-2.58,3.27-5.34,6.92-8.28,10.94,.18-1.26,.81-2.95,1.89-5.08,1.08-2.13,2.25-4.33,3.51-6.62,1.26-2.28,2.44-4.45,3.56-6.52,1.11-2.07,1.81-3.7,2.12-4.9-.06-.18-.33-.43-.81-.77-.48-.33-1.08-.67-1.8-1.04-.72-.36-1.5-.66-2.34-.9-.84-.24-1.62-.36-2.34-.36-1.92,0-4.08,.96-6.48,2.88-2.4,1.92-4.81,4.26-7.25,7.02-2.43,2.76-4.8,5.7-7.11,8.82-2.31,3.12-4.31,5.88-5.99,8.28,.36-2.46,1.11-4.89,2.25-7.29,1.14-2.4,2.4-4.74,3.78-7.02,1.38-2.28,2.7-4.46,3.96-6.52,1.26-2.07,2.19-4.03,2.79-5.9-1.5-1.5-2.93-2.64-4.27-3.42-1.35-.78-2.87-1.35-4.55-1.71-2.04,3.6-4.16,7.56-6.34,11.88-2.19,4.32-3.98,8.67-5.35,13.05-.72,2.28-1.28,4.5-1.67,6.66-.39,2.16-.62,3.96-.67,5.4,.3,1.62,.75,3.09,1.35,4.41,.6,1.32,1.68,2.55,3.24,3.69,.66-.42,1.72-1.8,3.19-4.15,1.47-2.34,3.31-5.08,5.54-8.2,1.68-2.34,3.48-4.73,5.4-7.17,1.92-2.43,3.78-4.63,5.58-6.58,1.8-1.95,3.48-3.54,5.04-4.78,1.56-1.23,2.79-1.85,3.69-1.85-1.86,2.64-3.44,5.14-4.73,7.5-1.29,2.37-2.37,4.63-3.24,6.78-.87,2.16-1.58,4.24-2.12,6.24-.54,2.01-.96,3.94-1.26,5.79,.42,1.56,1.11,2.87,2.07,3.92,.96,1.05,2.1,1.85,3.42,2.39,.96-1.14,2.13-2.67,3.51-4.6,1.38-1.92,2.86-3.98,4.45-6.17,1.59-2.19,3.24-4.4,4.95-6.62s3.36-4.25,4.95-6.08c1.59-1.83,3.07-3.33,4.46-4.51,1.38-1.17,2.55-1.76,3.51-1.76-.6,1.26-1.32,2.68-2.16,4.27-.84,1.59-1.64,3.29-2.38,5.12-.75,1.83-1.4,3.74-1.94,5.75-.54,2.01-.81,4.03-.81,6.07,0,1.26,.12,2.43,.36,3.5,.24,1.08,.66,2.04,1.26,2.88,.6,.84,1.36,1.5,2.29,1.98,.93,.48,2.12,.72,3.56,.72,1.56,0,2.97-.32,4.23-.95,1.26-.63,2.49-1.43,3.69-2.38,0-.3-.03-.63-.09-.99-.06-.36-.27-.66-.63-.9-.3,0-.76,.14-1.4,.4-.63,.27-1.3,.41-2.02,.41-.66,0-1.17-.19-1.53-.58-.36-.39-.54-1.21-.54-2.48,0-2.16,.49-4.59,1.48-7.29,.99-2.7,2.12-5.44,3.38-8.23s2.5-5.45,3.73-7.96c1.23-2.52,2.12-4.68,2.66-6.48-.42-1.2-1.16-2.11-2.21-2.74Z"/>
      <path class="cls-2" d="M404.28,74.42c3.84-1.5,7.2-3.06,10.08-4.68s5.32-3.43,7.33-5.44,3.55-4.35,4.63-7.02c1.08-2.67,1.74-5.86,1.98-9.58-2.4-3.06-4.98-4.77-7.74-5.13-1.98,0-3.98,.45-5.99,1.35-2.01,.9-3.96,2.13-5.85,3.69-1.89,1.56-3.66,3.39-5.31,5.49-1.65,2.1-3.09,4.34-4.32,6.71-1.23,2.37-2.19,4.83-2.88,7.38-.69,2.55-1.04,5.06-1.04,7.52,0,3.6,1.15,6.68,3.46,9.22,2.31,2.55,5.54,4.06,9.68,4.54,2.88-.66,5.92-2.18,9.14-4.54,3.21-2.37,6.16-5.35,8.86-8.96-.42-.48-.93-.99-1.53-1.53-.96,1.02-2.06,2.15-3.29,3.38-1.23,1.23-2.55,2.37-3.96,3.42-1.41,1.05-2.9,1.94-4.46,2.66-1.56,.72-3.15,1.08-4.77,1.08-.84,0-1.53-.22-2.07-.67s-.96-1.04-1.26-1.75c-.3-.72-.51-1.5-.63-2.34-.12-.84-.18-1.65-.18-2.43,0-.42,.01-.82,.04-1.21,.03-.39,.04-.77,.04-1.12Zm3.69-11.16c1.26-2.4,2.66-4.5,4.19-6.3,1.53-1.8,3.16-3.24,4.91-4.32,1.74-1.08,3.42-1.74,5.04-1.98-.24,4.14-1.95,7.96-5.13,11.48-3.18,3.51-7.17,6.47-11.97,8.86,.72-2.76,1.71-5.34,2.97-7.74Z"/>
      <path class="cls-3" d="M46.25,45.41c-1.44,0-3.23,.12-5.35,.36-2.13,.24-4.36,.54-6.7,.9,1.68-3.76,3.07-6.87,4.18-9.32,1.11-2.45,2.03-4.44,2.75-5.96,.72-1.52,1.31-2.7,1.75-3.54,.45-.84,.85-1.52,1.22-2.06,2.28-.36,4.69-.67,7.24-.94,2.55-.27,5.36-.4,8.42-.4h3.1c1.17,0,2.71,.12,4.64,.36-.6-2.64-1.44-4.68-2.52-6.12-1.08-1.44-2.31-2.16-3.69-2.16-1.02,0-2.49,.13-4.41,.38-1.92,.25-4.22,.52-6.88,.81-2.67,.29-5.66,.43-8.96,.43h-14.98c-1.11,0-2.24-.04-3.38-.13-.24,.48-.44,1.05-.59,1.72-.15,.66-.22,1.24-.22,1.72,0,1.75,.7,3.16,2.11,4.25,1.41,1.09,3.25,1.63,5.54,1.63h.45c-.36,1.8-.76,3.5-1.21,5.08-.45,1.59-.94,3.21-1.48,4.86-.54,1.65-1.14,3.39-1.8,5.22-.66,1.83-1.44,3.92-2.34,6.25-1.98,.48-3.66,.92-5.04,1.31-1.38,.39-2.22,.74-2.52,1.04,.78,2.1,2.43,3.57,4.95,4.41-1.62,4.14-3.02,7.7-4.19,10.67-1.17,2.97-2.18,5.49-3.02,7.56-.84,2.07-1.56,3.78-2.16,5.13-.6,1.35-1.11,2.51-1.53,3.47,1.38,2.28,2.85,4.05,4.41,5.31,1.56,1.26,3.36,2.13,5.4,2.61,.96-5.46,2.31-10.98,4.05-16.56,1.74-5.58,3.96-11.55,6.66-17.91,2.46-.3,5.04-.69,7.74-1.17,2.7-.48,5.4-.72,8.1-.72,1.32,0,2.46,.04,3.42,.13,.96,.09,1.83,.2,2.61,.31,.18-.36,.3-.79,.36-1.3,.06-.51,.09-1,.09-1.49,0-1.92-.56-3.42-1.66-4.5-1.11-1.08-2.63-1.62-4.55-1.62Z"/>
      <path class="cls-3" d="M77.03,51.35c-1.2-1.74-2.64-3.1-4.32-4.1-1.68-.99-3.03-1.6-4.05-1.84-1.38,.66-2.56,1.68-3.56,3.06-.99,1.38-1.83,2.81-2.52,4.28-.69,1.47-1.25,2.87-1.67,4.19-.42,1.32-.69,2.28-.81,2.88-.6,2.7-1.1,5.01-1.48,6.93-.39,1.92-.71,3.56-.94,4.91-.24,1.35-.41,2.43-.5,3.24s-.14,1.49-.14,2.03c0,1.32,.3,2.46,.9,3.42,.6,.96,1.27,1.75,2.02,2.38,.75,.63,1.48,1.09,2.21,1.4,.72,.3,1.2,.45,1.44,.45,.3,0,.46-.23,.49-.68,.03-.45,.05-1.21,.05-2.29,.06-1.32,.36-2.86,.9-4.63,.54-1.77,1.14-3.49,1.8-5.18,.78-1.98,1.49-3.87,2.12-5.67,.63-1.8,1.32-3.54,2.07-5.22,.75-1.68,1.59-3.3,2.52-4.86,.93-1.56,2.08-3.12,3.46-4.68Z"/>
      <path class="cls-3" d="M74.51,36.23c-.18,.72-.27,1.26-.27,1.62,0,.48,.27,.98,.81,1.48,.54,.51,1.17,.83,1.89,.94,.24-.48,.78-1.29,1.62-2.43,.84-1.14,1.77-2.35,2.79-3.65,1.02-1.29,2.07-2.52,3.15-3.69,1.08-1.17,1.95-2.08,2.61-2.75-.48-.66-1.17-1.36-2.07-2.12-.9-.75-1.89-1.44-2.97-2.07s-2.15-1.14-3.19-1.53c-1.05-.39-1.94-.59-2.65-.59-.36,.96-.72,2.03-1.08,3.2-.36,1.17-.66,2.29-.9,3.38-.24,1.08-.44,2.09-.58,3.02-.15,.93-.22,1.66-.22,2.2,0,.48,.1,1.02,.31,1.62,.21,.6,.46,1.05,.76,1.35Z"/>
      <path class="cls-3" d="M107.72,44.24c-.84-1.11-1.8-2.2-2.88-3.28s-2.18-2.05-3.29-2.93c-1.11-.87-2-1.4-2.65-1.57-1.56,.36-3.06,1.02-4.5,1.99s-2.7,2.12-3.78,3.48-1.95,2.83-2.61,4.43c-.66,1.6-.99,3.21-.99,4.83,0,1.27,.15,2.55,.45,3.84,.3,1.3,.61,2.62,.94,3.98,.33,1.36,.64,2.76,.95,4.2,.3,1.45,.45,2.92,.45,4.43-2.64,0-5.08,.5-7.33,1.5-2.25,1-4.2,2.3-5.85,3.9-1.65,1.6-2.96,3.45-3.91,5.53-.96,2.09-1.44,4.28-1.44,6.58,.24,.84,.66,1.67,1.26,2.48,.6,.81,1.31,1.54,2.11,2.2,.81,.66,1.67,1.2,2.57,1.62,.9,.42,1.77,.66,2.61,.72,4.86-.48,8.65-2.25,11.38-5.3,2.73-3.06,4.1-7.09,4.1-12.11,0-.72-.02-1.31-.04-1.79-.03-.48-.04-.95-.04-1.43,0-.36,.04-.64,.13-.85,.09-.21,.34-.4,.77-.58,.42-.18,1.03-.37,1.84-.58,.81-.21,1.9-.46,3.29-.76,.24-.24,.36-.63,.36-1.16,0-.36-.03-.6-.09-.72h-6.3c-.06-.12-.09-.48-.09-1.07,0-5.79,.63-10.18,1.89-13.17,1.26-2.99,3.09-4.48,5.49-4.48,.66,0,1.18,.29,1.58,.85,.39,.57,.58,1.28,.58,2.12,0,.36-.08,.78-.23,1.26-.15,.48-.31,.96-.49,1.44-.18,.48-.35,.92-.5,1.31-.15,.39-.23,.68-.23,.85,.12,.84,.51,1.29,1.17,1.35,.48,0,.99-.33,1.53-.99,.54-.66,1.05-1.48,1.53-2.47,.48-.99,.88-2.1,1.21-3.33,.33-1.23,.52-2.41,.58-3.56-.18-.72-.69-1.63-1.53-2.75Zm-18.4,32.72c-.57,1.62-1.34,3.15-2.3,4.59-.96,1.44-2.09,2.73-3.38,3.87-1.29,1.14-2.65,2.01-4.09,2.61-1.2-.84-1.8-1.92-1.8-3.24,0-1.02,.42-2.22,1.26-3.6,.84-1.38,1.89-2.71,3.15-4,1.26-1.29,2.61-2.4,4.05-3.33,1.44-.93,2.76-1.49,3.96-1.67,0,1.56-.29,3.15-.85,4.77Z"/>
      <path class="cls-3" d="M151.37,43.61c-1.8-1.02-3.48-1.53-5.04-1.53-5.58,0-14.13,7.35-25.65,22.05,.54-2.16,1.12-4.21,1.76-6.17,.63-1.95,1.33-3.9,2.11-5.85,.78-1.95,1.63-3.92,2.56-5.9,.93-1.98,1.96-4.11,3.1-6.39,2.1-4.14,4.95-8.56,8.55-13.27,3.6-4.71,7.65-9.37,12.15-14-.54-.54-1.25-1.08-2.12-1.62-.87-.54-1.83-1-2.88-1.4-1.05-.39-2.13-.7-3.24-.94-1.11-.24-2.15-.36-3.1-.36-2.04,2.34-4.07,4.92-6.08,7.74-2.01,2.82-3.95,5.79-5.81,8.91-1.86,3.12-3.59,6.3-5.17,9.54-1.59,3.24-2.99,6.45-4.19,9.63-1.38,3.54-2.63,7.08-3.73,10.62-1.11,3.54-2.07,6.93-2.88,10.17-.81,3.24-1.43,6.29-1.85,9.13-.42,2.85-.63,5.33-.63,7.43,0,.48,.12,1.05,.36,1.71,.24,.66,.5,1.3,.77,1.94,.27,.63,.57,1.15,.9,1.57,.33,.42,.58,.63,.77,.63,.24,0,.54-.18,.9-.54,.36-.36,.63-.75,.81-1.17,1.32-3.18,2.89-6.34,4.73-9.49,1.83-3.15,3.78-6.13,5.85-8.96,2.07-2.82,4.2-5.41,6.39-7.79,2.19-2.37,4.37-4.37,6.52-5.98,.66-.48,1.36-.96,2.12-1.44,.75-.48,1.21-.72,1.4-.72,.24,0,.36,.12,.36,.36-1.44,2.94-2.79,5.82-4.05,8.64-1.26,2.82-2.34,5.42-3.24,7.79-.9,2.37-1.61,4.44-2.11,6.21-.51,1.77-.77,3.1-.77,4,0,.72,.13,1.41,.4,2.07,.27,.66,.63,1.26,1.08,1.8,.45,.54,.97,.97,1.58,1.3,.6,.33,1.2,.5,1.8,.5,.48,0,1.2-.18,2.16-.54,.96-.36,1.94-.76,2.92-1.21,.99-.45,1.85-.9,2.56-1.35,.72-.45,1.08-.79,1.08-1.04,0-.12-.03-.27-.09-.45-.06-.18-.24-.51-.54-.99-.12,0-.45,.12-.99,.36-.54,.24-1.26,.36-2.16,.36-.6,0-.99-.1-1.17-.31-.18-.21-.27-.61-.27-1.22,0-1.2,.52-3.04,1.57-5.53,1.05-2.49,2.4-5.19,4.05-8.1,1.65-2.91,3.46-5.81,5.44-8.69s3.9-5.34,5.76-7.38c-1.38-1.74-2.97-3.12-4.77-4.14Z"/>
      <path class="cls-3" d="M173.42,36.23c-.18,.72-.27,1.26-.27,1.62,0,.48,.27,.98,.81,1.48,.54,.51,1.17,.83,1.89,.94,.24-.48,.78-1.29,1.62-2.43,.84-1.14,1.77-2.35,2.79-3.65,1.02-1.29,2.07-2.52,3.15-3.69,1.08-1.17,1.95-2.08,2.61-2.75-.48-.66-1.17-1.36-2.07-2.12-.9-.75-1.89-1.44-2.97-2.07s-2.15-1.14-3.19-1.53c-1.05-.39-1.94-.59-2.65-.59-.36,.96-.72,2.03-1.08,3.2-.36,1.17-.66,2.29-.9,3.38-.24,1.08-.44,2.09-.58,3.02-.15,.93-.22,1.66-.22,2.2,0,.48,.1,1.02,.31,1.62,.21,.6,.46,1.05,.76,1.35Z"/>
      <path class="cls-3" d="M171.62,47.26c-1.68-.99-3.03-1.6-4.05-1.84-1.38,.66-2.56,1.68-3.56,3.06-.99,1.38-1.83,2.81-2.52,4.28-.69,1.47-1.25,2.87-1.67,4.19-.42,1.32-.69,2.28-.81,2.88-.6,2.7-1.1,5.01-1.48,6.93-.39,1.92-.71,3.56-.94,4.91-.24,1.35-.41,2.43-.5,3.24s-.14,1.49-.14,2.03c0,1.32,.3,2.46,.9,3.42,.6,.96,1.27,1.75,2.02,2.38,.75,.63,1.48,1.09,2.21,1.4,.72,.3,1.2,.45,1.44,.45,.3,0,.46-.23,.49-.68,.03-.45,.05-1.21,.05-2.29,.06-1.32,.36-2.86,.9-4.63,.54-1.77,1.14-3.49,1.8-5.18,.78-1.98,1.49-3.87,2.12-5.67,.63-1.8,1.32-3.54,2.07-5.22,.75-1.68,1.59-3.3,2.52-4.86,.93-1.56,2.08-3.12,3.46-4.68-1.2-1.74-2.64-3.1-4.32-4.1Z"/>
      <path class="cls-3" d="M212.52,83.57c.69-.24,1.4-.54,2.11-.9,.72-.36,1.41-.75,2.07-1.17,.66-.42,1.23-.84,1.71-1.26,0-.3-.08-.64-.23-1.03-.15-.39-.35-.64-.58-.77-.42,0-.99,.15-1.71,.45-.72,.3-1.41,.45-2.07,.45-.72,0-1.28-.21-1.67-.63-.39-.42-.58-1.38-.58-2.88,0-1.86,.33-3.93,.99-6.21,.66-2.28,1.48-4.51,2.48-6.71,.99-2.19,2.01-4.23,3.06-6.12,1.05-1.89,1.99-3.38,2.83-4.46,.84-.96,1.48-1.54,1.94-1.75,.45-.21,.67-.37,.67-.5-.6-1.14-1.43-2.23-2.48-3.28-1.05-1.05-2.36-1.58-3.92-1.58-1.44,0-3.03,.5-4.77,1.48-1.74,.99-3.46,2.19-5.17,3.6-1.71,1.41-3.35,2.91-4.9,4.5-1.56,1.59-2.91,2.99-4.05,4.19-.54,.54-1.29,1.37-2.25,2.48-.96,1.11-2,2.34-3.1,3.69-1.11,1.35-2.25,2.7-3.42,4.05s-2.24,2.54-3.19,3.56c.18-1.38,.82-3.13,1.94-5.27,1.11-2.13,2.35-4.38,3.73-6.75,1.38-2.37,2.76-4.69,4.14-6.98,1.38-2.28,2.4-4.23,3.06-5.85-.66-1.98-1.68-3.79-3.06-5.45-1.38-1.65-2.85-2.71-4.41-3.19-.48,.24-1.67,1.86-3.56,4.86-1.89,3-3.98,7.14-6.25,12.42-1.02,2.34-1.95,4.68-2.79,7.02-.84,2.34-1.55,4.58-2.11,6.71-.57,2.13-1.02,4.07-1.35,5.81-.33,1.74-.5,3.18-.5,4.32,.3,1.38,.75,2.71,1.35,4,.6,1.29,1.53,2.29,2.79,3.02,.72-.42,1.57-1.28,2.56-2.56,.99-1.29,2.14-2.86,3.46-4.73,2.34-3.24,4.64-6.18,6.89-8.82,2.25-2.64,4.78-5.31,7.6-8.01,1.74-1.74,3.36-3.03,4.86-3.87,1.5-.84,2.31-1.26,2.43-1.26-1.02,2.4-1.86,4.46-2.52,6.17-.66,1.71-1.17,3.18-1.53,4.41-.36,1.23-.6,2.29-.72,3.19-.12,.9-.18,1.71-.18,2.43,0,1.32,.12,2.56,.36,3.73,.24,1.17,.68,2.18,1.31,3.02,.63,.84,1.5,1.52,2.61,2.02,1.11,.51,2.53,.77,4.27,.77,.54,0,1.15-.12,1.85-.36Z"/>
      <path class="cls-3" d="M257.12,48.83c-1.26,3.36-2.96,6.83-5.08,10.4-2.13,3.57-4.49,6.79-7.06,9.67-1.14,1.26-2.34,2.51-3.6,3.73-1.26,1.23-2.48,2.31-3.65,3.24-1.17,.93-2.22,1.7-3.15,2.29-.93,.6-1.67,.9-2.21,.9-.12,0-.21-.04-.27-.13-.06-.09-.09-.34-.09-.77,0-1.86,.46-3.96,1.4-6.3,.93-2.34,2.13-4.74,3.6-7.2,1.47-2.46,3.16-4.87,5.08-7.25,1.92-2.37,3.85-4.47,5.81-6.3,1.95-1.83,3.87-3.31,5.76-4.46,1.89-1.14,3.56-1.71,5-1.71,1.02,0,1.86,.18,2.52,.54-.48-2.1-1.25-3.58-2.29-4.46-1.05-.87-2.63-1.31-4.73-1.31s-4.36,.47-6.61,1.4c-2.25,.93-4.47,2.18-6.66,3.74-2.19,1.56-4.26,3.39-6.21,5.49-1.95,2.1-3.65,4.34-5.08,6.71-1.44,2.37-2.6,4.79-3.47,7.25-.87,2.46-1.3,4.86-1.3,7.2,0,1.44,.18,2.81,.54,4.1,.36,1.29,.87,2.45,1.53,3.46,.66,1.02,1.42,1.88,2.29,2.56,.87,.69,1.81,1.12,2.83,1.31,.78-.3,1.72-.78,2.84-1.44,1.11-.66,2.23-1.38,3.38-2.16,1.14-.78,2.23-1.6,3.28-2.48,1.05-.87,1.94-1.67,2.66-2.38-1.56,5.7-3.36,10.8-5.4,15.3-2.04,4.5-4.31,8.31-6.79,11.43-2.49,3.12-5.15,5.5-7.96,7.15-2.82,1.65-5.79,2.48-8.91,2.48-.66,0-1.23-.03-1.71-.09-.48-.06-.94-.21-1.4-.45-.45-.24-.93-.54-1.44-.9-.51-.36-1.12-.87-1.84-1.53-.3,.3-.57,.6-.81,.9-.24,.3-.36,.63-.36,.99,.42,.84,1.11,1.63,2.07,2.39,.96,.75,2.09,1.41,3.38,1.98,1.29,.57,2.69,1.02,4.19,1.35,1.5,.33,2.97,.49,4.41,.49,1.08,0,2.26-.15,3.56-.45,1.29-.3,2.61-.75,3.96-1.35,1.35-.6,2.67-1.34,3.96-2.21,1.29-.87,2.44-1.88,3.46-3.02,2.16-2.4,4.1-4.9,5.81-7.51,1.71-2.61,3.3-5.43,4.77-8.46,1.47-3.03,2.91-6.33,4.32-9.9,1.41-3.57,2.93-7.51,4.55-11.83,.9-2.46,1.96-5.28,3.19-8.46,1.23-3.18,2.86-7.11,4.9-11.79-.48-.48-1.35-.93-2.61-1.35-1.26-.42-2.7-.69-4.32-.81Z"/>
      <path class="cls-3" d="M313.68,25.34c1.53,0,3.07,.09,4.64,.27-.48-2.76-1.22-4.96-2.21-6.61-.99-1.65-2.6-2.48-4.81-2.48-.78,0-2.52,.16-5.22,.49-2.7,.33-5.82,.67-9.36,1.04-3.54,.36-7.25,.54-11.12,.54h-10.4c-2.04,0-3.82-.04-5.35-.13-1.53-.09-2.69-.23-3.46-.44-.24,.48-.44,1.05-.58,1.71-.15,.66-.23,1.23-.23,1.71,0,1.93,.64,3.57,1.94,4.92,1.29,1.35,3.13,2.03,5.54,2.03,1.74,0,3.73-.1,5.98-.31,2.25-.21,4.63-.46,7.15-.77-.36,1.38-.8,2.91-1.3,4.59-.51,1.68-1.08,3.42-1.71,5.22-.63,1.8-1.28,3.62-1.94,5.44-.66,1.83-1.29,3.59-1.89,5.27-1.62,4.5-3.06,8.52-4.32,12.06-1.26,3.54-2.36,6.71-3.29,9.5-.93,2.79-1.74,5.28-2.43,7.47-.69,2.19-1.28,4.22-1.75,6.08,2.7,4.44,6.06,6.96,10.08,7.56,.42-2.53,.9-5.11,1.44-7.76s1.18-5.43,1.94-8.35c.75-2.92,1.62-6.06,2.61-9.43,.99-3.37,2.14-7.04,3.47-11.01,.66-2.04,1.44-4.35,2.34-6.9s1.84-5.13,2.83-7.72c.99-2.59,1.99-5.07,3.02-7.45,1.02-2.38,1.95-4.44,2.79-6.18,1.98-.24,3.94-.36,5.9-.36h9.72Z"/>
      <path class="cls-3" d="M321.65,36.23c-.18,.72-.27,1.26-.27,1.62,0,.48,.27,.98,.81,1.48,.54,.51,1.17,.83,1.89,.94,.24-.48,.78-1.29,1.62-2.43,.84-1.14,1.77-2.35,2.79-3.65,1.02-1.29,2.07-2.52,3.15-3.69,1.08-1.17,1.95-2.08,2.61-2.75-.48-.66-1.17-1.36-2.07-2.12-.9-.75-1.89-1.44-2.97-2.07s-2.15-1.14-3.19-1.53c-1.05-.39-1.94-.59-2.65-.59-.36,.96-.72,2.03-1.08,3.2-.36,1.17-.66,2.29-.9,3.38-.24,1.08-.44,2.09-.58,3.02-.15,.93-.22,1.66-.22,2.2,0,.48,.1,1.02,.31,1.62,.21,.6,.46,1.05,.76,1.35Z"/>
      <path class="cls-3" d="M319.85,47.26c-1.68-.99-3.03-1.6-4.05-1.84-1.38,.66-2.56,1.68-3.56,3.06-.99,1.38-1.83,2.81-2.52,4.28-.69,1.47-1.25,2.87-1.67,4.19-.42,1.32-.69,2.28-.81,2.88-.6,2.7-1.1,5.01-1.48,6.93-.39,1.92-.71,3.56-.94,4.91-.24,1.35-.41,2.43-.5,3.24s-.14,1.49-.14,2.03c0,1.32,.3,2.46,.9,3.42,.6,.96,1.27,1.75,2.02,2.38,.75,.63,1.48,1.09,2.21,1.4,.72,.3,1.2,.45,1.44,.45,.3,0,.46-.23,.49-.68,.03-.45,.05-1.21,.05-2.29,.06-1.32,.36-2.86,.9-4.63,.54-1.77,1.14-3.49,1.8-5.18,.78-1.98,1.49-3.87,2.12-5.67,.63-1.8,1.32-3.54,2.07-5.22,.75-1.68,1.59-3.3,2.52-4.86,.93-1.56,2.08-3.12,3.46-4.68-1.2-1.74-2.64-3.1-4.32-4.1Z"/>
      <path class="cls-3" d="M388.29,45.46c-1.05-.63-2.18-.95-3.38-.95-1.74,0-3.59,.63-5.54,1.89-1.95,1.26-4.07,3.06-6.34,5.4-2.28,2.34-4.71,5.15-7.29,8.42-2.58,3.27-5.34,6.92-8.28,10.94,.18-1.26,.81-2.95,1.89-5.08,1.08-2.13,2.25-4.33,3.51-6.62,1.26-2.28,2.44-4.45,3.56-6.52,1.11-2.07,1.81-3.7,2.12-4.9-.06-.18-.33-.43-.81-.77-.48-.33-1.08-.67-1.8-1.04-.72-.36-1.5-.66-2.34-.9-.84-.24-1.62-.36-2.34-.36-1.92,0-4.08,.96-6.48,2.88-2.4,1.92-4.81,4.26-7.25,7.02-2.43,2.76-4.8,5.7-7.11,8.82-2.31,3.12-4.31,5.88-5.99,8.28,.36-2.46,1.11-4.89,2.25-7.29,1.14-2.4,2.4-4.74,3.78-7.02,1.38-2.28,2.7-4.46,3.96-6.52,1.26-2.07,2.19-4.03,2.79-5.9-1.5-1.5-2.93-2.64-4.27-3.42-1.35-.78-2.87-1.35-4.55-1.71-2.04,3.6-4.16,7.56-6.34,11.88-2.19,4.32-3.98,8.67-5.35,13.05-.72,2.28-1.28,4.5-1.67,6.66-.39,2.16-.62,3.96-.67,5.4,.3,1.62,.75,3.09,1.35,4.41,.6,1.32,1.68,2.55,3.24,3.69,.66-.42,1.72-1.8,3.19-4.15,1.47-2.34,3.31-5.08,5.54-8.2,1.68-2.34,3.48-4.73,5.4-7.17,1.92-2.43,3.78-4.63,5.58-6.58,1.8-1.95,3.48-3.54,5.04-4.78,1.56-1.23,2.79-1.85,3.69-1.85-1.86,2.64-3.44,5.14-4.73,7.5-1.29,2.37-2.37,4.63-3.24,6.78-.87,2.16-1.58,4.24-2.12,6.24-.54,2.01-.96,3.94-1.26,5.79,.42,1.56,1.11,2.87,2.07,3.92,.96,1.05,2.1,1.85,3.42,2.39,.96-1.14,2.13-2.67,3.51-4.6,1.38-1.92,2.86-3.98,4.45-6.17,1.59-2.19,3.24-4.4,4.95-6.62s3.36-4.25,4.95-6.08c1.59-1.83,3.07-3.33,4.46-4.51,1.38-1.17,2.55-1.76,3.51-1.76-.6,1.26-1.32,2.68-2.16,4.27-.84,1.59-1.64,3.29-2.38,5.12-.75,1.83-1.4,3.74-1.94,5.75-.54,2.01-.81,4.03-.81,6.07,0,1.26,.12,2.43,.36,3.5,.24,1.08,.66,2.04,1.26,2.88,.6,.84,1.36,1.5,2.29,1.98,.93,.48,2.12,.72,3.56,.72,1.56,0,2.97-.32,4.23-.95,1.26-.63,2.49-1.43,3.69-2.38,0-.3-.03-.63-.09-.99-.06-.36-.27-.66-.63-.9-.3,0-.76,.14-1.4,.4-.63,.27-1.3,.41-2.02,.41-.66,0-1.17-.19-1.53-.58-.36-.39-.54-1.21-.54-2.48,0-2.16,.49-4.59,1.48-7.29,.99-2.7,2.12-5.44,3.38-8.23s2.5-5.45,3.73-7.96c1.23-2.52,2.12-4.68,2.66-6.48-.42-1.2-1.16-2.11-2.21-2.74Z"/>
      <path class="cls-3" d="M402.38,72.41c3.84-1.5,7.2-3.06,10.08-4.68s5.32-3.43,7.33-5.44,3.55-4.35,4.63-7.02c1.08-2.67,1.74-5.86,1.98-9.58-2.4-3.06-4.98-4.77-7.74-5.13-1.98,0-3.98,.45-5.99,1.35-2.01,.9-3.96,2.13-5.85,3.69-1.89,1.56-3.66,3.39-5.31,5.49-1.65,2.1-3.09,4.34-4.32,6.71-1.23,2.37-2.19,4.83-2.88,7.38-.69,2.55-1.04,5.06-1.04,7.52,0,3.6,1.15,6.68,3.46,9.22,2.31,2.55,5.54,4.06,9.68,4.54,2.88-.66,5.92-2.18,9.14-4.54,3.21-2.37,6.16-5.35,8.86-8.96-.42-.48-.93-.99-1.53-1.53-.96,1.02-2.06,2.15-3.29,3.38-1.23,1.23-2.55,2.37-3.96,3.42-1.41,1.05-2.9,1.94-4.46,2.66-1.56,.72-3.15,1.08-4.77,1.08-.84,0-1.53-.22-2.07-.67s-.96-1.04-1.26-1.75c-.3-.72-.51-1.5-.63-2.34-.12-.84-.18-1.65-.18-2.43,0-.42,.01-.82,.04-1.21,.03-.39,.04-.77,.04-1.12Zm3.69-11.16c1.26-2.4,2.66-4.5,4.19-6.3,1.53-1.8,3.16-3.24,4.91-4.32,1.74-1.08,3.42-1.74,5.04-1.98-.24,4.14-1.95,7.96-5.13,11.48-3.18,3.51-7.17,6.47-11.97,8.86,.72-2.76,1.71-5.34,2.97-7.74Z"/>
      <g class="cls-6">
        <path d="M82.27,27.12s-4-1-5,9"/>
        <path class="cls-7" d="M77.27,36.12c-.75-.06-1.42-2.72-.25-6.01,.57-1.62,1.79-3.09,3.14-3.55,.65-.24,1.26-.2,1.63-.04,.37,.16,.53,.4,.48,.6-.11,.4-.61,.67-1.04,1.27-.43,.57-.94,1.49-1.41,2.78-.94,2.57-1.68,5.05-2.56,4.95Z"/>
      </g>
      <g class="cls-6">
        <path d="M105.92,53.38s3.34-13.26-7.66-10.26c0,0-11.01,5.04-5,25.52s-17.47,22.36-16.23,19.92c0,0-8.98-16.34,15.13-19.39"/>
        <path class="cls-7" d="M92.16,69.17c.07,.38-3.07,.71-7.83,2.68-1.18,.49-2.41,1.18-3.61,2.06-1.18,.89-2.31,2.02-3.06,3.46-.75,1.43-1.13,3.15-1.01,5,.05,.92,.22,1.87,.49,2.81,.26,.93,.64,1.94,1.08,2.74l1.1,2.04-1.78-1.14c-.18-.11-.29-.05-.2-.09,.1-.04,.28-.23,.45-.54,.03-.07,.08-.15,.13-.25,.03-.06,.01-.02,.02-.03,0,0,.03,0,.05,.01,.04,.01,.1,.03,.18,.04,.29,.05,.68,.06,1.07,.05,.79-.03,1.63-.16,2.47-.35,1.68-.39,3.36-1.03,4.9-1.94,1.53-.91,2.93-2.1,3.97-3.56,1.05-1.45,1.75-3.18,2.03-5.04,.25-1.64,.2-3.33-.06-4.99-.23-1.66-.75-3.24-1.17-5.04-.49-1.72-.72-3.48-1.01-5.19-.07-.87-.14-1.73-.21-2.58-.09-.85,0-1.71-.01-2.54,.12-3.35,.86-6.61,2.37-9.3,.77-1.34,1.69-2.53,2.74-3.53,.54-.49,1.09-.94,1.69-1.32,.32-.18,.54-.38,1.11-.57,.34-.07,.68-.14,1.01-.21,1.29-.22,2.61-.27,3.86,.08,.63,.15,1.21,.46,1.73,.81,.5,.38,.92,.82,1.24,1.29,.63,.95,.88,1.94,1.02,2.81,.13,.88,.13,1.67,.09,2.38-.21,2.81-.89,4.22-1.06,4.17-.23-.04,.04-1.55-.11-4.16-.1-1.27-.33-2.94-1.31-4.21-.94-1.29-2.87-1.61-5.04-1.08-.26,.07-.52,.14-.78,.21-.02,0-.31,.18-.52,.34-.45,.32-.89,.71-1.31,1.13-.83,.86-1.56,1.89-2.16,3.05-1.19,2.33-1.76,5.17-1.8,8.2,.03,.76-.04,1.53,.06,2.31,.08,.78,.15,1.57,.23,2.37,.3,1.59,.53,3.22,1.02,4.85,.38,1.59,.99,3.39,1.27,5.29,.3,1.89,.38,3.89,.07,5.9-.34,2.28-1.23,4.5-2.58,6.33-1.34,1.84-3.08,3.27-4.92,4.33-1.85,1.06-3.8,1.76-5.77,2.18-.99,.2-1.98,.34-3.01,.35-.52,0-1.04-.01-1.63-.12-.31-.07-.61-.12-1.05-.37-.21-.13-.52-.31-.78-.8-.28-.54-.17-1.2,.02-1.54l.02,1.26c-.59-1.18-.94-2.24-1.23-3.38-.28-1.12-.44-2.25-.46-3.38-.06-2.24,.51-4.44,1.55-6.19,1.04-1.76,2.49-3.04,3.9-3.96,1.43-.91,2.83-1.55,4.14-1.97,2.6-.88,4.73-1.12,6.17-1.27,1.45-.08,2.23-.05,2.25,.1Z"/>
      </g>
      <g class="cls-6">
        <path d="M143.27,13.12s-26,24-30,68c0,0,25.49-45,36.25-34,0,0-21.25,33-10.25,34"/>
        <path class="cls-7" d="M139.27,81.12c0,.06-.25,.12-.75,.07-.47-.06-1.29-.25-1.96-1.06-.68-.79-1.01-2.06-1.01-3.44,0-1.39,.23-2.95,.66-4.63,.86-3.36,2.42-7.25,4.48-11.55,1.03-2.15,2.2-4.4,3.48-6.75,.64-1.17,1.32-2.37,2.02-3.58,.36-.61,.72-1.22,1.08-1.84l.48-.8,.08-.15s-.1-.09-.15-.12c-.01-.01-.06-.03-.23-.12-.13-.09-.29-.13-.43-.19-.59-.22-1.23-.3-1.91-.24-1.37,.13-2.85,.8-4.25,1.68-2.81,1.8-5.41,4.36-7.91,7.13-4.98,5.59-9.59,12.18-14.05,19.17-1.51,2.39-2.98,4.79-4.35,7.15l-3.42,5.92,.63-6.79c1-10.72,3.4-20.69,6.55-29.33,3.14-8.65,7-15.97,10.7-21.76,3.7-5.79,7.23-10.07,9.83-12.85,2.6-2.78,4.28-4.07,4.41-3.92,.13,.14-1.26,1.68-3.57,4.64-2.31,2.96-5.53,7.36-8.94,13.19-3.41,5.82-6.99,13.08-9.91,21.59-2.93,8.5-5.16,18.24-6.1,28.71l-2.79-.87c1.4-2.45,2.87-4.86,4.41-7.29,4.53-7.09,9.24-13.75,14.46-19.5,2.64-2.85,5.37-5.51,8.61-7.52,1.62-.97,3.42-1.81,5.47-1.98,1.02-.08,2.1,.06,3.07,.46,.24,.11,.49,.2,.7,.34,.18,.11,.52,.28,.81,.54,.59,.46,1.14,.97,1.65,1.47-.59,.92-1.17,1.83-1.75,2.73-.37,.6-.75,1.2-1.11,1.78-.73,1.18-1.42,2.34-2.09,3.48-1.34,2.27-2.56,4.46-3.66,6.53-2.19,4.15-3.89,7.87-4.91,11.03-1.02,3.12-1.34,5.85-.44,7.2,.42,.68,1.04,.97,1.44,1.14,.42,.17,.66,.24,.65,.31Z"/>
      </g>
      <g class="cls-6">
        <path d="M181.08,26.29s-6.95,1.83-4.88,9.83"/>
        <path class="cls-7" d="M176.2,36.12c-.38,.1-.95-.48-1.37-1.66-.09-.3-.18-.63-.26-1-.05-.37-.06-.78-.08-1.21,0-.43,.09-.89,.16-1.36,.13-.46,.27-.96,.5-1.42,.43-.95,1.11-1.71,1.77-2.28,.69-.55,1.38-.91,1.99-1.1,1.22-.39,2.07-.2,2.17,.19,.25,.8-2.14,2.09-3.22,4.48-1.14,2.34-.77,5.15-1.66,5.36Z"/>
      </g>
      <g class="cls-6">
        <path d="M170.27,51.12s-12,12-10,29"/>
        <path class="cls-7" d="M160.27,80.12c-.21,.02-.43-.39-.67-1.19-.23-.8-.52-1.97-.57-3.45-.24-2.95,.16-7.14,1.72-11.41,1.51-4.29,3.82-7.74,5.73-9.97,1.93-2.24,3.5-3.26,3.78-2.97,.61,.56-3.88,6.01-6.69,13.96-1.44,3.94-2.12,7.69-2.43,10.45-.22,1.38-.26,2.51-.38,3.31-.12,.8-.29,1.26-.5,1.29Z"/>
      </g>
      <g class="cls-6">
        <path d="M193.37,47.12s-16.11,21-13.11,33"/>
        <path class="cls-7" d="M180.27,80.12c-.19,.05-.52-.4-.83-1.33-.31-.93-.52-2.34-.47-4.08,.08-3.48,1.37-8.11,3.59-12.73,2.21-4.64,4.81-8.47,6.87-11.09,2.07-2.62,3.62-4.02,3.95-3.77,.69,.51-3.82,7.29-8.11,16.15-2.13,4.43-3.61,8.59-4.19,11.67-.63,3.08-.37,5.06-.81,5.18Z"/>
      </g>
      <g class="cls-6">
        <path d="M217.14,49.76s-16.58,24.36-5.73,31.36"/>
        <path class="cls-7" d="M211.41,81.12c-.1,.16-.63,.07-1.47-.41-.81-.5-1.88-1.53-2.61-3.15-.72-1.61-1.06-3.72-.9-5.93,.15-2.22,.66-4.57,1.47-6.92,1.62-4.69,3.86-8.52,5.65-11.15,1.81-2.62,3.24-4.03,3.58-3.8,.34,.23-.43,2.03-1.74,4.85-1.29,2.82-3.15,6.69-4.66,11.06-1.51,4.36-2.16,8.48-1.41,11.16,.67,2.71,2.37,3.88,2.08,4.28Z"/>
      </g>
      <g class="cls-6">
        <path d="M257.27,43.12s-32,13-27,36"/>
        <path class="cls-7" d="M230.27,79.12c-.2,.04-.51-.59-.9-1.81-.18-.61-.3-1.38-.45-2.29-.05-.9-.19-1.95-.09-3.11,.09-2.31,.66-5.08,1.92-7.89,1.23-2.82,3.12-5.65,5.49-8.21,4.74-5.15,10.15-8.43,14.14-10.42,4.03-1.98,6.75-2.66,6.9-2.28,.16,.39-2.21,1.73-5.85,4.12-3.61,2.4-8.59,5.82-12.98,10.6-2.2,2.38-3.97,4.9-5.2,7.37-1.25,2.46-1.96,4.86-2.31,6.93-.22,1.03-.23,1.99-.34,2.83,0,.84-.07,1.58-.07,2.19,.02,1.21-.06,1.92-.26,1.96Z"/>
      </g>
      <g class="cls-6">
        <path d="M259.13,53.15s-16.87,31.97-15.87,39.97c0,0-9,22-28,20"/>
        <path class="cls-7" d="M215.27,113.12c.01-.1,.3-.18,.83-.25,.27-.03,.59-.05,.98-.08,.38-.04,.82-.09,1.32-.15,1.96-.23,4.78-.78,7.88-2.33,3.1-1.53,6.41-4.12,9.36-7.68,1.48-1.77,2.88-3.77,4.15-5.96,.63-1.09,1.24-2.23,1.78-3.39l.2-.43s0,0,0,0c0-.03,0,.07,0-.03l-.02-.32c-.02-.22,0-.4,.01-.6,.03-.79,.14-1.53,.28-2.25,.56-2.89,1.48-5.47,2.39-7.96,.93-2.48,1.92-4.81,2.9-7.02,1.97-4.41,3.91-8.28,5.61-11.49,3.41-6.43,5.85-10.22,6.21-10.02,.37,.19-1.4,4.32-4.3,10.95-1.44,3.31-3.17,7.25-4.98,11.66-.9,2.2-1.82,4.52-2.68,6.94-.84,2.41-1.71,4.95-2.2,7.5-.12,.63-.21,1.26-.23,1.83,0,.14-.03,.3-.01,.42l.03,.67v.25c0,.08-.05,.16-.08,.24l-.2,.46-.22,.49c-.6,1.27-1.26,2.47-1.95,3.63-1.39,2.31-2.93,4.4-4.58,6.26-3.28,3.72-7.06,6.4-10.58,7.81-3.52,1.44-6.65,1.69-8.72,1.56-.52-.05-.98-.09-1.38-.13-.4-.07-.73-.14-.99-.21-.53-.13-.8-.25-.79-.36Z"/>
      </g>
      <g class="cls-6">
        <path d="M269.84,21.47s40.32,1.36,43.37,0"/>
        <path class="cls-7" d="M313.22,21.47c.04,.09-.06,.24-.36,.42-.28,.15-.71,.32-1.26,.46-1.1,.29-2.7,.53-4.68,.71-3.95,.37-9.39,.52-15.4,.43-12.01-.19-21.71-1.2-21.68-2.03,.03-.83,9.76-1.16,21.72-.97,5.98,.09,11.39,.28,15.3,.45,1.95,.09,3.53,.17,4.61,.24,1.1,.09,1.63,.1,1.73,.28Z"/>
      </g>
      <g class="cls-6">
        <line x1="273.06" y1="83.2" x2="293.29" y2="22.02"/>
        <path class="cls-7" d="M293.29,22.02c.79,.26-3.11,14.16-8.69,31.06-5.59,16.89-10.75,30.38-11.54,30.12s3.11-14.16,8.69-31.06c5.59-16.89,10.75-30.38,11.54-30.12Z"/>
      </g>
      <g class="cls-6">
        <path d="M328.27,26.12s-4.16-.47-2.58,6.77"/>
        <path class="cls-7" d="M325.69,32.89c-.4,.09-.86-.3-1.27-1.06-.35-.78-.72-1.92-.45-3.4,.15-.73,.44-1.47,.95-2.04,.51-.57,1.16-.91,1.71-1.01,1.12-.17,1.69,.35,1.64,.75-.04,.41-.47,.76-.77,1.19-.28,.44-.4,.83-.58,1.67-.28,1.71-.37,3.74-1.23,3.91Z"/>
      </g>
      <g class="cls-6">
        <path d="M317.87,51.62s-12.6,19.5-9.6,27.5"/>
        <path class="cls-7" d="M308.27,79.12c-.17,.07-.55-.26-.87-1.02-.34-.76-.58-1.95-.57-3.39,0-2.9,1-6.69,2.66-10.55,3.38-7.71,7.71-12.98,8.38-12.54,.72,.46-2.4,6.34-5.62,13.72-1.59,3.69-2.81,7.09-3.31,9.57-.57,2.49-.26,4.02-.67,4.21Z"/>
      </g>
      <g class="cls-6">
        <path d="M340.27,46.12s-13.73,24.48-11.36,31.74"/>
        <path class="cls-7" d="M328.9,77.86c-.1,.03-.22-.05-.37-.26-.17-.21-.32-.55-.44-1.01-.26-.91-.35-2.27-.18-3.88,.32-3.23,1.59-7.45,3.46-11.84,3.77-8.79,8.2-15.15,8.9-14.75,.74,.41-2.47,7.35-6.14,15.92-1.83,4.28-3.33,8.2-4.14,11.05-.41,1.43-.63,2.59-.74,3.4-.06,.41-.1,.73-.13,.96-.05,.23-.11,.38-.21,.41Z"/>
      </g>
      <g class="cls-6">
        <path d="M362.27,51.12s-12.92,19.48-10.46,26.74"/>
        <path class="cls-7" d="M351.8,77.86c-.17,.07-.55-.27-.82-1.05-.29-.77-.45-1.96-.35-3.37,.18-2.83,1.34-6.49,3.09-10.21,3.56-7.45,7.87-12.56,8.54-12.11,.71,.46-2.4,6.23-5.82,13.39-1.69,3.58-3.05,6.87-3.71,9.28-.72,2.41-.52,3.9-.92,4.07Z"/>
      </g>
      <g class="cls-6">
        <path d="M384.51,49.76s-14.25,25.36-6.25,32.36"/>
        <path class="cls-7" d="M378.27,82.12c-.07,.08-.22,.07-.46-.04-.23-.11-.59-.28-.92-.64-.73-.65-1.52-1.91-1.93-3.59-.85-3.37-.25-8.01,1.22-12.67,1.48-4.68,3.45-8.63,5.06-11.37,1.62-2.74,2.91-4.26,3.27-4.06,.36,.2-.26,2.06-1.36,4.98-1.09,2.92-2.7,6.89-4.1,11.34-1.41,4.44-2.21,8.56-1.99,11.42,.15,2.89,1.53,4.25,1.21,4.61Z"/>
      </g>
      <g class="cls-6">
        <path d="M423.27,46.12s5.24,12.76-19.38,24.88"/>
        <path class="cls-7" d="M403.88,71c-.09-.19,1.51-1.24,4.13-2.81,2.52-1.72,6.1-4,9.3-7.3,.39-.42,.78-.83,1.16-1.24,.4-.4,.68-.86,1.02-1.28,.7-.83,1.21-1.72,1.72-2.56,.92-1.72,1.59-3.38,1.84-4.84,.57-2.93,.02-4.79,.21-4.85,.18-.11,1.17,1.78,.84,5.01-.14,1.6-.74,3.44-1.67,5.34-.52,.92-1.04,1.9-1.76,2.79-.35,.45-.66,.95-1.07,1.37-.4,.43-.8,.87-1.21,1.31-3.37,3.47-7.14,5.66-9.84,7.18-2.8,1.36-4.57,2.08-4.66,1.89Z"/>
      </g>
      <g class="cls-6">
        <path d="M422.1,74.05s-13.83,14.07-18.83,10.07c-25.15-20.12,16.93-39.48,16.93-39.48"/>
        <path class="cls-7" d="M420.2,44.64c.19,.39-3.57,2.44-9.09,6.45-1.38,1-2.85,2.15-4.36,3.44-1.5,1.29-3.07,2.73-4.52,4.38-1.45,1.64-2.84,3.48-3.87,5.54-1.03,2.05-1.69,4.33-1.59,6.66,.12,2.32,.98,4.52,2.25,6.43,.68,.92,1.32,1.87,2.13,2.67,.4,.41,.74,.84,1.16,1.21,.42,.37,.83,.74,1.24,1.11l.6,.53c.14,.08,.25,.19,.41,.24,.28,.15,.66,.2,1.06,.2,.82,0,1.74-.25,2.6-.58,1.75-.66,3.34-1.62,4.76-2.52,2.84-1.84,5.02-3.57,6.56-4.72,1.53-1.17,2.42-1.79,2.57-1.64,.15,.14-.46,1.05-1.78,2.5-1.32,1.44-3.32,3.45-6.13,5.6-1.42,1.06-3.02,2.18-5.03,3.08-1.01,.43-2.13,.83-3.48,.91-.67,.02-1.42-.03-2.16-.34-.38-.12-.71-.36-1.05-.58-.26-.2-.46-.38-.7-.58-.45-.38-.92-.77-1.38-1.17-.47-.39-.88-.87-1.33-1.31-.91-.86-1.69-1.93-2.49-3-1.51-2.2-2.65-4.95-2.8-7.92-.13-2.97,.73-5.79,1.97-8.14,1.24-2.37,2.83-4.35,4.46-6.07,1.63-1.73,3.34-3.17,4.98-4.44,1.64-1.27,3.24-2.35,4.74-3.27,5.99-3.67,10.12-5.05,10.28-4.7Z"/>
      </g>
      <g class="cls-5">
        <path class="cls-7" d="M61.06,80.11c-.34,.13-1.25-1.57-1.22-4.47,0-2.88,.89-6.71,2.43-10.63,3.14-7.86,7.31-13.31,7.99-12.89,.74,.43-2.2,6.45-5.2,13.98-1.48,3.77-2.6,7.22-3.12,9.75-.54,2.52-.44,4.13-.89,4.26Z"/>
      </g>
      <g class="cls-4">
        <path class="cls-7" d="M61.27,21.12c-.08,.19-.61,.23-1.43,.16-.85-.02-2.04-.08-3.56-.05-3.02,.02-7.23,.25-11.9,.57-9.34,.66-16.99,1.15-17.11,.32-.12-.81,7.39-2.65,16.91-3.32,4.75-.32,9.12-.22,12.28,.31,1.57,.24,2.85,.65,3.68,1.04,.83,.45,1.22,.78,1.13,.97Z"/>
      </g>
      <g class="cls-4">
        <path class="cls-7" d="M40.71,21.06c-.09,.1-.22,.06-.45,.4-.24,.31-.56,.88-.92,1.63-.74,1.52-1.69,3.81-2.82,6.67-2.25,5.73-5.19,13.74-8.46,22.59-6.52,17.71-11.99,32.03-12.79,31.76-.77-.26,3.43-15.03,9.97-32.8,3.28-8.88,6.55-16.82,9.34-22.42,1.39-2.79,2.66-5.01,3.77-6.43,.55-.71,1.06-1.23,1.54-1.49,.12-.06,.25-.1,.35-.13,.13,0,.23,0,.3,.01,.16,.09,.19,.16,.17,.2Z"/>
      </g>
      <g class="cls-4">
        <path class="cls-7" d="M51.26,52.32c-.34,.27-1.25-.24-3.04-.31-1.77-.11-4.34,.06-7.22,.38-5.76,.66-10.54,1.35-10.76,.53-.22-.78,4.33-2.81,10.43-3.51,3.04-.34,5.94-.2,7.99,.53,1.02,.35,1.82,.87,2.24,1.37,.43,.48,.49,.89,.35,1.02Z"/>
      </g>
    </g>
  </g>
</svg>