<?xml version="1.0" encoding="UTF-8"?>
<svg id="Warstwa_2" data-name="Warstwa 2" xmlns="http://www.w3.org/2000/svg" viewBox="0 0 394.02 77.46">
  <defs>
    <style>
      .cls-1 {
        stroke-width: .5px;
      }

      .cls-1, .cls-2 {
        stroke: #1d1d1b;
      }

      .cls-1, .cls-2, .cls-3, .cls-4, .cls-5 {
        stroke-miterlimit: 10;
      }

      .cls-1, .cls-2, .cls-4 {
        fill: none;
      }

      .cls-2, .cls-3, .cls-5 {
        stroke-width: .25px;
      }

      .cls-6 {
        fill: #e8edba;
      }

      .cls-7, .cls-8 {
        opacity: .17;
      }

      .cls-7, .cls-9 {
        fill: #1d1d1b;
      }

      .cls-8, .cls-10, .cls-3, .cls-5 {
        fill: #fff;
      }

      .cls-11 {
        fill: #2a4a20;
      }

      .cls-12 {
        fill: #e30613;
      }

      .cls-10 {
        opacity: .29;
      }

      .cls-13 {
        fill: #002b0e;
        opacity: .18;
      }

      .cls-14 {
        fill: #e94e2b;
      }

      .cls-3, .cls-5 {
        stroke: #fff;
        stroke-linecap: round;
      }

      .cls-15 {
        fill: #5e4711;
      }

      .cls-4 {
        stroke: #fffbde;
        stroke-width: 2px;
      }

      .cls-16 {
        fill: #063;
      }

      .cls-5 {
        opacity: .2;
      }
    </style>
  </defs>
  <g id="Warstwa_1-2" data-name="Warstwa 1">
    <g>
      <path class="cls-11" d="M91.98,37.19c.98-.41,1.76-.44,2.33-.1,.57,.34,.85,1.03,.85,2.05,0,.26-.02,.53-.05,.81-.03,.28-.09,.54-.18,.77-.4,.1-.85,.22-1.34,.38-.49,.15-1.08,.37-1.75,.66-1.38,.58-2.76,1.3-4.13,2.16-1.37,.86-2.68,1.66-3.93,2.38-1.37,4.02-2.49,7.73-3.36,11.12-.88,3.39-1.56,6.66-2.04,9.81-1.02,.24-1.93,.22-2.71-.06-.78-.28-1.51-.86-2.2-1.72,.21-.62,.46-1.36,.76-2.24,.3-.87,.66-1.96,1.08-3.28,.42-1.31,.92-2.91,1.51-4.78,.59-1.87,1.29-4.11,2.1-6.71-1.27,.16-2.09-.21-2.48-1.14,.15-.23,.57-.63,1.26-1.17,.69-.55,1.54-1.19,2.53-1.92,.45-1.46,.85-2.76,1.18-3.89,.33-1.13,.64-2.2,.91-3.21,.27-1.01,.52-1.99,.75-2.94,.23-.95,.43-1.95,.61-2.99-.09,.04-.14,.06-.23,.1-1.15,.53-2.09,.68-2.79,.44-.71-.24-1.06-.83-1.06-1.76,0-.26,.04-.58,.11-.97,.08-.39,.17-.74,.29-1.06,.57-.23,1.14-.47,1.7-.73,.56-.26,1.29-.6,2.21-1.02,1.91-.87,3.71-1.67,5.4-2.4,1.68-.73,3.21-1.44,4.58-2.16,1.37-.71,2.55-1.33,3.54-1.85,.99-.52,1.75-.88,2.27-1.09,.71-.27,1.35-.13,1.91,.43,.56,.56,.99,1.49,1.31,2.78-1,.24-1.79,.48-2.4,.71-.6,.23-1.14,.43-1.6,.61-1.58,.61-3.02,1.26-4.33,1.93-1.31,.68-2.55,1.36-3.71,2.04-.18,.37-.39,.82-.62,1.36-.23,.54-.53,1.3-.9,2.27-.37,.97-.83,2.23-1.4,3.79-.57,1.55-1.27,3.52-2.13,5.91,1.19-.72,2.32-1.38,3.41-1.98,1.09-.6,2-1.05,2.73-1.35Z"/>
      <path class="cls-11" d="M98.22,51.47c0-.29,.02-.66,.07-1.11,.05-.45,.13-1.06,.26-1.83,.12-.77,.29-1.7,.49-2.81,.2-1.1,.46-2.43,.77-3.99,.06-.34,.2-.91,.42-1.7,.22-.79,.5-1.64,.86-2.56,.36-.92,.79-1.84,1.3-2.77,.51-.93,1.13-1.7,1.84-2.31,.53-.06,1.23,.01,2.1,.23,.87,.22,1.62,.69,2.25,1.4-.72,1.08-1.32,2.12-1.8,3.12-.48,1-.92,2.02-1.31,3.06-.39,1.04-.75,2.09-1.08,3.17-.33,1.08-.69,2.22-1.1,3.42-.34,1.02-.65,2.06-.93,3.1-.28,1.05-.45,1.95-.47,2.65-.01,.56,0,.99-.02,1.23-.02,.25-.1,.4-.26,.46-.12,.05-.37,.06-.74,.04-.37-.02-.75-.12-1.14-.31-.39-.19-.74-.48-1.05-.87-.31-.39-.46-.94-.46-1.64Zm8.91-24.13c0-.19,.05-.5,.14-.91-.16-.1-.29-.3-.4-.58-.11-.28-.16-.55-.16-.81,0-.29,.04-.69,.12-1.22,.08-.52,.18-1.1,.3-1.71,.12-.62,.28-1.27,.47-1.96s.37-1.32,.56-1.9c.38-.13,.84-.18,1.38-.16,.55,.02,1.1,.11,1.67,.26,.56,.15,1.08,.35,1.55,.59,.47,.25,.83,.51,1.08,.78-.35,.46-.8,1.1-1.37,1.91-.57,.81-1.12,1.65-1.65,2.51-.53,.87-1.02,1.68-1.46,2.44-.44,.76-.72,1.29-.84,1.59-.38,.07-.7,.01-.98-.16-.28-.17-.42-.39-.42-.64Z"/>
      <path class="cls-11" d="M126.23,26.3c.05,.52-.14,1.28-.31,1.98-.18,.7-.39,1.35-.64,1.95-.25,.6-.52,1.11-.81,1.54-.29,.43-.56,.7-.81,.75-.33,.08-.55-.12-.62-.55,0-.1,.04-.26,.12-.49,.08-.23,.17-.49,.26-.77,.1-.28,.18-.56,.26-.84,.08-.28,.12-.51,.12-.71,0-.45-.1-.8-.31-1.04-.21-.25-.48-.32-.83-.22-1.27,.36-2.23,1.44-2.9,3.23-.66,1.79-1,4.23-1,7.32,0,.32,.03,.55,.05,.56,.25,.1,1.26-.37,1.78-.53,.52-.15,1.37-.52,1.54-.45,.02,0,.05,.18,.05,.37,0,.29-.06,.51-.19,.68-.73,.37-1.31,.67-1.73,.91-.43,.24-.75,.44-.97,.6-.22,.16-.36,.31-.4,.43-.05,.13-.07,.28-.07,.47,0,.25,0,.51,.02,.76,.02,.25,.02,.57,.02,.95,0,2.68-.72,5.04-2.15,7.11-1.43,2.07-3.43,3.64-5.97,4.75-.44,.11-.89,.14-1.36,.08-.47-.06-.92-.2-1.34-.4-.42-.21-.79-.47-1.1-.79-.31-.32-.6-.73-.66-1.09-.16-1.03,.25-2.48,.75-3.77,.5-1.29,1.18-2.51,2.04-3.66,.86-1.15,1.88-2.19,3.06-3.1,1.18-.92,2.46-1.6,3.84-2.03,0-.8-.08-1.57-.24-2.29-.16-.72-.32-1.42-.5-2.09-.17-.67-.34-1.32-.5-1.96-.16-.64-.24-1.3-.24-1.97,0-.87,.17-1.78,.52-2.74,.35-.96,.8-1.89,1.37-2.79,.57-.9,1.23-1.72,1.99-2.46,.76-.74,1.55-1.33,2.37-1.77,.35,0,.82,.14,1.4,.43,.59,.3,1.16,.65,1.74,1.07,.57,.42,1.08,.86,1.52,1.33,.44,.47,.78,.93,.81,1.24Zm-15.63,26.61c.75-.57,1.47-1.27,2.14-2.1,.67-.83,1.26-1.71,1.77-2.63,.5-.93,.9-1.87,1.2-2.83,.3-.96,.45-1.85,.45-2.68-.63,.29-1.32,.81-2.08,1.54-.75,.74-1.46,1.56-2.12,2.47-.66,.91-1.21,1.8-1.65,2.68-.44,.88-.66,1.6-.66,2.14,0,.7,.31,1.17,.94,1.41Z"/>
      <path class="cls-11" d="M126.94,44.47c0-1.12,.11-2.47,.33-4.05,.22-1.58,.55-3.29,.98-5.13,.43-1.84,.94-3.78,1.53-5.82,.59-2.04,1.26-4.1,1.99-6.16,.64-1.84,1.38-3.75,2.23-5.68,.85-1.93,1.77-3.84,2.76-5.73,.99-1.89,2.03-3.7,3.1-5.44,1.07-1.74,2.16-3.34,3.25-4.81,.51-.1,1.07-.15,1.66-.14,.59,.01,1.18,.07,1.74,.17,.56,.1,1.08,.25,1.55,.46,.47,.2,.85,.42,1.14,.66-2.42,2.9-4.59,5.81-6.52,8.71-1.93,2.91-3.45,5.6-4.57,8.06-.61,1.35-1.16,2.61-1.66,3.78-.5,1.17-.95,2.32-1.37,3.46-.42,1.14-.79,2.27-1.13,3.39-.34,1.12-.65,2.29-.93,3.51,6.13-9.33,10.72-14.15,13.72-14.71,.84-.16,1.74-.05,2.71,.32,.97,.37,1.82,.96,2.57,1.76-1,1.26-2.03,2.75-3.1,4.48-1.06,1.73-2.04,3.45-2.92,5.18-.89,1.72-1.61,3.31-2.17,4.75-.56,1.44-.84,2.48-.84,3.12,0,.32,.05,.53,.14,.62,.1,.09,.31,.11,.63,.04,.48-.1,.87-.24,1.16-.42,.29-.18,.47-.28,.53-.3,.16,.23,.26,.38,.29,.47,.03,.09,.05,.17,.05,.23,0,.13-.19,.35-.58,.66-.39,.31-.85,.65-1.38,.99-.53,.35-1.05,.67-1.57,.97-.51,.3-.9,.47-1.16,.53-.32,.07-.64,.05-.96-.06-.32-.11-.6-.28-.84-.51-.24-.24-.43-.51-.58-.83-.14-.32-.22-.67-.22-1.06,0-.48,.14-1.22,.41-2.23,.27-1,.65-2.19,1.13-3.56,.48-1.37,1.06-2.87,1.73-4.52,.67-1.64,1.4-3.33,2.17-5.05,0-.13-.06-.18-.19-.15-.1,.02-.35,.2-.75,.53-.4,.34-.78,.67-1.13,1-1.16,1.1-2.32,2.42-3.49,3.94-1.17,1.52-2.31,3.17-3.41,4.93-1.1,1.76-2.14,3.61-3.12,5.53-.97,1.92-1.81,3.82-2.51,5.7-.1,.25-.24,.49-.43,.73-.19,.24-.35,.38-.48,.41-.1,.02-.23-.05-.41-.23-.18-.18-.33-.42-.48-.71-.14-.3-.28-.61-.41-.92-.13-.32-.19-.6-.19-.86Z"/>
      <path class="cls-11" d="M152.63,36.52c0-.29,.02-.65,.07-1.09,.05-.44,.14-1.03,.27-1.77,.13-.74,.3-1.64,.51-2.7,.21-1.06,.48-2.33,.8-3.82,.06-.33,.21-.87,.44-1.61,.23-.74,.53-1.53,.9-2.37,.37-.84,.83-1.67,1.36-2.49,.53-.82,1.17-1.45,1.92-1.91,.55,.05,1.28,.28,2.19,.68,.91,.41,1.69,1.04,2.34,1.88-.75,.93-1.37,1.84-1.87,2.74-.5,.9-.96,1.82-1.36,2.78-.41,.95-.78,1.93-1.12,2.94-.34,1.01-.72,2.07-1.14,3.19-.36,.95-.68,1.92-.97,2.9-.29,.99-.47,1.85-.49,2.54-.01,.56,0,.99-.02,1.23-.02,.24-.11,.38-.27,.4-.13,.02-.39-.02-.78-.12-.39-.1-.78-.29-1.19-.56-.41-.27-.77-.64-1.09-1.1-.32-.46-.48-1.04-.48-1.74Zm9.28-22.21c0-.19,.05-.49,.15-.88-.16-.14-.3-.36-.41-.67-.11-.3-.17-.58-.17-.84,0-.29,.04-.68,.12-1.19,.08-.51,.19-1.06,.32-1.65,.13-.59,.29-1.21,.49-1.86s.39-1.24,.58-1.78c.39-.05,.87,0,1.44,.13,.57,.14,1.14,.34,1.73,.61,.58,.27,1.12,.58,1.61,.92,.49,.35,.86,.68,1.12,1.01-.36,.39-.83,.93-1.41,1.62-.59,.69-1.15,1.41-1.71,2.16-.55,.75-1.06,1.46-1.51,2.12-.45,.66-.75,1.13-.88,1.4-.39-.02-.73-.14-1.02-.37-.29-.23-.44-.48-.44-.74Z"/>
      <path class="cls-11" d="M172.68,13.89c.85,.18,1.64,.68,2.39,1.5,.75,.82,1.3,1.74,1.66,2.77-.36,.89-.91,1.97-1.66,3.25-.75,1.28-1.5,2.58-2.25,3.91-.75,1.33-1.42,2.6-2.03,3.79-.6,1.19-.95,2.17-1.05,2.91,.52-.6,1.1-1.29,1.73-2.07,.63-.78,1.25-1.56,1.86-2.33,.6-.77,1.16-1.48,1.68-2.11,.52-.63,.93-1.11,1.22-1.42,.62-.69,1.35-1.49,2.2-2.39,.85-.91,1.74-1.76,2.66-2.57,.93-.81,1.87-1.5,2.81-2.07,.95-.57,1.81-.88,2.59-.91,.85-.03,1.56,.22,2.13,.76,.57,.54,1.02,1.11,1.35,1.71,0,.06-.12,.16-.37,.27-.24,.12-.62,.44-1.05,.97-.46,.56-.97,1.4-1.54,2.43-.57,1.03-1.13,2.14-1.66,3.33-.54,1.19-.99,2.41-1.35,3.64-.36,1.23-.54,2.35-.54,3.34,0,.8,.11,1.31,.32,1.52,.21,.21,.51,.31,.91,.29,.36-.02,.73-.11,1.13-.29,.39-.18,.76-.31,.93-.28,.11,.02,.24,.19,.32,.4,.08,.21,.12,.39,.12,.55-.26,.23-.57,.47-.93,.71-.36,.24-.73,.46-1.13,.67-.39,.21-.78,.39-1.15,.53-.37,.15-.71,.23-1,.24-.95,.05-1.72-.04-2.32-.28-.6-.23-1.08-.56-1.42-.99-.34-.43-.58-.94-.71-1.56-.13-.62-.2-1.27-.2-1.98,0-.38,.03-.82,.1-1.3,.06-.48,.2-1.06,.39-1.73,.2-.67,.47-1.47,.83-2.41,.36-.94,.81-2.06,1.37-3.37-.07,0-.51,.25-1.32,.75-.82,.5-1.7,1.25-2.64,2.25-1.53,1.55-2.91,3.09-4.13,4.61-1.22,1.52-2.46,3.21-3.73,5.06-.72,1.07-1.34,1.97-1.88,2.72-.54,.75-1,1.26-1.39,1.52-.68-.3-1.19-.78-1.51-1.43-.32-.65-.66-1.4-.73-2.05-.06-.54,.09-1.39,.27-2.34,.18-.95,.42-2.01,.73-3.19,.31-1.17,.69-2.41,1.14-3.71,.45-1.3,.96-2.61,1.51-3.92,1.23-2.95,2.36-5.28,3.39-6.98,1.02-1.7,1.67-2.62,1.93-2.77Z"/>
      <path class="cls-11" d="M182.01,50.79c0-.19,.07-.37,.2-.54,.13-.17,.28-.34,.44-.5,.39,.33,.73,.59,1,.76,.28,.18,.54,.33,.78,.44,.24,.12,.5,.19,.76,.21,.26,.02,.57,.02,.93,0,1.7-.07,3.31-.56,4.85-1.48,1.53-.92,2.98-2.21,4.33-3.88,1.35-1.67,2.59-3.71,3.7-6.1,1.11-2.39,2.09-5.1,2.94-8.13-.39,.38-.87,.79-1.44,1.25-.57,.46-1.17,.89-1.79,1.31-.62,.41-1.23,.8-1.84,1.15-.6,.35-1.12,.61-1.54,.77-.56-.09-1.07-.32-1.54-.68-.47-.36-.89-.81-1.25-1.35-.36-.54-.64-1.15-.83-1.83-.2-.68-.29-1.41-.29-2.18,0-1.25,.24-2.53,.71-3.85,.47-1.32,1.1-2.62,1.89-3.89,.78-1.27,1.71-2.47,2.77-3.6,1.06-1.12,2.19-2.09,3.38-2.91,1.19-.82,2.4-1.46,3.62-1.93,1.22-.47,2.42-.68,3.6-.64,1.14,.04,2,.31,2.57,.8,.57,.49,.99,1.3,1.25,2.44-.36-.21-.82-.33-1.37-.35-.78-.04-1.69,.23-2.72,.8-1.03,.57-2.07,1.33-3.13,2.28-1.06,.95-2.11,2.05-3.16,3.3-1.05,1.25-1.97,2.53-2.77,3.84-.8,1.31-1.45,2.59-1.96,3.84s-.76,2.37-.76,3.36c0,.22,.02,.36,.05,.41,.03,.05,.08,.07,.15,.07,.29,0,.69-.16,1.2-.49,.51-.32,1.08-.73,1.71-1.22,.64-.49,1.3-1.06,1.98-1.71,.69-.65,1.34-1.3,1.96-1.96,1.4-1.51,2.68-3.2,3.84-5.06,1.16-1.87,2.08-3.68,2.77-5.44,.88,.1,1.66,.28,2.35,.54,.68,.26,1.16,.53,1.42,.8-1.11,2.43-2,4.49-2.67,6.15-.67,1.66-1.25,3.14-1.74,4.44-.88,2.27-1.71,4.34-2.47,6.22-.77,1.88-1.55,3.62-2.35,5.22-.8,1.6-1.67,3.09-2.6,4.46-.93,1.38-1.98,2.71-3.16,3.98-.56,.61-1.18,1.14-1.89,1.61-.7,.47-1.42,.87-2.15,1.2-.73,.33-1.45,.58-2.15,.76-.7,.17-1.35,.27-1.93,.29-.78,.02-1.58-.04-2.4-.19-.82-.15-1.57-.35-2.28-.63-.7-.27-1.31-.59-1.83-.97-.52-.37-.9-.78-1.13-1.21Z"/>
      <path class="cls-11" d="M236.85,9.85c-1.3-.19-2.29-.69-2.99-1.5-.7-.82-1.05-1.73-1.05-2.76,0-.26,.04-.56,.12-.9,.08-.34,.19-.63,.32-.87,.42,.17,1.05,.33,1.87,.49s1.79,.32,2.89,.49c1.65,.25,3.52,.55,5.6,.9,2.08,.36,4.07,.63,5.97,.81,1.9,.18,3.57,.34,5.01,.48,1.44,.14,2.37,.26,2.79,.35,1.18,.27,2.04,.91,2.57,1.91,.53,1,.92,2.27,1.17,3.81-.83-.3-1.65-.54-2.47-.73-.82-.19-1.51-.35-2.09-.47-1.03-.23-2.06-.45-3.1-.67-1.04-.22-2.1-.37-3.16-.45-.45,.84-.95,1.84-1.5,3-.55,1.16-1.09,2.38-1.62,3.67-.53,1.28-1.04,2.56-1.52,3.84-.48,1.28-.9,2.43-1.26,3.46-.71,1.99-1.33,3.84-1.86,5.55-.53,1.71-1,3.31-1.41,4.8-.4,1.49-.75,2.92-1.04,4.28-.29,1.37-.55,2.7-.78,4.02-2.17-.66-3.98-2.26-5.44-4.82,.26-.96,.58-1.99,.95-3.11,.37-1.12,.81-2.38,1.31-3.8,.5-1.42,1.09-3.02,1.77-4.8,.68-1.79,1.46-3.81,2.33-6.07,.32-.84,.66-1.72,1.02-2.64,.36-.92,.7-1.83,1.04-2.73,.34-.9,.65-1.78,.92-2.63,.27-.85,.51-1.62,.7-2.33-1.36-.07-2.64-.15-3.85-.23-1.21-.08-2.29-.19-3.23-.32Z"/>
      <path class="cls-11" d="M295.57,39.65c-.5-.19-1.1-.11-1.81,.24-.71,.36-1.48,.87-2.31,1.54-.82,.67-1.68,1.45-2.57,2.31s-1.75,1.75-2.58,2.63c-.83,.88-1.6,1.72-2.32,2.5-.72,.78-1.33,1.4-1.84,1.84-.69-.51-1.29-1.13-1.79-1.85s-.87-1.53-1.09-2.43c.16-.94,.38-1.9,.66-2.88,.28-.98,.65-1.97,1.11-2.98,.46-1,1.02-2.03,1.7-3.06,.68-1.04,1.5-2.1,2.47-3.17-.47-.16-1.11-.05-1.93,.34-.82,.39-1.7,.95-2.64,1.69-.94,.74-1.92,1.6-2.93,2.59-1.01,.99-1.96,1.97-2.84,2.96-1.17,1.31-2.14,2.5-2.92,3.53-.78,1.03-1.34,1.61-1.69,1.74-.83-.84-1.4-1.65-1.72-2.44-.32-.79-.66-1.72-.71-2.54-.05-.68,.15-1.69,.36-2.78,.21-1.1,.5-2.2,.88-3.31,.73-2.14,1.68-4.2,2.83-6.17,1.16-1.97,2.27-3.76,3.35-5.36,.88,.46,1.68,1,2.39,1.64,.71,.64,1.46,1.48,2.24,2.53-.32,.89-.8,1.79-1.46,2.68s-1.36,1.84-2.08,2.84c-.73,1-1.39,2.05-1.99,3.15-.6,1.1-1,2.28-1.19,3.54,.89-1.02,1.94-2.19,3.15-3.48,1.21-1.3,2.46-2.48,3.73-3.54,1.27-1.07,2.54-1.9,3.79-2.51,1.25-.6,2.38-.73,3.38-.38,.38,.13,.78,.34,1.22,.62,.44,.28,.84,.59,1.22,.91,.37,.33,.69,.62,.93,.89,.25,.27,.39,.45,.42,.56-.16,.58-.52,1.32-1.1,2.22-.58,.9-1.19,1.84-1.85,2.82-.66,.99-1.26,1.95-1.83,2.89-.56,.94-.89,1.73-.99,2.37,1.53-1.62,2.97-3.06,4.31-4.32,1.34-1.26,2.6-2.29,3.78-3.1,1.18-.8,2.27-1.34,3.28-1.62,1-.28,1.95-.24,2.85,.12,.62,.25,1.19,.65,1.73,1.21,.54,.56,.91,1.2,1.13,1.93-.28,.84-.73,1.81-1.36,2.89-.63,1.08-1.27,2.24-1.92,3.47-.65,1.23-1.23,2.46-1.74,3.7-.51,1.24-.77,2.44-.77,3.59,0,.67,.09,1.15,.28,1.43,.18,.28,.45,.49,.79,.62,.37,.15,.72,.21,1.04,.2s.56,0,.72,.07c.19,.2,.29,.41,.32,.61,.03,.2,.05,.39,.05,.55-.62,.26-1.25,.43-1.9,.51s-1.37-.04-2.18-.35c-.74-.29-1.36-.65-1.84-1.09-.48-.44-.88-.94-1.19-1.5-.31-.56-.53-1.16-.65-1.78-.12-.62-.19-1.27-.19-1.94,0-1.09,.14-2.11,.42-3.08,.28-.97,.61-1.86,1-2.69,.39-.83,.8-1.58,1.23-2.26,.43-.68,.81-1.3,1.12-1.85Z"/>
      <path class="cls-11" d="M321.15,45.91c-.12,1.92-.45,3.46-.99,4.61-.54,1.15-1.31,2.01-2.32,2.59-1.01,.58-2.23,.95-3.68,1.12-1.45,.18-3.15,.22-5.1,.14,0,.19,0,.39-.02,.59-.02,.2-.02,.41-.02,.64,0,.42,.03,.86,.09,1.34,.06,.48,.17,.94,.32,1.39,.15,.45,.36,.86,.64,1.22,.27,.36,.62,.64,1.05,.84,.82,.38,1.62,.56,2.41,.54,.79-.01,1.53-.13,2.24-.35,.71-.22,1.37-.5,1.99-.86,.62-.35,1.16-.68,1.64-.98,.3,.44,.55,.84,.76,1.2-1.35,1.24-2.83,2.1-4.44,2.59-1.61,.49-3.15,.57-4.61,.26-2.09-1.22-3.73-2.75-4.91-4.62-1.18-1.87-1.77-3.76-1.77-5.68,0-1.31,.18-2.57,.53-3.78,.35-1.21,.84-2.31,1.47-3.3,.63-.99,1.36-1.86,2.2-2.61,.84-.75,1.73-1.31,2.69-1.71,.96-.39,1.94-.59,2.95-.59,1.01,0,2.09,.22,3.01,.73,1.35,.75,2.67,2.43,3.87,4.67Zm-3.1,.03c-.81-.27-1.65-.33-2.53-.18-.88,.16-1.7,.53-2.47,1.13-.77,.6-1.48,1.39-2.11,2.38-.64,.99-1.14,2.14-1.5,3.44,2.43-.18,4.44-.81,6.04-1.91,1.6-1.1,2.45-2.72,2.57-4.87Z"/>
    </g>
    <g>
      <path class="cls-16" d="M91.37,35.68c.98-.41,1.76-.44,2.33-.1,.57,.34,.85,1.03,.85,2.05,0,.26-.02,.53-.05,.81-.03,.28-.09,.54-.18,.77-.4,.1-.85,.22-1.34,.38-.49,.15-1.08,.37-1.75,.66-1.38,.58-2.76,1.3-4.13,2.16-1.37,.86-2.68,1.66-3.93,2.38-1.37,4.02-2.49,7.73-3.36,11.12-.88,3.39-1.56,6.66-2.04,9.81-1.02,.24-1.93,.22-2.71-.06-.78-.28-1.51-.86-2.2-1.72,.21-.62,.46-1.36,.76-2.24,.3-.87,.66-1.96,1.08-3.28,.42-1.31,.92-2.91,1.51-4.78,.59-1.87,1.29-4.11,2.1-6.71-1.27,.16-2.09-.21-2.48-1.14,.15-.23,.57-.63,1.26-1.17,.69-.55,1.54-1.19,2.53-1.92,.45-1.46,.85-2.76,1.18-3.89,.33-1.13,.64-2.2,.91-3.21,.27-1.01,.52-1.99,.75-2.94,.23-.95,.43-1.95,.61-2.99-.09,.04-.14,.06-.23,.1-1.15,.53-2.09,.68-2.79,.44-.71-.24-1.06-.83-1.06-1.76,0-.26,.04-.58,.11-.97,.08-.39,.17-.74,.29-1.06,.57-.23,1.14-.47,1.7-.73,.56-.26,1.29-.6,2.21-1.02,1.91-.87,3.71-1.67,5.4-2.4,1.68-.73,3.21-1.44,4.58-2.16,1.37-.71,2.55-1.33,3.54-1.85,.99-.52,1.75-.88,2.27-1.09,.71-.27,1.35-.13,1.91,.43,.56,.56,.99,1.49,1.31,2.78-1,.24-1.79,.48-2.4,.71-.6,.23-1.14,.43-1.6,.61-1.58,.61-3.02,1.26-4.33,1.93-1.31,.68-2.55,1.36-3.71,2.04-.18,.37-.39,.82-.62,1.36-.23,.54-.53,1.3-.9,2.27-.37,.97-.83,2.23-1.4,3.79-.57,1.55-1.27,3.52-2.13,5.91,1.19-.72,2.32-1.38,3.41-1.98,1.09-.6,2-1.05,2.73-1.35Z"/>
      <path class="cls-16" d="M97.61,49.96c0-.29,.02-.66,.07-1.11,.05-.45,.13-1.06,.26-1.83,.12-.77,.29-1.7,.49-2.81,.2-1.1,.46-2.43,.77-3.99,.06-.34,.2-.91,.42-1.7,.22-.79,.5-1.64,.86-2.56,.36-.92,.79-1.84,1.3-2.77,.51-.93,1.13-1.7,1.84-2.31,.53-.06,1.23,.01,2.1,.23,.87,.22,1.62,.69,2.25,1.4-.72,1.08-1.32,2.12-1.8,3.12-.48,1-.92,2.02-1.31,3.06-.39,1.04-.75,2.09-1.08,3.17-.33,1.08-.69,2.22-1.1,3.42-.34,1.02-.65,2.06-.93,3.1-.28,1.05-.45,1.95-.47,2.65-.01,.56,0,.99-.02,1.23-.02,.25-.1,.4-.26,.46-.12,.05-.37,.06-.74,.04-.37-.02-.75-.12-1.14-.31-.39-.19-.74-.48-1.05-.87-.31-.39-.46-.94-.46-1.64Zm8.91-24.13c0-.19,.05-.5,.14-.91-.16-.1-.29-.3-.4-.58-.11-.28-.16-.55-.16-.81,0-.29,.04-.69,.12-1.22,.08-.52,.18-1.1,.3-1.71,.12-.62,.28-1.27,.47-1.96s.37-1.32,.56-1.9c.38-.13,.84-.18,1.38-.16,.55,.02,1.1,.11,1.67,.26,.56,.15,1.08,.35,1.55,.59,.47,.25,.83,.51,1.08,.78-.35,.46-.8,1.1-1.37,1.91-.57,.81-1.12,1.65-1.65,2.51-.53,.87-1.02,1.68-1.46,2.44-.44,.76-.72,1.29-.84,1.59-.38,.07-.7,.01-.98-.16-.28-.17-.42-.39-.42-.64Z"/>
      <path class="cls-16" d="M125.62,24.79c.05,.52-.14,1.28-.31,1.98-.18,.7-.39,1.35-.64,1.95-.25,.6-.52,1.11-.81,1.54-.29,.43-.56,.7-.81,.75-.33,.08-.55-.12-.62-.55,0-.1,.04-.26,.12-.49,.08-.23,.17-.49,.26-.77,.1-.28,.18-.56,.26-.84,.08-.28,.12-.51,.12-.71,0-.45-.1-.8-.31-1.04-.21-.25-.48-.32-.83-.22-1.27,.36-2.23,1.44-2.9,3.23-.66,1.79-1,4.23-1,7.32,0,.32,.03,.55,.05,.56,.25,.1,1.26-.37,1.78-.53,.52-.15,1.37-.52,1.54-.45,.02,0,.05,.18,.05,.37,0,.29-.06,.51-.19,.68-.73,.37-1.31,.67-1.73,.91-.43,.24-.75,.44-.97,.6-.22,.16-.36,.31-.4,.43-.05,.13-.07,.28-.07,.47,0,.25,0,.51,.02,.76,.02,.25,.02,.57,.02,.95,0,2.68-.72,5.04-2.15,7.11-1.43,2.07-3.43,3.64-5.97,4.75-.44,.11-.89,.14-1.36,.08-.47-.06-.92-.2-1.34-.4-.42-.21-.79-.47-1.1-.79-.31-.32-.6-.73-.66-1.09-.16-1.03,.25-2.48,.75-3.77,.5-1.29,1.18-2.51,2.04-3.66,.86-1.15,1.88-2.19,3.06-3.1,1.18-.92,2.46-1.6,3.84-2.03,0-.8-.08-1.57-.24-2.29-.16-.72-.32-1.42-.5-2.09-.17-.67-.34-1.32-.5-1.96-.16-.64-.24-1.3-.24-1.97,0-.87,.17-1.78,.52-2.74,.35-.96,.8-1.89,1.37-2.79,.57-.9,1.23-1.72,1.99-2.46,.76-.74,1.55-1.33,2.37-1.77,.35,0,.82,.14,1.4,.43,.59,.3,1.16,.65,1.74,1.07,.57,.42,1.08,.86,1.52,1.33,.44,.47,.78,.93,.81,1.24Zm-15.63,26.61c.75-.57,1.47-1.27,2.14-2.1,.67-.83,1.26-1.71,1.77-2.63,.5-.93,.9-1.87,1.2-2.83,.3-.96,.45-1.85,.45-2.68-.63,.29-1.32,.81-2.08,1.54-.75,.74-1.46,1.56-2.12,2.47-.66,.91-1.21,1.8-1.65,2.68-.44,.88-.66,1.6-.66,2.14,0,.7,.31,1.17,.94,1.41Z"/>
      <path class="cls-16" d="M126.33,42.96c0-1.12,.11-2.47,.33-4.05,.22-1.58,.55-3.29,.98-5.13,.43-1.84,.94-3.78,1.53-5.82,.59-2.04,1.26-4.1,1.99-6.16,.64-1.84,1.38-3.75,2.23-5.68,.85-1.93,1.77-3.84,2.76-5.73,.99-1.89,2.03-3.7,3.1-5.44,1.07-1.74,2.16-3.34,3.25-4.81,.51-.1,1.07-.15,1.66-.14,.59,.01,1.18,.07,1.74,.17,.56,.1,1.08,.25,1.55,.46,.47,.2,.85,.42,1.14,.66-2.42,2.9-4.59,5.81-6.52,8.71-1.93,2.91-3.45,5.6-4.57,8.06-.61,1.35-1.16,2.61-1.66,3.78-.5,1.17-.95,2.32-1.37,3.46-.42,1.14-.79,2.27-1.13,3.39-.34,1.12-.65,2.29-.93,3.51,6.13-9.33,10.72-14.15,13.72-14.71,.84-.16,1.74-.05,2.71,.32,.97,.37,1.82,.96,2.57,1.76-1,1.26-2.03,2.75-3.1,4.48-1.06,1.73-2.04,3.45-2.92,5.18-.89,1.72-1.61,3.31-2.17,4.75-.56,1.44-.84,2.48-.84,3.12,0,.32,.05,.53,.14,.62,.1,.09,.31,.11,.63,.04,.48-.1,.87-.24,1.16-.42,.29-.18,.47-.28,.53-.3,.16,.23,.26,.38,.29,.47,.03,.09,.05,.17,.05,.23,0,.13-.19,.35-.58,.66-.39,.31-.85,.65-1.38,.99-.53,.35-1.05,.67-1.57,.97-.51,.3-.9,.47-1.16,.53-.32,.07-.64,.05-.96-.06-.32-.11-.6-.28-.84-.51-.24-.24-.43-.51-.58-.83-.14-.32-.22-.67-.22-1.06,0-.48,.14-1.22,.41-2.23,.27-1,.65-2.19,1.13-3.56,.48-1.37,1.06-2.87,1.73-4.52,.67-1.64,1.4-3.33,2.17-5.05,0-.13-.06-.18-.19-.15-.1,.02-.35,.2-.75,.53-.4,.34-.78,.67-1.13,1-1.16,1.1-2.32,2.42-3.49,3.94-1.17,1.52-2.31,3.17-3.41,4.93-1.1,1.76-2.14,3.61-3.12,5.53-.97,1.92-1.81,3.82-2.51,5.7-.1,.25-.24,.49-.43,.73-.19,.24-.35,.38-.48,.41-.1,.02-.23-.05-.41-.23-.18-.18-.33-.42-.48-.71s-.28-.61-.41-.92c-.13-.32-.19-.6-.19-.86Z"/>
      <path class="cls-16" d="M152.03,35.01c0-.29,.02-.65,.07-1.09,.05-.44,.14-1.03,.27-1.77,.13-.74,.3-1.64,.51-2.7,.21-1.06,.48-2.33,.8-3.82,.06-.33,.21-.87,.44-1.61,.23-.74,.53-1.53,.9-2.37,.37-.84,.83-1.67,1.36-2.49,.53-.82,1.17-1.45,1.92-1.91,.55,.05,1.28,.28,2.19,.68,.91,.41,1.69,1.04,2.34,1.88-.75,.93-1.37,1.84-1.87,2.74-.5,.9-.96,1.82-1.36,2.78-.41,.95-.78,1.93-1.12,2.94-.34,1.01-.72,2.07-1.14,3.19-.36,.95-.68,1.92-.97,2.9-.29,.99-.47,1.85-.49,2.54-.01,.56,0,.99-.02,1.23-.02,.24-.11,.38-.27,.4-.13,.02-.39-.02-.78-.12-.39-.1-.78-.29-1.19-.56-.41-.27-.77-.64-1.09-1.1-.32-.46-.48-1.04-.48-1.74Zm9.28-22.21c0-.19,.05-.49,.15-.88-.16-.14-.3-.36-.41-.67-.11-.3-.17-.58-.17-.84,0-.29,.04-.68,.12-1.19,.08-.51,.19-1.06,.32-1.65,.13-.59,.29-1.21,.49-1.86s.39-1.24,.58-1.78c.39-.05,.87,0,1.44,.13,.57,.14,1.14,.34,1.73,.61,.58,.27,1.12,.58,1.61,.92,.49,.35,.86,.68,1.12,1.01-.36,.39-.83,.93-1.41,1.62-.59,.69-1.15,1.41-1.71,2.16-.55,.75-1.06,1.46-1.51,2.12-.45,.66-.75,1.13-.88,1.4-.39-.02-.73-.14-1.02-.37-.29-.23-.44-.48-.44-.74Z"/>
      <path class="cls-16" d="M172.07,12.38c.85,.18,1.64,.68,2.39,1.5,.75,.82,1.3,1.74,1.66,2.77-.36,.89-.91,1.97-1.66,3.25-.75,1.28-1.5,2.58-2.25,3.91-.75,1.33-1.42,2.6-2.03,3.79-.6,1.19-.95,2.17-1.05,2.91,.52-.6,1.1-1.29,1.73-2.07,.63-.78,1.25-1.56,1.86-2.33,.6-.77,1.16-1.48,1.68-2.11,.52-.63,.93-1.11,1.22-1.42,.62-.69,1.35-1.49,2.2-2.39,.85-.91,1.74-1.76,2.66-2.57,.93-.81,1.87-1.5,2.81-2.07,.95-.57,1.81-.88,2.59-.91,.85-.03,1.56,.22,2.13,.76,.57,.54,1.02,1.11,1.35,1.71,0,.06-.12,.16-.37,.27-.24,.12-.62,.44-1.05,.97-.46,.56-.97,1.4-1.54,2.43-.57,1.03-1.13,2.14-1.66,3.33-.54,1.19-.99,2.41-1.35,3.64-.36,1.23-.54,2.35-.54,3.34,0,.8,.11,1.31,.32,1.52,.21,.21,.51,.31,.91,.29,.36-.02,.73-.11,1.13-.29,.39-.18,.76-.31,.93-.28,.11,.02,.24,.19,.32,.4,.08,.21,.12,.39,.12,.55-.26,.23-.57,.47-.93,.71-.36,.24-.73,.46-1.13,.67-.39,.21-.78,.39-1.15,.53-.38,.15-.71,.23-1,.24-.95,.05-1.72-.04-2.32-.28-.6-.23-1.08-.56-1.42-.99-.34-.43-.58-.94-.71-1.56-.13-.62-.2-1.27-.2-1.98,0-.38,.03-.82,.1-1.3,.06-.48,.2-1.06,.39-1.73,.2-.67,.47-1.47,.83-2.41,.36-.94,.81-2.06,1.37-3.37-.07,0-.51,.25-1.32,.75-.82,.5-1.7,1.25-2.64,2.25-1.53,1.55-2.91,3.09-4.13,4.61-1.22,1.52-2.46,3.21-3.73,5.06-.72,1.07-1.34,1.97-1.88,2.72-.54,.75-1,1.26-1.39,1.52-.68-.3-1.19-.78-1.51-1.43-.32-.65-.66-1.4-.73-2.05-.06-.54,.09-1.39,.27-2.34,.18-.95,.42-2.01,.73-3.19,.31-1.17,.69-2.41,1.14-3.71,.45-1.3,.96-2.61,1.51-3.92,1.23-2.95,2.36-5.28,3.39-6.98,1.02-1.7,1.67-2.62,1.93-2.77Z"/>
      <path class="cls-16" d="M181.41,49.28c0-.19,.07-.37,.2-.54,.13-.17,.28-.34,.44-.5,.39,.33,.73,.59,1,.76,.28,.18,.54,.33,.78,.44,.24,.12,.5,.19,.76,.21,.26,.02,.57,.02,.93,0,1.7-.07,3.31-.56,4.85-1.48,1.53-.92,2.98-2.21,4.33-3.88,1.35-1.67,2.59-3.71,3.7-6.1,1.11-2.39,2.09-5.1,2.94-8.13-.39,.38-.87,.79-1.44,1.25-.57,.46-1.17,.89-1.79,1.31-.62,.41-1.23,.8-1.84,1.15-.6,.35-1.12,.61-1.54,.77-.56-.09-1.07-.32-1.54-.68-.47-.36-.89-.81-1.25-1.35-.36-.54-.64-1.15-.83-1.83-.2-.68-.29-1.41-.29-2.18,0-1.25,.24-2.53,.71-3.85,.47-1.32,1.1-2.62,1.89-3.89,.78-1.27,1.71-2.47,2.77-3.6,1.06-1.12,2.19-2.09,3.38-2.91,1.19-.82,2.4-1.46,3.62-1.93,1.22-.47,2.42-.68,3.6-.64,1.14,.04,2,.31,2.57,.8,.57,.49,.99,1.3,1.25,2.44-.36-.21-.82-.33-1.37-.35-.78-.04-1.69,.23-2.72,.8-1.03,.57-2.07,1.33-3.13,2.28-1.06,.95-2.11,2.05-3.16,3.3-1.05,1.25-1.97,2.53-2.77,3.84-.8,1.31-1.45,2.59-1.96,3.84s-.76,2.37-.76,3.36c0,.22,.02,.36,.05,.41,.03,.05,.08,.07,.15,.07,.29,0,.69-.16,1.2-.49,.51-.32,1.08-.73,1.71-1.22,.64-.49,1.3-1.06,1.98-1.71,.69-.65,1.34-1.3,1.96-1.96,1.4-1.51,2.68-3.2,3.84-5.06,1.16-1.87,2.08-3.68,2.77-5.44,.88,.1,1.66,.28,2.35,.54,.68,.26,1.16,.53,1.42,.8-1.11,2.43-2,4.49-2.67,6.15-.67,1.66-1.25,3.14-1.74,4.44-.88,2.27-1.71,4.34-2.47,6.22-.77,1.88-1.55,3.62-2.35,5.22-.8,1.6-1.67,3.09-2.6,4.46-.93,1.38-1.98,2.71-3.16,3.98-.56,.61-1.18,1.14-1.89,1.61-.7,.47-1.42,.87-2.15,1.2-.73,.33-1.45,.58-2.15,.76-.7,.17-1.35,.27-1.93,.29-.78,.02-1.58-.04-2.4-.19-.82-.15-1.57-.35-2.28-.63-.7-.27-1.31-.59-1.83-.97-.52-.37-.9-.78-1.13-1.21Z"/>
      <path class="cls-16" d="M236.24,8.34c-1.3-.19-2.29-.69-2.99-1.5-.7-.82-1.05-1.73-1.05-2.76,0-.26,.04-.56,.12-.9,.08-.34,.19-.63,.32-.87,.42,.17,1.05,.33,1.87,.49,.83,.16,1.79,.32,2.89,.49,1.65,.25,3.52,.55,5.6,.9,2.08,.36,4.07,.63,5.97,.81,1.9,.18,3.57,.34,5.01,.48,1.44,.14,2.37,.26,2.79,.35,1.18,.27,2.04,.91,2.57,1.91,.53,1,.92,2.27,1.17,3.81-.83-.3-1.65-.54-2.47-.73-.82-.19-1.51-.35-2.09-.47-1.03-.23-2.06-.45-3.1-.67-1.04-.22-2.1-.37-3.16-.45-.45,.84-.95,1.84-1.5,3-.55,1.16-1.09,2.38-1.62,3.67-.53,1.28-1.04,2.56-1.52,3.84-.48,1.28-.9,2.43-1.26,3.46-.71,1.99-1.33,3.84-1.86,5.55-.53,1.71-1,3.31-1.41,4.8-.4,1.49-.75,2.92-1.04,4.28-.29,1.37-.55,2.7-.78,4.02-2.17-.66-3.98-2.26-5.44-4.82,.26-.96,.58-1.99,.95-3.11,.37-1.12,.81-2.38,1.31-3.8,.5-1.42,1.09-3.02,1.77-4.8,.68-1.79,1.46-3.81,2.33-6.07,.32-.84,.66-1.72,1.02-2.64,.36-.92,.7-1.83,1.04-2.73,.34-.9,.65-1.78,.92-2.63,.27-.85,.51-1.62,.7-2.33-1.36-.07-2.64-.15-3.85-.23-1.21-.08-2.29-.19-3.23-.32Z"/>
      <path class="cls-16" d="M294.96,38.14c-.5-.19-1.1-.11-1.81,.24-.71,.36-1.48,.87-2.31,1.54-.82,.67-1.68,1.45-2.57,2.31-.89,.87-1.75,1.75-2.58,2.63-.83,.88-1.6,1.72-2.32,2.5-.72,.78-1.33,1.4-1.84,1.84-.69-.51-1.29-1.13-1.79-1.85-.5-.72-.87-1.53-1.09-2.43,.16-.94,.38-1.9,.66-2.88,.28-.98,.65-1.97,1.11-2.98,.46-1,1.02-2.03,1.7-3.06,.68-1.04,1.5-2.1,2.47-3.17-.47-.16-1.11-.05-1.93,.34-.82,.39-1.7,.95-2.64,1.69-.94,.74-1.92,1.6-2.93,2.59-1.01,.99-1.96,1.97-2.84,2.96-1.17,1.31-2.14,2.5-2.92,3.53-.78,1.03-1.34,1.61-1.69,1.74-.83-.84-1.4-1.65-1.72-2.44-.32-.79-.66-1.72-.71-2.54-.05-.68,.15-1.69,.36-2.78,.21-1.1,.5-2.2,.88-3.31,.73-2.14,1.68-4.2,2.83-6.17,1.16-1.97,2.27-3.76,3.35-5.36,.88,.46,1.68,1,2.39,1.64,.71,.64,1.46,1.48,2.24,2.53-.32,.89-.8,1.79-1.46,2.68s-1.36,1.84-2.08,2.84c-.73,1-1.39,2.05-1.99,3.15-.6,1.1-1,2.28-1.19,3.54,.89-1.02,1.94-2.19,3.15-3.48,1.21-1.3,2.46-2.48,3.73-3.54,1.27-1.07,2.54-1.9,3.79-2.51,1.25-.6,2.38-.73,3.38-.38,.38,.13,.78,.34,1.22,.62,.44,.28,.84,.59,1.22,.91,.37,.33,.69,.62,.93,.89,.25,.27,.39,.45,.42,.56-.16,.58-.52,1.32-1.1,2.22-.58,.9-1.19,1.84-1.85,2.82-.66,.99-1.26,1.95-1.83,2.89-.56,.94-.89,1.73-.99,2.37,1.53-1.62,2.97-3.06,4.31-4.32,1.34-1.26,2.6-2.29,3.78-3.1,1.18-.8,2.27-1.34,3.28-1.62,1-.28,1.95-.24,2.85,.12,.62,.25,1.19,.65,1.73,1.21,.54,.56,.91,1.2,1.13,1.93-.28,.84-.73,1.81-1.36,2.89-.63,1.08-1.27,2.24-1.92,3.47-.65,1.23-1.23,2.46-1.74,3.7-.51,1.24-.77,2.44-.77,3.59,0,.67,.09,1.15,.28,1.43,.19,.28,.45,.49,.79,.62,.37,.15,.72,.21,1.04,.2s.56,0,.72,.07c.19,.2,.29,.41,.32,.61,.03,.2,.05,.39,.05,.55-.62,.26-1.25,.43-1.9,.51-.65,.08-1.38-.04-2.18-.35-.74-.29-1.36-.65-1.84-1.09-.48-.44-.88-.94-1.19-1.5-.31-.56-.53-1.16-.65-1.78-.12-.62-.19-1.27-.19-1.94,0-1.09,.14-2.11,.42-3.08,.28-.97,.61-1.86,1-2.69,.39-.83,.8-1.58,1.23-2.26,.43-.68,.81-1.3,1.12-1.85Z"/>
      <path class="cls-16" d="M320.54,44.4c-.12,1.92-.45,3.46-.99,4.61s-1.31,2.01-2.32,2.59c-1.01,.58-2.23,.95-3.68,1.12-1.45,.18-3.15,.22-5.1,.14,0,.19,0,.39-.02,.59-.02,.2-.02,.41-.02,.64,0,.42,.03,.86,.09,1.34,.06,.48,.17,.94,.32,1.39,.15,.45,.36,.86,.64,1.22,.27,.36,.62,.64,1.05,.84,.82,.38,1.62,.56,2.41,.54,.79-.01,1.53-.13,2.24-.35,.71-.22,1.37-.5,1.99-.86,.62-.35,1.16-.68,1.64-.98,.3,.44,.55,.84,.76,1.2-1.35,1.24-2.83,2.1-4.44,2.59-1.61,.49-3.15,.57-4.61,.26-2.09-1.22-3.73-2.75-4.91-4.62-1.18-1.87-1.77-3.76-1.77-5.68,0-1.31,.18-2.57,.53-3.78,.35-1.21,.84-2.31,1.47-3.3,.63-.99,1.36-1.86,2.2-2.61,.84-.75,1.73-1.31,2.69-1.71,.96-.39,1.94-.59,2.95-.59s2.09,.22,3.01,.73c1.35,.75,2.67,2.43,3.87,4.67Zm-3.1,.03c-.81-.27-1.65-.33-2.53-.18-.88,.16-1.7,.53-2.47,1.13-.77,.6-1.48,1.39-2.11,2.38-.64,.99-1.14,2.14-1.5,3.44,2.43-.18,4.44-.81,6.04-1.91,1.6-1.1,2.45-2.72,2.57-4.87Z"/>
    </g>
    <g>
      <path class="cls-15" d="M113.25,70.75v-.28s.02-.07,.07-.15,.07-.14,.07-.15c.04-.09,.07-.2,.11-.31s.07-.22,.11-.32,.1-.19,.18-.26,.17-.11,.3-.11h.12s.05,.04,.09,.11,.07,.12,.09,.16c.1,.19,.21,.4,.33,.64s.26,.46,.42,.66,.34,.38,.55,.52,.45,.21,.72,.21c.1,0,.23-.04,.39-.11s.32-.16,.47-.26,.29-.21,.4-.32,.19-.21,.21-.3c.03-.09,.06-.18,.08-.26s.03-.16,.03-.25c0-.07,0-.15-.02-.23s-.04-.18-.08-.29c0-.09-.08-.22-.24-.39s-.35-.33-.56-.49-.41-.31-.61-.44-.33-.22-.4-.26c-.09-.03-.17-.05-.26-.05s-.16-.03-.22-.09c0-.02-.03-.04-.06-.07s-.07-.06-.11-.1-.07-.07-.11-.1-.05-.05-.06-.05c-.02-.03-.06-.08-.15-.13s-.14-.1-.18-.13l-.15-.08s-.07-.06-.13-.12-.13-.12-.2-.19l-.2-.2-.13-.13c-.05-.13-.09-.27-.13-.4s-.08-.27-.12-.41c0-.04-.02-.09-.04-.16s-.03-.14-.05-.21-.04-.12-.05-.18-.02-.08-.02-.09c-.02-.21,0-.43,.05-.66s.12-.45,.21-.66,.21-.41,.35-.59,.29-.33,.45-.45c0-.02,.05-.03,.12-.05s.12-.04,.13-.05c.12-.05,.25-.12,.39-.22s.29-.2,.43-.29,.3-.18,.45-.25,.29-.11,.42-.11,.28,.03,.45,.09,.31,.11,.44,.15c.21,.07,.41,.14,.6,.2s.36,.14,.52,.25,.27,.23,.36,.39,.13,.36,.13,.61c0,.09,0,.21-.03,.37s-.05,.32-.1,.47-.11,.29-.19,.4-.19,.17-.32,.17h-.08s-.04-.07-.08-.16-.07-.15-.08-.16c-.11-.2-.23-.38-.36-.56s-.27-.34-.43-.47-.33-.24-.52-.32-.4-.12-.63-.12c-.07,0-.15,0-.24,.01s-.17,.04-.25,.08c-.27,.2-.47,.42-.6,.64s-.21,.51-.21,.86c0,.19,.04,.36,.13,.51s.2,.29,.33,.4,.28,.22,.45,.3,.32,.15,.48,.2c0,0,.04,.02,.08,.02s.1,.02,.16,.02,.11,.02,.16,.02,.07,.01,.08,.01c.02,0,.04,.01,.08,.04s.07,.04,.08,.04c.17,.12,.35,.25,.53,.37s.36,.25,.54,.38,.35,.27,.51,.42,.31,.31,.45,.48c0,0,.02,.04,.05,.08s.05,.1,.08,.16l.08,.18c.03,.06,.05,.1,.06,.13,0,.02,0,.05,0,.09s0,.1,.02,.15,.02,.11,.02,.16,.02,.08,.04,.09c.03,.09,.07,.18,.11,.25s.09,.15,.13,.22,.08,.14,.11,.21,.05,.15,.05,.25c0,.25-.05,.48-.16,.69s-.21,.43-.32,.67c-.11,.16-.24,.32-.4,.48s-.3,.29-.42,.39c-.31,.27-.67,.47-1.08,.58s-.8,.17-1.17,.17c-.28,0-.57-.02-.86-.05s-.55-.1-.8-.21c-.02,0-.05-.03-.09-.05s-.1-.06-.16-.09-.11-.07-.16-.1-.08-.05-.1-.06c-.16-.09-.29-.18-.41-.25s-.22-.16-.3-.25-.14-.21-.18-.34-.06-.3-.06-.52Z"/>
      <path class="cls-15" d="M127.76,71.77c0-.1,.04-.18,.13-.24s.18-.11,.28-.16,.19-.1,.28-.15,.13-.12,.13-.21c0-.13-.04-.29-.13-.46s-.18-.31-.28-.42c-.02-.02-.07-.08-.15-.18s-.16-.2-.25-.31-.17-.21-.25-.32-.13-.16-.15-.19c-.16-.19-.32-.35-.48-.48s-.34-.3-.52-.49c0,0-.03,0-.06,0s-.06,0-.08,0c-.1,0-.19,.03-.26,.08s-.13,.12-.18,.21-.08,.18-.11,.28-.04,.19-.05,.26c0,.05-.02,.12-.03,.23s-.03,.23-.04,.36-.03,.25-.05,.37l-.04,.25v.27s.01,.03,.04,.06,.06,.08,.09,.13,.07,.1,.12,.16,.08,.1,.1,.13c.05,.08,.13,.14,.22,.19s.18,.11,.27,.16,.17,.13,.23,.21,.09,.18,.09,.29c0,.1-.03,.19-.1,.25s-.15,.12-.24,.15-.19,.06-.29,.08-.19,.02-.26,.02h-2.13s-.08,0-.16,.01-.18,.02-.28,.03-.2,.02-.28,.04-.14,.02-.16,.03h-.19c-.11,0-.23-.04-.35-.13s-.19-.19-.19-.32v-.06s.01-.06,.04-.1,.05-.09,.08-.15,.05-.1,.08-.15,.04-.08,.05-.1c.03-.06,.08-.1,.14-.12s.13-.03,.2-.03,.14,0,.21-.02,.14-.04,.2-.08c.13-.11,.23-.24,.29-.38s.15-.29,.26-.43c0-.1,0-.26,.02-.47s.02-.46,.04-.73,.02-.56,.04-.86,.02-.59,.04-.86,.02-.52,.03-.73,.01-.37,.01-.47c0,0,0-.05,0-.13s0-.17,0-.26,0-.2,0-.3,0-.18,0-.23c0-.04,0-.1,0-.19s0-.19,0-.29,0-.2,0-.28,0-.14,0-.18c-.03-.12-.06-.26-.09-.39s-.08-.26-.15-.36c-.09-.12-.18-.2-.28-.23s-.21-.07-.32-.11-.22-.08-.32-.13-.21-.17-.3-.33c-.06-.12-.09-.25-.09-.36,0-.13,.04-.21,.11-.24s.17-.04,.28-.04c.24,0,.48,.01,.73,.04s.48,.05,.72,.07,.48,.04,.71,.06,.48,.02,.73,0c.05,.02,.12,.05,.21,.11s.18,.12,.27,.19,.16,.15,.23,.23,.1,.14,.1,.2c0,.06-.03,.12-.09,.17s-.13,.1-.21,.16-.15,.11-.23,.18-.12,.13-.15,.21v1.86c0,.09,.02,.18,.02,.27s.03,.18,.06,.25,.07,.13,.12,.18,.12,.07,.22,.07c.02,0,.05,0,.09-.01s.06-.01,.08-.01c0,0,.04-.03,.09-.07s.1-.08,.16-.13,.11-.09,.15-.13,.08-.06,.09-.07c.03-.04,.09-.09,.18-.15s.13-.1,.14-.12c.02,0,.06,0,.12-.02s.1-.04,.1-.06c.12-.08,.23-.18,.34-.29s.21-.24,.3-.38,.17-.27,.23-.42,.11-.3,.13-.45c-.02-.02-.05-.07-.08-.14s-.06-.14-.1-.22-.07-.15-.09-.22-.04-.12-.04-.15c0-.04-.02-.07-.02-.11-.02-.08-.02-.14-.02-.18s0-.1,.02-.18c0-.03,.02-.07,.02-.11,0-.02,.04-.06,.09-.12s.1-.11,.14-.12c.02,0,.07-.02,.13-.04l.21-.05c.08-.02,.15-.04,.23-.05s.13-.02,.17-.02h.89s.04,0,.08-.01,.08-.01,.12-.02,.08,0,.12-.02,.06-.01,.07-.01c.04,0,.11-.02,.2-.03s.19-.02,.29-.03,.2-.02,.29-.02,.15-.01,.19-.01h.35c.14,0,.29,.01,.43,.04s.27,.09,.35,.2c.02,.03,.06,.09,.11,.18s.08,.14,.08,.15c0,.03-.03,.09-.08,.17s-.09,.14-.11,.17c-.02,.02-.07,.05-.13,.09s-.14,.1-.22,.15-.15,.1-.22,.15-.12,.07-.15,.08c-.02,.02-.04,.03-.08,.04s-.08,.02-.12,.02-.09,.01-.13,.02-.07,0-.08,0c-.2,.05-.4,.13-.6,.23s-.38,.22-.51,.36c-.03,.02-.08,.07-.15,.15s-.1,.14-.11,.15c-.09,.1-.18,.18-.29,.24s-.22,.12-.34,.17-.23,.11-.33,.18-.19,.14-.25,.25c-.02,.02-.04,.05-.07,.12s-.06,.13-.1,.21-.07,.14-.1,.21-.05,.1-.06,.11c-.02,.02-.05,.06-.09,.13s-.07,.12-.08,.12v.22c0,.2,.04,.38,.11,.54s.16,.31,.27,.45,.23,.27,.36,.4,.27,.27,.4,.42c.02,.02,.04,.06,.09,.12s.07,.11,.09,.12c.05,.06,.11,.14,.19,.24s.16,.19,.23,.29l.21,.25c.06,.07,.09,.11,.1,.12,.17,.18,.36,.34,.56,.49l.61,.43c.2,.14,.4,.29,.6,.45s.37,.33,.53,.52c.04,.04,.06,.08,.07,.12s.01,.09,.01,.15v.26c0,.05,0,.1-.01,.15s-.03,.09-.07,.13c-.02,.02-.05,.04-.09,.08l-.12,.12-.12,.12s-.06,.07-.07,.08h-.12c-.27,0-.55-.03-.82-.08s-.54-.08-.79-.08h-1.14c-.08,0-.19-.02-.33-.05s-.29-.06-.43-.12-.26-.12-.37-.2-.16-.17-.16-.28Z"/>
      <path class="cls-15" d="M135.21,72.51c-.09,.03-.15,.05-.16,.06h-.19c-.16,0-.3-.03-.43-.1s-.19-.19-.19-.37v-.11s.06-.04,.12-.09,.11-.06,.12-.06c0,0,.03-.03,.06-.06s.06-.07,.1-.11,.07-.07,.09-.1,.04-.05,.05-.06c.02,0,.05-.02,.1-.02s.1-.02,.16-.02,.11-.02,.15-.02,.08-.01,.09-.01c.27-.08,.48-.21,.64-.41v-1.96s.02-.03,.03-.08,.02-.09,.04-.13,.02-.09,.03-.13,.01-.06,.01-.07v-.5c0-.2-.02-.38-.05-.57s-.05-.37-.05-.54c0-.4,.05-.79,.16-1.16v-2.03s0-.04-.02-.08-.03-.07-.04-.08c-.02-.02-.05-.05-.09-.08s-.07-.06-.11-.1l-.1-.1-.06-.06s-.04-.02-.08-.03-.1-.03-.15-.04-.13-.04-.22-.07c-.12-.04-.22-.09-.3-.16s-.15-.15-.22-.25v-.06s.02-.07,.06-.09,.08-.04,.13-.05,.09-.02,.13-.03,.07-.02,.09-.04c.03,0,.1-.03,.2-.06s.17-.06,.21-.08h2.12s.04,0,.09-.01,.1-.02,.15-.03,.1-.02,.15-.03,.07-.01,.08-.01,.04,0,.09,0,.11,0,.18,0h.71c.06,0,.12,0,.16,0s.07,0,.08,0c.07,0,.15,0,.25,0s.19,.02,.28,.05,.16,.07,.22,.13,.09,.14,.09,.25c0,.12-.03,.2-.09,.25s-.14,.08-.22,.09-.18,.02-.28,.02-.18,0-.25,.03c0,0-.03,0-.05,.02s-.06,.04-.09,.06-.07,.04-.1,.06-.05,.02-.06,.02c-.12,.05-.25,.1-.38,.15s-.19,.15-.19,.31c0,.11,.01,.21,.04,.3s.04,.19,.04,.29v.08s-.01,.07-.04,.16-.04,.15-.04,.16v.67s0,.04-.03,.08-.04,.06-.05,.06c-.05,.54-.07,1.07-.08,1.61s-.04,1.07-.09,1.61c0,.05-.02,.13-.06,.26s-.07,.22-.08,.28v1.55s.04,.03,.06,.05c.03,.02,.06,.04,.08,.04,.17,.07,.36,.12,.56,.15s.4,.05,.6,.06,.4,.02,.59,.02,.37,0,.53,.02c0,0,.03,0,.08,.01s.09,.01,.13,.02,.09,0,.13,.02,.07,.01,.09,.01h.14c.2-.05,.37-.09,.53-.13s.31-.13,.47-.26c.14-.12,.28-.24,.4-.37s.26-.26,.4-.38,.28-.24,.42-.35,.3-.2,.47-.28h.08c.23,.07,.38,.18,.45,.32s.11,.33,.11,.56v.18s-.03,.09-.08,.18-.07,.14-.09,.15c-.02,.09-.04,.2-.06,.32s-.04,.24-.07,.36-.07,.24-.13,.35-.13,.2-.22,.28c-.03,.02-.07,.05-.12,.08s-.1,.06-.16,.1-.1,.06-.14,.09-.06,.04-.07,.04c0,.02-.06,.02-.15,.02-.09,0-.17,0-.26-.01s-.15-.01-.17-.01c0,.02-.05,.06-.14,.11s-.14,.08-.18,.08c-.15,0-.31-.01-.5-.06s-.34-.11-.46-.18h-2.94s-.1,.03-.2,.04-.17,.02-.2,.02c-.02,.02-.09,.02-.22,.02-.11,0-.23,0-.36-.01s-.21-.01-.22-.01c-.02,.02-.05,.04-.1,.06s-.1,.06-.16,.09-.11,.06-.15,.08-.07,.04-.08,.04c-.02,0-.06-.01-.13-.04s-.11-.04-.13-.04c-.02,0-.06-.02-.15-.02s-.17-.02-.26-.02-.18-.02-.26-.02-.13-.01-.15-.01c0,0-.02-.02-.05-.03l-.11-.04s-.09-.03-.16-.04c-.02,0-.07,.01-.16,.04Z"/>
      <path class="cls-15" d="M146.05,72.08c0-.07,.04-.16,.12-.26s.15-.18,.21-.22c.03,0,.09-.02,.17-.04s.17-.04,.26-.06,.18-.04,.27-.06,.15-.03,.19-.04c.16-.02,.27-.05,.35-.09s.13-.15,.16-.3c.02-.18,.04-.38,.05-.59s.02-.42,.02-.6v-.16s-.01-.07-.04-.14-.04-.11-.04-.13c0-.03-.02-.1-.02-.21s-.02-.23-.02-.36-.02-.25-.02-.36-.02-.18-.02-.21c0,0-.01-.05-.04-.12s-.04-.12-.04-.13v-.06c.12-.89,.18-1.77,.18-2.64,0-.23-.02-.45-.05-.67s-.05-.44-.05-.67v-.19s-.07-.04-.13-.08-.1-.07-.12-.08-.04-.04-.08-.09-.07-.07-.08-.09c-.12-.05-.25-.09-.4-.11s-.3-.05-.43-.08-.25-.09-.34-.17-.13-.2-.13-.38v-.14s0-.06,.01-.08c.02-.03,.06-.07,.15-.11s.14-.06,.18-.06h2.44s.09,.07,.17,.11,.13,.06,.15,.07h.08c.27,0,.52-.04,.77-.13s.51-.13,.77-.13h.34c.18,.02,.38,.05,.59,.1s.41,.08,.6,.08c.09,0,.17-.02,.26-.05s.18-.05,.28-.05h.06c.07,.02,.17,.05,.29,.08s.24,.06,.37,.1,.24,.09,.35,.14,.18,.12,.22,.19c.07,.12,.14,.26,.22,.4s.15,.29,.22,.43,.12,.3,.16,.46,.06,.31,.06,.46c0,.09-.02,.17-.06,.26s-.11,.15-.19,.19c-.02,.02-.08,.02-.16,.02h-.17c-.14,0-.25,0-.32-.02s-.13-.04-.18-.09-.09-.1-.13-.16-.1-.15-.18-.24c0-.02-.04-.05-.08-.09s-.1-.1-.15-.15-.11-.1-.16-.15-.08-.08-.1-.09c0-.02-.02-.06-.04-.12s-.02-.11-.02-.12c-.05-.12-.12-.2-.21-.25s-.19-.08-.3-.11-.22-.05-.33-.07-.22-.07-.31-.14h-1.24c-.1,0-.19,.04-.26,.11s-.15,.14-.22,.21c-.16,.2-.26,.44-.29,.7s-.04,.52-.04,.77c0,.27,0,.53,.01,.76s.04,.49,.09,.77c0,.11,.04,.18,.1,.21s.13,.04,.21,.04h.18s.05,0,.11-.03,.1-.03,.11-.03c.02,0,.08-.02,.16-.03s.17-.02,.26-.03,.18-.01,.26-.02,.13,0,.16,0c.11-.02,.2-.06,.26-.11s.12-.1,.16-.17,.07-.14,.11-.22,.07-.16,.12-.23c.04-.08,.08-.17,.13-.26s.1-.19,.16-.28,.13-.16,.21-.22,.17-.09,.28-.09c.1,0,.17,.03,.21,.1s.06,.15,.07,.26c.04,.27,.06,.51,.07,.71s.01,.44,.01,.7v.43s0,.13-.01,.24-.02,.23-.02,.35-.02,.23-.02,.33-.02,.17-.02,.21c0,.04-.01,.1-.04,.19s-.04,.14-.04,.16v.39c0,.06,0,.12,0,.19s-.02,.11-.05,.15c-.03,.02-.09,.07-.17,.13s-.14,.1-.17,.12h-.2s-.07,0-.1,.01-.05,.01-.06,.01c-.05,0-.08-.03-.11-.08-.03-.03-.07-.09-.11-.17s-.06-.14-.07-.18v-.97c0-.1-.04-.19-.09-.25s-.12-.12-.21-.15-.18-.05-.29-.06-.21-.02-.31-.02h-.67c-.08,0-.15,0-.23,.01s-.14,.03-.21,.05-.11,.07-.15,.13-.06,.13-.06,.23v.12s.02,.09,.02,.19,.02,.21,.03,.32,.02,.21,.03,.31,.02,.16,.02,.18v1.08s0,.03,.02,.06,.03,.08,.04,.13l.05,.15c.02,.05,.03,.09,.05,.12,.04,.09,.09,.16,.15,.21s.12,.07,.19,.09,.15,.02,.23,.02,.17,0,.25,.02c.13,.02,.27,.04,.4,.08s.28,.06,.43,.06h.36c.24,0,.49,0,.74-.02s.5-.05,.73-.12c.02,0,.05-.01,.09-.04s.08-.04,.09-.04c.02-.02,.05-.06,.11-.1s.11-.09,.17-.14,.11-.1,.16-.15,.08-.09,.1-.11c.02-.02,.07-.05,.13-.12l.21-.21c.07-.07,.14-.14,.21-.2s.11-.1,.13-.11c.04-.04,.08-.06,.12-.08s.09-.02,.15-.02h.16c.09,0,.18,0,.28,.01s.18,.04,.25,.08c.16,.11,.29,.22,.41,.35s.18,.28,.18,.47v.14s-.02,.08-.04,.15-.04,.13-.07,.21-.05,.13-.08,.19-.04,.1-.05,.12c-.04,.06-.11,.13-.22,.22s-.2,.14-.26,.18c-.05,.02-.11,.05-.18,.09s-.15,.08-.22,.11-.13,.06-.19,.09-.09,.04-.09,.04h-6.83c-.11,.04-.22,.06-.34,.07s-.24,.01-.36,.01h-.83s-.08,0-.15-.03-.1-.04-.1-.05c-.02-.03-.05-.09-.09-.17s-.07-.13-.07-.16Z"/>
      <path class="cls-15" d="M158.02,72s0-.04,.03-.11,.04-.11,.05-.12c.08-.17,.14-.28,.19-.33s.1-.08,.16-.09,.12-.02,.19-.02,.16-.06,.27-.15c0,0,.04-.02,.1-.06s.12-.09,.19-.15,.14-.12,.21-.18,.12-.11,.16-.15c0-.02,.02-.04,.05-.06,.02,0,.03-.02,.04-.02,0-.04,0-.12,0-.23s0-.2,0-.23c0-.3-.02-.61-.06-.91l-.12-.91s0-.04-.01-.08-.02-.1-.02-.16-.02-.11-.02-.16-.01-.08-.01-.1c0,0-.02-.02-.02-.04s-.01-.04-.01-.08c0-.02,0-.04,.01-.06l.02-.05s.01-.04,.04-.09,.04-.07,.04-.09c.07-.23,.12-.49,.13-.76s.03-.54,.03-.79v-.08c-.03-.21-.05-.42-.07-.62s-.04-.4-.06-.6-.05-.39-.09-.59-.1-.4-.19-.62c-.03-.08-.08-.13-.16-.15s-.16-.04-.25-.05-.17-.03-.25-.05-.13-.07-.16-.15c0-.02-.02-.06-.04-.12s-.03-.11-.05-.17-.04-.12-.05-.17-.02-.09-.02-.12c.02-.04,.04-.08,.06-.12s.06-.08,.1-.11c.03,0,.09,0,.19,0s.19,0,.3,0,.21,0,.3,0,.16,0,.2,0c.06,0,.15,0,.25,0s.21,0,.31,0,.19,0,.27,0,.12,0,.13,0c.02,0,.06,0,.12,.01s.12,.02,.19,.02,.14,.02,.2,.02,.11,.02,.15,.02c.02,0,.06,.01,.15,.04s.14,.04,.18,.04c.21,0,.42-.03,.62-.09s.41-.09,.63-.09c.13,0,.26,.03,.39,.09s.25,.09,.39,.09c.11,0,.21-.03,.31-.09s.21-.09,.33-.09c0,0,.02,0,.04,0s.04,0,.05,0c.02,0,.05,.01,.07,.01,0,0,.05,.01,.12,.04s.11,.04,.13,.04c.11,.02,.22,.04,.35,.06s.24,.04,.36,.06,.24,.06,.35,.1,.22,.1,.31,.18c.1,.08,.18,.15,.25,.23s.12,.15,.16,.23,.08,.16,.12,.25,.08,.18,.13,.27c0,.02,.03,.04,.05,.07s.05,.06,.08,.1,.05,.07,.08,.1,.04,.05,.05,.06c0,.02,.03,.07,.06,.13l.1,.2c.04,.07,.07,.13,.1,.19s.05,.1,.07,.12c.04,.11,.06,.21,.07,.3s.01,.18,.01,.28v.54c0,.16,0,.34-.03,.52s-.07,.31-.16,.4c-.02,.04-.07,.1-.15,.17s-.15,.15-.23,.24-.16,.17-.25,.25-.14,.13-.18,.16c-.02,.03-.08,.08-.16,.14s-.14,.1-.16,.12c-.54,.21-1.12,.38-1.75,.51s-1.23,.2-1.82,.22c-.25,.2-.41,.41-.48,.62s-.11,.46-.11,.77c0,.09,0,.21,.02,.34s.04,.27,.07,.4,.08,.26,.13,.38,.12,.2,.21,.26c.08,.06,.18,.11,.31,.13s.26,.06,.38,.11,.23,.1,.32,.18,.13,.19,.13,.33c0,.13-.04,.23-.11,.3s-.16,.12-.26,.15-.21,.05-.32,.06-.21,.03-.29,.04c-.02,0-.07,.01-.14,.04s-.11,.04-.13,.04h-.14c-.09,0-.16,0-.21-.01s-.12-.03-.2-.07h-1.56c-.24,.11-.51,.16-.81,.16-.06,0-.15-.01-.27-.04s-.23-.06-.35-.11-.22-.11-.3-.18-.13-.15-.13-.25Zm3.75-5.79c0,.09,.02,.2,.05,.3s.09,.21,.15,.3,.14,.18,.23,.25,.18,.11,.29,.13h.41s.07,.01,.16,.04,.15,.04,.17,.04h.16s.04-.03,.08-.06,.1-.06,.15-.1,.11-.07,.15-.11,.08-.06,.09-.08c.2-.11,.35-.21,.46-.3s.2-.19,.26-.3,.12-.24,.15-.39,.07-.34,.11-.56v-.12c0-.1-.02-.22-.05-.37s-.08-.29-.14-.43-.13-.27-.21-.4-.16-.23-.25-.3l-.16-.08c-.21-.16-.43-.31-.64-.45s-.48-.2-.77-.2h-.14c-.09,0-.17,0-.22,.02s-.14,.07-.27,.15c-.02,.02-.06,.06-.12,.12s-.1,.09-.1,.1v1.88s.03,.05,.05,.12,.03,.11,.03,.14c0,.02-.01,.08-.04,.19s-.04,.18-.04,.22v.22Z"/>
      <path class="cls-15" d="M178.42,72.22s-.06-.1-.12-.21-.11-.22-.18-.34-.12-.24-.17-.35-.08-.19-.1-.23c-.02,0-.03-.04-.05-.11s-.03-.14-.05-.21-.04-.14-.05-.21-.02-.11-.02-.12c-.07-.23-.16-.46-.27-.69s-.21-.45-.32-.68c0-.02-.02-.07-.07-.16s-.07-.15-.07-.16c0-.02-.02-.05-.02-.11s-.02-.11-.02-.18-.02-.12-.02-.18-.01-.1-.01-.11c-.02-.06-.06-.13-.1-.22s-.09-.17-.14-.25-.1-.17-.15-.26-.09-.17-.12-.25c-.09-.24-.17-.49-.24-.73s-.15-.49-.25-.74c-.07-.16-.16-.32-.26-.48l-.3-.47s0-.06-.03-.1-.04-.07-.05-.09c0,0,0-.03-.02-.07s-.03-.08-.05-.13-.03-.09-.05-.13-.03-.06-.04-.07l-.06-.08c-.2-.12-.35-.27-.47-.44s-.27-.32-.44-.45c-.12-.09-.24-.17-.34-.26s-.15-.21-.15-.38c0-.1,.03-.18,.08-.23s.11-.1,.19-.12,.15-.04,.24-.05,.16-.01,.23-.01c.02,0,.07-.02,.15-.02s.15-.02,.24-.02,.17-.02,.25-.02,.14-.01,.18-.01c.02,0,.03,0,.05-.01,.02,0,.03,0,.04,0s.02,0,.02,0l.06,.02s.05,0,.11,.02,.12,.04,.18,.06,.13,.04,.18,.06,.09,.02,.09,.02c.05,0,.13,0,.26,.02s.26,.03,.4,.05,.27,.04,.39,.05,.21,.02,.25,.02c.28,.09,.42,.27,.42,.56,0,.18-.03,.34-.08,.49s-.08,.31-.08,.48c0,.23,.02,.43,.06,.6s.09,.34,.14,.5,.12,.32,.18,.49,.12,.35,.17,.55c0,.02,.02,.05,.02,.11s.02,.11,.03,.18,.02,.12,.03,.18,.02,.09,.02,.11c0,.02,.01,.07,.04,.14s.06,.15,.09,.24,.07,.18,.11,.26,.06,.15,.08,.19c0,.02,.03,.05,.06,.12s.07,.13,.11,.21,.07,.14,.09,.21,.04,.1,.04,.11c.02,.03,.04,.09,.06,.18s.03,.14,.05,.16c.09,.2,.18,.41,.27,.63s.19,.41,.29,.59c.02,0,.05,0,.11,.01s.09,.01,.11,.01c.14,0,.26-.02,.37-.06s.19-.14,.24-.3c.02-.03,.05-.09,.08-.18s.06-.19,.09-.29,.06-.2,.09-.29,.04-.15,.05-.19c.15-.09,.27-.22,.35-.38s.15-.32,.2-.5,.08-.36,.09-.54,.02-.35,.02-.5v-.02s-.02-.11-.03-.19-.02-.16-.03-.24-.01-.15-.02-.21,0-.1,0-.11c0,0-.01-.04-.04-.09s-.05-.11-.08-.18-.05-.12-.08-.18-.04-.1-.05-.11c-.02-.09-.04-.21-.05-.34s-.03-.27-.04-.4-.04-.27-.07-.39-.09-.23-.16-.33c0-.02-.05-.04-.13-.08s-.14-.07-.18-.08c-.14-.05-.27-.08-.4-.09s-.23-.04-.32-.09-.15-.11-.21-.19-.08-.21-.08-.38v-.08s0-.08,.01-.12,.04-.08,.09-.11c.02,0,.06-.03,.12-.05s.11-.05,.18-.08,.12-.04,.17-.06,.08-.03,.1-.03h.12c.12,0,.24,.02,.35,.07s.23,.07,.36,.07h1.84s.04,0,.09,.03,.09,.04,.14,.07,.1,.05,.16,.08,.1,.05,.13,.08c0,.02,.05,.06,.13,.13s.11,.14,.09,.19c-.02,.07-.06,.12-.13,.15s-.14,.06-.22,.1-.14,.1-.2,.18-.09,.21-.09,.38c0,.2,.02,.44,.05,.7s.09,.49,.18,.69c.02,.02,.04,.07,.09,.15s.09,.16,.13,.26,.09,.18,.12,.26,.06,.13,.06,.16c0,0,.01,.05,.01,.14s0,.17,0,.26,0,.13,0,.14c.02,.09,.05,.19,.12,.3s.11,.21,.14,.3c.04,.11,.07,.22,.08,.34s.02,.24,.02,.36c0,.07,0,.14-.01,.21s-.01,.14-.01,.21c.09,.11,.16,.22,.22,.35s.12,.24,.18,.35,.13,.22,.21,.33,.18,.2,.3,.28h.02c.07,0,.14-.03,.21-.08s.12-.11,.16-.16c.04-.05,.06-.1,.08-.15s.02-.1,.02-.15,0-.1,.01-.16,.02-.12,.04-.19c0-.02,.03-.06,.08-.12s.08-.11,.08-.12c.11-.24,.2-.49,.26-.73s.15-.49,.26-.74c0-.02,.02-.06,.07-.12s.07-.11,.07-.12c.09-.14,.15-.3,.19-.49s.06-.36,.06-.52v-.13s-.01-.05-.04-.12-.04-.1-.04-.12c0-.04-.01-.11-.01-.22v-.69c0-.1,0-.18,.01-.22-.05-.12-.14-.24-.26-.35s-.24-.22-.36-.33-.23-.22-.32-.34-.13-.25-.13-.39v-.06c.09-.17,.21-.27,.36-.3s.31-.04,.49-.04c.23,0,.47,.02,.7,.05s.46,.05,.69,.05c.05,0,.13,0,.22,0s.15,0,.16,0c0,0,.03,0,.07-.02s.08-.03,.13-.05,.09-.03,.13-.05,.06-.02,.07-.02h.11c.07,0,.15,.01,.23,.04s.16,.06,.23,.11,.13,.1,.18,.17,.08,.13,.08,.21h0c-.05,.19-.11,.38-.17,.56s-.17,.34-.32,.45c0,0-.03,.02-.07,.04s-.08,.04-.13,.07-.09,.05-.13,.08-.07,.04-.09,.05c0,0-.03,.03-.06,.07s-.07,.08-.11,.13-.09,.1-.13,.15-.08,.09-.11,.12c-.06,.09-.1,.19-.1,.29s-.02,.19-.04,.29c-.05,.16-.11,.34-.18,.55s-.12,.38-.16,.5c0,.03-.02,.09-.07,.18s-.07,.13-.07,.14c-.02,.02-.04,.08-.06,.17s-.05,.19-.08,.29-.05,.21-.07,.31-.04,.18-.06,.22v.16c-.1,.34-.22,.63-.36,.87s-.31,.49-.51,.74c-.02,.02-.06,.04-.1,.09s-.07,.07-.09,.08c0,.02-.02,.05-.03,.09s-.03,.1-.04,.15-.03,.11-.05,.16-.03,.08-.04,.09-.02,.04-.04,.08c0,.02-.02,.05-.02,.08,0,0-.03,.01-.05,.04s-.06,.05-.09,.08l-.12,.12s-.01,.07-.04,.15-.04,.14-.04,.18c-.03,.16-.07,.33-.13,.53s-.13,.38-.22,.56-.21,.33-.34,.45-.3,.18-.49,.18-.35-.03-.46-.1-.2-.15-.26-.26-.11-.23-.15-.37-.08-.29-.13-.43c-.03-.06-.06-.11-.08-.15s-.05-.08-.08-.15c-.06-.15-.1-.32-.11-.51s-.04-.35-.08-.49c-.03-.3-.09-.56-.18-.78s-.21-.45-.36-.69h-.21c-.11,0-.19,.02-.25,.06s-.1,.09-.13,.15-.07,.13-.1,.21-.07,.16-.13,.24l-.08,.08s-.08,.08-.13,.12-.09,.08-.12,.12-.06,.06-.06,.07c-.02,0-.03,.02-.05,.07s-.04,.08-.05,.09c-.02,.04-.04,.09-.06,.16s-.05,.14-.07,.22-.04,.15-.06,.21-.03,.11-.04,.13-.03,.08-.05,.18-.06,.2-.09,.32-.06,.22-.08,.32-.04,.16-.04,.18c0,0-.01,.04-.04,.11s-.05,.14-.09,.23-.07,.17-.11,.26-.07,.16-.09,.21c-.06,.13-.13,.23-.22,.3s-.21,.11-.37,.11-.3-.02-.45-.06-.26-.14-.35-.29Z"/>
      <path class="cls-15" d="M190.45,72.08c0-.07,.04-.16,.12-.26s.15-.18,.21-.22c.03,0,.09-.02,.17-.04s.17-.04,.26-.06,.18-.04,.27-.06,.15-.03,.19-.04c.16-.02,.27-.05,.35-.09s.13-.15,.16-.3c.02-.18,.04-.38,.05-.59s.02-.42,.02-.6v-.16s-.01-.07-.04-.14-.04-.11-.04-.13c0-.03-.02-.1-.02-.21s-.02-.23-.02-.36-.02-.25-.02-.36-.02-.18-.02-.21c0,0-.01-.05-.04-.12s-.04-.12-.04-.13v-.06c.12-.89,.18-1.77,.18-2.64,0-.23-.02-.45-.05-.67s-.05-.44-.05-.67v-.19s-.07-.04-.13-.08-.1-.07-.12-.08-.04-.04-.08-.09-.07-.07-.08-.09c-.12-.05-.25-.09-.4-.11s-.3-.05-.43-.08-.25-.09-.34-.17-.13-.2-.13-.38v-.14s0-.06,.01-.08c.02-.03,.06-.07,.15-.11s.14-.06,.18-.06h2.44s.09,.07,.17,.11,.13,.06,.15,.07h.08c.27,0,.52-.04,.77-.13s.51-.13,.77-.13h.34c.18,.02,.38,.05,.59,.1s.41,.08,.6,.08c.09,0,.17-.02,.26-.05s.18-.05,.28-.05h.06c.07,.02,.17,.05,.29,.08s.24,.06,.37,.1,.24,.09,.35,.14,.18,.12,.22,.19c.07,.12,.14,.26,.22,.4s.15,.29,.22,.43,.12,.3,.16,.46,.06,.31,.06,.46c0,.09-.02,.17-.06,.26s-.11,.15-.19,.19c-.02,.02-.08,.02-.16,.02h-.17c-.14,0-.25,0-.32-.02s-.13-.04-.18-.09-.09-.1-.13-.16-.1-.15-.18-.24c0-.02-.04-.05-.08-.09s-.1-.1-.15-.15-.11-.1-.16-.15-.08-.08-.1-.09c0-.02-.02-.06-.04-.12s-.02-.11-.02-.12c-.05-.12-.12-.2-.21-.25s-.19-.08-.3-.11-.22-.05-.33-.07-.22-.07-.31-.14h-1.24c-.1,0-.19,.04-.26,.11s-.15,.14-.22,.21c-.16,.2-.26,.44-.29,.7s-.04,.52-.04,.77c0,.27,0,.53,.01,.76s.04,.49,.09,.77c0,.11,.04,.18,.1,.21s.13,.04,.21,.04h.18s.05,0,.11-.03,.1-.03,.11-.03c.02,0,.08-.02,.16-.03s.17-.02,.26-.03,.18-.01,.26-.02,.13,0,.16,0c.11-.02,.2-.06,.26-.11s.12-.1,.16-.17,.07-.14,.11-.22,.07-.16,.12-.23c.04-.08,.08-.17,.13-.26s.1-.19,.16-.28,.13-.16,.21-.22,.17-.09,.28-.09c.1,0,.17,.03,.21,.1s.06,.15,.07,.26c.04,.27,.06,.51,.07,.71s.01,.44,.01,.7v.43s0,.13-.01,.24-.02,.23-.02,.35-.02,.23-.02,.33-.02,.17-.02,.21c0,.04-.01,.1-.04,.19s-.04,.14-.04,.16v.39c0,.06,0,.12,0,.19s-.02,.11-.05,.15c-.03,.02-.09,.07-.17,.13s-.14,.1-.17,.12h-.2s-.07,0-.1,.01-.05,.01-.06,.01c-.05,0-.08-.03-.11-.08-.03-.03-.07-.09-.11-.17s-.06-.14-.07-.18v-.97c0-.1-.04-.19-.09-.25s-.12-.12-.21-.15-.18-.05-.29-.06-.21-.02-.31-.02h-.67c-.08,0-.15,0-.23,.01s-.14,.03-.21,.05-.11,.07-.15,.13-.06,.13-.06,.23v.12s.02,.09,.02,.19,.02,.21,.03,.32,.02,.21,.03,.31,.02,.16,.02,.18v1.08s0,.03,.02,.06,.03,.08,.04,.13l.05,.15c.02,.05,.03,.09,.05,.12,.04,.09,.09,.16,.15,.21s.12,.07,.19,.09,.15,.02,.23,.02,.17,0,.25,.02c.13,.02,.27,.04,.4,.08s.28,.06,.43,.06h.36c.24,0,.49,0,.74-.02s.5-.05,.73-.12c.02,0,.05-.01,.09-.04s.08-.04,.09-.04c.02-.02,.05-.06,.11-.1s.11-.09,.17-.14,.11-.1,.16-.15,.08-.09,.1-.11c.02-.02,.07-.05,.13-.12l.21-.21c.07-.07,.14-.14,.21-.2s.11-.1,.13-.11c.04-.04,.08-.06,.12-.08s.09-.02,.15-.02h.16c.09,0,.18,0,.28,.01s.18,.04,.25,.08c.16,.11,.29,.22,.41,.35s.18,.28,.18,.47v.14s-.02,.08-.04,.15-.04,.13-.07,.21-.05,.13-.08,.19-.04,.1-.05,.12c-.04,.06-.11,.13-.22,.22s-.2,.14-.26,.18c-.05,.02-.11,.05-.18,.09s-.15,.08-.22,.11-.13,.06-.19,.09-.09,.04-.09,.04h-1.05c-.09,.26-.21,.51-.33,.76s-.19,.5-.19,.77c0,.13,.03,.28,.1,.43s.12,.3,.16,.45c.03,.09,.05,.18,.06,.28s.04,.19,.09,.28c.05,.09,.11,.18,.16,.25s.11,.15,.15,.23l.19,.11c.05,.05,.11,.09,.17,.1s.13,.02,.22,.03l.76,.05c.14,0,.25-.02,.34-.06s.19-.06,.3-.06h.16c.15,0,.22,.07,.22,.21,0,.06-.03,.13-.08,.2-.17,.22-.37,.4-.6,.54s-.47,.25-.73,.33l-.29,.14c-.09,.02-.18,.03-.29,.03s-.21,0-.3,0c-.07,0-.17,0-.29-.02s-.23-.03-.33-.05l-.18-.08c-.11-.03-.21-.07-.31-.12s-.2-.09-.31-.13l-.2-.11-.14-.2c-.03-.09-.07-.18-.12-.26s-.1-.17-.15-.25c-.09-.15-.15-.31-.18-.49s-.05-.36-.05-.55c0-.09,0-.19,.02-.32s.03-.23,.05-.33l.04-.34,.11-.4,.16-.38c.1-.22,.23-.41,.39-.58s.33-.32,.53-.45h-5.07c-.11,.04-.22,.06-.34,.07s-.24,.01-.36,.01h-.83s-.08,0-.15-.03-.1-.04-.1-.05c-.02-.03-.05-.09-.09-.17s-.07-.13-.07-.16Z"/>
      <path class="cls-15" d="M202.11,72.02c0-.05,.03-.12,.08-.2s.11-.13,.15-.16c.02,0,.07-.02,.13-.04s.13-.04,.21-.07,.15-.05,.22-.08,.12-.04,.15-.06c.02,0,.05,0,.1-.01s.11-.02,.16-.02,.11-.02,.16-.02,.07-.02,.08-.02c.09-.03,.17-.09,.22-.18s.09-.18,.12-.29,.04-.21,.05-.32,.02-.2,.02-.28v-1.15s0-.04,.01-.08,.02-.1,.03-.15,.02-.11,.03-.15,.01-.07,.01-.08v-.08c0-.06,0-.12-.01-.17s-.01-.1-.01-.16c0-.05,0-.1,.02-.16s.04-.12,.08-.18c-.02-.59,0-1.16,.02-1.73s.05-1.15,.05-1.73v-.18s0-.03-.02-.07-.03-.08-.04-.13l-.05-.15c-.02-.05-.03-.09-.05-.11-.05-.15-.15-.24-.28-.29s-.27-.08-.42-.1-.29-.06-.44-.11-.26-.15-.33-.32v-.19c0-.18,.07-.3,.21-.37s.28-.11,.44-.12h1.08s.09,0,.18,0,.19,0,.29-.02,.2-.02,.29-.02,.15-.02,.19-.02c.02,0,.07-.01,.16-.04s.15-.04,.16-.04c.02,0,.05-.02,.11-.03s.12-.02,.19-.03l.21-.02c.07,0,.12-.01,.16-.01h.08c.12,0,.29,.01,.49,.02s.4,.01,.59,.03c.22,.02,.45,.03,.69,.05,.03,0,.12,.02,.25,.06s.25,.07,.33,.08c.2,.06,.4,.1,.61,.11s.41,.06,.61,.16c.33,.13,.66,.29,.99,.49s.62,.44,.87,.73c.05,.08,.09,.15,.13,.22,.04,.06,.08,.12,.12,.18s.07,.1,.09,.14c0,.04,.02,.1,.06,.18s.07,.13,.08,.15,.03,.04,.07,.08,.08,.08,.13,.13,.1,.09,.13,.13l.07,.07s.03,.06,.05,.13,.03,.12,.03,.12c.02,.02,.03,.04,.05,.08s.03,.06,.03,.06c0,.07,0,.2,.02,.38s.03,.37,.05,.57,.04,.39,.05,.57,.03,.3,.04,.38v.25l-.06,.12c-.03,.06-.07,.13-.11,.2s-.07,.14-.11,.2-.05,.11-.06,.13v.74l-.05,.07s-.03,.05-.04,.07c-.02,.03-.04,.11-.08,.22s-.07,.19-.08,.22l-.05,.02s-.04,.03-.04,.04c-.02,.02-.06,.06-.1,.12s-.09,.11-.13,.16-.08,.1-.12,.14-.05,.07-.05,.08c0,.02-.03,.04-.05,.09s-.06,.09-.09,.13-.07,.1-.11,.15-.06,.09-.08,.11c-.05,.08-.09,.14-.13,.18s-.08,.08-.12,.11-.08,.06-.13,.09-.12,.06-.19,.11c0,0-.04,.03-.08,.08s-.08,.07-.09,.08c-.12,.09-.25,.17-.39,.24s-.28,.13-.43,.19-.29,.13-.42,.2-.26,.16-.38,.27h-.88l-.08,.04s-.07,.03-.08,.03c-.02,0-.06,.02-.12,.02s-.12,.02-.19,.03-.14,.02-.2,.03-.11,.02-.13,.02c-.52,.03-1.01,.05-1.48,.06s-.95,.02-1.44,.02h-.91c-.09,.03-.16,.05-.22,.05s-.13,0-.21,0h-.29c-.09,0-.19,0-.3-.01s-.2-.03-.29-.06-.16-.08-.22-.13-.09-.14-.09-.24Zm3.89-3.12v.47c0,.18,0,.38,.02,.6s.04,.42,.1,.61,.13,.35,.24,.47,.25,.19,.43,.19c.14,0,.26-.01,.35-.04s.21-.06,.35-.11c.02,0,.08-.03,.16-.05s.18-.05,.28-.08,.2-.05,.28-.07,.14-.04,.16-.05c.02,0,.04,0,.07-.03s.05-.03,.07-.03c.02-.02,.08-.06,.16-.12s.17-.12,.26-.19,.17-.13,.25-.18,.12-.09,.14-.11c.05-.03,.12-.06,.19-.09s.14-.06,.21-.1,.14-.08,.2-.13,.11-.1,.14-.16c.09-.16,.15-.34,.2-.53s.11-.36,.2-.53c0,0,.03-.03,.05-.08s.06-.09,.09-.13,.06-.08,.08-.12,.04-.07,.05-.08c.06-.18,.11-.4,.13-.66s.04-.48,.04-.66c0-.2,0-.38-.03-.52s-.06-.28-.11-.4-.12-.25-.21-.36-.19-.25-.32-.4l-.05-.05s-.04-.04-.04-.05c-.1-.16-.2-.3-.28-.45s-.18-.27-.28-.38-.21-.21-.34-.3-.29-.17-.47-.23c-.07-.02-.19-.06-.35-.11s-.34-.1-.52-.16-.35-.1-.51-.14-.27-.07-.33-.08c-.03,0-.07-.01-.11-.01h-.09c-.14,0-.25,.02-.33,.06s-.17,.1-.28,.17v.81s-.02,.07-.02,.15-.02,.15-.03,.23-.02,.16-.03,.23-.01,.11-.01,.13v1.89s0,.13-.01,.26-.02,.26-.02,.39-.02,.27-.03,.39-.02,.21-.02,.25c0,.02-.01,.06-.04,.12s-.04,.11-.04,.12v.41Z"/>
      <path class="cls-15" d="M220.82,71.77c0-.1,.04-.18,.13-.24s.18-.11,.28-.16,.19-.1,.28-.15,.13-.12,.13-.21c0-.13-.04-.29-.13-.46s-.18-.31-.28-.42c-.02-.02-.07-.08-.15-.18s-.16-.2-.25-.31-.17-.21-.25-.32-.13-.16-.15-.19c-.16-.19-.32-.35-.48-.48s-.34-.3-.52-.49c0,0-.03,0-.06,0s-.06,0-.08,0c-.1,0-.19,.03-.26,.08s-.13,.12-.18,.21-.08,.18-.11,.28-.04,.19-.05,.26c0,.05-.02,.12-.03,.23s-.03,.23-.04,.36-.03,.25-.05,.37l-.04,.25v.27s.01,.03,.04,.06,.06,.08,.09,.13,.07,.1,.12,.16,.08,.1,.1,.13c.05,.08,.13,.14,.22,.19s.18,.11,.27,.16,.17,.13,.23,.21,.09,.18,.09,.29c0,.1-.03,.19-.1,.25s-.15,.12-.24,.15-.19,.06-.29,.08-.19,.02-.26,.02h-2.13s-.08,0-.16,.01-.18,.02-.28,.03-.2,.02-.28,.04-.14,.02-.16,.03h-.19c-.11,0-.23-.04-.35-.13-.12-.09-.19-.19-.19-.32v-.06s.01-.06,.04-.1,.05-.09,.08-.15,.05-.1,.08-.15,.04-.08,.05-.1c.03-.06,.08-.1,.14-.12s.13-.03,.2-.03,.14,0,.21-.02,.14-.04,.2-.08c.13-.11,.23-.24,.29-.38s.15-.29,.26-.43c0-.1,0-.26,.02-.47s.02-.46,.04-.73,.02-.56,.04-.86,.02-.59,.04-.86,.02-.52,.03-.73,.01-.37,.01-.47c0,0,0-.05,0-.13s0-.17,0-.26,0-.2,0-.3,0-.18,0-.23c0-.04,0-.1,0-.19s0-.19,0-.29,0-.2,0-.28,0-.14,0-.18c-.03-.12-.06-.26-.09-.39s-.08-.26-.15-.36c-.09-.12-.18-.2-.28-.23s-.21-.07-.32-.11-.22-.08-.32-.13-.21-.17-.3-.33c-.06-.12-.09-.25-.09-.36,0-.13,.04-.21,.11-.24s.17-.04,.28-.04c.24,0,.48,.01,.73,.04s.48,.05,.72,.07,.48,.04,.71,.06,.48,.02,.73,0c.05,.02,.12,.05,.21,.11s.18,.12,.27,.19,.16,.15,.23,.23,.1,.14,.1,.2c0,.06-.03,.12-.09,.17s-.13,.1-.21,.16-.15,.11-.23,.18-.12,.13-.15,.21v1.86c0,.09,.02,.18,.02,.27s.03,.18,.06,.25,.07,.13,.12,.18,.12,.07,.22,.07c.02,0,.05,0,.09-.01s.06-.01,.08-.01c0,0,.04-.03,.09-.07s.1-.08,.16-.13,.11-.09,.15-.13,.08-.06,.09-.07c.03-.04,.09-.09,.18-.15s.13-.1,.14-.12c.02,0,.06,0,.12-.02s.1-.04,.1-.06c.12-.08,.23-.18,.34-.29s.21-.24,.3-.38,.17-.27,.23-.42,.11-.3,.13-.45c-.02-.02-.05-.07-.08-.14s-.06-.14-.1-.22-.07-.15-.09-.22-.04-.12-.04-.15c0-.04-.02-.07-.02-.11-.02-.08-.02-.14-.02-.18s0-.1,.02-.18c0-.03,.02-.07,.02-.11,0-.02,.04-.06,.09-.12s.1-.11,.14-.12c.02,0,.07-.02,.13-.04l.21-.05c.08-.02,.15-.04,.23-.05s.13-.02,.17-.02h.89s.04,0,.08-.01,.08-.01,.12-.02,.08,0,.12-.02,.06-.01,.07-.01c.04,0,.11-.02,.2-.03s.19-.02,.29-.03,.2-.02,.29-.02,.15-.01,.19-.01h.35c.14,0,.29,.01,.43,.04s.27,.09,.35,.2c.02,.03,.06,.09,.11,.18s.08,.14,.08,.15c0,.03-.03,.09-.08,.17s-.09,.14-.11,.17c-.02,.02-.07,.05-.13,.09s-.14,.1-.22,.15-.15,.1-.22,.15-.12,.07-.15,.08c-.02,.02-.04,.03-.08,.04s-.08,.02-.12,.02-.09,.01-.13,.02-.07,0-.08,0c-.2,.05-.4,.13-.6,.23s-.38,.22-.51,.36c-.03,.02-.08,.07-.15,.15s-.1,.14-.11,.15c-.09,.1-.18,.18-.29,.24s-.22,.12-.34,.17-.23,.11-.33,.18-.19,.14-.25,.25c-.02,.02-.04,.05-.07,.12s-.06,.13-.1,.21-.07,.14-.1,.21-.05,.1-.06,.11c-.02,.02-.05,.06-.09,.13s-.07,.12-.08,.12v.22c0,.2,.04,.38,.11,.54s.16,.31,.27,.45,.23,.27,.36,.4,.27,.27,.4,.42c.02,.02,.04,.06,.09,.12s.07,.11,.09,.12c.05,.06,.11,.14,.19,.24s.16,.19,.23,.29l.21,.25c.06,.07,.09,.11,.1,.12,.17,.18,.36,.34,.56,.49l.61,.43c.2,.14,.4,.29,.6,.45s.37,.33,.53,.52c.04,.04,.06,.08,.07,.12s.01,.09,.01,.15v.26c0,.05,0,.1-.01,.15s-.03,.09-.07,.13c-.02,.02-.05,.04-.09,.08l-.12,.12-.12,.12s-.06,.07-.07,.08h-.12c-.27,0-.55-.03-.82-.08s-.54-.08-.79-.08h-1.14c-.08,0-.19-.02-.33-.05s-.29-.06-.43-.12-.26-.12-.37-.2-.16-.17-.16-.28Z"/>
      <path class="cls-15" d="M226.52,71.8c0-.2,.05-.34,.15-.43s.23-.16,.38-.2,.3-.08,.46-.11,.29-.07,.4-.13l.07-.07,.07-.07c.12-.1,.23-.19,.31-.28s.15-.17,.21-.26,.11-.19,.15-.3,.09-.25,.15-.41c0-.02,.01-.05,.04-.11s.05-.11,.08-.18l.09-.18,.05-.11s0-.07,0-.14,0-.15,.02-.23,.02-.16,.02-.23,.01-.12,.01-.14c.03-.06,.06-.11,.08-.15s.04-.07,.06-.11,.02-.06,.02-.06c0-.02,.02-.08,.04-.16s.03-.18,.05-.28,.04-.2,.05-.29,.03-.14,.05-.16c.07-.32,.18-.64,.32-.96s.28-.63,.41-.93c0-.02,0-.06,.03-.12s.04-.11,.05-.12c0-.04,.02-.1,.05-.19s.05-.18,.08-.28,.05-.18,.08-.26,.04-.13,.05-.16c0,0,0-.03,.01-.07s.02-.08,.02-.13,.02-.09,.02-.13,.02-.07,.02-.08c0-.02,.01-.06,.04-.12s.04-.11,.04-.12l.12-.16s.08-.08,.11-.13,.06-.08,.09-.11,.08-.06,.17-.11,.19-.11,.3-.16,.21-.11,.31-.15,.16-.06,.18-.06c.11,0,.22,.05,.32,.15s.2,.23,.29,.39,.17,.33,.25,.52,.14,.38,.21,.56,.11,.35,.15,.49,.07,.25,.09,.32c0,.02,.01,.06,.04,.12s.04,.11,.04,.12c.16,.35,.29,.72,.39,1.11s.21,.78,.34,1.17v.33c.02,.1,.08,.19,.16,.25s.15,.14,.19,.23c0,.02,.01,.07,.04,.15s.06,.16,.09,.26,.07,.18,.11,.26,.06,.13,.08,.15c0,.02,.03,.06,.06,.14s.08,.16,.12,.26,.09,.18,.13,.26,.07,.13,.09,.15c0,0,0,.03,.02,.08s.03,.09,.04,.13,.03,.09,.05,.13,.03,.06,.04,.06c.05,.11,.13,.23,.25,.35s.24,.25,.36,.38,.23,.25,.32,.37,.14,.22,.14,.3c0,.12-.02,.24-.07,.36s-.13,.22-.26,.29c-.25,.02-.51,.05-.78,.09s-.53,.07-.78,.07h-.14c-.07,0-.19-.02-.36-.04s-.34-.04-.53-.05-.36-.03-.52-.04-.27-.02-.32-.03c-.22-.15-.33-.34-.33-.59,0-.19,.05-.32,.14-.4s.2-.15,.32-.21,.22-.14,.32-.25,.14-.27,.14-.5-.03-.42-.08-.55-.13-.23-.24-.3-.23-.11-.38-.12-.31-.02-.49-.02h-.94c-.1,.02-.21,.06-.32,.11s-.22,.12-.32,.19-.18,.17-.24,.26-.09,.21-.09,.32c0,.15,.04,.28,.11,.39s.16,.21,.25,.32,.18,.2,.25,.3,.11,.22,.11,.35c0,.21-.03,.37-.1,.47s-.15,.18-.26,.22-.24,.06-.39,.06-.31,0-.47,.01c-.03,0-.12,0-.26,.01s-.3,.02-.46,.03-.32,.02-.47,.03-.24,.01-.27,.01h-.16c-.05,0-.13-.02-.23-.03s-.21-.02-.31-.03-.2-.01-.28-.02-.13,0-.16,0c-.13-.03-.26-.1-.38-.21s-.18-.24-.18-.4Zm4.38-4.54c0,.14,.03,.25,.09,.34s.13,.15,.22,.21,.18,.08,.29,.1,.22,.02,.33,.02h.39c.09-.04,.14-.08,.16-.13s.03-.1,.03-.16c0,0-.01-.02-.01-.02v-.04s-.01-.04-.01-.06c0-.02-.03-.05-.06-.11s-.07-.11-.11-.18-.07-.12-.11-.18-.06-.09-.06-.11c-.03-.08-.05-.16-.07-.25s-.04-.17-.06-.25-.05-.16-.09-.23-.1-.13-.19-.19h-.11c-.09,0-.16,.02-.21,.06s-.07,.1-.09,.16-.03,.14-.04,.22-.01,.15-.03,.22c-.02,.06-.05,.12-.08,.16s-.05,.08-.08,.12-.05,.07-.07,.12-.03,.1-.03,.16Z"/>
      <path class="cls-15" d="M238.98,72.82c-.07-.02-.16-.07-.26-.15s-.15-.14-.15-.21c0-.16,.03-.28,.1-.36s.15-.14,.24-.19,.19-.1,.29-.16,.19-.14,.26-.27c0,0,.02-.04,.05-.09s.05-.11,.08-.18,.05-.13,.08-.2,.04-.12,.05-.16c0-.02,.02-.06,.04-.12s.04-.11,.05-.18,.03-.12,.04-.18,.02-.1,.03-.12c0,0,.02-.02,.02-.06s.02-.08,.02-.12l.02-.13s.01-.07,.01-.09c.02-.02,.04-.07,.06-.15s.04-.14,.04-.15c-.02-.02-.06-.08-.11-.17s-.07-.14-.08-.16v-.12c0-.09,.01-.19,.04-.28s.04-.18,.04-.28c0-.33-.03-.65-.08-.96s-.08-.64-.08-.99c0,0,0-.04,.01-.08s.02-.1,.03-.15,.02-.11,.03-.16,.01-.08,.01-.1v-1.68c-.02-.14-.07-.26-.17-.36s-.2-.18-.31-.22c-.04-.02-.11-.05-.2-.09s-.19-.08-.3-.12-.21-.08-.3-.12-.16-.06-.2-.08c-.02-.05-.06-.14-.1-.25s-.06-.19-.04-.23c0-.02,.02-.04,.06-.08s.07-.07,.08-.11c.03-.02,.09-.04,.17-.07s.14-.05,.17-.07h1.14s.07,0,.15,.01,.16,.02,.25,.03,.17,.02,.25,.03,.13,.01,.15,.01h.74s.05,0,.09,.02,.1,.03,.15,.05,.1,.04,.15,.05,.08,.03,.09,.04h.14c.3,0,.6-.03,.89-.08s.58-.08,.88-.08h.53c.17,.02,.32,.08,.45,.18s.26,.2,.38,.29c.36,.32,.64,.66,.83,1.01s.29,.79,.29,1.3c0,.25,0,.47-.03,.67s-.09,.41-.21,.63c-.02,.04-.06,.09-.12,.16s-.11,.14-.16,.22-.1,.14-.14,.21-.07,.1-.08,.12c-.05,.07-.12,.14-.19,.2s-.14,.13-.21,.19-.12,.14-.17,.21-.07,.16-.07,.25c0,.12,.02,.24,.06,.38s.1,.24,.18,.32c.15,.18,.32,.34,.53,.48s.37,.31,.5,.5c.02,0,.04,.02,.06,.07l.02,.07c.13,.2,.25,.38,.36,.53s.27,.31,.47,.46c.07,.05,.16,.11,.26,.16s.2,.11,.29,.18,.17,.14,.24,.23,.1,.2,.1,.32c0,.11-.05,.21-.15,.32s-.22,.19-.36,.26-.28,.13-.42,.18-.25,.06-.33,.06h-.38s-.05-.01-.12-.04-.11-.04-.12-.04h-.49c-.12,0-.23-.09-.33-.23s-.2-.32-.28-.51-.16-.38-.23-.56-.12-.32-.16-.42c0-.02-.01-.06-.04-.12s-.06-.12-.09-.19-.07-.13-.1-.19-.06-.11-.08-.13c-.05-.11-.15-.19-.28-.24s-.25-.11-.35-.17c-.02,0-.04-.02-.06-.05,0-.02-.02-.03-.02-.04s-.02-.03-.05-.06-.05-.07-.08-.11-.05-.07-.08-.1-.04-.05-.05-.05c0,0-.02-.01-.02-.02s-.02-.01-.02-.03c0,0-.02-.02-.02-.04-.02,0-.05-.03-.1-.05s-.1-.05-.16-.08-.1-.05-.15-.07-.07-.03-.08-.04l-.09-.09-.09-.09c-.11-.06-.23-.12-.36-.16s-.26-.06-.39-.06h-.06l-.05,.02s-.04,.03-.04,.05c0,.02-.02,.06-.05,.1s-.05,.09-.07,.14-.05,.1-.08,.14-.04,.08-.05,.1v.95c0,.16,0,.31,.03,.46s.07,.28,.16,.39c0,.02,.04,.07,.12,.18s.15,.18,.21,.23c.08,.09,.17,.15,.27,.19s.2,.08,.29,.13,.17,.11,.23,.18,.09,.19,.09,.35c0,.09-.04,.15-.12,.18s-.16,.04-.25,.04h-.22s-.09,0-.18,.01-.18,.02-.28,.02-.19,.02-.27,.02-.14,.02-.17,.02c-.02,0-.04,0-.08,.01s-.08,.02-.12,.03-.09,.02-.13,.03-.07,.01-.08,.01h-.08s-.04,0-.08-.01-.1-.02-.15-.03-.1-.02-.15-.03-.08-.01-.09-.01c-.06,0-.16,0-.3-.01s-.29-.01-.45-.01-.3,0-.44,.01-.23,.01-.29,.01Zm2.51-5.72h0s.03,.07,.05,.12,.05,.1,.08,.15,.05,.11,.07,.15,.04,.08,.05,.11h.57s.13-.02,.26-.05,.26-.05,.4-.08,.27-.05,.4-.08,.21-.05,.26-.06c.1-.08,.2-.18,.29-.3s.17-.25,.23-.39,.11-.29,.15-.43,.06-.29,.06-.41v-.05s0-.03-.01-.03c0-.02-.01-.07-.04-.16s-.04-.15-.04-.16c0-.02,0-.07,0-.14s0-.14-.02-.22-.02-.15-.03-.22-.02-.12-.03-.14c0-.02,0-.04-.02-.08s-.03-.07-.04-.08l-.18-.18-.25-.25c-.09-.09-.17-.16-.24-.23s-.12-.12-.15-.14c-.02-.02-.07-.04-.15-.08s-.15-.07-.19-.08l-.08-.04s-.08-.04-.13-.05-.09-.03-.13-.05-.06-.02-.07-.02h-.14s-.06,.03-.11,.05-.11,.06-.17,.09-.12,.07-.18,.11-.1,.06-.12,.08c-.11,.09-.18,.19-.21,.3s-.05,.24-.05,.37c0,.07,0,.14,0,.22s0,.14,0,.21v.13s-.01,.05-.04,.12-.04,.1-.04,.12v.07c0,.16,.02,.31,.05,.45s.05,.29,.05,.45-.02,.31-.05,.46-.05,.32-.05,.5Z"/>
      <path class="cls-15" d="M249.64,70.75v-.28s.02-.07,.07-.15,.07-.14,.07-.15c.04-.09,.07-.2,.11-.31s.07-.22,.11-.32,.1-.19,.18-.26,.17-.11,.3-.11h.12s.05,.04,.09,.11,.07,.12,.09,.16c.1,.19,.21,.4,.33,.64s.26,.46,.42,.66,.34,.38,.55,.52,.45,.21,.72,.21c.1,0,.23-.04,.39-.11s.32-.16,.47-.26,.29-.21,.4-.32,.19-.21,.21-.3c.03-.09,.06-.18,.08-.26s.03-.16,.03-.25c0-.07,0-.15-.02-.23s-.04-.18-.08-.29c0-.09-.08-.22-.24-.39s-.35-.33-.56-.49-.41-.31-.61-.44-.33-.22-.4-.26c-.09-.03-.17-.05-.26-.05s-.16-.03-.22-.09c0-.02-.03-.04-.06-.07s-.07-.06-.11-.1-.07-.07-.11-.1-.05-.05-.06-.05c-.02-.03-.06-.08-.15-.13s-.14-.1-.18-.13l-.15-.08s-.07-.06-.13-.12-.13-.12-.2-.19l-.2-.2-.13-.13c-.05-.13-.09-.27-.13-.4s-.08-.27-.12-.41c0-.04-.02-.09-.04-.16s-.03-.14-.05-.21-.04-.12-.05-.18-.02-.08-.02-.09c-.02-.21,0-.43,.05-.66s.12-.45,.21-.66,.21-.41,.35-.59,.29-.33,.45-.45c0-.02,.05-.03,.12-.05s.12-.04,.13-.05c.12-.05,.25-.12,.39-.22s.29-.2,.43-.29,.3-.18,.45-.25,.29-.11,.42-.11,.28,.03,.45,.09,.31,.11,.44,.15c.21,.07,.41,.14,.6,.2s.36,.14,.52,.25,.27,.23,.36,.39,.13,.36,.13,.61c0,.09,0,.21-.03,.37s-.05,.32-.1,.47-.11,.29-.19,.4-.19,.17-.32,.17h-.08s-.04-.07-.08-.16-.07-.15-.08-.16c-.11-.2-.23-.38-.36-.56s-.27-.34-.43-.47-.33-.24-.52-.32-.4-.12-.63-.12c-.07,0-.15,0-.24,.01s-.17,.04-.25,.08c-.27,.2-.47,.42-.6,.64s-.21,.51-.21,.86c0,.19,.04,.36,.13,.51s.2,.29,.33,.4,.28,.22,.45,.3,.32,.15,.48,.2c0,0,.04,.02,.08,.02s.1,.02,.16,.02,.11,.02,.16,.02,.07,.01,.08,.01c.02,0,.04,.01,.08,.04s.07,.04,.08,.04c.17,.12,.35,.25,.53,.37s.36,.25,.54,.38,.35,.27,.51,.42,.31,.31,.45,.48c0,0,.02,.04,.05,.08s.05,.1,.08,.16l.08,.18c.03,.06,.05,.1,.06,.13,0,.02,0,.05,0,.09s0,.1,.02,.15,.02,.11,.02,.16,.02,.08,.04,.09c.03,.09,.07,.18,.11,.25s.09,.15,.13,.22,.08,.14,.11,.21,.05,.15,.05,.25c0,.25-.05,.48-.16,.69s-.21,.43-.32,.67c-.11,.16-.24,.32-.4,.48s-.3,.29-.42,.39c-.31,.27-.67,.47-1.08,.58s-.8,.17-1.17,.17c-.28,0-.57-.02-.86-.05s-.55-.1-.8-.21c-.02,0-.05-.03-.09-.05s-.1-.06-.16-.09-.11-.07-.16-.1-.08-.05-.1-.06c-.16-.09-.29-.18-.41-.25s-.22-.16-.3-.25-.14-.21-.18-.34-.06-.3-.06-.52Z"/>
      <path class="cls-15" d="M264.15,71.77c0-.1,.04-.18,.13-.24s.18-.11,.28-.16,.19-.1,.28-.15,.13-.12,.13-.21c0-.13-.04-.29-.13-.46s-.18-.31-.28-.42c-.02-.02-.07-.08-.15-.18s-.16-.2-.25-.31-.17-.21-.25-.32-.13-.16-.15-.19c-.16-.19-.32-.35-.48-.48s-.34-.3-.52-.49c0,0-.03,0-.06,0s-.06,0-.08,0c-.1,0-.19,.03-.26,.08s-.13,.12-.18,.21-.08,.18-.11,.28-.04,.19-.05,.26c0,.05-.02,.12-.03,.23s-.03,.23-.04,.36-.03,.25-.05,.37l-.04,.25v.27s.01,.03,.04,.06,.06,.08,.09,.13,.07,.1,.12,.16,.08,.1,.1,.13c.05,.08,.13,.14,.22,.19s.18,.11,.27,.16,.17,.13,.23,.21,.09,.18,.09,.29c0,.1-.03,.19-.1,.25s-.15,.12-.24,.15-.19,.06-.29,.08-.19,.02-.26,.02h-2.13s-.08,0-.16,.01-.18,.02-.28,.03-.2,.02-.28,.04-.14,.02-.16,.03h-.19c-.11,0-.23-.04-.35-.13s-.19-.19-.19-.32v-.06s.01-.06,.04-.1,.05-.09,.08-.15,.05-.1,.08-.15,.04-.08,.05-.1c.03-.06,.08-.1,.14-.12s.13-.03,.2-.03,.14,0,.21-.02,.14-.04,.2-.08c.13-.11,.23-.24,.29-.38s.15-.29,.26-.43c0-.1,0-.26,.02-.47s.02-.46,.04-.73,.02-.56,.04-.86,.02-.59,.04-.86,.02-.52,.03-.73,.01-.37,.01-.47c0,0,0-.05,0-.13s0-.17,0-.26,0-.2,0-.3,0-.18,0-.23c0-.04,0-.1,0-.19s0-.19,0-.29,0-.2,0-.28,0-.14,0-.18c-.03-.12-.06-.26-.09-.39s-.08-.26-.15-.36c-.09-.12-.18-.2-.28-.23s-.21-.07-.32-.11-.22-.08-.32-.13-.21-.17-.3-.33c-.06-.12-.09-.25-.09-.36,0-.13,.04-.21,.11-.24s.17-.04,.28-.04c.24,0,.48,.01,.73,.04s.48,.05,.72,.07,.48,.04,.71,.06,.48,.02,.73,0c.05,.02,.12,.05,.21,.11s.18,.12,.27,.19,.16,.15,.23,.23,.1,.14,.1,.2c0,.06-.03,.12-.09,.17s-.13,.1-.21,.16-.15,.11-.23,.18-.12,.13-.15,.21v1.86c0,.09,.02,.18,.02,.27s.03,.18,.06,.25,.07,.13,.12,.18,.12,.07,.22,.07c.02,0,.05,0,.09-.01s.06-.01,.08-.01c0,0,.04-.03,.09-.07s.1-.08,.16-.13,.11-.09,.15-.13,.08-.06,.09-.07c.03-.04,.09-.09,.18-.15s.13-.1,.14-.12c.02,0,.06,0,.12-.02s.1-.04,.1-.06c.12-.08,.23-.18,.34-.29s.21-.24,.3-.38,.17-.27,.23-.42,.11-.3,.13-.45c-.02-.02-.05-.07-.08-.14s-.06-.14-.1-.22-.07-.15-.09-.22-.04-.12-.04-.15c0-.04-.02-.07-.02-.11-.02-.08-.02-.14-.02-.18s0-.1,.02-.18c0-.03,.02-.07,.02-.11,0-.02,.04-.06,.09-.12s.1-.11,.14-.12c.02,0,.07-.02,.13-.04l.21-.05c.08-.02,.15-.04,.23-.05s.13-.02,.17-.02h.89s.04,0,.08-.01,.08-.01,.12-.02,.08,0,.12-.02,.06-.01,.07-.01c.04,0,.11-.02,.2-.03s.19-.02,.29-.03,.2-.02,.29-.02,.15-.01,.19-.01h.35c.14,0,.29,.01,.43,.04s.27,.09,.35,.2c.02,.03,.06,.09,.11,.18s.08,.14,.08,.15c0,.03-.03,.09-.08,.17s-.09,.14-.11,.17c-.02,.02-.07,.05-.13,.09s-.14,.1-.22,.15-.15,.1-.22,.15-.12,.07-.15,.08c-.02,.02-.04,.03-.08,.04s-.08,.02-.12,.02-.09,.01-.13,.02-.07,0-.08,0c-.2,.05-.4,.13-.6,.23s-.38,.22-.51,.36c-.03,.02-.08,.07-.15,.15s-.1,.14-.11,.15c-.09,.1-.18,.18-.29,.24s-.22,.12-.34,.17-.23,.11-.33,.18-.19,.14-.25,.25c-.02,.02-.04,.05-.07,.12s-.06,.13-.1,.21-.07,.14-.1,.21-.05,.1-.06,.11c-.02,.02-.05,.06-.09,.13s-.07,.12-.08,.12v.22c0,.2,.04,.38,.11,.54s.16,.31,.27,.45,.23,.27,.36,.4,.27,.27,.4,.42c.02,.02,.04,.06,.09,.12s.07,.11,.09,.12c.05,.06,.11,.14,.19,.24s.16,.19,.23,.29l.21,.25c.06,.07,.09,.11,.1,.12,.17,.18,.36,.34,.56,.49l.61,.43c.2,.14,.4,.29,.6,.45s.37,.33,.53,.52c.04,.04,.06,.08,.07,.12s.01,.09,.01,.15v.26c0,.05,0,.1-.01,.15s-.03,.09-.07,.13c-.02,.02-.05,.04-.09,.08l-.12,.12-.12,.12s-.06,.07-.07,.08h-.12c-.27,0-.55-.03-.82-.08s-.54-.08-.79-.08h-1.14c-.08,0-.19-.02-.33-.05s-.29-.06-.43-.12-.26-.12-.37-.2-.16-.17-.16-.28Z"/>
      <path class="cls-15" d="M274.32,72.69s-.1-.04-.2-.08-.17-.07-.21-.08h-.3c-.05,0-.13,.02-.24,.02l-.32,.02c-.11,0-.2,.02-.28,.03s-.13,.02-.16,.03c0,0-.05,0-.12,.03s-.11,.03-.12,.03h-.08s-.05,0-.11-.03-.1-.03-.11-.03c-.16-.02-.33-.04-.5-.04s-.32-.02-.45-.05-.24-.1-.33-.19-.13-.25-.13-.46c0-.23,.07-.38,.22-.46s.32-.14,.52-.19,.4-.09,.6-.15,.36-.17,.47-.34v-.08c0-.13-.02-.27-.05-.4s-.05-.28-.05-.43c0-.51,.02-1.01,.06-1.5s.08-.98,.1-1.48v-1c.02-.2,.04-.41,.09-.62s.06-.43,.06-.66c0-.25-.03-.48-.08-.7s-.16-.43-.32-.64c-.02,0-.03-.02-.05-.05s-.04-.05-.05-.07c-.02-.03-.04-.06-.06-.08h-.91s-.06-.04-.14-.13-.13-.16-.16-.22c0-.02-.01-.04-.01-.06,0-.02-.01-.06-.01-.11,0-.09,.02-.16,.07-.22s.11-.11,.19-.15,.16-.07,.25-.09,.18-.03,.26-.04h.95c.08-.07,.16-.12,.23-.13s.16-.03,.26-.03c.07,0,.14,0,.22,.01s.16,.01,.25,.01h.12s.07-.01,.15-.04,.14-.04,.18-.04c.02,0,.05,0,.11,.03s.1,.04,.11,.05h1.48s.05-.03,.12-.05,.11-.03,.13-.03c.02,0,.04,.02,.06,.02,.02,0,.03,.02,.05,.03s.04,.02,.05,.03c.03,.02,.08,.04,.13,.08s.1,.06,.11,.06c.03,.04,.07,.09,.11,.15s.09,.12,.13,.18,.08,.11,.11,.16,.05,.08,.05,.09v.22l-.11,.04s-.1,.04-.15,.06-.1,.04-.15,.06l-.11,.04s-.05,.02-.11,.07-.1,.07-.11,.07c-.11,.07-.22,.14-.32,.2s-.2,.13-.29,.21-.16,.16-.22,.26-.08,.22-.08,.36c0,.12,.02,.23,.05,.34s.05,.22,.05,.33v.12s0,.05-.01,.09-.02,.1-.03,.15-.02,.1-.03,.15-.01,.08-.01,.1v1.12c-.02,.16-.06,.31-.13,.45s-.11,.29-.11,.45c0,.07,0,.14,.03,.22s.03,.15,.03,.22v.14c-.03,.27-.06,.55-.09,.84s-.05,.58-.05,.88v.14c.02,.15,.04,.3,.06,.45s.05,.29,.09,.42,.12,.23,.22,.31,.25,.12,.43,.12c.11,0,.2-.03,.27-.09s.16-.09,.26-.09h.05s.06,0,.06,.02c.02,.02,.06,.04,.12,.09s.12,.09,.18,.14,.12,.1,.17,.15,.09,.08,.11,.11c.05,.04,.12,.1,.21,.19s.12,.18,.12,.28v.02c-.04,.1-.1,.21-.19,.32s-.16,.2-.22,.27c0,0-.02,.01-.05,.04-.02,0-.03,.02-.04,.02,0,0-.04,0-.09,.01s-.11,.02-.16,.03-.12,.02-.18,.03-.1,.01-.13,.01h-.27c-.05,0-.15,0-.3-.01s-.3-.02-.46-.03-.32-.02-.46-.03-.25-.01-.31-.01Z"/>
    </g>
    <g>
      <line class="cls-4" x1="260.75" y1="20.4" x2="256.8" y2="30.79"/>
      <path class="cls-10" d="M255.12,29.18s-2.32,1.72-3.02,3.24c0,0,1.46-.99,3.02-3.24Z"/>
      <path class="cls-16" d="M253.59,42.17l-.76,1.53-2.8,5.64c-.17,.07-.25,.11-.3,.08-.05-.03-.07-.11-.12-.27,0-.02,1.22-3.65,1.97-5.87,.33-.98,.57-1.69,.57-1.69l1.22,.49,.23,.09Z"/>
      <path class="cls-12" d="M261.55,21.83c-.84,.69-1.55,1.14-1.55,1.14-2.21-9.16,2.66-6.99,2.66-6.99,.28,.13,.52,.26,.72,.41,2.23,1.56-.09,4.01-1.83,5.45Z"/>
      <polygon class="cls-6" points="258.5 30.68 255.9 29.72 259.53 20.49 262.13 21.45 258.5 30.68"/>
      <path class="cls-3" d="M260.22,21.58s-2.63,6.2-2.47,6.5,2.47-6.5,2.47-6.5Z"/>
      <path class="cls-9" d="M260.13,36.43l-9.24-3.52c.06-.13,.13-.25,.2-.38l9.13,3.48c-.03,.14-.06,.28-.1,.42Z"/>
      <path class="cls-16" d="M257.8,40.82c-1.28,1.51-3.1,3.09-4.97,2.88-.15-.01-.31-.04-.46-.09-.08-.02-.16-.04-.23-.07-.2-.07-.39-.16-.56-.27,0,0-.01,0-.01-.01-.66-.41-1.1-1.07-1.38-1.83-.46-1.22-.53-2.73-.47-4.01,.08-1.58,.46-3.13,1.18-4.51l9.24,3.52c-.42,1.61-1.23,3.11-2.32,4.39Z"/>
      <path class="cls-14" d="M260.23,36.01l-9.13-3.48c.23-.4,.49-.79,.77-1.16,1.46-1.86,3.28-2.95,4.93-2.85,.24,.01,.46,.05,.69,.11,.09,.03,.19,.06,.28,.09,1.76,.67,2.71,2.79,2.68,5.4,0,.64-.08,1.26-.22,1.88Z"/>
      <path class="cls-13" d="M257.8,40.82c-1.28,1.51-3.1,3.09-4.97,2.88l-2.8,5.64c-.17,.07-.25,.11-.3,.08,.63-1.4,2.05-4.25,2.65-5.8,.03-.09,.06-.18,.09-.26,.05-.23,.39-.69,.9-1.27,1.49-1.75,4.36-4.67,4.88-6.37,.04-.14,.08-.27,.12-.41,.58-2.35-.09-4.33-.83-5.67-.06-.11-.12-.2-.18-.29-.19-.31-.38-.59-.55-.81,.24,.01,.46,.05,.69,.11,.04,0,.07,.02,.11,.04,.06,.01,.11,.03,.17,.06,.03,.01,.06,.02,.08,.04,1.71,.7,2.63,2.8,2.59,5.36,0,.64-.08,1.26-.22,1.88-.03,.14-.06,.28-.1,.42-.42,1.61-1.23,3.11-2.32,4.39Z"/>
      <line class="cls-1" x1="259.46" y1="20.68" x2="262.04" y2="21.66"/>
      <path class="cls-7" d="M262.68,20.04l-.22-.08c1.16-.77,1.16-1.64,.98-2.19,.93,.65-.04,1.67-.76,2.27Z"/>
      <path class="cls-8" d="M261.23,16.85s-.54,.3-.59,.74c0,0,.6-.52,.59-.74Z"/>
      <circle class="cls-2" cx="249.67" cy="49.52" r=".22"/>
      <path class="cls-5" d="M255.3,30.17s-2.08,1.4-1.97,2.14,3.33-2.88,1.97-2.14Z"/>
    </g>
  </g>
</svg>